ISO-10303-21;
HEADER;
FILE_DESCRIPTION (( 'STEP AP203' ),
    '1' );
FILE_NAME ('EJE LARGO_Predeterminado_sldprt.STEP',
    '2026-04-21T20:27:21',
    ( '' ),
    ( '' ),
    'SwSTEP 2.0',
    'SolidWorks 2025',
    '' );
FILE_SCHEMA (( 'CONFIG_CONTROL_DESIGN' ));
ENDSEC;

DATA;
#1 = ORIENTED_EDGE ( 'NONE', *, *, #549, .T. ) ;
#2 = VECTOR ( 'NONE', #553, 1000.000000000000114 ) ;
#3 = PLANE ( 'NONE',  #1007 ) ;
#4 = LOCAL_TIME ( 14, 27, 21.00000000000000000, #977 ) ;
#5 = CARTESIAN_POINT ( 'NONE',  ( -4.339571582199912569, 1.199344597421051928, 20.57807430569445373 ) ) ;
#6 = DIRECTION ( 'NONE',  ( -0.000000000000000000, -0.000000000000000000, 1.000000000000000000 ) ) ;
#7 = CARTESIAN_POINT ( 'NONE',  ( 4.259497701053381213, 1.451584965278953421, 56.10927185373995485 ) ) ;
#8 = ORIENTED_EDGE ( 'NONE', *, *, #724, .F. ) ;
#9 = DIRECTION ( 'NONE',  ( -0.000000000000000000, -0.000000000000000000, -1.000000000000000000 ) ) ;
#10 = CARTESIAN_POINT ( 'NONE',  ( 4.486297499277578815, -0.3953647849264968483, 22.96012552020695097 ) ) ;
#11 = CARTESIAN_POINT ( 'NONE',  ( -4.484049293906037015, -0.3906755200203856360, 57.95156121777205271 ) ) ;
#12 = DIRECTION ( 'NONE',  ( 1.000000000000000000, 0.000000000000000000, 0.000000000000000000 ) ) ;
#13 = PERSON_AND_ORGANIZATION ( #804, #824 ) ;
#14 = CARTESIAN_POINT ( 'NONE',  ( 4.451255231312102545, 0.6668234931441778812, 57.84720265415354135 ) ) ;
#15 = ORIENTED_EDGE ( 'NONE', *, *, #1045, .F. ) ;
#16 = DIRECTION ( 'NONE',  ( 0.000000000000000000, 0.000000000000000000, -1.000000000000000000 ) ) ;
#17 = CARTESIAN_POINT ( 'NONE',  ( 4.339825045847905294, -1.198380920534388050, 22.42304304767788992 ) ) ;
#18 = CARTESIAN_POINT ( 'NONE',  ( 4.406655855142592948, 0.9155261477763335654, 20.30780601927152063 ) ) ;
#19 = APPLICATION_CONTEXT ( 'configuration controlled 3d designs of mechanical parts and assemblies' ) ;
#20 = CARTESIAN_POINT ( 'NONE',  ( -5.500000000000000000, 0.000000000000000000, 19.99999999999999645 ) ) ;
#21 = AXIS2_PLACEMENT_3D ( 'NONE', #337, #902, #346 ) ;
#22 = DATE_AND_TIME ( #803, #4 ) ;
#23 = CARTESIAN_POINT ( 'NONE',  ( 4.306095397713890272, 1.309156772915553990, 57.25833863523298106 ) ) ;
#24 = ORIENTED_EDGE ( 'NONE', *, *, #351, .F. ) ;
#25 = FACE_OUTER_BOUND ( 'NONE', #741, .T. ) ;
#26 = CARTESIAN_POINT ( 'NONE',  ( 4.246172099874243600, -1.490114380454420129, 21.69810592833114526 ) ) ;
#27 = CARTESIAN_POINT ( 'NONE',  ( 4.305940152248599162, 1.309626699812709516, 20.74293866681691156 ) ) ;
#28 = VECTOR ( 'NONE', #436, 1000.000000000000000 ) ;
#29 = VECTOR ( 'NONE', #371, 1000.000000000000000 ) ;
#30 = CALENDAR_DATE ( 2026, 21, 4 ) ;
#31 = EDGE_CURVE ( 'NONE', #992, #197, #1030, .T. ) ;
#32 = CARTESIAN_POINT ( 'NONE',  ( 4.257372138346055657, -1.459794066971209947, 21.10364797188994501 ) ) ;
#33 = CARTESIAN_POINT ( 'NONE',  ( 4.451135578011182758, 0.6676459985335857494, 20.15318962748232323 ) ) ;
#34 = LINE ( 'NONE', #45, #113 ) ;
#35 = DIRECTION ( 'NONE',  ( 0.000000000000000000, 0.000000000000000000, 1.000000000000000000 ) ) ;
#36 = EDGE_CURVE ( 'NONE', #765, #705, #246, .T. ) ;
#37 = EDGE_LOOP ( 'NONE', ( #790, #784, #134, #671 ) ) ;
#38 = EDGE_CURVE ( 'NONE', #438, #862, #344, .T. ) ;
#39 = ORIENTED_EDGE ( 'NONE', *, *, #917, .T. ) ;
#40 = MANIFOLD_SOLID_BREP ( 'Cortar-Extruir2', #935 ) ;
#41 = DIRECTION ( 'NONE',  ( 1.255483712953019263E-16, -1.000000000000000000, 0.000000000000000000 ) ) ;
#42 = AXIS2_PLACEMENT_3D ( 'NONE', #160, #176, #80 ) ;
#43 = EDGE_CURVE ( 'NONE', #656, #182, #470, .T. ) ;
#44 = EDGE_LOOP ( 'NONE', ( #455, #51, #699, #500 ) ) ;
#45 = CARTESIAN_POINT ( 'NONE',  ( -5.500000000000000000, 6.735557395310442023E-16, -4.000000000000000000 ) ) ;
#46 = B_SPLINE_CURVE_WITH_KNOTS ( 'NONE', 3,
 ( #87, #329, #269, #595, #178, #736, #920, #5, #828, #652, #101, #189, #514, #839, #749, #1003, #895, #951, #836, #181, #242, #825, #165, #734, #816, #411, #110, #832 ),
 .UNSPECIFIED., .F., .F.,
 ( 4, 2, 2, 2, 2, 2, 2, 2, 2, 2, 2, 2, 2, 4 ),
 ( 0.004723735807370614548, 0.005314052446406370735, 0.005609210765924250996, 0.005904369085442131258, 0.006494685724477892649, 0.006789844043995772044, 0.007085002363513653173, 0.007380160683031532567, 0.007675319002549413697, 0.008265635641585174220, 0.008560793961103053615, 0.008855952280620934744, 0.009151110600138814138, 0.009446268919656695268 ),
 .UNSPECIFIED. ) ;
#47 = EDGE_CURVE ( 'NONE', #701, #609, #107, .T. ) ;
#48 = CARTESIAN_POINT ( 'NONE',  ( 4.437247950896255233, 0.7534152740631457901, 20.19927710877537663 ) ) ;
#49 = CARTESIAN_POINT ( 'NONE',  ( 4.437126068857709882, -0.7541308447162522466, 57.80030912590326864 ) ) ;
#50 = CARTESIAN_POINT ( 'NONE',  ( -4.257372138346057433, -1.459794066971210391, 21.89635202811005499 ) ) ;
#51 = ORIENTED_EDGE ( 'NONE', *, *, #115, .F. ) ;
#52 = ORIENTED_EDGE ( 'NONE', *, *, #207, .F. ) ;
#53 = CARTESIAN_POINT ( 'NONE',  ( 0.7499999999999988898, -4.266459857533320132, 80.66931088352666279 ) ) ;
#54 = VECTOR ( 'NONE', #700, 1000.000000000000114 ) ;
#55 = CC_DESIGN_APPROVAL ( #623, ( #972 ) ) ;
#56 = CARTESIAN_POINT ( 'NONE',  ( -4.269313439855533687, -1.422868748465342392, 56.01501087615587693 ) ) ;
#57 = B_SPLINE_CURVE_WITH_KNOTS ( 'NONE', 3,
 ( #201, #530, #854, #126 ),
 .UNSPECIFIED., .F., .F.,
 ( 4, 4 ),
 ( 0.000000000000000000, 0.002855917891358401937 ),
 .UNSPECIFIED. ) ;
#58 = EDGE_LOOP ( 'NONE', ( #481, #919, #735, #945 ) ) ;
#59 = ORIENTED_EDGE ( 'NONE', *, *, #486, .F. ) ;
#60 = CARTESIAN_POINT ( 'NONE',  ( -4.500000000000000000, 0.000000000000000000, 78.00000000000000000 ) ) ;
#61 = FACE_OUTER_BOUND ( 'NONE', #487, .T. ) ;
#62 = AXIS2_PLACEMENT_3D ( 'NONE', #76, #496, #1042 ) ;
#63 = CARTESIAN_POINT ( 'NONE',  ( 0.000000000000000000, 0.000000000000000000, -4.000000000000000000 ) ) ;
#64 = CARTESIAN_POINT ( 'NONE',  ( -0.7499999999999986677, -4.943429983321296461, 82.00000000000000000 ) ) ;
#65 = ORIENTED_EDGE ( 'NONE', *, *, #198, .F. ) ;
#66 = EDGE_CURVE ( 'NONE', #628, #969, #300, .T. ) ;
#67 = DIRECTION ( 'NONE',  ( -0.000000000000000000, -0.000000000000000000, 1.000000000000000000 ) ) ;
#68 = FACE_OUTER_BOUND ( 'NONE', #99, .T. ) ;
#69 = VERTEX_POINT ( 'NONE', #762 ) ;
#70 = CARTESIAN_POINT ( 'NONE',  ( 4.500000000000001776, 0.1967303618451789748, 23.00000000000000355 ) ) ;
#71 = EDGE_CURVE ( 'NONE', #973, #188, #834, .T. ) ;
#72 = CIRCLE ( 'NONE', #477, 3.000000000000030198 ) ;
#73 = CARTESIAN_POINT ( 'NONE',  ( -3.000000000000030198, 0.000000000000000000, 82.00000000000000000 ) ) ;
#74 = ORIENTED_EDGE ( 'NONE', *, *, #504, .F. ) ;
#75 = LINE ( 'NONE', #792, #587 ) ;
#76 = CARTESIAN_POINT ( 'NONE',  ( -5.500000000000000000, 0.000000000000000000, 21.50000000000000000 ) ) ;
#77 = DATE_TIME_ROLE ( 'creation_date' ) ;
#78 = EDGE_CURVE ( 'NONE', #783, #166, #922, .T. ) ;
#79 = EDGE_CURVE ( 'NONE', #287, #888, #673, .T. ) ;
#80 = DIRECTION ( 'NONE',  ( 1.000000000000000000, 0.000000000000000000, 0.000000000000000000 ) ) ;
#81 = ORIENTED_EDGE ( 'NONE', *, *, #79, .T. ) ;
#82 = CARTESIAN_POINT ( 'NONE',  ( -4.437052314167884148, 0.7545581038697685150, 55.19994276725491034 ) ) ;
#83 = FACE_OUTER_BOUND ( 'NONE', #149, .T. ) ;
#84 = CARTESIAN_POINT ( 'NONE',  ( -5.500000000000000000, 1.836970198721030674E-16, 23.00000000000000000 ) ) ;
#85 = ORIENTED_EDGE ( 'NONE', *, *, #932, .F. ) ;
#86 = CARTESIAN_POINT ( 'NONE',  ( -5.500000000000000000, 0.000000000000000000, 21.50000000000000000 ) ) ;
#87 = CARTESIAN_POINT ( 'NONE',  ( -4.500000000000000000, 6.485572600620235297E-20, 19.99999999999999645 ) ) ;
#88 = CARTESIAN_POINT ( 'NONE',  ( -4.484052808937645906, 0.3906288402496453926, 57.95157199836474859 ) ) ;
#89 = PLANE ( 'NONE',  #277 ) ;
#90 = CARTESIAN_POINT ( 'NONE',  ( 4.389965423269425848, 0.9916051772751717230, 57.62974014034071502 ) ) ;
#91 = EDGE_LOOP ( 'NONE', ( #394, #456, #385, #321, #232, #853, #215, #692, #900, #446 ) ) ;
#92 = AXIS2_PLACEMENT_3D ( 'NONE', #194, #35, #1009 ) ;
#93 = DIRECTION ( 'NONE',  ( -1.000000000000000000, 0.000000000000000000, 0.000000000000000000 ) ) ;
#94 = AXIS2_PLACEMENT_3D ( 'NONE', #358, #840, #511 ) ;
#95 = CARTESIAN_POINT ( 'NONE',  ( 4.474575329174472316, -0.4863510157512678789, 20.07763740010076958 ) ) ;
#96 = DIRECTION ( 'NONE',  ( 1.000000000000000000, 0.000000000000000000, 0.000000000000000000 ) ) ;
#97 = FACE_OUTER_BOUND ( 'NONE', #861, .T. ) ;
#98 = DIRECTION ( 'NONE',  ( 0.000000000000000000, 0.000000000000000000, -1.000000000000000000 ) ) ;
#99 = EDGE_LOOP ( 'NONE', ( #960, #550 ) ) ;
#100 = DIRECTION ( 'NONE',  ( 0.000000000000000000, 0.000000000000000000, 1.000000000000000000 ) ) ;
#101 = CARTESIAN_POINT ( 'NONE',  ( -4.259560232314936634, 1.451400685683948755, 21.10875345295637118 ) ) ;
#102 = CARTESIAN_POINT ( 'NONE',  ( 4.484052808937647683, 0.3906288402496457257, 20.04842800163526917 ) ) ;
#103 = LINE ( 'NONE', #424, #114 ) ;
#104 = CALENDAR_DATE ( 2026, 21, 4 ) ;
#105 = DIRECTION ( 'NONE',  ( 0.000000000000000000, 0.000000000000000000, 1.000000000000000000 ) ) ;
#106 = ORIENTED_EDGE ( 'NONE', *, *, #36, .F. ) ;
#107 = LINE ( 'NONE', #981, #768 ) ;
#108 = AXIS2_PLACEMENT_3D ( 'NONE', #898, #105, #997 ) ;
#109 = CARTESIAN_POINT ( 'NONE',  ( 0.000000000000000000, 0.000000000000000000, 68.00000000000000000 ) ) ;
#110 = CARTESIAN_POINT ( 'NONE',  ( -4.500000000000000888, 0.09985389111291838315, 23.00000000000000355 ) ) ;
#111 = ORIENTED_EDGE ( 'NONE', *, *, #292, .T. ) ;
#112 = CARTESIAN_POINT ( 'NONE',  ( -4.500000000000000000, 0.000000000000000000, 78.00000000000000000 ) ) ;
#113 = VECTOR ( 'NONE', #359, 1000.000000000000000 ) ;
#114 = VECTOR ( 'NONE', #41, 1000.000000000000000 ) ;
#115 = EDGE_CURVE ( 'NONE', #973, #888, #46, .T. ) ;
#116 = CARTESIAN_POINT ( 'NONE',  ( -5.500000000000000000, 0.000000000000000000, 55.00000000000000000 ) ) ;
#117 = VERTEX_POINT ( 'NONE', #1053 ) ;
#118 = FACE_OUTER_BOUND ( 'NONE', #58, .T. ) ;
#119 = ORIENTED_EDGE ( 'NONE', *, *, #351, .T. ) ;
#120 = EDGE_CURVE ( 'NONE', #492, #765, #441, .T. ) ;
#121 = B_SPLINE_CURVE_WITH_KNOTS ( 'NONE', 3,
 ( #678, #597, #925, #11, #263, #584, #338, #852, #590, #659, #989, #200, #527, #179, #56, #703, #221, #460, #472, #1023, #612, #392, #780, #941 ),
 .UNSPECIFIED., .F., .F.,
 ( 4, 2, 2, 2, 2, 2, 2, 2, 2, 2, 2, 4 ),
 ( 2.936453512982874415E-19, 0.0002952334879606649271, 0.0005904669759213297458, 0.001180933951842651252, 0.001771400927763972649, 0.002361867903685294697, 0.002657101391645955504, 0.002952334879606616311, 0.003542801855527937926, 0.003838035343488606106, 0.004133268831449273852, 0.004723735807370616283 ),
 .UNSPECIFIED. ) ;
#122 = CARTESIAN_POINT ( 'NONE',  ( 4.339794423254528688, -1.198387325809531001, 55.57718977253826154 ) ) ;
#123 = EDGE_CURVE ( 'NONE', #888, #166, #158, .T. ) ;
#124 = CARTESIAN_POINT ( 'NONE',  ( 4.246207197890973006, 1.490014011914523318, 21.69873614486494873 ) ) ;
#125 = CIRCLE ( 'NONE', #195, 4.500000000000000000 ) ;
#126 = CARTESIAN_POINT ( 'NONE',  ( 0.7500000000000000000, 4.943429983321296461, 80.00000000000004263 ) ) ;
#127 = CARTESIAN_POINT ( 'NONE',  ( 4.500000000000001776, -0.09987932106357344519, 55.00000000000000000 ) ) ;
#128 = ORIENTED_EDGE ( 'NONE', *, *, #504, .T. ) ;
#129 = CARTESIAN_POINT ( 'NONE',  ( -4.406514915713258596, -0.9162026956332812722, 20.30832480332347245 ) ) ;
#130 = ORIENTED_EDGE ( 'NONE', *, *, #465, .T. ) ;
#131 = ORIENTED_EDGE ( 'NONE', *, *, #79, .F. ) ;
#132 = ORIENTED_EDGE ( 'NONE', *, *, #190, .F. ) ;
#133 = AXIS2_PLACEMENT_3D ( 'NONE', #884, #975, #578 ) ;
#134 = ORIENTED_EDGE ( 'NONE', *, *, #78, .F. ) ;
#135 = CC_DESIGN_APPROVAL ( #914, ( #722 ) ) ;
#136 = CARTESIAN_POINT ( 'NONE',  ( -4.339825045847905294, -1.198380920534388716, 20.57695695232210298 ) ) ;
#137 = EDGE_CURVE ( 'NONE', #628, #1046, #984, .T. ) ;
#138 = CARTESIAN_POINT ( 'NONE',  ( 5.500000000000000000, 0.000000000000000000, 0.000000000000000000 ) ) ;
#139 = ORIENTED_EDGE ( 'NONE', *, *, #382, .T. ) ;
#140 = CARTESIAN_POINT ( 'NONE',  ( 4.500000000000000000, -3.024722713679675887E-16, 55.00000000000000000 ) ) ;
#141 = DIRECTION ( 'NONE',  ( 0.000000000000000000, 0.000000000000000000, -1.000000000000000000 ) ) ;
#142 = CARTESIAN_POINT ( 'NONE',  ( 4.339825045847905294, -1.198380920534387162, 57.42304304767791479 ) ) ;
#143 = CARTESIAN_POINT ( 'NONE',  ( -4.439398201102621400, -0.7584130536606605855, 22.80897683115225760 ) ) ;
#144 = CARTESIAN_POINT ( 'NONE',  ( -0.7500000000000000000, 4.943429983321296461, 82.00000000000000000 ) ) ;
#145 = EDGE_LOOP ( 'NONE', ( #998, #929 ) ) ;
#146 = CARTESIAN_POINT ( 'NONE',  ( -4.259497701053381213, 1.451584965278953421, 56.89072814626004515 ) ) ;
#147 = CARTESIAN_POINT ( 'NONE',  ( -4.500000000000000888, -0.1967804634820640719, 19.99999999999999645 ) ) ;
#148 = CARTESIAN_POINT ( 'NONE',  ( 0.000000000000000000, 0.000000000000000000, 0.000000000000000000 ) ) ;
#149 = EDGE_LOOP ( 'NONE', ( #965, #614, #979, #404 ) ) ;
#150 = CARTESIAN_POINT ( 'NONE',  ( -4.500000000000000000, 6.485575124975132005E-20, 55.00000000000000000 ) ) ;
#151 = CARTESIAN_POINT ( 'NONE',  ( 0.000000000000000000, 0.000000000000000000, 78.00000000000000000 ) ) ;
#152 = EDGE_CURVE ( 'NONE', #197, #933, #523, .T. ) ;
#153 = CARTESIAN_POINT ( 'NONE',  ( 0.7499999999999986677, -4.943429983321296461, 82.00000000000000000 ) ) ;
#154 = DIRECTION ( 'NONE',  ( -0.000000000000000000, -0.000000000000000000, 1.000000000000000000 ) ) ;
#155 = ORIENTED_EDGE ( 'NONE', *, *, #398, .F. ) ;
#156 = CARTESIAN_POINT ( 'NONE',  ( 0.000000000000000000, 0.000000000000000000, 82.00000000000000000 ) ) ;
#157 = FACE_OUTER_BOUND ( 'NONE', #145, .T. ) ;
#158 = LINE ( 'NONE', #84, #1029 ) ;
#159 = EDGE_LOOP ( 'NONE', ( #665, #605, #643, #474 ) ) ;
#160 = CARTESIAN_POINT ( 'NONE',  ( 0.000000000000000000, 0.000000000000000000, 80.00000000000004263 ) ) ;
#161 = DIRECTION ( 'NONE',  ( 0.7071067811865465735, 0.000000000000000000, 0.7071067811865483499 ) ) ;
#162 = CARTESIAN_POINT ( 'NONE',  ( -4.389840761270691338, 0.9921188124220073901, 57.62922582595246013 ) ) ;
#163 = LINE ( 'NONE', #815, #676 ) ;
#164 = PERSON_AND_ORGANIZATION_ROLE ( 'design_supplier' ) ;
#165 = CARTESIAN_POINT ( 'NONE',  ( -4.451135578011182758, 0.6676459985335867486, 22.84681037251767677 ) ) ;
#166 = VERTEX_POINT ( 'NONE', #573 ) ;
#167 = VECTOR ( 'NONE', #161, 1000.000000000000114 ) ;
#168 = CARTESIAN_POINT ( 'NONE',  ( -5.500000000000000000, 6.735557395310442023E-16, -1.999999999999998224 ) ) ;
#169 = DIRECTION ( 'NONE',  ( 1.000000000000000000, 0.000000000000000000, 0.000000000000000000 ) ) ;
#170 = DIRECTION ( 'NONE',  ( 1.000000000000000000, 0.000000000000000000, -0.000000000000000000 ) ) ;
#171 = CARTESIAN_POINT ( 'NONE',  ( -4.500000000000000000, 6.485575124975132005E-20, 55.00000000000000000 ) ) ;
#172 = CALENDAR_DATE ( 2026, 21, 4 ) ;
#173 = CARTESIAN_POINT ( 'NONE',  ( 4.406655855142592060, 0.9155261477763334543, 55.30780601927152418 ) ) ;
#174 = ORIENTED_EDGE ( 'NONE', *, *, #1015, .F. ) ;
#175 = AXIS2_PLACEMENT_3D ( 'NONE', #846, #680, #362 ) ;
#176 = DIRECTION ( 'NONE',  ( 0.000000000000000000, 0.000000000000000000, -1.000000000000000000 ) ) ;
#177 = ADVANCED_FACE ( 'NONE', ( #235 ), #1044, .T. ) ;
#178 = CARTESIAN_POINT ( 'NONE',  ( -4.437052314167885037, 0.7545581038697690701, 20.19994276725491034 ) ) ;
#179 = CARTESIAN_POINT ( 'NONE',  ( -4.259542543442830898, -1.451452957965949864, 56.10888475293220523 ) ) ;
#180 = CARTESIAN_POINT ( 'NONE',  ( 0.7499999999999990008, -2.904737509655594963, 82.00000000000000000 ) ) ;
#181 = CARTESIAN_POINT ( 'NONE',  ( -4.389840761270693115, 0.9921188124220082782, 22.62922582595246013 ) ) ;
#182 = VERTEX_POINT ( 'NONE', #918 ) ;
#183 = DIRECTION ( 'NONE',  ( -1.000000000000000000, -1.255483712953019263E-16, 0.000000000000000000 ) ) ;
#184 = CARTESIAN_POINT ( 'NONE',  ( 4.305896657440450248, -1.309759603046597665, 20.74328114178480220 ) ) ;
#185 = PLANE ( 'NONE',  #388 ) ;
#186 = PERSON_AND_ORGANIZATION ( #804, #824 ) ;
#187 = DIRECTION ( 'NONE',  ( 1.000000000000000000, -0.000000000000000000, -0.000000000000000000 ) ) ;
#188 = VERTEX_POINT ( 'NONE', #318 ) ;
#189 = CARTESIAN_POINT ( 'NONE',  ( -4.246207197890973895, 1.490014011914523318, 21.30126385513504417 ) ) ;
#190 = EDGE_CURVE ( 'NONE', #69, #377, #817, .T. ) ;
#191 = FACE_OUTER_BOUND ( 'NONE', #219, .T. ) ;
#192 = CIRCLE ( 'NONE', #364, 4.500000000000000000 ) ;
#193 = SECURITY_CLASSIFICATION ( '', '', #686 ) ;
#194 = CARTESIAN_POINT ( 'NONE',  ( 0.000000000000000000, 0.000000000000000000, 78.00000000000000000 ) ) ;
#195 = AXIS2_PLACEMENT_3D ( 'NONE', #339, #409, #12 ) ;
#196 = ORIENTED_EDGE ( 'NONE', *, *, #43, .T. ) ;
#197 = VERTEX_POINT ( 'NONE', #640 ) ;
#198 = EDGE_CURVE ( 'NONE', #862, #278, #427, .T. ) ;
#199 = CARTESIAN_POINT ( 'NONE',  ( -4.500000000000000000, 6.485572600620235297E-20, 19.99999999999999645 ) ) ;
#200 = CARTESIAN_POINT ( 'NONE',  ( -4.242623454293894092, -1.500048741797525675, 56.40210095634800780 ) ) ;
#201 = CARTESIAN_POINT ( 'NONE',  ( 0.7499999999999996669, 2.904737509655594518, 82.00000000000000000 ) ) ;
#202 = FACE_OUTER_BOUND ( 'NONE', #594, .T. ) ;
#203 = CONICAL_SURFACE ( 'NONE', #798, 3.000000000000030198, 0.7853981633974506105 ) ;
#204 = DIRECTION ( 'NONE',  ( -0.000000000000000000, -0.000000000000000000, -1.000000000000000000 ) ) ;
#205 = VECTOR ( 'NONE', #904, 1000.000000000000000 ) ;
#206 = ORIENTED_EDGE ( 'NONE', *, *, #366, .F. ) ;
#207 = EDGE_CURVE ( 'NONE', #278, #688, #691, .T. ) ;
#208 = CARTESIAN_POINT ( 'NONE',  ( -0.7500000000000000000, 5.117073896554160228, 68.00000000000000000 ) ) ;
#209 = CARTESIAN_POINT ( 'NONE',  ( -4.242675348469420626, -1.499901962883543050, 21.69803005782788219 ) ) ;
#210 = ORIENTED_EDGE ( 'NONE', *, *, #31, .F. ) ;
#211 = DIRECTION ( 'NONE',  ( -0.000000000000000000, -0.000000000000000000, -1.000000000000000000 ) ) ;
#212 = EDGE_CURVE ( 'NONE', #955, #870, #569, .T. ) ;
#213 = CARTESIAN_POINT ( 'NONE',  ( -4.339794423254527800, -1.198387325809527670, 22.42281022746174912 ) ) ;
#214 = CARTESIAN_POINT ( 'NONE',  ( -0.7499999999999987788, -4.437059837324711431, 68.00000000000000000 ) ) ;
#215 = ORIENTED_EDGE ( 'NONE', *, *, #137, .F. ) ;
#216 = VECTOR ( 'NONE', #314, 1000.000000000000000 ) ;
#217 = AXIS2_PLACEMENT_3D ( 'NONE', #63, #67, #230 ) ;
#218 = CARTESIAN_POINT ( 'NONE',  ( 4.246172099874241823, -1.490114380454423904, 56.69810592833113816 ) ) ;
#219 = EDGE_LOOP ( 'NONE', ( #225, #350, #420, #930, #139, #244 ) ) ;
#220 = LINE ( 'NONE', #153, #365 ) ;
#221 = CARTESIAN_POINT ( 'NONE',  ( -4.339825045847905294, -1.198380920534387162, 55.57695695232209943 ) ) ;
#222 = CC_DESIGN_DATE_AND_TIME_ASSIGNMENT ( #483, #77, ( #722 ) ) ;
#223 = DIRECTION ( 'NONE',  ( 1.000000000000000000, -0.000000000000000000, -0.000000000000000000 ) ) ;
#224 = ADVANCED_FACE ( 'NONE', ( #61 ), #709, .F. ) ;
#225 = ORIENTED_EDGE ( 'NONE', *, *, #212, .F. ) ;
#226 = CARTESIAN_POINT ( 'NONE',  ( 4.406450034839006769, 0.9165092805015404576, 22.69143505038372766 ) ) ;
#227 = CARTESIAN_POINT ( 'NONE',  ( 0.000000000000000000, 0.000000000000000000, 78.00000000000000000 ) ) ;
#228 = PRODUCT_DEFINITION_SHAPE ( 'NONE', 'NONE',  #722 ) ;
#229 = AXIS2_PLACEMENT_3D ( 'NONE', #1018, #615, #944 ) ;
#230 = DIRECTION ( 'NONE',  ( 1.000000000000000000, 0.000000000000000000, 0.000000000000000000 ) ) ;
#231 = FACE_OUTER_BOUND ( 'NONE', #519, .T. ) ;
#232 = ORIENTED_EDGE ( 'NONE', *, *, #976, .F. ) ;
#233 = LINE ( 'NONE', #660, #205 ) ;
#234 = APPLICATION_PROTOCOL_DEFINITION ( 'international standard', 'config_control_design', 1994, #19 ) ;
#235 = FACE_OUTER_BOUND ( 'NONE', #379, .T. ) ;
#236 = AXIS2_PLACEMENT_3D ( 'NONE', #466, #711, #606 ) ;
#237 = VECTOR ( 'NONE', #204, 1000.000000000000000 ) ;
#238 = CARTESIAN_POINT ( 'NONE',  ( -5.000000000000000000, 0.000000000000000000, 80.00000000000004263 ) ) ;
#239 = ORIENTED_EDGE ( 'NONE', *, *, #985, .T. ) ;
#240 = DIRECTION ( 'NONE',  ( 1.255483712953019263E-16, 1.000000000000000000, -0.000000000000000000 ) ) ;
#241 = APPROVAL_STATUS ( 'not_yet_approved' ) ;
#242 = CARTESIAN_POINT ( 'NONE',  ( -4.406655855142592948, 0.9155261477763340094, 22.69219398072847937 ) ) ;
#243 = B_SPLINE_CURVE_WITH_KNOTS ( 'NONE', 3,
 ( #630, #70, #386, #720, #961, #226, #911, #921, #674, #757, #596, #124, #763, #835, #435, #750, #255, #27, #431, #449, #18, #48, #33, #829, #102, #916, #503, #577 ),
 .UNSPECIFIED., .F., .F.,
 ( 4, 2, 2, 2, 2, 2, 2, 2, 2, 2, 2, 2, 2, 4 ),
 ( 0.004723735807370615415, 0.005314052446406372469, 0.005609210765924252731, 0.005904369085442133860, 0.006494685724477894384, 0.006789844043995773779, 0.007085002363513654908, 0.007380160683031534302, 0.007675319002549413697, 0.008265635641585174220, 0.008560793961103055350, 0.008855952280620934744, 0.009151110600138814138, 0.009446268919656695268 ),
 .UNSPECIFIED. ) ;
#244 = ORIENTED_EDGE ( 'NONE', *, *, #1006, .F. ) ;
#245 = LINE ( 'NONE', #73, #2 ) ;
#246 = LINE ( 'NONE', #357, #167 ) ;
#247 = DIRECTION ( 'NONE',  ( -0.000000000000000000, -0.000000000000000000, -1.000000000000000000 ) ) ;
#248 = COORDINATED_UNIVERSAL_TIME_OFFSET ( 6, 0, .BEHIND. ) ;
#249 = CARTESIAN_POINT ( 'NONE',  ( 4.500000000000000000, 0.1967303618451793079, 58.00000000000001421 ) ) ;
#250 = CC_DESIGN_PERSON_AND_ORGANIZATION_ASSIGNMENT ( #648, #164, ( #972 ) ) ;
#251 = EDGE_CURVE ( 'NONE', #772, #567, #1039, .T. ) ;
#252 = EDGE_LOOP ( 'NONE', ( #513, #1041, #1011, #367 ) ) ;
#253 = FACE_OUTER_BOUND ( 'NONE', #373, .T. ) ;
#254 = CARTESIAN_POINT ( 'NONE',  ( 0.000000000000000000, 0.000000000000000000, 80.00000000000004263 ) ) ;
#255 = CARTESIAN_POINT ( 'NONE',  ( 4.269468738374711414, 1.422391424307427821, 21.01382243488360402 ) ) ;
#256 = CYLINDRICAL_SURFACE ( 'NONE', #62, 1.500000000000001332 ) ;
#257 = CARTESIAN_POINT ( 'NONE',  ( 4.339823677209703412, 1.198305904112673348, 55.57703424981887963 ) ) ;
#258 = VERTEX_POINT ( 'NONE', #585 ) ;
#259 = AXIS2_PLACEMENT_3D ( 'NONE', #86, #405, #414 ) ;
#260 = FACE_OUTER_BOUND ( 'NONE', #91, .T. ) ;
#261 = EDGE_CURVE ( 'NONE', #992, #1037, #125, .T. ) ;
#262 = CARTESIAN_POINT ( 'NONE',  ( 4.406403775052848637, -0.9238796404142745056, 20.30243692917787968 ) ) ;
#263 = CARTESIAN_POINT ( 'NONE',  ( -4.474575329174472316, -0.4863510157512708765, 57.92236259989922331 ) ) ;
#264 = DIRECTION ( 'NONE',  ( 1.255483712953019263E-16, 1.000000000000000000, 0.000000000000000000 ) ) ;
#265 = CARTESIAN_POINT ( 'NONE',  ( 4.474580708382622340, 0.4862988765820066006, 55.07762073921398382 ) ) ;
#266 = ADVANCED_FACE ( 'NONE', ( #157 ), #89, .T. ) ;
#267 = ORIENTED_EDGE ( 'NONE', *, *, #777, .T. ) ;
#268 = CARTESIAN_POINT ( 'NONE',  ( 0.7499999999999987788, -4.437059837324711431, 78.00000000000000000 ) ) ;
#269 = CARTESIAN_POINT ( 'NONE',  ( -4.486315252453712432, 0.3953255326570350170, 20.03981098048968335 ) ) ;
#270 = CARTESIAN_POINT ( 'NONE',  ( 0.7499999999999986677, -4.943429983321296461, 80.00000000000004263 ) ) ;
#271 = EDGE_CURVE ( 'NONE', #1037, #567, #233, .T. ) ;
#272 = DIRECTION ( 'NONE',  ( 0.000000000000000000, 0.000000000000000000, 1.000000000000000000 ) ) ;
#273 = CYLINDRICAL_SURFACE ( 'NONE', #444, 1.500000000000001332 ) ;
#274 = CARTESIAN_POINT ( 'NONE',  ( 0.000000000000000000, 0.000000000000000000, 78.00000000000000000 ) ) ;
#275 = CYLINDRICAL_SURFACE ( 'NONE', #94, 5.000000000000000000 ) ;
#276 = AXIS2_PLACEMENT_3D ( 'NONE', #345, #666, #764 ) ;
#277 = AXIS2_PLACEMENT_3D ( 'NONE', #348, #967, #808 ) ;
#278 = VERTEX_POINT ( 'NONE', #180 ) ;
#279 = VECTOR ( 'NONE', #912, 1000.000000000000000 ) ;
#280 = ORIENTED_EDGE ( 'NONE', *, *, #152, .T. ) ;
#281 = SHAPE_DEFINITION_REPRESENTATION ( #228, #947 ) ;
#282 = EDGE_CURVE ( 'NONE', #567, #438, #645, .T. ) ;
#283 = ORIENTED_EDGE ( 'NONE', *, *, #271, .T. ) ;
#284 = CARTESIAN_POINT ( 'NONE',  ( -4.500000000000000000, -0.09987932106357341744, 23.00000000000000355 ) ) ;
#285 = AXIS2_PLACEMENT_3D ( 'NONE', #859, #626, #1024 ) ;
#286 = DIRECTION ( 'NONE',  ( 1.255483712953019263E-16, -1.000000000000000000, 0.000000000000000000 ) ) ;
#287 = VERTEX_POINT ( 'NONE', #171 ) ;
#288 = CC_DESIGN_SECURITY_CLASSIFICATION ( #193, ( #972 ) ) ;
#289 =( LENGTH_UNIT ( ) NAMED_UNIT ( * ) SI_UNIT ( .MILLI., .METRE. ) );
#290 = CARTESIAN_POINT ( 'NONE',  ( -5.000000000000000000, 0.000000000000000000, 82.00000000000000000 ) ) ;
#291 = CYLINDRICAL_SURFACE ( 'NONE', #719, 5.000000000000000000 ) ;
#292 = EDGE_CURVE ( 'NONE', #969, #857, #1050, .T. ) ;
#293 = FACE_OUTER_BOUND ( 'NONE', #570, .T. ) ;
#294 = LINE ( 'NONE', #301, #800 ) ;
#295 = LINE ( 'NONE', #290, #237 ) ;
#296 = DIRECTION ( 'NONE',  ( 1.000000000000000000, 0.000000000000000000, 0.000000000000000000 ) ) ;
#297 = ORIENTED_EDGE ( 'NONE', *, *, #604, .T. ) ;
#298 = ORIENTED_EDGE ( 'NONE', *, *, #899, .T. ) ;
#299 = LINE ( 'NONE', #622, #684 ) ;
#300 = CIRCLE ( 'NONE', #905, 4.500000000000000000 ) ;
#301 = CARTESIAN_POINT ( 'NONE',  ( 0.7500000000000000000, 5.117073896554160228, 82.00000000000000000 ) ) ;
#302 = CARTESIAN_POINT ( 'NONE',  ( -0.7499999999999996669, 2.904737509655594518, 82.00000000000000000 ) ) ;
#303 = CIRCLE ( 'NONE', #907, 4.500000000000000000 ) ;
#304 = CARTESIAN_POINT ( 'NONE',  ( 4.500000000000000000, 5.510910596163088569E-16, 78.00000000000000000 ) ) ;
#305 = CARTESIAN_POINT ( 'NONE',  ( -0.7499999999999986677, -4.943429983321296461, 78.00000000000000000 ) ) ;
#306 = CIRCLE ( 'NONE', #42, 5.000000000000000000 ) ;
#307 = AXIS2_PLACEMENT_3D ( 'NONE', #968, #418, #733 ) ;
#308 = DIRECTION ( 'NONE',  ( 0.000000000000000000, 0.000000000000000000, 1.000000000000000000 ) ) ;
#309 = EDGE_CURVE ( 'NONE', #973, #783, #738, .T. ) ;
#310 = CARTESIAN_POINT ( 'NONE',  ( 0.000000000000000000, 0.000000000000000000, 0.000000000000000000 ) ) ;
#311 = CARTESIAN_POINT ( 'NONE',  ( 0.000000000000000000, 0.000000000000000000, -4.000000000000000000 ) ) ;
#312 = ORIENTED_EDGE ( 'NONE', *, *, #1032, .T. ) ;
#313 = DIRECTION ( 'NONE',  ( -1.000000000000000000, 0.000000000000000000, 0.000000000000000000 ) ) ;
#314 = DIRECTION ( 'NONE',  ( 1.255483712953019263E-16, -1.000000000000000000, 0.000000000000000000 ) ) ;
#315 = ORIENTED_EDGE ( 'NONE', *, *, #38, .T. ) ;
#316 = CARTESIAN_POINT ( 'NONE',  ( 0.000000000000000000, 0.000000000000000000, 82.00000000000000000 ) ) ;
#317 = PERSON_AND_ORGANIZATION_ROLE ( 'creator' ) ;
#318 = CARTESIAN_POINT ( 'NONE',  ( -4.500000000000000000, 0.000000000000000000, 0.000000000000000000 ) ) ;
#319 = ORIENTED_EDGE ( 'NONE', *, *, #450, .T. ) ;
#320 = CARTESIAN_POINT ( 'NONE',  ( 0.000000000000000000, 0.000000000000000000, 78.00000000000000000 ) ) ;
#321 = ORIENTED_EDGE ( 'NONE', *, *, #382, .F. ) ;
#322 = CARTESIAN_POINT ( 'NONE',  ( -4.305940152248598274, 1.309626699812711292, 57.25706133318308133 ) ) ;
#323 = LINE ( 'NONE', #505, #860 ) ;
#324 = B_SPLINE_CURVE_WITH_KNOTS ( 'NONE', 3,
 ( #1028, #710, #793, #302 ),
 .UNSPECIFIED., .F., .F.,
 ( 4, 4 ),
 ( 0.000000000000000000, 0.002855917891358401069 ),
 .UNSPECIFIED. ) ;
#325 = PERSON_AND_ORGANIZATION_ROLE ( 'creator' ) ;
#326 = CARTESIAN_POINT ( 'NONE',  ( 4.486315252453710656, 0.3953255326570360717, 57.96018901951030244 ) ) ;
#327 = LOCAL_TIME ( 14, 27, 21.00000000000000000, #512 ) ;
#328 = FACE_OUTER_BOUND ( 'NONE', #400, .T. ) ;
#329 = CARTESIAN_POINT ( 'NONE',  ( -4.500000000000000888, 0.1967303618451781422, 19.99999999999999645 ) ) ;
#330 = CC_DESIGN_DATE_AND_TIME_ASSIGNMENT ( #675, #356, ( #193 ) ) ;
#331 = CARTESIAN_POINT ( 'NONE',  ( -4.496680281850885308, 0.1979568816429892741, 57.99012255545694927 ) ) ;
#332 = CARTESIAN_POINT ( 'NONE',  ( 0.000000000000000000, 0.000000000000000000, 82.00000000000000000 ) ) ;
#333 = EDGE_CURVE ( 'NONE', #188, #726, #303, .T. ) ;
#334 = CARTESIAN_POINT ( 'NONE',  ( 4.451135578011181870, 0.6676459985335880809, 55.15318962748232678 ) ) ;
#335 = ORIENTED_EDGE ( 'NONE', *, *, #398, .T. ) ;
#336 = CARTESIAN_POINT ( 'NONE',  ( -5.500000000000000000, 0.000000000000000000, 56.50000000000000000 ) ) ;
#337 = CARTESIAN_POINT ( 'NONE',  ( 0.000000000000000000, 0.000000000000000000, 80.00000000000004263 ) ) ;
#338 = CARTESIAN_POINT ( 'NONE',  ( -4.406403775052848637, -0.9238796404142758378, 57.69756307082212743 ) ) ;
#339 = CARTESIAN_POINT ( 'NONE',  ( 0.000000000000000000, 0.000000000000000000, 78.00000000000000000 ) ) ;
#340 = PERSON_AND_ORGANIZATION ( #804, #824 ) ;
#341 = CARTESIAN_POINT ( 'NONE',  ( 4.242636528077722957, 1.500011763546058807, 56.59866387413155309 ) ) ;
#342 = EDGE_CURVE ( 'NONE', #726, #188, #1051, .T. ) ;
#343 = ORIENTED_EDGE ( 'NONE', *, *, #931, .T. ) ;
#344 = CIRCLE ( 'NONE', #713, 5.000000000000000000 ) ;
#345 = CARTESIAN_POINT ( 'NONE',  ( 0.000000000000000000, 0.000000000000000000, -1.999999999999998224 ) ) ;
#346 = DIRECTION ( 'NONE',  ( 1.000000000000000000, 0.000000000000000000, 0.000000000000000000 ) ) ;
#347 = CARTESIAN_POINT ( 'NONE',  ( -5.000000000000000000, 0.000000000000000000, 78.00000000000000000 ) ) ;
#348 = CARTESIAN_POINT ( 'NONE',  ( 0.000000000000000000, 0.000000000000000000, -4.000000000000000000 ) ) ;
#349 = CARTESIAN_POINT ( 'NONE',  ( 4.242644853686083017, 1.499988215169358652, 56.40097876395314813 ) ) ;
#350 = ORIENTED_EDGE ( 'NONE', *, *, #562, .T. ) ;
#351 = EDGE_CURVE ( 'NONE', #772, #701, #323, .T. ) ;
#352 = AXIS2_PLACEMENT_3D ( 'NONE', #332, #561, #396 ) ;
#353 = PLANE ( 'NONE',  #175 ) ;
#354 = CARTESIAN_POINT ( 'NONE',  ( 4.242675348469420626, -1.499901962883543272, 21.30196994217211426 ) ) ;
#355 = DIRECTION ( 'NONE',  ( 0.000000000000000000, 0.000000000000000000, 1.000000000000000000 ) ) ;
#356 = DATE_TIME_ROLE ( 'classification_date' ) ;
#357 = CARTESIAN_POINT ( 'NONE',  ( 3.500000000000003109, 0.000000000000000000, -4.000000000000000000 ) ) ;
#358 = CARTESIAN_POINT ( 'NONE',  ( 0.000000000000000000, 0.000000000000000000, 82.00000000000000000 ) ) ;
#359 = DIRECTION ( 'NONE',  ( -0.000000000000000000, -0.000000000000000000, 1.000000000000000000 ) ) ;
#360 = PLANE ( 'NONE',  #285 ) ;
#361 = COORDINATED_UNIVERSAL_TIME_OFFSET ( 6, 0, .BEHIND. ) ;
#362 = DIRECTION ( 'NONE',  ( 1.000000000000000000, 0.000000000000000000, -0.000000000000000000 ) ) ;
#363 = ORIENTED_EDGE ( 'NONE', *, *, #557, .T. ) ;
#364 = AXIS2_PLACEMENT_3D ( 'NONE', #773, #355, #416 ) ;
#365 = VECTOR ( 'NONE', #796, 1000.000000000000000 ) ;
#366 = EDGE_CURVE ( 'NONE', #705, #467, #897, .T. ) ;
#367 = ORIENTED_EDGE ( 'NONE', *, *, #708, .F. ) ;
#368 = ORIENTED_EDGE ( 'NONE', *, *, #746, .F. ) ;
#369 = LINE ( 'NONE', #495, #939 ) ;
#370 = CARTESIAN_POINT ( 'NONE',  ( 4.500000000000000888, -0.1967804634820637943, 58.00000000000000711 ) ) ;
#371 = DIRECTION ( 'NONE',  ( 0.000000000000000000, 0.000000000000000000, 1.000000000000000000 ) ) ;
#372 = ADVANCED_FACE ( 'NONE', ( #802 ), #256, .F. ) ;
#373 = EDGE_LOOP ( 'NONE', ( #543, #128, #335 ) ) ;
#374 = ORIENTED_EDGE ( 'NONE', *, *, #71, .T. ) ;
#375 = CARTESIAN_POINT ( 'NONE',  ( 0.7499999999999988898, -3.588669515573664093, 81.33778568278528098 ) ) ;
#376 = ORIENTED_EDGE ( 'NONE', *, *, #820, .T. ) ;
#377 = VERTEX_POINT ( 'NONE', #822 ) ;
#378 = CARTESIAN_POINT ( 'NONE',  ( 4.500000000000000000, -3.024722713679675887E-16, 55.00000000000000000 ) ) ;
#379 = EDGE_LOOP ( 'NONE', ( #15, #443 ) ) ;
#380 = CARTESIAN_POINT ( 'NONE',  ( 4.484049293906037015, -0.3906755200203856360, 55.04843878222792597 ) ) ;
#381 = CARTESIAN_POINT ( 'NONE',  ( -4.259560232314936634, 1.451400685683950975, 56.10875345295636407 ) ) ;
#382 = EDGE_CURVE ( 'NONE', #893, #811, #163, .T. ) ;
#383 = APPLICATION_PROTOCOL_DEFINITION ( 'international standard', 'config_control_design', 1994, #767 ) ;
#384 = PLANE ( 'NONE',  #697 ) ;
#385 = ORIENTED_EDGE ( 'NONE', *, *, #931, .F. ) ;
#386 = CARTESIAN_POINT ( 'NONE',  ( 4.486315252453714209, 0.3953255326570353501, 22.96018901951031310 ) ) ;
#387 = ADVANCED_FACE ( 'NONE', ( #97 ), #627, .T. ) ;
#388 = AXIS2_PLACEMENT_3D ( 'NONE', #423, #903, #170 ) ;
#389 = VECTOR ( 'NONE', #1019, 1000.000000000000000 ) ;
#390 = PRODUCT ( 'EJE LARGO_Predeterminado_sldprt', 'EJE LARGO_Predeterminado_sldprt', '', ( #1052 ) ) ;
#391 = CARTESIAN_POINT ( 'NONE',  ( 4.306159943172856330, -1.308952801354922757, 57.25876364320572520 ) ) ;
#392 = CARTESIAN_POINT ( 'NONE',  ( -4.486297499277577039, -0.3953647849264975145, 55.03987447979305614 ) ) ;
#393 = DIRECTION ( 'NONE',  ( 0.000000000000000000, 0.000000000000000000, -1.000000000000000000 ) ) ;
#394 = ORIENTED_EDGE ( 'NONE', *, *, #858, .T. ) ;
#395 = CARTESIAN_POINT ( 'NONE',  ( 4.500000000000000000, 6.677449502943484345E-16, 19.99999999999999645 ) ) ;
#396 = DIRECTION ( 'NONE',  ( -1.000000000000000000, 0.000000000000000000, 0.000000000000000000 ) ) ;
#397 = APPROVAL_ROLE ( '' ) ;
#398 = EDGE_CURVE ( 'NONE', #1012, #69, #769, .T. ) ;
#399 = CARTESIAN_POINT ( 'NONE',  ( -5.500000000000000000, 1.836970198721034618E-16, 58.00000000000000000 ) ) ;
#400 = EDGE_LOOP ( 'NONE', ( #826, #119, #522, #574, #283 ) ) ;
#401 = DIRECTION ( 'NONE',  ( 1.000000000000000000, 0.000000000000000000, 0.000000000000000000 ) ) ;
#402 = CARTESIAN_POINT ( 'NONE',  ( -0.7499999999999998890, 4.437059837324711431, 78.00000000000000000 ) ) ;
#403 = ADVANCED_FACE ( 'NONE', ( #83 ), #887, .T. ) ;
#404 = ORIENTED_EDGE ( 'NONE', *, *, #426, .F. ) ;
#405 = DIRECTION ( 'NONE',  ( 1.000000000000000000, -0.000000000000000000, -0.000000000000000000 ) ) ;
#406 = EDGE_CURVE ( 'NONE', #1046, #461, #103, .T. ) ;
#407 = DIRECTION ( 'NONE',  ( -0.000000000000000000, -0.000000000000000000, -1.000000000000000000 ) ) ;
#408 = CARTESIAN_POINT ( 'NONE',  ( -4.389965423269425848, 0.9916051772751717230, 55.37025985965927077 ) ) ;
#409 = DIRECTION ( 'NONE',  ( 0.000000000000000000, 0.000000000000000000, 1.000000000000000000 ) ) ;
#410 = PERSON_AND_ORGANIZATION_ROLE ( 'design_owner' ) ;
#411 = CARTESIAN_POINT ( 'NONE',  ( -4.496680281850886196, 0.1979568816429893574, 22.99012255545694927 ) ) ;
#412 = CIRCLE ( 'NONE', #92, 4.500000000000000000 ) ;
#413 = ORIENTED_EDGE ( 'NONE', *, *, #837, .F. ) ;
#414 = DIRECTION ( 'NONE',  ( 0.000000000000000000, 0.000000000000000000, -1.000000000000000000 ) ) ;
#415 = CARTESIAN_POINT ( 'NONE',  ( 4.269313439855534575, -1.422868748465339506, 21.98498912384414083 ) ) ;
#416 = DIRECTION ( 'NONE',  ( 1.000000000000000000, 0.000000000000000000, 0.000000000000000000 ) ) ;
#417 = DIRECTION ( 'NONE',  ( 0.000000000000000000, 0.000000000000000000, 1.000000000000000000 ) ) ;
#418 = DIRECTION ( 'NONE',  ( 0.000000000000000000, 0.000000000000000000, 1.000000000000000000 ) ) ;
#419 = CARTESIAN_POINT ( 'NONE',  ( 4.500000000000000000, 5.511559153746387335E-16, 58.00000000000000000 ) ) ;
#420 = ORIENTED_EDGE ( 'NONE', *, *, #66, .T. ) ;
#421 = DIRECTION ( 'NONE',  ( 1.000000000000000000, 0.000000000000000000, -0.000000000000000000 ) ) ;
#422 = CARTESIAN_POINT ( 'NONE',  ( 4.242623454293897645, -1.500048741797522345, 21.59789904365200286 ) ) ;
#423 = CARTESIAN_POINT ( 'NONE',  ( 0.000000000000000000, 0.000000000000000000, 78.00000000000000000 ) ) ;
#424 = CARTESIAN_POINT ( 'NONE',  ( -0.7500000000000000000, 5.117073896554160228, 68.00000000000000000 ) ) ;
#425 = DIRECTION ( 'NONE',  ( -0.000000000000000000, -0.000000000000000000, -1.000000000000000000 ) ) ;
#426 = EDGE_CURVE ( 'NONE', #559, #705, #696, .T. ) ;
#427 = B_SPLINE_CURVE_WITH_KNOTS ( 'NONE', 3,
 ( #864, #53, #375, #693 ),
 .UNSPECIFIED., .F., .F.,
 ( 4, 4 ),
 ( 8.673617379884035472E-19, 0.002855917891358401503 ),
 .UNSPECIFIED. ) ;
#428 = AXIS2_PLACEMENT_3D ( 'NONE', #978, #98, #655 ) ;
#429 = ORIENTED_EDGE ( 'NONE', *, *, #781, .T. ) ;
#430 = CARTESIAN_POINT ( 'NONE',  ( 4.439398201102617847, -0.7584130536606609185, 20.19102316884773884 ) ) ;
#431 = CARTESIAN_POINT ( 'NONE',  ( 4.339823677209705188, 1.198305904112673792, 20.57703424981887608 ) ) ;
#432 = EDGE_LOOP ( 'NONE', ( #210, #368, #634, #849, #620, #413, #111, #298, #81, #39, #374, #681, #448, #799, #1010, #239 ) ) ;
#433 = VECTOR ( 'NONE', #869, 1000.000000000000000 ) ;
#434 = DIRECTION ( 'NONE',  ( 0.000000000000000000, 0.000000000000000000, -1.000000000000000000 ) ) ;
#435 = CARTESIAN_POINT ( 'NONE',  ( 4.246106513216958867, 1.490301665811141429, 21.30310322353008345 ) ) ;
#436 = DIRECTION ( 'NONE',  ( 1.000000000000000000, -0.000000000000000000, -0.000000000000000000 ) ) ;
#437 = EDGE_CURVE ( 'NONE', #559, #117, #34, .T. ) ;
#438 = VERTEX_POINT ( 'NONE', #679 ) ;
#439 = ADVANCED_FACE ( 'NONE', ( #118 ), #360, .T. ) ;
#440 = ORIENTED_EDGE ( 'NONE', *, *, #120, .F. ) ;
#441 = CIRCLE ( 'NONE', #428, 3.500000000000003109 ) ;
#442 = ADVANCED_FACE ( 'NONE', ( #704 ), #610, .T. ) ;
#443 = ORIENTED_EDGE ( 'NONE', *, *, #207, .T. ) ;
#444 = AXIS2_PLACEMENT_3D ( 'NONE', #923, #999, #16 ) ;
#445 = CARTESIAN_POINT ( 'NONE',  ( 0.000000000000000000, 0.000000000000000000, -1.999999999999998224 ) ) ;
#446 = ORIENTED_EDGE ( 'NONE', *, *, #932, .T. ) ;
#447 = CARTESIAN_POINT ( 'NONE',  ( 4.305896657440450248, -1.309759603046601217, 55.74328114178481286 ) ) ;
#448 = ORIENTED_EDGE ( 'NONE', *, *, #781, .F. ) ;
#449 = CARTESIAN_POINT ( 'NONE',  ( 4.389840761270694003, 0.9921188124220085003, 20.37077417404753987 ) ) ;
#450 = EDGE_CURVE ( 'NONE', #933, #166, #619, .T. ) ;
#451 = CARTESIAN_POINT ( 'NONE',  ( 4.242675348469420626, -1.499901962883546380, 56.30196994217212136 ) ) ;
#452 = CARTESIAN_POINT ( 'NONE',  ( -4.486297499277577927, -0.3953647849264977365, 20.03987447979304903 ) ) ;
#453 = CARTESIAN_POINT ( 'NONE',  ( -3.500000000000003109, 4.286263797015740046E-16, -4.000000000000000000 ) ) ;
#454 = VECTOR ( 'NONE', #959, 1000.000000000000000 ) ;
#455 = ORIENTED_EDGE ( 'NONE', *, *, #123, .F. ) ;
#456 = ORIENTED_EDGE ( 'NONE', *, *, #190, .T. ) ;
#457 = CIRCLE ( 'NONE', #565, 5.000000000000000000 ) ;
#458 = B_SPLINE_CURVE_WITH_KNOTS ( 'NONE', 3,
 ( #946, #284, #552, #618, #1035, #143, #953, #213, #608, #50, #209, #533, #464, #536, #540, #867, #136, #856, #129, #788, #548, #452, #147, #879 ),
 .UNSPECIFIED., .F., .F.,
 ( 4, 2, 2, 2, 2, 2, 2, 2, 2, 2, 2, 4 ),
 ( 6.482584324838932350E-19, 0.0002952334879606579882, 0.0005904669759213153259, 0.001180933951842633904, 0.001771400927763952483, 0.002361867903685270411, 0.002657101391645935121, 0.002952334879606599832, 0.003542801855527938793, 0.003838035343488607407, 0.004133268831449276454, 0.004723735807370614548 ),
 .UNSPECIFIED. ) ;
#459 = CYLINDRICAL_SURFACE ( 'NONE', #217, 5.500000000000000000 ) ;
#460 = CARTESIAN_POINT ( 'NONE',  ( -4.390053371817510097, -0.9912017743179816209, 55.36993346778575642 ) ) ;
#461 = VERTEX_POINT ( 'NONE', #214 ) ;
#462 = CARTESIAN_POINT ( 'NONE',  ( -4.246106513216957090, 1.490301665811144982, 56.69689677646992720 ) ) ;
#463 = CARTESIAN_POINT ( 'NONE',  ( 4.406514915713257707, -0.9162026956332850469, 57.69167519667653465 ) ) ;
#464 = CARTESIAN_POINT ( 'NONE',  ( -4.246172099874242711, -1.490114380454419685, 21.30189407166885474 ) ) ;
#465 = EDGE_CURVE ( 'NONE', #182, #955, #541, .T. ) ;
#466 = CARTESIAN_POINT ( 'NONE',  ( 0.000000000000000000, 0.000000000000000000, 68.00000000000000000 ) ) ;
#467 = VERTEX_POINT ( 'NONE', #138 ) ;
#468 = EDGE_CURVE ( 'NONE', #258, #1046, #683, .T. ) ;
#469 = CARTESIAN_POINT ( 'NONE',  ( -4.242644853686083017, 1.499988215169358652, 56.59902123604684476 ) ) ;
#470 = CIRCLE ( 'NONE', #21, 5.000000000000000000 ) ;
#471 =( NAMED_UNIT ( * ) SI_UNIT ( $, .STERADIAN. ) SOLID_ANGLE_UNIT ( ) );
#472 = CARTESIAN_POINT ( 'NONE',  ( -4.406514915713257707, -0.9162026956332850469, 55.30832480332346535 ) ) ;
#473 = DIRECTION ( 'NONE',  ( 0.000000000000000000, 0.000000000000000000, 1.000000000000000000 ) ) ;
#474 = ORIENTED_EDGE ( 'NONE', *, *, #581, .T. ) ;
#475 = CARTESIAN_POINT ( 'NONE',  ( -4.451135578011181870, 0.6676459985335880809, 57.84681037251770164 ) ) ;
#476 = DIRECTION ( 'NONE',  ( 1.000000000000000000, -0.000000000000000000, -0.000000000000000000 ) ) ;
#477 = AXIS2_PLACEMENT_3D ( 'NONE', #479, #1040, #488 ) ;
#478 = APPROVAL_DATE_TIME ( #22, #914 ) ;
#479 = CARTESIAN_POINT ( 'NONE',  ( 0.000000000000000000, 0.000000000000000000, 82.00000000000000000 ) ) ;
#480 = VECTOR ( 'NONE', #6, 1000.000000000000000 ) ;
#481 = ORIENTED_EDGE ( 'NONE', *, *, #468, .T. ) ;
#482 = CARTESIAN_POINT ( 'NONE',  ( -4.306095397713890272, 1.309156772915553990, 55.74166136476700473 ) ) ;
#483 = DATE_AND_TIME ( #172, #842 ) ;
#484 = CARTESIAN_POINT ( 'NONE',  ( 4.269468738374708749, 1.422391424307430041, 56.01382243488360047 ) ) ;
#485 = APPROVAL ( #603, 'UNSPECIFIED' ) ;
#486 = EDGE_CURVE ( 'NONE', #688, #438, #57, .T. ) ;
#487 = EDGE_LOOP ( 'NONE', ( #986, #509, #685, #528, #934, #174, #524, #24, #818, #806 ) ) ;
#488 = DIRECTION ( 'NONE',  ( 1.000000000000000000, 0.000000000000000000, 0.000000000000000000 ) ) ;
#489 = DIRECTION ( 'NONE',  ( 0.000000000000000000, 0.000000000000000000, 1.000000000000000000 ) ) ;
#490 = CARTESIAN_POINT ( 'NONE',  ( 0.7499999999999986677, -4.943429983321296461, 78.00000000000000000 ) ) ;
#491 = CARTESIAN_POINT ( 'NONE',  ( -4.500000000000000000, 0.000000000000000000, 78.00000000000000000 ) ) ;
#492 = VERTEX_POINT ( 'NONE', #937 ) ;
#493 = CARTESIAN_POINT ( 'NONE',  ( 0.000000000000000000, 0.000000000000000000, -4.000000000000000000 ) ) ;
#494 = DIRECTION ( 'NONE',  ( -0.000000000000000000, -0.000000000000000000, -1.000000000000000000 ) ) ;
#495 = CARTESIAN_POINT ( 'NONE',  ( -0.7500000000000000000, 5.117073896554160228, 82.00000000000000000 ) ) ;
#496 = DIRECTION ( 'NONE',  ( 1.000000000000000000, -0.000000000000000000, -0.000000000000000000 ) ) ;
#497 = CARTESIAN_POINT ( 'NONE',  ( 4.500000000000000000, -3.024722713679675887E-16, 55.00000000000000000 ) ) ;
#498 = CIRCLE ( 'NONE', #926, 3.500000000000003109 ) ;
#499 = APPROVAL_PERSON_ORGANIZATION ( #186, #485, #506 ) ;
#500 = ORIENTED_EDGE ( 'NONE', *, *, #820, .F. ) ;
#501 = LINE ( 'NONE', #742, #563 ) ;
#502 = CARTESIAN_POINT ( 'NONE',  ( 4.500000000000000000, 5.511559153493951845E-16, 23.00000000000000000 ) ) ;
#503 = CARTESIAN_POINT ( 'NONE',  ( 4.500000000000000888, 0.09985389111291817499, 20.00000000000000000 ) ) ;
#504 = EDGE_CURVE ( 'NONE', #794, #1012, #72, .T. ) ;
#505 = CARTESIAN_POINT ( 'NONE',  ( 0.7499999999999993339, -9.416127847147636464E-17, 78.00000000000000000 ) ) ;
#506 = APPROVAL_ROLE ( '' ) ;
#507 = APPROVAL_ROLE ( '' ) ;
#508 = CARTESIAN_POINT ( 'NONE',  ( 4.499999999999999112, 0.09985389111291811948, 54.99999999999998579 ) ) ;
#509 = ORIENTED_EDGE ( 'NONE', *, *, #486, .T. ) ;
#510 = CARTESIAN_POINT ( 'NONE',  ( 4.500000000000000000, 6.677449502943484345E-16, 19.99999999999999645 ) ) ;
#511 = DIRECTION ( 'NONE',  ( -1.000000000000000000, 0.000000000000000000, 0.000000000000000000 ) ) ;
#512 = COORDINATED_UNIVERSAL_TIME_OFFSET ( 6, 0, .BEHIND. ) ;
#513 = ORIENTED_EDGE ( 'NONE', *, *, #899, .F. ) ;
#514 = CARTESIAN_POINT ( 'NONE',  ( -4.242636528077724734, 1.500011763546055921, 21.40133612586845757 ) ) ;
#515 = CARTESIAN_POINT ( 'NONE',  ( -4.500000000000000000, 6.677449502943484345E-16, 23.00000000000000000 ) ) ;
#516 = AXIS2_PLACEMENT_3D ( 'NONE', #208, #183, #286 ) ;
#517 = LOCAL_TIME ( 14, 27, 21.00000000000000000, #831 ) ;
#518 = CARTESIAN_POINT ( 'NONE',  ( 5.500000000000000000, 0.000000000000000000, -1.999999999999998224 ) ) ;
#519 = EDGE_LOOP ( 'NONE', ( #876, #731, #280, #319, #376, #429, #554, #770, #838, #131, #267, #1022, #588, #1048, #602, #363 ) ) ;
#520 = ADVANCED_FACE ( 'NONE', ( #328 ), #3, .F. ) ;
#521 = EDGE_LOOP ( 'NONE', ( #950, #74, #85, #580 ) ) ;
#522 = ORIENTED_EDGE ( 'NONE', *, *, #746, .T. ) ;
#523 = B_SPLINE_CURVE_WITH_KNOTS ( 'NONE', 3,
 ( #419, #249, #326, #14, #753, #747, #90, #579, #23, #593, #906, #740, #341, #349, #662, #7, #484, #991, #257, #729, #173, #670, #334, #265, #586, #649, #508, #497 ),
 .UNSPECIFIED., .F., .F.,
 ( 4, 2, 2, 2, 2, 2, 2, 2, 2, 2, 2, 2, 2, 4 ),
 ( 0.004723735807370616283, 0.005314052446406371602, 0.005609210765924252731, 0.005904369085442134728, 0.006494685724477911731, 0.006789844043995791126, 0.007085002363513670520, 0.007380160683031549047, 0.007675319002549428442, 0.008265635641585186363, 0.008560793961103065758, 0.008855952280620945152, 0.009151110600138824547, 0.009446268919656703941 ),
 .UNSPECIFIED. ) ;
#524 = ORIENTED_EDGE ( 'NONE', *, *, #47, .F. ) ;
#525 = EDGE_LOOP ( 'NONE', ( #440, #924, #8, #106 ) ) ;
#526 = CARTESIAN_POINT ( 'NONE',  ( 4.439398201102616071, -0.7584130536606635831, 55.19102316884772819 ) ) ;
#527 = CARTESIAN_POINT ( 'NONE',  ( -4.246172099874241823, -1.490114380454423904, 56.30189407166885474 ) ) ;
#528 = ORIENTED_EDGE ( 'NONE', *, *, #271, .F. ) ;
#529 = AXIS2_PLACEMENT_3D ( 'NONE', #148, #886, #725 ) ;
#530 = CARTESIAN_POINT ( 'NONE',  ( 0.7499999999999997780, 3.588669515573661872, 81.33778568278528098 ) ) ;
#531 = CARTESIAN_POINT ( 'NONE',  ( 4.257372138346053880, -1.459794066971214610, 56.10364797188996278 ) ) ;
#532 = EDGE_CURVE ( 'NONE', #1012, #656, #245, .T. ) ;
#533 = CARTESIAN_POINT ( 'NONE',  ( -4.242623454293896756, -1.500048741797521901, 21.40210095634799359 ) ) ;
#534 = B_SPLINE_CURVE_WITH_KNOTS ( 'NONE', 3,
 ( #140, #127, #791, #380, #714, #526, #850, #122, #447, #531, #451, #963, #218, #539, #1033, #391, #142, #865, #463, #49, #948, #787, #370, #723 ),
 .UNSPECIFIED., .F., .F.,
 ( 4, 2, 2, 2, 2, 2, 2, 2, 2, 2, 2, 4 ),
 ( 2.936453512982874415E-19, 0.0002952334879606649271, 0.0005904669759213297458, 0.001180933951842651252, 0.001771400927763972649, 0.002361867903685294697, 0.002657101391645955504, 0.002952334879606616311, 0.003542801855527937926, 0.003838035343488606106, 0.004133268831449273852, 0.004723735807370616283 ),
 .UNSPECIFIED. ) ;
#535 = CARTESIAN_POINT ( 'NONE',  ( 0.000000000000000000, 0.000000000000000000, 78.00000000000000000 ) ) ;
#536 = CARTESIAN_POINT ( 'NONE',  ( -4.259542543442830009, -1.451452957965945423, 21.10888475293219102 ) ) ;
#537 = EDGE_LOOP ( 'NONE', ( #641, #712, #1, #206 ) ) ;
#538 = DIRECTION ( 'NONE',  ( -1.000000000000000000, 0.000000000000000000, 0.000000000000000000 ) ) ;
#539 = CARTESIAN_POINT ( 'NONE',  ( 4.259542543442830898, -1.451452957965949864, 56.89111524706781609 ) ) ;
#540 = CARTESIAN_POINT ( 'NONE',  ( -4.269313439855534575, -1.422868748465340172, 21.01501087615585917 ) ) ;
#541 = LINE ( 'NONE', #144, #433 ) ;
#542 = AXIS2_PLACEMENT_3D ( 'NONE', #320, #558, #797 ) ;
#543 = ORIENTED_EDGE ( 'NONE', *, *, #858, .F. ) ;
#544 = CARTESIAN_POINT ( 'NONE',  ( 0.000000000000000000, 0.000000000000000000, 82.00000000000000000 ) ) ;
#545 =( GEOMETRIC_REPRESENTATION_CONTEXT ( 3 ) GLOBAL_UNCERTAINTY_ASSIGNED_CONTEXT ( ( #954 ) ) GLOBAL_UNIT_ASSIGNED_CONTEXT ( ( #289, #1027, #471 ) ) REPRESENTATION_CONTEXT ( 'NONE', 'WORKASPACE' ) );
#546 = CARTESIAN_POINT ( 'NONE',  ( -0.7499999999999996669, 2.904737509655594518, 82.00000000000000000 ) ) ;
#547 = PRODUCT_RELATED_PRODUCT_CATEGORY ( 'detail', '', ( #390 ) ) ;
#548 = CARTESIAN_POINT ( 'NONE',  ( -4.451323745336670079, -0.6663419208619369982, 20.15257341332373286 ) ) ;
#549 = EDGE_CURVE ( 'NONE', #117, #467, #600, .T. ) ;
#550 = ORIENTED_EDGE ( 'NONE', *, *, #549, .F. ) ;
#551 = CARTESIAN_POINT ( 'NONE',  ( -4.500000000000000000, 0.1967303618451793079, 55.00000000000002132 ) ) ;
#552 = CARTESIAN_POINT ( 'NONE',  ( -4.496681025535694154, -0.1979524859902067890, 22.99012487536227667 ) ) ;
#553 = DIRECTION ( 'NONE',  ( -0.7071067811865491270, 0.000000000000000000, -0.7071067811865459074 ) ) ;
#554 = ORIENTED_EDGE ( 'NONE', *, *, #342, .T. ) ;
#555 = VECTOR ( 'NONE', #425, 1000.000000000000000 ) ;
#556 = DIRECTION ( 'NONE',  ( 1.000000000000000000, 0.000000000000000000, 0.000000000000000000 ) ) ;
#557 = EDGE_CURVE ( 'NONE', #258, #1037, #501, .T. ) ;
#558 = DIRECTION ( 'NONE',  ( -0.000000000000000000, -0.000000000000000000, -1.000000000000000000 ) ) ;
#559 = VERTEX_POINT ( 'NONE', #168 ) ;
#560 = CARTESIAN_POINT ( 'NONE',  ( 3.500000000000003109, 0.000000000000000000, -4.000000000000000000 ) ) ;
#561 = DIRECTION ( 'NONE',  ( 0.000000000000000000, 0.000000000000000000, -1.000000000000000000 ) ) ;
#562 = EDGE_CURVE ( 'NONE', #955, #628, #1036, .T. ) ;
#563 = VECTOR ( 'NONE', #473, 1000.000000000000000 ) ;
#564 = CARTESIAN_POINT ( 'NONE',  ( -0.7499999999999990008, -2.904737509655594963, 82.00000000000000000 ) ) ;
#565 = AXIS2_PLACEMENT_3D ( 'NONE', #535, #308, #556 ) ;
#566 = B_SPLINE_CURVE_WITH_KNOTS ( 'NONE', 3,
 ( #150, #551, #653, #877, #82, #571, #408, #956, #482, #807, #381, #732, #883, #469, #462, #146, #1049, #322, #644, #162, #737, #715, #475, #814, #88, #331, #801, #982 ),
 .UNSPECIFIED., .F., .F.,
 ( 4, 2, 2, 2, 2, 2, 2, 2, 2, 2, 2, 2, 2, 4 ),
 ( 0.004723735807370616283, 0.005314052446406371602, 0.005609210765924252731, 0.005904369085442134728, 0.006494685724477911731, 0.006789844043995791126, 0.007085002363513670520, 0.007380160683031549047, 0.007675319002549428442, 0.008265635641585186363, 0.008560793961103065758, 0.008855952280620945152, 0.009151110600138824547, 0.009446268919656703941 ),
 .UNSPECIFIED. ) ;
#567 = VERTEX_POINT ( 'NONE', #819 ) ;
#568 = DIRECTION ( 'NONE',  ( -1.000000000000000000, 0.000000000000000000, 0.000000000000000000 ) ) ;
#569 = CIRCLE ( 'NONE', #892, 5.000000000000000000 ) ;
#570 = EDGE_LOOP ( 'NONE', ( #755, #196, #130, #748 ) ) ;
#571 = CARTESIAN_POINT ( 'NONE',  ( -4.406450034839006769, 0.9165092805015405686, 55.30856494961626169 ) ) ;
#572 = CARTESIAN_POINT ( 'NONE',  ( 0.7500000000000000000, 4.943429983321296461, 82.00000000000000000 ) ) ;
#573 = CARTESIAN_POINT ( 'NONE',  ( 4.500000000000000000, 5.511559153493951845E-16, 23.00000000000000000 ) ) ;
#574 = ORIENTED_EDGE ( 'NONE', *, *, #261, .T. ) ;
#575 = CYLINDRICAL_SURFACE ( 'NONE', #970, 1.500000000000001332 ) ;
#576 = DIRECTION ( 'NONE',  ( -0.000000000000000000, -0.000000000000000000, -1.000000000000000000 ) ) ;
#577 = CARTESIAN_POINT ( 'NONE',  ( 4.500000000000000000, 6.677449502943484345E-16, 19.99999999999999645 ) ) ;
#578 = DIRECTION ( 'NONE',  ( 1.000000000000000000, 0.000000000000000000, 0.000000000000000000 ) ) ;
#579 = CARTESIAN_POINT ( 'NONE',  ( 4.339571582199912569, 1.199344597421055481, 57.42192569430553561 ) ) ;
#580 = ORIENTED_EDGE ( 'NONE', *, *, #43, .F. ) ;
#581 = EDGE_CURVE ( 'NONE', #467, #117, #841, .T. ) ;
#582 = FACE_OUTER_BOUND ( 'NONE', #252, .T. ) ;
#583 = CARTESIAN_POINT ( 'NONE',  ( 4.500000000000002665, -0.1967804634820631837, 23.00000000000001421 ) ) ;
#584 = CARTESIAN_POINT ( 'NONE',  ( -4.439398201102616071, -0.7584130536606635831, 57.80897683115225760 ) ) ;
#585 = CARTESIAN_POINT ( 'NONE',  ( 0.7499999999999998890, 4.437059837324711431, 68.00000000000000000 ) ) ;
#586 = CARTESIAN_POINT ( 'NONE',  ( 4.484052808937645906, 0.3906288402496453926, 55.04842800163526562 ) ) ;
#587 = VECTOR ( 'NONE', #872, 1000.000000000000000 ) ;
#588 = ORIENTED_EDGE ( 'NONE', *, *, #66, .F. ) ;
#589 = CARTESIAN_POINT ( 'NONE',  ( 4.306159943172854554, -1.308952801354920092, 22.25876364320569323 ) ) ;
#590 = CARTESIAN_POINT ( 'NONE',  ( -4.305896657440450248, -1.309759603046601217, 57.25671885821522267 ) ) ;
#591 = AXIS2_PLACEMENT_3D ( 'NONE', #151, #751, #983 ) ;
#592 = PERSON_AND_ORGANIZATION ( #804, #824 ) ;
#593 = CARTESIAN_POINT ( 'NONE',  ( 4.269310226602396341, 1.422876469198734117, 56.98493792266642544 ) ) ;
#594 = EDGE_LOOP ( 'NONE', ( #847, #315, #312, #690 ) ) ;
#595 = CARTESIAN_POINT ( 'NONE',  ( -4.451255231312100769, 0.6668234931441762159, 20.15279734584646576 ) ) ;
#596 = CARTESIAN_POINT ( 'NONE',  ( 4.259560232314936634, 1.451400685683948755, 21.89124654704361816 ) ) ;
#597 = CARTESIAN_POINT ( 'NONE',  ( -4.500000000000001776, -0.09987932106357344519, 58.00000000000002132 ) ) ;
#598 = APPROVAL_DATE_TIME ( #1013, #485 ) ;
#599 = ADVANCED_FACE ( 'NONE', ( #636 ), #881, .T. ) ;
#600 = CIRCLE ( 'NONE', #1034, 5.500000000000000000 ) ;
#601 = EDGE_LOOP ( 'NONE', ( #1025, #845 ) ) ;
#602 = ORIENTED_EDGE ( 'NONE', *, *, #468, .F. ) ;
#603 = APPROVAL_STATUS ( 'not_yet_approved' ) ;
#604 = EDGE_CURVE ( 'NONE', #377, #656, #306, .T. ) ;
#605 = ORIENTED_EDGE ( 'NONE', *, *, #426, .T. ) ;
#606 = DIRECTION ( 'NONE',  ( 1.000000000000000000, 0.000000000000000000, 0.000000000000000000 ) ) ;
#607 = EDGE_LOOP ( 'NONE', ( #155, #882, #833, #132 ) ) ;
#608 = CARTESIAN_POINT ( 'NONE',  ( -4.305896657440449360, -1.309759603046597443, 22.25671885821519780 ) ) ;
#609 = VERTEX_POINT ( 'NONE', #633 ) ;
#610 = CONICAL_SURFACE ( 'NONE', #695, 3.500000000000003109, 0.7853981633974471688 ) ;
#611 = PLANE ( 'NONE',  #516 ) ;
#612 = CARTESIAN_POINT ( 'NONE',  ( -4.451323745336668303, -0.6663419208619381084, 55.15257341332372221 ) ) ;
#613 = DIRECTION ( 'NONE',  ( 0.000000000000000000, 0.000000000000000000, 1.000000000000000000 ) ) ;
#614 = ORIENTED_EDGE ( 'NONE', *, *, #664, .F. ) ;
#615 = DIRECTION ( 'NONE',  ( 0.000000000000000000, 0.000000000000000000, 1.000000000000000000 ) ) ;
#616 = EDGE_CURVE ( 'NONE', #857, #197, #642, .T. ) ;
#617 = CARTESIAN_POINT ( 'NONE',  ( -3.000000000000030198, 0.000000000000000000, 82.00000000000000000 ) ) ;
#618 = CARTESIAN_POINT ( 'NONE',  ( -4.484049293906037903, -0.3906755200203850253, 22.95156121777206337 ) ) ;
#619 = LINE ( 'NONE', #716, #779 ) ;
#620 = ORIENTED_EDGE ( 'NONE', *, *, #976, .T. ) ;
#621 = VECTOR ( 'NONE', #993, 1000.000000000000000 ) ;
#622 = CARTESIAN_POINT ( 'NONE',  ( -0.7499999999999987788, -4.437059837324711431, 78.00000000000000000 ) ) ;
#623 = APPROVAL ( #809, 'UNSPECIFIED' ) ;
#624 = VECTOR ( 'NONE', #476, 1000.000000000000000 ) ;
#625 = ADVANCED_FACE ( 'NONE', ( #231 ), #730, .T. ) ;
#626 = DIRECTION ( 'NONE',  ( -0.000000000000000000, 0.000000000000000000, 1.000000000000000000 ) ) ;
#627 = CONICAL_SURFACE ( 'NONE', #352, 3.000000000000030198, 0.7853981633974506105 ) ;
#628 = VERTEX_POINT ( 'NONE', #1047 ) ;
#629 = APPROVAL_PERSON_ORGANIZATION ( #13, #914, #397 ) ;
#630 = CARTESIAN_POINT ( 'NONE',  ( 4.500000000000000000, 5.511559153493951845E-16, 23.00000000000000000 ) ) ;
#631 = CARTESIAN_POINT ( 'NONE',  ( 0.7499999999999998890, 4.437059837324711431, 78.00000000000000000 ) ) ;
#632 = DIRECTION ( 'NONE',  ( 0.000000000000000000, 0.000000000000000000, -1.000000000000000000 ) ) ;
#633 = CARTESIAN_POINT ( 'NONE',  ( 0.7499999999999987788, -4.437059837324711431, 68.00000000000000000 ) ) ;
#634 = ORIENTED_EDGE ( 'NONE', *, *, #47, .T. ) ;
#635 = ADVANCED_FACE ( 'NONE', ( #582 ), #575, .F. ) ;
#636 = FACE_OUTER_BOUND ( 'NONE', #159, .T. ) ;
#637 = ADVANCED_FACE ( 'NONE', ( #987 ), #901, .T. ) ;
#638 = ORIENTED_EDGE ( 'NONE', *, *, #777, .F. ) ;
#639 = DIRECTION ( 'NONE',  ( 1.000000000000000000, 0.000000000000000000, 0.000000000000000000 ) ) ;
#640 = CARTESIAN_POINT ( 'NONE',  ( 4.500000000000000000, 5.511559153746387335E-16, 58.00000000000000000 ) ) ;
#641 = ORIENTED_EDGE ( 'NONE', *, *, #724, .T. ) ;
#642 = LINE ( 'NONE', #399, #454 ) ;
#643 = ORIENTED_EDGE ( 'NONE', *, *, #366, .T. ) ;
#644 = CARTESIAN_POINT ( 'NONE',  ( -4.339823677209703412, 1.198305904112673348, 57.42296575018112037 ) ) ;
#645 = LINE ( 'NONE', #572, #279 ) ;
#646 = AXIS2_PLACEMENT_3D ( 'NONE', #156, #896, #966 ) ;
#647 = CONICAL_SURFACE ( 'NONE', #940, 3.000000000000030198, 0.7853981633974506105 ) ;
#648 = PERSON_AND_ORGANIZATION ( #804, #824 ) ;
#649 = CARTESIAN_POINT ( 'NONE',  ( 4.496680281850885308, 0.1979568816429892741, 55.00987744454304362 ) ) ;
#650 = ORIENTED_EDGE ( 'NONE', *, *, #708, .T. ) ;
#651 = CARTESIAN_POINT ( 'NONE',  ( 0.000000000000000000, 0.000000000000000000, 78.00000000000000000 ) ) ;
#652 = CARTESIAN_POINT ( 'NONE',  ( -4.269310226602397229, 1.422876469198731897, 21.01506207733356746 ) ) ;
#653 = CARTESIAN_POINT ( 'NONE',  ( -4.486315252453710656, 0.3953255326570360717, 55.03981098048966913 ) ) ;
#654 = CARTESIAN_POINT ( 'NONE',  ( 0.000000000000000000, 0.000000000000000000, -4.000000000000000000 ) ) ;
#655 = DIRECTION ( 'NONE',  ( -1.000000000000000000, 0.000000000000000000, 0.000000000000000000 ) ) ;
#656 = VERTEX_POINT ( 'NONE', #238 ) ;
#657 = DIRECTION ( 'NONE',  ( 0.000000000000000000, 0.000000000000000000, -1.000000000000000000 ) ) ;
#658 = CARTESIAN_POINT ( 'NONE',  ( 4.259542543442830009, -1.451452957965944757, 21.89111524706780898 ) ) ;
#659 = CARTESIAN_POINT ( 'NONE',  ( -4.257372138346053880, -1.459794066971214610, 56.89635202811005854 ) ) ;
#660 = CARTESIAN_POINT ( 'NONE',  ( 0.7499999999999993339, -9.416127847147636464E-17, 78.00000000000000000 ) ) ;
#661 = PERSON_AND_ORGANIZATION ( #804, #824 ) ;
#662 = CARTESIAN_POINT ( 'NONE',  ( 4.246106513216957090, 1.490301665811144982, 56.30310322353008701 ) ) ;
#663 = CC_DESIGN_PERSON_AND_ORGANIZATION_ASSIGNMENT ( #661, #410, ( #390 ) ) ;
#664 = EDGE_CURVE ( 'NONE', #765, #492, #498, .T. ) ;
#665 = ORIENTED_EDGE ( 'NONE', *, *, #437, .F. ) ;
#666 = DIRECTION ( 'NONE',  ( 0.000000000000000000, 0.000000000000000000, 1.000000000000000000 ) ) ;
#667 = CARTESIAN_POINT ( 'NONE',  ( 4.339794423254526912, -1.198387325809527226, 20.57718977253824733 ) ) ;
#668 = CARTESIAN_POINT ( 'NONE',  ( -0.7499999999999987788, -4.437059837324711431, 78.00000000000000000 ) ) ;
#669 = CARTESIAN_POINT ( 'NONE',  ( 0.000000000000000000, 0.000000000000000000, 0.000000000000000000 ) ) ;
#670 = CARTESIAN_POINT ( 'NONE',  ( 4.437247950896256121, 0.7534152740631454570, 55.19927710877538374 ) ) ;
#671 = ORIENTED_EDGE ( 'NONE', *, *, #309, .F. ) ;
#672 = CARTESIAN_POINT ( 'NONE',  ( 0.7499999999999996669, 2.904737509655594518, 82.00000000000000000 ) ) ;
#673 = LINE ( 'NONE', #1000, #880 ) ;
#674 = CARTESIAN_POINT ( 'NONE',  ( 4.306095397713890272, 1.309156772915552658, 22.25833863523299527 ) ) ;
#675 = DATE_AND_TIME ( #30, #782 ) ;
#676 = VECTOR ( 'NONE', #830, 1000.000000000000000 ) ;
#677 = CARTESIAN_POINT ( 'NONE',  ( 4.390053371817508321, -0.9912017743179833973, 22.63006653221424003 ) ) ;
#678 = CARTESIAN_POINT ( 'NONE',  ( -4.500000000000000000, -3.024722713679675887E-16, 58.00000000000000000 ) ) ;
#679 = CARTESIAN_POINT ( 'NONE',  ( 0.7500000000000000000, 4.943429983321296461, 80.00000000000004263 ) ) ;
#680 = DIRECTION ( 'NONE',  ( 0.000000000000000000, 0.000000000000000000, 1.000000000000000000 ) ) ;
#681 = ORIENTED_EDGE ( 'NONE', *, *, #333, .T. ) ;
#682 = ADVANCED_FACE ( 'NONE', ( #894 ), #812, .F. ) ;
#683 = CIRCLE ( 'NONE', #236, 4.500000000000000000 ) ;
#684 = VECTOR ( 'NONE', #871, 1000.000000000000000 ) ;
#685 = ORIENTED_EDGE ( 'NONE', *, *, #282, .F. ) ;
#686 = SECURITY_CLASSIFICATION_LEVEL ( 'unclassified' ) ;
#687 = ADVANCED_FACE ( 'NONE', ( #253 ), #353, .T. ) ;
#688 = VERTEX_POINT ( 'NONE', #672 ) ;
#689 = DESIGN_CONTEXT ( 'detailed design', #19, 'design' ) ;
#690 = ORIENTED_EDGE ( 'NONE', *, *, #251, .T. ) ;
#691 = CIRCLE ( 'NONE', #229, 3.000000000000030198 ) ;
#692 = ORIENTED_EDGE ( 'NONE', *, *, #562, .F. ) ;
#693 = CARTESIAN_POINT ( 'NONE',  ( 0.7499999999999990008, -2.904737509655594963, 82.00000000000000000 ) ) ;
#694 = CARTESIAN_POINT ( 'NONE',  ( 0.7500000000000000000, 5.117073896554160228, 68.00000000000000000 ) ) ;
#695 = AXIS2_PLACEMENT_3D ( 'NONE', #789, #613, #296 ) ;
#696 = CIRCLE ( 'NONE', #996, 5.500000000000000000 ) ;
#697 = AXIS2_PLACEMENT_3D ( 'NONE', #310, #632, #1017 ) ;
#698 = ADVANCED_FACE ( 'NONE', ( #25 ), #273, .F. ) ;
#699 = ORIENTED_EDGE ( 'NONE', *, *, #309, .T. ) ;
#700 = DIRECTION ( 'NONE',  ( -0.7071067811865465735, 8.659560562354922997E-17, 0.7071067811865483499 ) ) ;
#701 = VERTEX_POINT ( 'NONE', #268 ) ;
#702 = FACE_OUTER_BOUND ( 'NONE', #537, .T. ) ;
#703 = CARTESIAN_POINT ( 'NONE',  ( -4.306159943172856330, -1.308952801354922757, 55.74123635679434585 ) ) ;
#704 = FACE_OUTER_BOUND ( 'NONE', #525, .T. ) ;
#705 = VERTEX_POINT ( 'NONE', #518 ) ;
#706 = ORIENTED_EDGE ( 'NONE', *, *, #909, .T. ) ;
#707 = DIRECTION ( 'NONE',  ( -1.000000000000000000, 0.000000000000000000, 0.000000000000000000 ) ) ;
#708 = EDGE_CURVE ( 'NONE', #287, #933, #843, .T. ) ;
#709 = PLANE ( 'NONE',  #844 ) ;
#710 = CARTESIAN_POINT ( 'NONE',  ( -0.7499999999999998890, 4.266459857533319244, 80.66931088352666279 ) ) ;
#711 = DIRECTION ( 'NONE',  ( -0.000000000000000000, 0.000000000000000000, 1.000000000000000000 ) ) ;
#712 = ORIENTED_EDGE ( 'NONE', *, *, #437, .T. ) ;
#713 = AXIS2_PLACEMENT_3D ( 'NONE', #254, #434, #915 ) ;
#714 = CARTESIAN_POINT ( 'NONE',  ( 4.474575329174472316, -0.4863510157512708765, 55.07763740010076248 ) ) ;
#715 = CARTESIAN_POINT ( 'NONE',  ( -4.437247950896256121, 0.7534152740631454570, 57.80072289122464468 ) ) ;
#716 = CARTESIAN_POINT ( 'NONE',  ( 4.500000000000000000, 5.510910596163088569E-16, 78.00000000000000000 ) ) ;
#717 = AXIS2_PLACEMENT_3D ( 'NONE', #316, #889, #639 ) ;
#718 = ORIENTED_EDGE ( 'NONE', *, *, #616, .F. ) ;
#719 = AXIS2_PLACEMENT_3D ( 'NONE', #544, #211, #538 ) ;
#720 = CARTESIAN_POINT ( 'NONE',  ( 4.451255231312100769, 0.6668234931441763269, 22.84720265415352358 ) ) ;
#721 = CARTESIAN_POINT ( 'NONE',  ( -0.7499999999999986677, -4.943429983321296461, 80.00000000000004263 ) ) ;
#722 = PRODUCT_DEFINITION ( 'UNKNOWN', '', #972, #689 ) ;
#723 = CARTESIAN_POINT ( 'NONE',  ( 4.500000000000000000, 5.511559153746387335E-16, 58.00000000000000000 ) ) ;
#724 = EDGE_CURVE ( 'NONE', #705, #559, #739, .T. ) ;
#725 = DIRECTION ( 'NONE',  ( -1.000000000000000000, 0.000000000000000000, 0.000000000000000000 ) ) ;
#726 = VERTEX_POINT ( 'NONE', #928 ) ;
#727 = CARTESIAN_POINT ( 'NONE',  ( 0.000000000000000000, 0.000000000000000000, 82.00000000000000000 ) ) ;
#728 = CARTESIAN_POINT ( 'NONE',  ( 5.500000000000000000, 0.000000000000000000, -4.000000000000000000 ) ) ;
#729 = CARTESIAN_POINT ( 'NONE',  ( 4.389840761270691338, 0.9921188124220073901, 55.37077417404753987 ) ) ;
#730 = CYLINDRICAL_SURFACE ( 'NONE', #823, 4.500000000000000000 ) ;
#731 = ORIENTED_EDGE ( 'NONE', *, *, #31, .T. ) ;
#732 = CARTESIAN_POINT ( 'NONE',  ( -4.246207197890972118, 1.490014011914527092, 56.30126385513504772 ) ) ;
#733 = DIRECTION ( 'NONE',  ( 1.000000000000000000, 0.000000000000000000, 0.000000000000000000 ) ) ;
#734 = CARTESIAN_POINT ( 'NONE',  ( -4.474580708382621452, 0.4862988765820056569, 22.92237926078601973 ) ) ;
#735 = ORIENTED_EDGE ( 'NONE', *, *, #875, .T. ) ;
#736 = CARTESIAN_POINT ( 'NONE',  ( -4.406450034839007657, 0.9165092805015404576, 20.30856494961626879 ) ) ;
#737 = CARTESIAN_POINT ( 'NONE',  ( -4.406655855142592060, 0.9155261477763334543, 57.69219398072847582 ) ) ;
#738 = LINE ( 'NONE', #20, #624 ) ;
#739 = CIRCLE ( 'NONE', #276, 5.500000000000000000 ) ;
#740 = CARTESIAN_POINT ( 'NONE',  ( 4.246207197890972118, 1.490014011914527092, 56.69873614486495939 ) ) ;
#741 = EDGE_LOOP ( 'NONE', ( #718, #638, #650, #1016 ) ) ;
#742 = CARTESIAN_POINT ( 'NONE',  ( 0.7499999999999998890, 4.437059837324711431, 78.00000000000000000 ) ) ;
#743 = CARTESIAN_POINT ( 'NONE',  ( 4.451323745336671855, -0.6663419208619366652, 22.84742658667627069 ) ) ;
#744 = FACE_OUTER_BOUND ( 'NONE', #776, .T. ) ;
#745 = DIRECTION ( 'NONE',  ( 1.000000000000000000, 0.000000000000000000, 0.000000000000000000 ) ) ;
#746 = EDGE_CURVE ( 'NONE', #701, #992, #412, .T. ) ;
#747 = CARTESIAN_POINT ( 'NONE',  ( 4.406450034839006769, 0.9165092805015405686, 57.69143505038373121 ) ) ;
#748 = ORIENTED_EDGE ( 'NONE', *, *, #212, .T. ) ;
#749 = CARTESIAN_POINT ( 'NONE',  ( -4.246106513216958867, 1.490301665811141429, 21.69689677646991299 ) ) ;
#750 = CARTESIAN_POINT ( 'NONE',  ( 4.259497701053382990, 1.451584965278950090, 21.10927185373994064 ) ) ;
#751 = DIRECTION ( 'NONE',  ( 0.000000000000000000, 0.000000000000000000, 1.000000000000000000 ) ) ;
#752 = DATE_AND_TIME ( #104, #517 ) ;
#753 = CARTESIAN_POINT ( 'NONE',  ( 4.437052314167884148, 0.7545581038697685150, 57.80005723274507545 ) ) ;
#754 = ADVANCED_FACE ( 'NONE', ( #260 ), #611, .F. ) ;
#755 = ORIENTED_EDGE ( 'NONE', *, *, #909, .F. ) ;
#756 = CARTESIAN_POINT ( 'NONE',  ( 4.437126068857712546, -0.7541308447162484718, 22.80030912590326153 ) ) ;
#757 = CARTESIAN_POINT ( 'NONE',  ( 4.269310226602398117, 1.422876469198731675, 21.98493792266642899 ) ) ;
#758 = EDGE_CURVE ( 'NONE', #492, #559, #943, .T. ) ;
#759 = AXIS2_PLACEMENT_3D ( 'NONE', #311, #154, #964 ) ;
#760 = CC_DESIGN_PERSON_AND_ORGANIZATION_ASSIGNMENT ( #592, #1002, ( #193 ) ) ;
#761 = ADVANCED_FACE ( 'NONE', ( #293 ), #1038, .T. ) ;
#762 = CARTESIAN_POINT ( 'NONE',  ( -0.7499999999999990008, -2.904737509655594963, 82.00000000000000000 ) ) ;
#763 = CARTESIAN_POINT ( 'NONE',  ( 4.242636528077724734, 1.500011763546055921, 21.59866387413153888 ) ) ;
#764 = DIRECTION ( 'NONE',  ( -1.000000000000000000, 0.000000000000000000, 0.000000000000000000 ) ) ;
#765 = VERTEX_POINT ( 'NONE', #560 ) ;
#766 = CALENDAR_DATE ( 2026, 21, 4 ) ;
#767 = APPLICATION_CONTEXT ( 'configuration controlled 3d designs of mechanical parts and assemblies' ) ;
#768 = VECTOR ( 'NONE', #407, 1000.000000000000000 ) ;
#769 = CIRCLE ( 'NONE', #717, 3.000000000000030198 ) ;
#770 = ORIENTED_EDGE ( 'NONE', *, *, #71, .F. ) ;
#771 = DIRECTION ( 'NONE',  ( -1.000000000000000000, 0.000000000000000000, 0.000000000000000000 ) ) ;
#772 = VERTEX_POINT ( 'NONE', #490 ) ;
#773 = CARTESIAN_POINT ( 'NONE',  ( 0.000000000000000000, 0.000000000000000000, 78.00000000000000000 ) ) ;
#774 = CARTESIAN_POINT ( 'NONE',  ( -0.7500000000000000000, 4.943429983321296461, 78.00000000000000000 ) ) ;
#775 = LINE ( 'NONE', #64, #29 ) ;
#776 = EDGE_LOOP ( 'NONE', ( #297, #706, #936, #343 ) ) ;
#777 = EDGE_CURVE ( 'NONE', #287, #857, #566, .T. ) ;
#778 = CARTESIAN_POINT ( 'NONE',  ( -0.7499999999999998890, 4.437059837324711431, 68.00000000000000000 ) ) ;
#779 = VECTOR ( 'NONE', #949, 1000.000000000000000 ) ;
#780 = CARTESIAN_POINT ( 'NONE',  ( -4.500000000000000888, -0.1967804634820637943, 55.00000000000000000 ) ) ;
#781 = EDGE_CURVE ( 'NONE', #783, #726, #75, .T. ) ;
#782 = LOCAL_TIME ( 14, 27, 21.00000000000000000, #361 ) ;
#783 = VERTEX_POINT ( 'NONE', #395 ) ;
#784 = ORIENTED_EDGE ( 'NONE', *, *, #123, .T. ) ;
#785 = DIRECTION ( 'NONE',  ( 0.000000000000000000, 0.000000000000000000, -1.000000000000000000 ) ) ;
#786 = DIRECTION ( 'NONE',  ( 1.000000000000000000, 0.000000000000000000, 0.000000000000000000 ) ) ;
#787 = CARTESIAN_POINT ( 'NONE',  ( 4.486297499277577039, -0.3953647849264975145, 57.96012552020697228 ) ) ;
#788 = CARTESIAN_POINT ( 'NONE',  ( -4.437126068857708994, -0.7541308447162483608, 20.19969087409674202 ) ) ;
#789 = CARTESIAN_POINT ( 'NONE',  ( 0.000000000000000000, 0.000000000000000000, -4.000000000000000000 ) ) ;
#790 = ORIENTED_EDGE ( 'NONE', *, *, #917, .F. ) ;
#791 = CARTESIAN_POINT ( 'NONE',  ( 4.496681025535695930, -0.1979524859902076217, 55.00987512463774465 ) ) ;
#792 = CARTESIAN_POINT ( 'NONE',  ( 4.500000000000000000, 5.510910596163088569E-16, 78.00000000000000000 ) ) ;
#793 = CARTESIAN_POINT ( 'NONE',  ( -0.7499999999999997780, 3.588669515573663649, 81.33778568278528098 ) ) ;
#794 = VERTEX_POINT ( 'NONE', #546 ) ;
#795 = ADVANCED_FACE ( 'NONE', ( #1031 ), #203, .T. ) ;
#796 = DIRECTION ( 'NONE',  ( -0.000000000000000000, -0.000000000000000000, -1.000000000000000000 ) ) ;
#797 = DIRECTION ( 'NONE',  ( -1.000000000000000000, 0.000000000000000000, 0.000000000000000000 ) ) ;
#798 = AXIS2_PLACEMENT_3D ( 'NONE', #727, #141, #313 ) ;
#799 = ORIENTED_EDGE ( 'NONE', *, *, #78, .T. ) ;
#800 = VECTOR ( 'NONE', #878, 1000.000000000000000 ) ;
#801 = CARTESIAN_POINT ( 'NONE',  ( -4.499999999999999112, 0.09985389111291811948, 58.00000000000000000 ) ) ;
#802 = FACE_OUTER_BOUND ( 'NONE', #37, .T. ) ;
#803 = CALENDAR_DATE ( 2026, 21, 4 ) ;
#804 = PERSON ( 'UNSPECIFIED', 'UNSPECIFIED', 'UNSPECIFIED', ('UNSPECIFIED'), ('UNSPECIFIED'), ('UNSPECIFIED') ) ;
#805 = CARTESIAN_POINT ( 'NONE',  ( -0.7499999999999993339, -9.416127847147636464E-17, 78.00000000000000000 ) ) ;
#806 = ORIENTED_EDGE ( 'NONE', *, *, #198, .T. ) ;
#807 = CARTESIAN_POINT ( 'NONE',  ( -4.269310226602396341, 1.422876469198734117, 56.01506207733354614 ) ) ;
#808 = DIRECTION ( 'NONE',  ( -1.000000000000000000, 0.000000000000000000, -0.000000000000000000 ) ) ;
#809 = APPROVAL_STATUS ( 'not_yet_approved' ) ;
#810 = CARTESIAN_POINT ( 'NONE',  ( -0.7499999999999987788, -4.266459857533318356, 80.66931088352666279 ) ) ;
#811 = VERTEX_POINT ( 'NONE', #305 ) ;
#812 = CYLINDRICAL_SURFACE ( 'NONE', #259, 1.500000000000001332 ) ;
#813 = CARTESIAN_POINT ( 'NONE',  ( 4.484049293906037015, -0.3906755200203850253, 20.04843878222792242 ) ) ;
#814 = CARTESIAN_POINT ( 'NONE',  ( -4.474580708382622340, 0.4862988765820066006, 57.92237926078604460 ) ) ;
#815 = CARTESIAN_POINT ( 'NONE',  ( -0.7499999999999993339, -9.416127847147636464E-17, 78.00000000000000000 ) ) ;
#816 = CARTESIAN_POINT ( 'NONE',  ( -4.484052808937645018, 0.3906288402496455592, 22.95157199836472728 ) ) ;
#817 = B_SPLINE_CURVE_WITH_KNOTS ( 'NONE', 3,
 ( #564, #890, #810, #721 ),
 .UNSPECIFIED., .F., .F.,
 ( 4, 4 ),
 ( 4.336808689942017736E-19, 0.002855917891358401937 ),
 .UNSPECIFIED. ) ;
#818 = ORIENTED_EDGE ( 'NONE', *, *, #1032, .F. ) ;
#819 = CARTESIAN_POINT ( 'NONE',  ( 0.7500000000000000000, 4.943429983321296461, 78.00000000000000000 ) ) ;
#820 = EDGE_CURVE ( 'NONE', #166, #783, #243, .T. ) ;
#821 = CARTESIAN_POINT ( 'NONE',  ( 4.496681025535695042, -0.1979524859902068723, 20.00987512463771978 ) ) ;
#822 = CARTESIAN_POINT ( 'NONE',  ( -0.7499999999999986677, -4.943429983321296461, 80.00000000000004263 ) ) ;
#823 = AXIS2_PLACEMENT_3D ( 'NONE', #971, #9, #827 ) ;
#824 = ORGANIZATION ( 'UNSPECIFIED', 'UNSPECIFIED', '' ) ;
#825 = CARTESIAN_POINT ( 'NONE',  ( -4.437247950896256121, 0.7534152740631461231, 22.80072289122462337 ) ) ;
#826 = ORIENTED_EDGE ( 'NONE', *, *, #251, .F. ) ;
#827 = DIRECTION ( 'NONE',  ( -1.000000000000000000, 0.000000000000000000, 0.000000000000000000 ) ) ;
#828 = CARTESIAN_POINT ( 'NONE',  ( -4.306095397713890272, 1.309156772915552436, 20.74166136476700473 ) ) ;
#829 = CARTESIAN_POINT ( 'NONE',  ( 4.474580708382622340, 0.4862988765820044357, 20.07762073921397672 ) ) ;
#830 = DIRECTION ( 'NONE',  ( 1.255483712953019263E-16, -1.000000000000000000, 0.000000000000000000 ) ) ;
#831 = COORDINATED_UNIVERSAL_TIME_OFFSET ( 6, 0, .BEHIND. ) ;
#832 = CARTESIAN_POINT ( 'NONE',  ( -4.500000000000000000, 6.677449502943484345E-16, 23.00000000000000000 ) ) ;
#833 = ORIENTED_EDGE ( 'NONE', *, *, #604, .F. ) ;
#834 = LINE ( 'NONE', #112, #1014 ) ;
#835 = CARTESIAN_POINT ( 'NONE',  ( 4.242644853686083906, 1.499988215169355543, 21.40097876395315524 ) ) ;
#836 = CARTESIAN_POINT ( 'NONE',  ( -4.339823677209704300, 1.198305904112673570, 22.42296575018111326 ) ) ;
#837 = EDGE_CURVE ( 'NONE', #969, #893, #192, .T. ) ;
#838 = ORIENTED_EDGE ( 'NONE', *, *, #115, .T. ) ;
#839 = CARTESIAN_POINT ( 'NONE',  ( -4.242644853686083017, 1.499988215169355543, 21.59902123604684832 ) ) ;
#840 = DIRECTION ( 'NONE',  ( -0.000000000000000000, -0.000000000000000000, -1.000000000000000000 ) ) ;
#841 = CIRCLE ( 'NONE', #529, 5.500000000000000000 ) ;
#842 = LOCAL_TIME ( 14, 27, 21.00000000000000000, #248 ) ;
#843 = LINE ( 'NONE', #116, #28 ) ;
#844 = AXIS2_PLACEMENT_3D ( 'NONE', #1026, #995, #264 ) ;
#845 = ORIENTED_EDGE ( 'NONE', *, *, #342, .F. ) ;
#846 = CARTESIAN_POINT ( 'NONE',  ( 0.000000000000000000, 0.000000000000000000, 82.00000000000000000 ) ) ;
#847 = ORIENTED_EDGE ( 'NONE', *, *, #282, .T. ) ;
#848 = ADVANCED_FACE ( 'NONE', ( #191 ), #185, .F. ) ;
#849 = ORIENTED_EDGE ( 'NONE', *, *, #875, .F. ) ;
#850 = CARTESIAN_POINT ( 'NONE',  ( 4.406403775052848637, -0.9238796404142758378, 55.30243692917787968 ) ) ;
#851 = ORIENTED_EDGE ( 'NONE', *, *, #38, .F. ) ;
#852 = CARTESIAN_POINT ( 'NONE',  ( -4.339794423254528688, -1.198387325809531001, 57.42281022746175978 ) ) ;
#853 = ORIENTED_EDGE ( 'NONE', *, *, #406, .F. ) ;
#854 = CARTESIAN_POINT ( 'NONE',  ( 0.7499999999999998890, 4.266459857533318356, 80.66931088352666279 ) ) ;
#855 = CARTESIAN_POINT ( 'NONE',  ( 0.000000000000000000, 0.000000000000000000, 82.00000000000000000 ) ) ;
#856 = CARTESIAN_POINT ( 'NONE',  ( -4.390053371817509209, -0.9912017743179831752, 20.36993346778575287 ) ) ;
#857 = VERTEX_POINT ( 'NONE', #1004 ) ;
#858 = EDGE_CURVE ( 'NONE', #794, #69, #369, .T. ) ;
#859 = CARTESIAN_POINT ( 'NONE',  ( 0.000000000000000000, 0.000000000000000000, 68.00000000000000000 ) ) ;
#860 = VECTOR ( 'NONE', #240, 1000.000000000000000 ) ;
#861 = EDGE_LOOP ( 'NONE', ( #65, #851, #59, #52 ) ) ;
#862 = VERTEX_POINT ( 'NONE', #270 ) ;
#863 = FACE_OUTER_BOUND ( 'NONE', #607, .T. ) ;
#864 = CARTESIAN_POINT ( 'NONE',  ( 0.7499999999999986677, -4.943429983321296461, 80.00000000000004263 ) ) ;
#865 = CARTESIAN_POINT ( 'NONE',  ( 4.390053371817510097, -0.9912017743179816209, 57.63006653221425779 ) ) ;
#866 = AXIS2_PLACEMENT_3D ( 'NONE', #654, #417, #745 ) ;
#867 = CARTESIAN_POINT ( 'NONE',  ( -4.306159943172854554, -1.308952801354920759, 20.74123635679431388 ) ) ;
#868 = APPROVAL_PERSON_ORGANIZATION ( #340, #623, #507 ) ;
#869 = DIRECTION ( 'NONE',  ( -0.000000000000000000, -0.000000000000000000, -1.000000000000000000 ) ) ;
#870 = VERTEX_POINT ( 'NONE', #347 ) ;
#871 = DIRECTION ( 'NONE',  ( 0.000000000000000000, 0.000000000000000000, 1.000000000000000000 ) ) ;
#872 = DIRECTION ( 'NONE',  ( -0.000000000000000000, -0.000000000000000000, -1.000000000000000000 ) ) ;
#873 = CARTESIAN_POINT ( 'NONE',  ( 4.500000000000000000, 5.510910596163088569E-16, 78.00000000000000000 ) ) ;
#874 = FACE_BOUND ( 'NONE', #601, .T. ) ;
#875 = EDGE_CURVE ( 'NONE', #461, #609, #1020, .T. ) ;
#876 = ORIENTED_EDGE ( 'NONE', *, *, #261, .F. ) ;
#877 = CARTESIAN_POINT ( 'NONE',  ( -4.451255231312102545, 0.6668234931441778812, 55.15279734584646576 ) ) ;
#878 = DIRECTION ( 'NONE',  ( 1.255483712953019263E-16, 1.000000000000000000, -0.000000000000000000 ) ) ;
#879 = CARTESIAN_POINT ( 'NONE',  ( -4.500000000000000000, 6.485572600620235297E-20, 19.99999999999999645 ) ) ;
#880 = VECTOR ( 'NONE', #576, 1000.000000000000000 ) ;
#881 = CYLINDRICAL_SURFACE ( 'NONE', #759, 5.500000000000000000 ) ;
#882 = ORIENTED_EDGE ( 'NONE', *, *, #532, .T. ) ;
#883 = CARTESIAN_POINT ( 'NONE',  ( -4.242636528077722957, 1.500011763546058807, 56.40133612586843981 ) ) ;
#884 = CARTESIAN_POINT ( 'NONE',  ( 0.000000000000000000, 0.000000000000000000, 0.000000000000000000 ) ) ;
#885 = LINE ( 'NONE', #694, #389 ) ;
#886 = DIRECTION ( 'NONE',  ( 0.000000000000000000, 0.000000000000000000, -1.000000000000000000 ) ) ;
#887 = CONICAL_SURFACE ( 'NONE', #866, 3.500000000000003109, 0.7853981633974471688 ) ;
#888 = VERTEX_POINT ( 'NONE', #515 ) ;
#889 = DIRECTION ( 'NONE',  ( 0.000000000000000000, 0.000000000000000000, 1.000000000000000000 ) ) ;
#890 = CARTESIAN_POINT ( 'NONE',  ( -0.7499999999999988898, -3.588669515573661872, 81.33778568278528098 ) ) ;
#891 = ADVANCED_FACE ( 'NONE', ( #744 ), #275, .T. ) ;
#892 = AXIS2_PLACEMENT_3D ( 'NONE', #227, #1021, #786 ) ;
#893 = VERTEX_POINT ( 'NONE', #668 ) ;
#894 = FACE_OUTER_BOUND ( 'NONE', #44, .T. ) ;
#895 = CARTESIAN_POINT ( 'NONE',  ( -4.269468738374710526, 1.422391424307427821, 21.98617756511639953 ) ) ;
#896 = DIRECTION ( 'NONE',  ( -0.000000000000000000, -0.000000000000000000, -1.000000000000000000 ) ) ;
#897 = LINE ( 'NONE', #728, #480 ) ;
#898 = CARTESIAN_POINT ( 'NONE',  ( 0.000000000000000000, 0.000000000000000000, 82.00000000000000000 ) ) ;
#899 = EDGE_CURVE ( 'NONE', #857, #287, #121, .T. ) ;
#900 = ORIENTED_EDGE ( 'NONE', *, *, #465, .F. ) ;
#901 = CYLINDRICAL_SURFACE ( 'NONE', #542, 4.500000000000000000 ) ;
#902 = DIRECTION ( 'NONE',  ( 0.000000000000000000, 0.000000000000000000, -1.000000000000000000 ) ) ;
#903 = DIRECTION ( 'NONE',  ( 0.000000000000000000, 0.000000000000000000, 1.000000000000000000 ) ) ;
#904 = DIRECTION ( 'NONE',  ( 1.255483712953019263E-16, 1.000000000000000000, -0.000000000000000000 ) ) ;
#905 = AXIS2_PLACEMENT_3D ( 'NONE', #274, #489, #169 ) ;
#906 = CARTESIAN_POINT ( 'NONE',  ( 4.259560232314936634, 1.451400685683950975, 56.89124654704362172 ) ) ;
#907 = AXIS2_PLACEMENT_3D ( 'NONE', #669, #990, #401 ) ;
#908 = DIRECTION ( 'NONE',  ( 0.000000000000000000, 0.000000000000000000, -1.000000000000000000 ) ) ;
#909 = EDGE_CURVE ( 'NONE', #656, #870, #295, .T. ) ;
#910 = CARTESIAN_POINT ( 'NONE',  ( 4.500000000000001776, -0.09987932106357341744, 19.99999999999999645 ) ) ;
#911 = CARTESIAN_POINT ( 'NONE',  ( 4.389965423269427625, 0.9916051772751693916, 22.62974014034071857 ) ) ;
#912 = DIRECTION ( 'NONE',  ( 0.000000000000000000, 0.000000000000000000, 1.000000000000000000 ) ) ;
#913 = PERSON_AND_ORGANIZATION ( #804, #824 ) ;
#914 = APPROVAL ( #241, 'UNSPECIFIED' ) ;
#915 = DIRECTION ( 'NONE',  ( 1.000000000000000000, 0.000000000000000000, 0.000000000000000000 ) ) ;
#916 = CARTESIAN_POINT ( 'NONE',  ( 4.496680281850884420, 0.1979568816429895239, 20.00987744454304718 ) ) ;
#917 = EDGE_CURVE ( 'NONE', #888, #973, #458, .T. ) ;
#918 = CARTESIAN_POINT ( 'NONE',  ( -0.7500000000000000000, 4.943429983321296461, 80.00000000000004263 ) ) ;
#919 = ORIENTED_EDGE ( 'NONE', *, *, #406, .T. ) ;
#920 = CARTESIAN_POINT ( 'NONE',  ( -4.389965423269427625, 0.9916051772751682813, 20.37025985965927077 ) ) ;
#921 = CARTESIAN_POINT ( 'NONE',  ( 4.339571582199914346, 1.199344597421052816, 22.42192569430553206 ) ) ;
#922 = B_SPLINE_CURVE_WITH_KNOTS ( 'NONE', 3,
 ( #510, #910, #821, #813, #95, #430, #262, #667, #184, #32, #354, #422, #26, #658, #415, #589, #17, #677, #988, #756, #743, #10, #583, #502 ),
 .UNSPECIFIED., .F., .F.,
 ( 4, 2, 2, 2, 2, 2, 2, 2, 2, 2, 2, 4 ),
 ( 6.482584324838932350E-19, 0.0002952334879606665534, 0.0005904669759213325647, 0.001180933951842668382, 0.001771400927764004525, 0.002361867903685340234, 0.002657101391646003209, 0.002952334879606666185, 0.003542801855527982161, 0.003838035343488640366, 0.004133268831449298138, 0.004723735807370615415 ),
 .UNSPECIFIED. ) ;
#923 = CARTESIAN_POINT ( 'NONE',  ( -5.500000000000000000, 0.000000000000000000, 56.50000000000000000 ) ) ;
#924 = ORIENTED_EDGE ( 'NONE', *, *, #758, .T. ) ;
#925 = CARTESIAN_POINT ( 'NONE',  ( -4.496681025535695930, -0.1979524859902076217, 57.99012487536228377 ) ) ;
#926 = AXIS2_PLACEMENT_3D ( 'NONE', #493, #657, #93 ) ;
#927 = CC_DESIGN_APPROVAL ( #485, ( #193 ) ) ;
#928 = CARTESIAN_POINT ( 'NONE',  ( 4.500000000000000000, 5.510910596163088569E-16, 0.000000000000000000 ) ) ;
#929 = ORIENTED_EDGE ( 'NONE', *, *, #120, .T. ) ;
#930 = ORIENTED_EDGE ( 'NONE', *, *, #837, .T. ) ;
#931 = EDGE_CURVE ( 'NONE', #811, #377, #775, .T. ) ;
#932 = EDGE_CURVE ( 'NONE', #182, #794, #324, .T. ) ;
#933 = VERTEX_POINT ( 'NONE', #378 ) ;
#934 = ORIENTED_EDGE ( 'NONE', *, *, #557, .F. ) ;
#935 = CLOSED_SHELL ( 'NONE', ( #372, #635, #952, #442, #1005, #625, #891, #761, #687, #848, #637, #599, #266, #938, #942, #177, #520, #439, #754, #224, #403, #795, #387, #698, #682 ) ) ;
#936 = ORIENTED_EDGE ( 'NONE', *, *, #1006, .T. ) ;
#937 = CARTESIAN_POINT ( 'NONE',  ( -3.500000000000003109, 5.510910596163090542E-16, -4.000000000000000000 ) ) ;
#938 = ADVANCED_FACE ( 'NONE', ( #874, #68 ), #384, .F. ) ;
#939 = VECTOR ( 'NONE', #1001, 1000.000000000000000 ) ;
#940 = AXIS2_PLACEMENT_3D ( 'NONE', #855, #785, #707 ) ;
#941 = CARTESIAN_POINT ( 'NONE',  ( -4.500000000000000000, 6.485575124975132005E-20, 55.00000000000000000 ) ) ;
#942 = ADVANCED_FACE ( 'NONE', ( #202 ), #291, .T. ) ;
#943 = LINE ( 'NONE', #453, #54 ) ;
#944 = DIRECTION ( 'NONE',  ( 1.000000000000000000, 0.000000000000000000, 0.000000000000000000 ) ) ;
#945 = ORIENTED_EDGE ( 'NONE', *, *, #1015, .T. ) ;
#946 = CARTESIAN_POINT ( 'NONE',  ( -4.500000000000000000, 6.677449502943484345E-16, 23.00000000000000000 ) ) ;
#947 = ADVANCED_BREP_SHAPE_REPRESENTATION ( 'EJE LARGO_Predeterminado_sldprt', ( #40, #307 ), #545 ) ;
#948 = CARTESIAN_POINT ( 'NONE',  ( 4.451323745336668303, -0.6663419208619381084, 57.84742658667626358 ) ) ;
#949 = DIRECTION ( 'NONE',  ( -0.000000000000000000, -0.000000000000000000, -1.000000000000000000 ) ) ;
#950 = ORIENTED_EDGE ( 'NONE', *, *, #532, .F. ) ;
#951 = CARTESIAN_POINT ( 'NONE',  ( -4.305940152248597386, 1.309626699812709516, 22.25706133318308133 ) ) ;
#952 = ADVANCED_FACE ( 'NONE', ( #863 ), #647, .T. ) ;
#953 = CARTESIAN_POINT ( 'NONE',  ( -4.406403775052848637, -0.9238796404142745056, 22.69756307082212388 ) ) ;
#954 = UNCERTAINTY_MEASURE_WITH_UNIT (LENGTH_MEASURE( 1.000000000000000082E-05 ), #289, 'distance_accuracy_value', 'NONE');
#955 = VERTEX_POINT ( 'NONE', #774 ) ;
#956 = CARTESIAN_POINT ( 'NONE',  ( -4.339571582199912569, 1.199344597421055481, 55.57807430569445728 ) ) ;
#957 = CC_DESIGN_PERSON_AND_ORGANIZATION_ASSIGNMENT ( #913, #317, ( #722 ) ) ;
#958 = VECTOR ( 'NONE', #247, 1000.000000000000000 ) ;
#959 = DIRECTION ( 'NONE',  ( 1.000000000000000000, -0.000000000000000000, -0.000000000000000000 ) ) ;
#960 = ORIENTED_EDGE ( 'NONE', *, *, #581, .F. ) ;
#961 = CARTESIAN_POINT ( 'NONE',  ( 4.437052314167885925, 0.7545581038697690701, 22.80005723274508256 ) ) ;
#962 = APPROVAL_DATE_TIME ( #752, #623 ) ;
#963 = CARTESIAN_POINT ( 'NONE',  ( 4.242623454293894092, -1.500048741797525675, 56.59789904365199931 ) ) ;
#964 = DIRECTION ( 'NONE',  ( 1.000000000000000000, 0.000000000000000000, 0.000000000000000000 ) ) ;
#965 = ORIENTED_EDGE ( 'NONE', *, *, #758, .F. ) ;
#966 = DIRECTION ( 'NONE',  ( -1.000000000000000000, 0.000000000000000000, 0.000000000000000000 ) ) ;
#967 = DIRECTION ( 'NONE',  ( 0.000000000000000000, 0.000000000000000000, -1.000000000000000000 ) ) ;
#968 = CARTESIAN_POINT ( 'NONE',  ( 0.000000000000000000, 0.000000000000000000, 0.000000000000000000 ) ) ;
#969 = VERTEX_POINT ( 'NONE', #60 ) ;
#970 = AXIS2_PLACEMENT_3D ( 'NONE', #336, #223, #393 ) ;
#971 = CARTESIAN_POINT ( 'NONE',  ( 0.000000000000000000, 0.000000000000000000, 78.00000000000000000 ) ) ;
#972 = PRODUCT_DEFINITION_FORMATION_WITH_SPECIFIED_SOURCE ( 'ANY', '', #390, .NOT_KNOWN. ) ;
#973 = VERTEX_POINT ( 'NONE', #199 ) ;
#974 = CC_DESIGN_PERSON_AND_ORGANIZATION_ASSIGNMENT ( #1043, #325, ( #972 ) ) ;
#975 = DIRECTION ( 'NONE',  ( 0.000000000000000000, 0.000000000000000000, 1.000000000000000000 ) ) ;
#976 = EDGE_CURVE ( 'NONE', #461, #893, #299, .T. ) ;
#977 = COORDINATED_UNIVERSAL_TIME_OFFSET ( 6, 0, .BEHIND. ) ;
#978 = CARTESIAN_POINT ( 'NONE',  ( 0.000000000000000000, 0.000000000000000000, -4.000000000000000000 ) ) ;
#979 = ORIENTED_EDGE ( 'NONE', *, *, #36, .T. ) ;
#980 = CARTESIAN_POINT ( 'NONE',  ( 0.000000000000000000, 0.000000000000000000, 0.000000000000000000 ) ) ;
#981 = CARTESIAN_POINT ( 'NONE',  ( 0.7499999999999987788, -4.437059837324711431, 78.00000000000000000 ) ) ;
#982 = CARTESIAN_POINT ( 'NONE',  ( -4.500000000000000000, -3.024722713679675887E-16, 58.00000000000000000 ) ) ;
#983 = DIRECTION ( 'NONE',  ( 1.000000000000000000, 0.000000000000000000, 0.000000000000000000 ) ) ;
#984 = LINE ( 'NONE', #402, #555 ) ;
#985 = EDGE_CURVE ( 'NONE', #933, #197, #534, .T. ) ;
#986 = ORIENTED_EDGE ( 'NONE', *, *, #1045, .T. ) ;
#987 = FACE_OUTER_BOUND ( 'NONE', #432, .T. ) ;
#988 = CARTESIAN_POINT ( 'NONE',  ( 4.406514915713258596, -0.9162026956332808281, 22.69167519667652400 ) ) ;
#989 = CARTESIAN_POINT ( 'NONE',  ( -4.242675348469420626, -1.499901962883546380, 56.69803005782789995 ) ) ;
#990 = DIRECTION ( 'NONE',  ( 0.000000000000000000, 0.000000000000000000, 1.000000000000000000 ) ) ;
#991 = CARTESIAN_POINT ( 'NONE',  ( 4.305940152248598274, 1.309626699812711292, 55.74293866681690446 ) ) ;
#992 = VERTEX_POINT ( 'NONE', #873 ) ;
#993 = DIRECTION ( 'NONE',  ( -0.000000000000000000, -0.000000000000000000, -1.000000000000000000 ) ) ;
#994 = DIRECTION ( 'NONE',  ( -0.000000000000000000, 0.000000000000000000, 1.000000000000000000 ) ) ;
#995 = DIRECTION ( 'NONE',  ( 1.000000000000000000, -1.255483712953019263E-16, 0.000000000000000000 ) ) ;
#996 = AXIS2_PLACEMENT_3D ( 'NONE', #445, #272, #771 ) ;
#997 = DIRECTION ( 'NONE',  ( 1.000000000000000000, 0.000000000000000000, -0.000000000000000000 ) ) ;
#998 = ORIENTED_EDGE ( 'NONE', *, *, #664, .T. ) ;
#999 = DIRECTION ( 'NONE',  ( 1.000000000000000000, -0.000000000000000000, -0.000000000000000000 ) ) ;
#1000 = CARTESIAN_POINT ( 'NONE',  ( -4.500000000000000000, 0.000000000000000000, 78.00000000000000000 ) ) ;
#1001 = DIRECTION ( 'NONE',  ( 1.255483712953019263E-16, -1.000000000000000000, 0.000000000000000000 ) ) ;
#1002 = PERSON_AND_ORGANIZATION_ROLE ( 'classification_officer' ) ;
#1003 = CARTESIAN_POINT ( 'NONE',  ( -4.259497701053382102, 1.451584965278950312, 21.89072814626004515 ) ) ;
#1004 = CARTESIAN_POINT ( 'NONE',  ( -4.500000000000000000, -3.024722713679675887E-16, 58.00000000000000000 ) ) ;
#1005 = ADVANCED_FACE ( 'NONE', ( #702 ), #459, .T. ) ;
#1006 = EDGE_CURVE ( 'NONE', #870, #811, #457, .T. ) ;
#1007 = AXIS2_PLACEMENT_3D ( 'NONE', #651, #100, #421 ) ;
#1008 = AXIS2_PLACEMENT_3D ( 'NONE', #109, #994, #96 ) ;
#1009 = DIRECTION ( 'NONE',  ( 1.000000000000000000, 0.000000000000000000, 0.000000000000000000 ) ) ;
#1010 = ORIENTED_EDGE ( 'NONE', *, *, #450, .F. ) ;
#1011 = ORIENTED_EDGE ( 'NONE', *, *, #985, .F. ) ;
#1012 = VERTEX_POINT ( 'NONE', #617 ) ;
#1013 = DATE_AND_TIME ( #766, #327 ) ;
#1014 = VECTOR ( 'NONE', #494, 1000.000000000000000 ) ;
#1015 = EDGE_CURVE ( 'NONE', #609, #258, #885, .T. ) ;
#1016 = ORIENTED_EDGE ( 'NONE', *, *, #152, .F. ) ;
#1017 = DIRECTION ( 'NONE',  ( -1.000000000000000000, 0.000000000000000000, -0.000000000000000000 ) ) ;
#1018 = CARTESIAN_POINT ( 'NONE',  ( 0.000000000000000000, 0.000000000000000000, 82.00000000000000000 ) ) ;
#1019 = DIRECTION ( 'NONE',  ( 1.255483712953019263E-16, 1.000000000000000000, -0.000000000000000000 ) ) ;
#1020 = CIRCLE ( 'NONE', #1008, 4.500000000000000000 ) ;
#1021 = DIRECTION ( 'NONE',  ( 0.000000000000000000, 0.000000000000000000, 1.000000000000000000 ) ) ;
#1022 = ORIENTED_EDGE ( 'NONE', *, *, #292, .F. ) ;
#1023 = CARTESIAN_POINT ( 'NONE',  ( -4.437126068857709882, -0.7541308447162522466, 55.19969087409673136 ) ) ;
#1024 = DIRECTION ( 'NONE',  ( 1.000000000000000000, 0.000000000000000000, 0.000000000000000000 ) ) ;
#1025 = ORIENTED_EDGE ( 'NONE', *, *, #333, .F. ) ;
#1026 = CARTESIAN_POINT ( 'NONE',  ( 0.7500000000000000000, 5.117073896554160228, 68.00000000000000000 ) ) ;
#1027 =( NAMED_UNIT ( * ) PLANE_ANGLE_UNIT ( ) SI_UNIT ( $, .RADIAN. ) );
#1028 = CARTESIAN_POINT ( 'NONE',  ( -0.7500000000000000000, 4.943429983321296461, 80.00000000000004263 ) ) ;
#1029 = VECTOR ( 'NONE', #187, 1000.000000000000000 ) ;
#1030 = LINE ( 'NONE', #304, #621 ) ;
#1031 = FACE_OUTER_BOUND ( 'NONE', #521, .T. ) ;
#1032 = EDGE_CURVE ( 'NONE', #862, #772, #220, .T. ) ;
#1033 = CARTESIAN_POINT ( 'NONE',  ( 4.269313439855533687, -1.422868748465342392, 56.98498912384415149 ) ) ;
#1034 = AXIS2_PLACEMENT_3D ( 'NONE', #980, #908, #568 ) ;
#1035 = CARTESIAN_POINT ( 'NONE',  ( -4.474575329174474092, -0.4863510157512681564, 22.92236259989922331 ) ) ;
#1036 = LINE ( 'NONE', #805, #216 ) ;
#1037 = VERTEX_POINT ( 'NONE', #631 ) ;
#1038 = CYLINDRICAL_SURFACE ( 'NONE', #646, 5.000000000000000000 ) ;
#1039 = CIRCLE ( 'NONE', #591, 5.000000000000000000 ) ;
#1040 = DIRECTION ( 'NONE',  ( 0.000000000000000000, 0.000000000000000000, 1.000000000000000000 ) ) ;
#1041 = ORIENTED_EDGE ( 'NONE', *, *, #616, .T. ) ;
#1042 = DIRECTION ( 'NONE',  ( 0.000000000000000000, 0.000000000000000000, -1.000000000000000000 ) ) ;
#1043 = PERSON_AND_ORGANIZATION ( #804, #824 ) ;
#1044 = PLANE ( 'NONE',  #108 ) ;
#1045 = EDGE_CURVE ( 'NONE', #278, #688, #294, .T. ) ;
#1046 = VERTEX_POINT ( 'NONE', #778 ) ;
#1047 = CARTESIAN_POINT ( 'NONE',  ( -0.7499999999999998890, 4.437059837324711431, 78.00000000000000000 ) ) ;
#1048 = ORIENTED_EDGE ( 'NONE', *, *, #137, .T. ) ;
#1049 = CARTESIAN_POINT ( 'NONE',  ( -4.269468738374708749, 1.422391424307430041, 56.98617756511641375 ) ) ;
#1050 = LINE ( 'NONE', #491, #958 ) ;
#1051 = CIRCLE ( 'NONE', #133, 4.500000000000000000 ) ;
#1052 = MECHANICAL_CONTEXT ( 'NONE', #767, 'mechanical' ) ;
#1053 = CARTESIAN_POINT ( 'NONE',  ( -5.500000000000000000, 6.735557395310442023E-16, 0.000000000000000000 ) ) ;
ENDSEC;
END-ISO-10303-21;
