ISO-10303-21;
HEADER;
FILE_DESCRIPTION (( 'STEP AP203' ),
    '1' );
FILE_NAME ('Eje corto_Predeterminado_sldprt.STEP',
    '2026-04-21T20:27:36',
    ( '' ),
    ( '' ),
    'SwSTEP 2.0',
    'SolidWorks 2025',
    '' );
FILE_SCHEMA (( 'CONFIG_CONTROL_DESIGN' ));
ENDSEC;

DATA;
#1 = VERTEX_POINT ( 'NONE', #193 ) ;
#2 = DIRECTION ( 'NONE',  ( -1.000000000000000000, 0.000000000000000000, 0.000000000000000000 ) ) ;
#3 = CARTESIAN_POINT ( 'NONE',  ( -0.7500000000000000000, -4.943429983321296461, -1.999999999999992228 ) ) ;
#4 = COORDINATED_UNIVERSAL_TIME_OFFSET ( 6, 0, .BEHIND. ) ;
#5 = ORIENTED_EDGE ( 'NONE', *, *, #109, .F. ) ;
#6 = ORIENTED_EDGE ( 'NONE', *, *, #493, .T. ) ;
#7 = DIRECTION ( 'NONE',  ( 1.230208065046886026E-16, 1.000000000000000000, 0.000000000000000000 ) ) ;
#8 = CARTESIAN_POINT ( 'NONE',  ( 0.000000000000000000, 0.000000000000000000, 16.00000000000000000 ) ) ;
#9 = EDGE_CURVE ( 'NONE', #689, #394, #139, .T. ) ;
#10 = ORIENTED_EDGE ( 'NONE', *, *, #597, .F. ) ;
#11 = VERTEX_POINT ( 'NONE', #306 ) ;
#12 = DIRECTION ( 'NONE',  ( -0.000000000000000000, -0.000000000000000000, -1.000000000000000000 ) ) ;
#13 = AXIS2_PLACEMENT_3D ( 'NONE', #237, #170, #506 ) ;
#14 = AXIS2_PLACEMENT_3D ( 'NONE', #576, #254, #94 ) ;
#15 = DIRECTION ( 'NONE',  ( -1.000000000000000000, 0.000000000000000000, -0.000000000000000000 ) ) ;
#16 = VERTEX_POINT ( 'NONE', #593 ) ;
#17 = DIRECTION ( 'NONE',  ( 0.000000000000000000, 0.000000000000000000, 1.000000000000000000 ) ) ;
#18 = LINE ( 'NONE', #120, #439 ) ;
#19 = ORIENTED_EDGE ( 'NONE', *, *, #409, .T. ) ;
#20 = CLOSED_SHELL ( 'NONE', ( #80, #640, #321, #219, #56, #655, #176, #195, #486, #539, #160, #588, #266, #379, #361, #621, #241, #697, #24, #89, #279 ) ) ;
#21 = ORIENTED_EDGE ( 'NONE', *, *, #597, .T. ) ;
#22 = LINE ( 'NONE', #151, #705 ) ;
#23 = DIRECTION ( 'NONE',  ( -1.000000000000000000, 0.000000000000000000, 0.000000000000000000 ) ) ;
#24 = ADVANCED_FACE ( 'NONE', ( #638 ), #690, .T. ) ;
#25 = AXIS2_PLACEMENT_3D ( 'NONE', #294, #192, #688 ) ;
#26 = DIRECTION ( 'NONE',  ( -1.000000000000000000, 0.000000000000000000, 0.000000000000000000 ) ) ;
#27 = AXIS2_PLACEMENT_3D ( 'NONE', #684, #581, #26 ) ;
#28 = DIRECTION ( 'NONE',  ( -0.000000000000000000, -0.000000000000000000, 1.000000000000000000 ) ) ;
#29 = APPROVAL_ROLE ( '' ) ;
#30 = EDGE_CURVE ( 'NONE', #169, #388, #98, .T. ) ;
#31 = CARTESIAN_POINT ( 'NONE',  ( 0.000000000000000000, 0.000000000000000000, -4.000000000000000000 ) ) ;
#32 = EDGE_LOOP ( 'NONE', ( #100, #701, #550, #645, #671, #570, #215, #440 ) ) ;
#33 =( LENGTH_UNIT ( ) NAMED_UNIT ( * ) SI_UNIT ( .MILLI., .METRE. ) );
#34 = VECTOR ( 'NONE', #234, 1000.000000000000000 ) ;
#35 = LOCAL_TIME ( 14, 27, 36.00000000000000000, #78 ) ;
#36 = DIRECTION ( 'NONE',  ( 1.000000000000000000, 0.000000000000000000, 0.000000000000000000 ) ) ;
#37 = DIRECTION ( 'NONE',  ( 0.7071067811865456854, 0.000000000000000000, 0.7071067811865493491 ) ) ;
#38 = AXIS2_PLACEMENT_3D ( 'NONE', #31, #641, #482 ) ;
#39 = ORIENTED_EDGE ( 'NONE', *, *, #636, .F. ) ;
#40 = PLANE ( 'NONE',  #565 ) ;
#41 = CARTESIAN_POINT ( 'NONE',  ( 0.000000000000000000, 0.000000000000000000, -1.999999999999992228 ) ) ;
#42 = FACE_OUTER_BOUND ( 'NONE', #329, .T. ) ;
#43 = DIRECTION ( 'NONE',  ( 0.000000000000000000, 0.000000000000000000, -1.000000000000000000 ) ) ;
#44 = LINE ( 'NONE', #369, #583 ) ;
#45 = DIRECTION ( 'NONE',  ( 0.000000000000000000, 0.000000000000000000, 1.000000000000000000 ) ) ;
#46 = DIRECTION ( 'NONE',  ( 0.000000000000000000, 0.000000000000000000, 1.000000000000000000 ) ) ;
#47 = EDGE_CURVE ( 'NONE', #110, #277, #660, .T. ) ;
#48 = CYLINDRICAL_SURFACE ( 'NONE', #547, 5.000000000000000000 ) ;
#49 = VECTOR ( 'NONE', #571, 1000.000000000000000 ) ;
#50 = FACE_OUTER_BOUND ( 'NONE', #184, .T. ) ;
#51 = EDGE_LOOP ( 'NONE', ( #443, #569, #501, #107 ) ) ;
#52 = DIRECTION ( 'NONE',  ( 0.000000000000000000, 0.000000000000000000, -1.000000000000000000 ) ) ;
#53 = ORIENTED_EDGE ( 'NONE', *, *, #493, .F. ) ;
#54 = FACE_OUTER_BOUND ( 'NONE', #704, .T. ) ;
#55 = LINE ( 'NONE', #216, #707 ) ;
#56 = ADVANCED_FACE ( 'NONE', ( #145 ), #378, .T. ) ;
#57 = ORIENTED_EDGE ( 'NONE', *, *, #568, .F. ) ;
#58 = DIRECTION ( 'NONE',  ( 0.000000000000000000, 0.000000000000000000, 1.000000000000000000 ) ) ;
#59 = AXIS2_PLACEMENT_3D ( 'NONE', #225, #702, #498 ) ;
#60 = ORIENTED_EDGE ( 'NONE', *, *, #76, .F. ) ;
#61 = APPROVAL_PERSON_ORGANIZATION ( #523, #275, #679 ) ;
#62 = DIRECTION ( 'NONE',  ( 0.000000000000000000, 0.000000000000000000, -1.000000000000000000 ) ) ;
#63 = VERTEX_POINT ( 'NONE', #372 ) ;
#64 = ORIENTED_EDGE ( 'NONE', *, *, #303, .F. ) ;
#65 = FACE_OUTER_BOUND ( 'NONE', #608, .T. ) ;
#66 = DIRECTION ( 'NONE',  ( 0.000000000000000000, 0.000000000000000000, -1.000000000000000000 ) ) ;
#67 = PERSON_AND_ORGANIZATION ( #218, #665 ) ;
#68 = ORIENTED_EDGE ( 'NONE', *, *, #252, .F. ) ;
#69 = VERTEX_POINT ( 'NONE', #530 ) ;
#70 = DIRECTION ( 'NONE',  ( 1.000000000000000000, -1.230208065046886026E-16, 0.000000000000000000 ) ) ;
#71 = ORIENTED_EDGE ( 'NONE', *, *, #416, .F. ) ;
#72 = AXIS2_PLACEMENT_3D ( 'NONE', #398, #617, #584 ) ;
#73 = CARTESIAN_POINT ( 'NONE',  ( -0.7500000000000013323, 5.303564433999273575, 6.000000000000000000 ) ) ;
#74 = AXIS2_PLACEMENT_3D ( 'NONE', #238, #331, #405 ) ;
#75 = ORIENTED_EDGE ( 'NONE', *, *, #109, .T. ) ;
#76 = EDGE_CURVE ( 'NONE', #573, #386, #250, .T. ) ;
#77 = CYLINDRICAL_SURFACE ( 'NONE', #116, 4.500000000000000000 ) ;
#78 = COORDINATED_UNIVERSAL_TIME_OFFSET ( 6, 0, .BEHIND. ) ;
#79 = ORIENTED_EDGE ( 'NONE', *, *, #102, .T. ) ;
#80 = ADVANCED_FACE ( 'NONE', ( #42 ), #212, .T. ) ;
#81 = CARTESIAN_POINT ( 'NONE',  ( -0.7500000000000011102, 3.588669515573642776, -3.337785682785260111 ) ) ;
#82 = CARTESIAN_POINT ( 'NONE',  ( -0.7500000000000013323, 5.303564433999273575, 6.000000000000000000 ) ) ;
#83 = EDGE_CURVE ( 'NONE', #573, #223, #312, .T. ) ;
#84 = VECTOR ( 'NONE', #669, 1000.000000000000000 ) ;
#85 = APPLICATION_PROTOCOL_DEFINITION ( 'international standard', 'config_control_design', 1994, #180 ) ;
#86 = CIRCLE ( 'NONE', #555, 4.500000000000000000 ) ;
#87 = PRODUCT ( 'Eje corto_Predeterminado_sldprt', 'Eje corto_Predeterminado_sldprt', '', ( #360 ) ) ;
#88 = PERSON_AND_ORGANIZATION ( #218, #665 ) ;
#89 = ADVANCED_FACE ( 'NONE', ( #428 ), #371, .T. ) ;
#90 = CARTESIAN_POINT ( 'NONE',  ( 0.000000000000000000, 0.000000000000000000, -4.000000000000000000 ) ) ;
#91 = FACE_OUTER_BOUND ( 'NONE', #113, .T. ) ;
#92 = CARTESIAN_POINT ( 'NONE',  ( 0.7500000000000000000, -4.943429983321296461, -1.999999999999992228 ) ) ;
#93 = DIRECTION ( 'NONE',  ( -1.000000000000000000, 0.000000000000000000, 0.000000000000000000 ) ) ;
#94 = DIRECTION ( 'NONE',  ( 1.000000000000000000, 0.000000000000000000, 0.000000000000000000 ) ) ;
#95 = AXIS2_PLACEMENT_3D ( 'NONE', #464, #404, #625 ) ;
#96 = DIRECTION ( 'NONE',  ( 0.000000000000000000, 0.000000000000000000, -1.000000000000000000 ) ) ;
#97 = FACE_OUTER_BOUND ( 'NONE', #121, .T. ) ;
#98 = LINE ( 'NONE', #317, #112 ) ;
#99 = DIRECTION ( 'NONE',  ( -1.000000000000000000, 0.000000000000000000, 0.000000000000000000 ) ) ;
#100 = ORIENTED_EDGE ( 'NONE', *, *, #659, .F. ) ;
#101 = CARTESIAN_POINT ( 'NONE',  ( 0.000000000000000000, 0.000000000000000000, -1.999999999999992228 ) ) ;
#102 = EDGE_CURVE ( 'NONE', #211, #169, #420, .T. ) ;
#103 = ORIENTED_EDGE ( 'NONE', *, *, #118, .T. ) ;
#105 = ORIENTED_EDGE ( 'NONE', *, *, #102, .F. ) ;
#104 = AXIS2_PLACEMENT_3D ( 'NONE', #8, #402, #618 ) ;
#106 = CIRCLE ( 'NONE', #27, 5.000000000000000000 ) ;
#107 = ORIENTED_EDGE ( 'NONE', *, *, #687, .T. ) ;
#108 = CARTESIAN_POINT ( 'NONE',  ( 0.7500000000000013323, 4.943429983321296461, 0.000000000000000000 ) ) ;
#109 = EDGE_CURVE ( 'NONE', #403, #335, #55, .T. ) ;
#110 = VERTEX_POINT ( 'NONE', #652 ) ;
#111 = CARTESIAN_POINT ( 'NONE',  ( 0.000000000000000000, 0.000000000000000000, 16.00000000000000000 ) ) ;
#112 = VECTOR ( 'NONE', #686, 1000.000000000000000 ) ;
#113 = EDGE_LOOP ( 'NONE', ( #494, #171 ) ) ;
#114 = DIRECTION ( 'NONE',  ( 1.000000000000000000, 0.000000000000000000, 0.000000000000000000 ) ) ;
#115 = LINE ( 'NONE', #566, #685 ) ;
#116 = AXIS2_PLACEMENT_3D ( 'NONE', #297, #521, #23 ) ;
#117 = EDGE_LOOP ( 'NONE', ( #68, #400, #307, #672 ) ) ;
#118 = EDGE_CURVE ( 'NONE', #459, #16, #244, .T. ) ;
#119 = SECURITY_CLASSIFICATION ( '', '', #305 ) ;
#120 = CARTESIAN_POINT ( 'NONE',  ( -0.7500000000000006661, -9.226560487851653827E-17, 0.000000000000000000 ) ) ;
#121 = EDGE_LOOP ( 'NONE', ( #226, #162 ) ) ;
#122 = EDGE_CURVE ( 'NONE', #16, #412, #649, .T. ) ;
#123 = DIRECTION ( 'NONE',  ( 0.000000000000000000, 0.000000000000000000, -1.000000000000000000 ) ) ;
#124 = ORIENTED_EDGE ( 'NONE', *, *, #83, .F. ) ;
#125 = FACE_OUTER_BOUND ( 'NONE', #683, .T. ) ;
#126 = DIRECTION ( 'NONE',  ( 1.000000000000000000, 0.000000000000000000, 0.000000000000000000 ) ) ;
#127 = EDGE_CURVE ( 'NONE', #1, #334, #575, .T. ) ;
#128 = AXIS2_PLACEMENT_3D ( 'NONE', #552, #280, #290 ) ;
#129 = CARTESIAN_POINT ( 'NONE',  ( 5.500000000000000000, 6.735557395310442023E-16, 16.00000000000000000 ) ) ;
#130 = APPROVAL ( #298, 'UNSPECIFIED' ) ;
#131 = VECTOR ( 'NONE', #556, 1000.000000000000000 ) ;
#132 = AXIS2_PLACEMENT_3D ( 'NONE', #157, #46, #595 ) ;
#133 = DIRECTION ( 'NONE',  ( -1.000000000000000000, 0.000000000000000000, 0.000000000000000000 ) ) ;
#134 = ORIENTED_EDGE ( 'NONE', *, *, #187, .F. ) ;
#135 = CARTESIAN_POINT ( 'NONE',  ( -0.7500000000000013323, 4.943429983321296461, -1.999999999999992228 ) ) ;
#136 =( NAMED_UNIT ( * ) PLANE_ANGLE_UNIT ( ) SI_UNIT ( $, .RADIAN. ) );
#137 = CARTESIAN_POINT ( 'NONE',  ( 0.000000000000000000, 0.000000000000000000, -4.000000000000000000 ) ) ;
#138 = DATE_AND_TIME ( #472, #467 ) ;
#139 = LINE ( 'NONE', #363, #299 ) ;
#140 = EDGE_CURVE ( 'NONE', #623, #509, #44, .T. ) ;
#141 = APPROVAL ( #358, 'UNSPECIFIED' ) ;
#142 = B_SPLINE_CURVE_WITH_KNOTS ( 'NONE', 3,
 ( #527, #351, #304, #365 ),
 .UNSPECIFIED., .F., .F.,
 ( 4, 4 ),
 ( 4.336808689942017736E-19, 0.002855917891358455713 ),
 .UNSPECIFIED. ) ;
#143 = AXIS2_PLACEMENT_3D ( 'NONE', #419, #410, #242 ) ;
#144 = PERSON_AND_ORGANIZATION_ROLE ( 'design_supplier' ) ;
#145 = FACE_OUTER_BOUND ( 'NONE', #435, .T. ) ;
#146 = CYLINDRICAL_SURFACE ( 'NONE', #526, 5.000000000000000000 ) ;
#147 = CARTESIAN_POINT ( 'NONE',  ( 0.7500000000000000000, -4.943429983321296461, -4.000000000000000000 ) ) ;
#148 = LINE ( 'NONE', #348, #367 ) ;
#149 = CARTESIAN_POINT ( 'NONE',  ( -0.7500000000000012212, 4.437059837324711431, 0.000000000000000000 ) ) ;
#150 = DIRECTION ( 'NONE',  ( -1.000000000000000000, 0.000000000000000000, -0.000000000000000000 ) ) ;
#151 = CARTESIAN_POINT ( 'NONE',  ( -3.499999999999996003, 0.000000000000000000, 16.00000000000000000 ) ) ;
#152 = CARTESIAN_POINT ( 'NONE',  ( 0.000000000000000000, 0.000000000000000000, 16.00000000000000000 ) ) ;
#153 = CARTESIAN_POINT ( 'NONE',  ( 0.000000000000000000, 0.000000000000000000, 0.000000000000000000 ) ) ;
#154 = CIRCLE ( 'NONE', #415, 5.000000000000000000 ) ;
#155 = CONICAL_SURFACE ( 'NONE', #591, 3.499999999999996003, 0.7853981633974469467 ) ;
#156 = EDGE_CURVE ( 'NONE', #335, #16, #545, .T. ) ;
#157 = CARTESIAN_POINT ( 'NONE',  ( 0.000000000000000000, 0.000000000000000000, -4.000000000000000000 ) ) ;
#158 = CARTESIAN_POINT ( 'NONE',  ( 0.000000000000000000, 0.000000000000000000, -1.999999999999992228 ) ) ;
#159 = ORIENTED_EDGE ( 'NONE', *, *, #47, .F. ) ;
#160 = ADVANCED_FACE ( 'NONE', ( #91 ), #40, .T. ) ;
#161 = DIRECTION ( 'NONE',  ( 1.000000000000000000, 0.000000000000000000, 0.000000000000000000 ) ) ;
#162 = ORIENTED_EDGE ( 'NONE', *, *, #210, .T. ) ;
#163 = CARTESIAN_POINT ( 'NONE',  ( 0.000000000000000000, 0.000000000000000000, 0.000000000000000000 ) ) ;
#164 = EDGE_CURVE ( 'NONE', #223, #490, #154, .T. ) ;
#165 = CONICAL_SURFACE ( 'NONE', #13, 3.000000000000002665, 0.7853981633974457255 ) ;
#166 = LOCAL_TIME ( 14, 27, 36.00000000000000000, #4 ) ;
#167 = ORIENTED_EDGE ( 'NONE', *, *, #385, .T. ) ;
#168 = DIRECTION ( 'NONE',  ( 1.000000000000000000, 0.000000000000000000, 0.000000000000000000 ) ) ;
#169 = VERTEX_POINT ( 'NONE', #422 ) ;
#170 = DIRECTION ( 'NONE',  ( 0.000000000000000000, 0.000000000000000000, 1.000000000000000000 ) ) ;
#171 = ORIENTED_EDGE ( 'NONE', *, *, #354, .T. ) ;
#172 = EDGE_LOOP ( 'NONE', ( #124, #10, #53, #189 ) ) ;
#173 = CARTESIAN_POINT ( 'NONE',  ( -0.7500000000000013323, 4.943429983321296461, -4.000000000000000000 ) ) ;
#174 = DATE_AND_TIME ( #667, #35 ) ;
#175 = ORIENTED_EDGE ( 'NONE', *, *, #687, .F. ) ;
#176 = ADVANCED_FACE ( 'NONE', ( #585 ), #540, .T. ) ;
#177 = B_SPLINE_CURVE_WITH_KNOTS ( 'NONE', 3,
 ( #680, #81, #300, #135 ),
 .UNSPECIFIED., .F., .F.,
 ( 4, 4 ),
 ( 0.000000000000000000, 0.002855917891358455713 ),
 .UNSPECIFIED. ) ;
#178 = VECTOR ( 'NONE', #611, 1000.000000000000000 ) ;
#179 = DIRECTION ( 'NONE',  ( -0.000000000000000000, -0.000000000000000000, -1.000000000000000000 ) ) ;
#180 = APPLICATION_CONTEXT ( 'configuration controlled 3d designs of mechanical parts and assemblies' ) ;
#181 = LINE ( 'NONE', #457, #131 ) ;
#182 = ORIENTED_EDGE ( 'NONE', *, *, #156, .T. ) ;
#183 = LINE ( 'NONE', #73, #49 ) ;
#184 = EDGE_LOOP ( 'NONE', ( #653, #240, #557, #421 ) ) ;
#185 = PRODUCT_DEFINITION ( 'UNKNOWN', '', #368, #227 ) ;
#186 = LINE ( 'NONE', #129, #677 ) ;
#187 = EDGE_CURVE ( 'NONE', #268, #169, #425, .T. ) ;
#188 = PERSON_AND_ORGANIZATION_ROLE ( 'creator' ) ;
#189 = ORIENTED_EDGE ( 'NONE', *, *, #164, .F. ) ;
#190 = ORIENTED_EDGE ( 'NONE', *, *, #122, .F. ) ;
#191 = AXIS2_PLACEMENT_3D ( 'NONE', #495, #70, #7 ) ;
#192 = DIRECTION ( 'NONE',  ( 0.000000000000000000, 0.000000000000000000, -1.000000000000000000 ) ) ;
#193 = CARTESIAN_POINT ( 'NONE',  ( -5.500000000000000000, 0.000000000000000000, 13.99999999999999112 ) ) ;
#194 = CARTESIAN_POINT ( 'NONE',  ( 5.500000000000000000, 6.735557395310442023E-16, 13.99999999999999112 ) ) ;
#195 = ADVANCED_FACE ( 'NONE', ( #315 ), #261, .F. ) ;
#196 = AXIS2_PLACEMENT_3D ( 'NONE', #380, #58, #168 ) ;
#197 = DIRECTION ( 'NONE',  ( 1.230208065046886026E-16, -1.000000000000000000, 0.000000000000000000 ) ) ;
#198 = DIRECTION ( 'NONE',  ( 1.000000000000000000, 0.000000000000000000, 0.000000000000000000 ) ) ;
#199 = EDGE_CURVE ( 'NONE', #596, #388, #381, .T. ) ;
#200 = CARTESIAN_POINT ( 'NONE',  ( 0.000000000000000000, 0.000000000000000000, 0.000000000000000000 ) ) ;
#201 = CARTESIAN_POINT ( 'NONE',  ( 0.7500000000000013323, 4.943429983321296461, -4.000000000000000000 ) ) ;
#202 = ORIENTED_EDGE ( 'NONE', *, *, #411, .F. ) ;
#203 = DIRECTION ( 'NONE',  ( 0.000000000000000000, 0.000000000000000000, -1.000000000000000000 ) ) ;
#204 = DATE_AND_TIME ( #529, #209 ) ;
#205 = EDGE_CURVE ( 'NONE', #223, #459, #510, .T. ) ;
#206 = DIRECTION ( 'NONE',  ( 0.000000000000000000, 0.000000000000000000, -1.000000000000000000 ) ) ;
#207 = AXIS2_PLACEMENT_3D ( 'NONE', #153, #603, #273 ) ;
#208 = DIRECTION ( 'NONE',  ( -0.000000000000000000, -0.000000000000000000, -1.000000000000000000 ) ) ;
#209 = LOCAL_TIME ( 14, 27, 36.00000000000000000, #355 ) ;
#210 = EDGE_CURVE ( 'NONE', #619, #69, #265, .T. ) ;
#211 = VERTEX_POINT ( 'NONE', #108 ) ;
#212 = CONICAL_SURFACE ( 'NONE', #38, 3.000000000000002665, 0.7853981633974457255 ) ;
#213 = CARTESIAN_POINT ( 'NONE',  ( 0.000000000000000000, 0.000000000000000000, 0.000000000000000000 ) ) ;
#214 = CARTESIAN_POINT ( 'NONE',  ( -5.500000000000000000, 0.000000000000000000, 12.00000000000000000 ) ) ;
#215 = ORIENTED_EDGE ( 'NONE', *, *, #303, .T. ) ;
#216 = CARTESIAN_POINT ( 'NONE',  ( 0.7500000000000001110, -4.437059837324711431, 12.00000000000000000 ) ) ;
#217 = CARTESIAN_POINT ( 'NONE',  ( -0.7500000000000013323, 5.303564433999273575, -4.000000000000000000 ) ) ;
#218 = PERSON ( 'UNSPECIFIED', 'UNSPECIFIED', 'UNSPECIFIED', ('UNSPECIFIED'), ('UNSPECIFIED'), ('UNSPECIFIED') ) ;
#219 = ADVANCED_FACE ( 'NONE', ( #326 ), #658, .T. ) ;
#220 = ORIENTED_EDGE ( 'NONE', *, *, #9, .F. ) ;
#221 = CARTESIAN_POINT ( 'NONE',  ( 3.499999999999996003, 4.286263797015731665E-16, 16.00000000000000000 ) ) ;
#222 = AXIS2_PLACEMENT_3D ( 'NONE', #41, #263, #362 ) ;
#223 = VERTEX_POINT ( 'NONE', #563 ) ;
#224 = VERTEX_POINT ( 'NONE', #661 ) ;
#225 = CARTESIAN_POINT ( 'NONE',  ( 0.000000000000000000, 0.000000000000000000, 0.000000000000000000 ) ) ;
#226 = ORIENTED_EDGE ( 'NONE', *, *, #558, .T. ) ;
#227 = DESIGN_CONTEXT ( 'detailed design', #448, 'design' ) ;
#228 = LINE ( 'NONE', #173, #664 ) ;
#229 = CARTESIAN_POINT ( 'NONE',  ( -0.7500000000000003331, -2.904737509655566097, -4.000000000000000000 ) ) ;
#230 = APPROVAL_DATE_TIME ( #503, #275 ) ;
#231 = ORIENTED_EDGE ( 'NONE', *, *, #328, .F. ) ;
#232 = ORIENTED_EDGE ( 'NONE', *, *, #127, .T. ) ;
#233 = PLANE ( 'NONE',  #191 ) ;
#234 = DIRECTION ( 'NONE',  ( -1.230208065046886026E-16, 1.000000000000000000, -0.000000000000000000 ) ) ;
#235 = PERSON_AND_ORGANIZATION_ROLE ( 'creator' ) ;
#236 = EDGE_LOOP ( 'NONE', ( #232, #167, #339, #604 ) ) ;
#237 = CARTESIAN_POINT ( 'NONE',  ( 0.000000000000000000, 0.000000000000000000, -4.000000000000000000 ) ) ;
#238 = CARTESIAN_POINT ( 'NONE',  ( 0.000000000000000000, 0.000000000000000000, -4.000000000000000000 ) ) ;
#239 = ORIENTED_EDGE ( 'NONE', *, *, #396, .F. ) ;
#240 = ORIENTED_EDGE ( 'NONE', *, *, #47, .T. ) ;
#241 = ADVANCED_FACE ( 'NONE', ( #54 ), #233, .F. ) ;
#242 = DIRECTION ( 'NONE',  ( 1.000000000000000000, 0.000000000000000000, -0.000000000000000000 ) ) ;
#243 = CARTESIAN_POINT ( 'NONE',  ( 0.000000000000000000, 0.000000000000000000, 12.00000000000000000 ) ) ;
#244 = CIRCLE ( 'NONE', #674, 5.000000000000000000 ) ;
#245 = CARTESIAN_POINT ( 'NONE',  ( -0.7500000000000003331, -2.904737509655566097, -4.000000000000000000 ) ) ;
#246 = DIRECTION ( 'NONE',  ( -0.000000000000000000, -0.000000000000000000, -1.000000000000000000 ) ) ;
#247 = ORIENTED_EDGE ( 'NONE', *, *, #549, .F. ) ;
#248 = PLANE ( 'NONE',  #646 ) ;
#249 = APPROVAL_PERSON_ORGANIZATION ( #634, #141, #29 ) ;
#250 = CIRCLE ( 'NONE', #336, 3.000000000000002665 ) ;
#251 = ORIENTED_EDGE ( 'NONE', *, *, #514, .T. ) ;
#252 = EDGE_CURVE ( 'NONE', #619, #334, #559, .T. ) ;
#253 = ORIENTED_EDGE ( 'NONE', *, *, #460, .F. ) ;
#254 = DIRECTION ( 'NONE',  ( 0.000000000000000000, 0.000000000000000000, -1.000000000000000000 ) ) ;
#255 = ORIENTED_EDGE ( 'NONE', *, *, #122, .T. ) ;
#256 = CIRCLE ( 'NONE', #466, 5.500000000000000000 ) ;
#257 = AXIS2_PLACEMENT_3D ( 'NONE', #647, #476, #198 ) ;
#258 = CARTESIAN_POINT ( 'NONE',  ( 0.7500000000000013323, 5.303564433999273575, 6.000000000000000000 ) ) ;
#259 = CARTESIAN_POINT ( 'NONE',  ( 0.7500000000000006661, -9.226560487851653827E-17, 0.000000000000000000 ) ) ;
#260 = EDGE_CURVE ( 'NONE', #509, #63, #612, .T. ) ;
#261 = PLANE ( 'NONE',  #207 ) ;
#262 = SHAPE_DEFINITION_REPRESENTATION ( #470, #289 ) ;
#263 = DIRECTION ( 'NONE',  ( 0.000000000000000000, 0.000000000000000000, 1.000000000000000000 ) ) ;
#264 = DIRECTION ( 'NONE',  ( 0.000000000000000000, 0.000000000000000000, 1.000000000000000000 ) ) ;
#265 = CIRCLE ( 'NONE', #693, 3.499999999999996003 ) ;
#266 = ADVANCED_FACE ( 'NONE', ( #65 ), #449, .T. ) ;
#267 =( GEOMETRIC_REPRESENTATION_CONTEXT ( 3 ) GLOBAL_UNCERTAINTY_ASSIGNED_CONTEXT ( ( #654 ) ) GLOBAL_UNIT_ASSIGNED_CONTEXT ( ( #33, #136, #474 ) ) REPRESENTATION_CONTEXT ( 'NONE', 'WORKASPACE' ) );
#268 = VERTEX_POINT ( 'NONE', #384 ) ;
#269 = DIRECTION ( 'NONE',  ( -0.000000000000000000, -0.000000000000000000, 1.000000000000000000 ) ) ;
#270 = ORIENTED_EDGE ( 'NONE', *, *, #83, .T. ) ;
#271 = CARTESIAN_POINT ( 'NONE',  ( 0.000000000000000000, 0.000000000000000000, 16.00000000000000000 ) ) ;
#272 = ORIENTED_EDGE ( 'NONE', *, *, #30, .F. ) ;
#273 = DIRECTION ( 'NONE',  ( -1.000000000000000000, 0.000000000000000000, -0.000000000000000000 ) ) ;
#274 = CIRCLE ( 'NONE', #72, 4.500000000000000000 ) ;
#275 = APPROVAL ( #465, 'UNSPECIFIED' ) ;
#277 = VERTEX_POINT ( 'NONE', #441 ) ;
#276 = CIRCLE ( 'NONE', #14, 5.500000000000000000 ) ;
#278 = ORIENTED_EDGE ( 'NONE', *, *, #396, .T. ) ;
#279 = ADVANCED_FACE ( 'NONE', ( #340 ), #165, .T. ) ;
#280 = DIRECTION ( 'NONE',  ( -0.000000000000000000, 0.000000000000000000, -1.000000000000000000 ) ) ;
#281 = CARTESIAN_POINT ( 'NONE',  ( 4.500000000000000000, 5.510910596163088569E-16, 12.00000000000000000 ) ) ;
#282 = EDGE_LOOP ( 'NONE', ( #651, #278, #561, #220, #455, #635, #395, #39, #202, #497 ) ) ;
#283 = EDGE_LOOP ( 'NONE', ( #251, #324 ) ) ;
#284 = FACE_OUTER_BOUND ( 'NONE', #236, .T. ) ;
#285 = PLANE ( 'NONE',  #648 ) ;
#286 = DATE_TIME_ROLE ( 'creation_date' ) ;
#287 = VERTEX_POINT ( 'NONE', #330 ) ;
#288 = EDGE_LOOP ( 'NONE', ( #487, #535, #656, #642 ) ) ;
#289 = ADVANCED_BREP_SHAPE_REPRESENTATION ( 'Eje corto_Predeterminado_sldprt', ( #485, #453 ), #267 ) ;
#290 = DIRECTION ( 'NONE',  ( -1.000000000000000000, 0.000000000000000000, 0.000000000000000000 ) ) ;
#291 = EDGE_CURVE ( 'NONE', #624, #268, #456, .T. ) ;
#292 = ORIENTED_EDGE ( 'NONE', *, *, #643, .T. ) ;
#293 = AXIS2_PLACEMENT_3D ( 'NONE', #243, #399, #126 ) ;
#294 = CARTESIAN_POINT ( 'NONE',  ( 0.000000000000000000, 0.000000000000000000, 0.000000000000000000 ) ) ;
#295 = CARTESIAN_POINT ( 'NONE',  ( 0.000000000000000000, 0.000000000000000000, 6.000000000000000000 ) ) ;
#296 = EDGE_LOOP ( 'NONE', ( #382, #628, #610, #598 ) ) ;
#297 = CARTESIAN_POINT ( 'NONE',  ( 0.000000000000000000, 0.000000000000000000, 12.00000000000000000 ) ) ;
#298 = APPROVAL_STATUS ( 'not_yet_approved' ) ;
#299 = VECTOR ( 'NONE', #359, 1000.000000000000000 ) ;
#300 = CARTESIAN_POINT ( 'NONE',  ( -0.7500000000000012212, 4.266459857533309474, -2.669310883526621936 ) ) ;
#301 = AXIS2_PLACEMENT_3D ( 'NONE', #111, #179, #2 ) ;
#302 = CC_DESIGN_SECURITY_CLASSIFICATION ( #119, ( #368 ) ) ;
#303 = EDGE_CURVE ( 'NONE', #689, #509, #533, .T. ) ;
#304 = CARTESIAN_POINT ( 'NONE',  ( 0.7500000000000001110, -4.266459857533309474, -2.669310883526621936 ) ) ;
#305 = SECURITY_CLASSIFICATION_LEVEL ( 'unclassified' ) ;
#306 = CARTESIAN_POINT ( 'NONE',  ( -0.7500000000000000000, -4.943429983321296461, 0.000000000000000000 ) ) ;
#307 = ORIENTED_EDGE ( 'NONE', *, *, #341, .T. ) ;
#308 = CC_DESIGN_PERSON_AND_ORGANIZATION_ASSIGNMENT ( #88, #144, ( #368 ) ) ;
#309 = DIRECTION ( 'NONE',  ( 0.000000000000000000, 0.000000000000000000, 1.000000000000000000 ) ) ;
#310 = PERSON_AND_ORGANIZATION ( #218, #665 ) ;
#311 = CARTESIAN_POINT ( 'NONE',  ( -0.7500000000000013323, 4.943429983321296461, 0.000000000000000000 ) ) ;
#312 = LINE ( 'NONE', #484, #639 ) ;
#313 = CIRCLE ( 'NONE', #95, 3.000000000000002665 ) ;
#314 = FACE_OUTER_BOUND ( 'NONE', #282, .T. ) ;
#315 = FACE_OUTER_BOUND ( 'NONE', #432, .T. ) ;
#316 = DIRECTION ( 'NONE',  ( -0.000000000000000000, -0.000000000000000000, -1.000000000000000000 ) ) ;
#317 = CARTESIAN_POINT ( 'NONE',  ( 0.7500000000000012212, 4.437059837324711431, 12.00000000000000000 ) ) ;
#318 = DIRECTION ( 'NONE',  ( 0.000000000000000000, 0.000000000000000000, 1.000000000000000000 ) ) ;
#319 = DIRECTION ( 'NONE',  ( -0.000000000000000000, 0.000000000000000000, -1.000000000000000000 ) ) ;
#320 = VERTEX_POINT ( 'NONE', #502 ) ;
#321 = ADVANCED_FACE ( 'NONE', ( #284 ), #605, .T. ) ;
#322 = CIRCLE ( 'NONE', #104, 3.499999999999996003 ) ;
#323 = CARTESIAN_POINT ( 'NONE',  ( 0.7500000000000013323, 4.943429983321296461, -1.999999999999992228 ) ) ;
#324 = ORIENTED_EDGE ( 'NONE', *, *, #659, .T. ) ;
#325 = ORIENTED_EDGE ( 'NONE', *, *, #436, .F. ) ;
#326 = FACE_OUTER_BOUND ( 'NONE', #32, .T. ) ;
#327 = EDGE_CURVE ( 'NONE', #394, #110, #228, .T. ) ;
#328 = EDGE_CURVE ( 'NONE', #335, #268, #274, .T. ) ;
#329 = EDGE_LOOP ( 'NONE', ( #60, #270, #71, #698 ) ) ;
#330 = CARTESIAN_POINT ( 'NONE',  ( -0.7500000000000001110, -4.437059837324711431, 6.000000000000000000 ) ) ;
#331 = DIRECTION ( 'NONE',  ( 0.000000000000000000, 0.000000000000000000, -1.000000000000000000 ) ) ;
#332 = VECTOR ( 'NONE', #481, 1000.000000000000000 ) ;
#334 = VERTEX_POINT ( 'NONE', #194 ) ;
#333 = AXIS2_PLACEMENT_3D ( 'NONE', #295, #62, #133 ) ;
#335 = VERTEX_POINT ( 'NONE', #537 ) ;
#336 = AXIS2_PLACEMENT_3D ( 'NONE', #542, #538, #580 ) ;
#337 = DIRECTION ( 'NONE',  ( -0.000000000000000000, -0.000000000000000000, 1.000000000000000000 ) ) ;
#338 = ORIENTED_EDGE ( 'NONE', *, *, #473, .F. ) ;
#339 = ORIENTED_EDGE ( 'NONE', *, *, #436, .T. ) ;
#340 = FACE_OUTER_BOUND ( 'NONE', #172, .T. ) ;
#341 = EDGE_CURVE ( 'NONE', #69, #1, #22, .T. ) ;
#342 = FACE_OUTER_BOUND ( 'NONE', #424, .T. ) ;
#343 = ORIENTED_EDGE ( 'NONE', *, *, #454, .F. ) ;
#344 = CARTESIAN_POINT ( 'NONE',  ( 0.7500000000000009992, 2.904737509655565209, -4.000000000000000000 ) ) ;
#345 = CARTESIAN_POINT ( 'NONE',  ( -0.7500000000000001110, -4.266459857533309474, -2.669310883526621048 ) ) ;
#346 = VERTEX_POINT ( 'NONE', #344 ) ;
#347 = VECTOR ( 'NONE', #548, 1000.000000000000000 ) ;
#348 = CARTESIAN_POINT ( 'NONE',  ( -0.7500000000000000000, -4.943429983321296461, -4.000000000000000000 ) ) ;
#349 = VERTEX_POINT ( 'NONE', #245 ) ;
#350 = LINE ( 'NONE', #632, #488 ) ;
#351 = CARTESIAN_POINT ( 'NONE',  ( 0.7500000000000002220, -3.588669515573642332, -3.337785682785260111 ) ) ;
#352 = CALENDAR_DATE ( 2026, 21, 4 ) ;
#353 = AXIS2_PLACEMENT_3D ( 'NONE', #101, #318, #93 ) ;
#354 = EDGE_CURVE ( 'NONE', #349, #320, #313, .T. ) ;
#355 = COORDINATED_UNIVERSAL_TIME_OFFSET ( 6, 0, .BEHIND. ) ;
#356 = VECTOR ( 'NONE', #630, 1000.000000000000000 ) ;
#357 = FACE_OUTER_BOUND ( 'NONE', #51, .T. ) ;
#358 = APPROVAL_STATUS ( 'not_yet_approved' ) ;
#359 = DIRECTION ( 'NONE',  ( -1.230208065046886026E-16, 1.000000000000000000, 0.000000000000000000 ) ) ;
#360 = MECHANICAL_CONTEXT ( 'NONE', #180, 'mechanical' ) ;
#361 = ADVANCED_FACE ( 'NONE', ( #589, #483 ), #469, .F. ) ;
#362 = DIRECTION ( 'NONE',  ( -1.000000000000000000, 0.000000000000000000, 0.000000000000000000 ) ) ;
#363 = CARTESIAN_POINT ( 'NONE',  ( -0.7500000000000006661, -9.226560487851653827E-17, 0.000000000000000000 ) ) ;
#364 = VECTOR ( 'NONE', #206, 1000.000000000000000 ) ;
#365 = CARTESIAN_POINT ( 'NONE',  ( 0.7500000000000000000, -4.943429983321296461, -1.999999999999992228 ) ) ;
#366 = DIRECTION ( 'NONE',  ( 1.000000000000000000, 0.000000000000000000, -0.000000000000000000 ) ) ;
#367 = VECTOR ( 'NONE', #564, 1000.000000000000000 ) ;
#368 = PRODUCT_DEFINITION_FORMATION_WITH_SPECIFIED_SOURCE ( 'ANY', '', #87, .NOT_KNOWN. ) ;
#369 = CARTESIAN_POINT ( 'NONE',  ( -4.500000000000000000, 0.000000000000000000, 12.00000000000000000 ) ) ;
#370 = CARTESIAN_POINT ( 'NONE',  ( 0.7500000000000011102, 3.588669515573643221, -3.337785682785260111 ) ) ;
#371 = CONICAL_SURFACE ( 'NONE', #132, 3.000000000000002665, 0.7853981633974457255 ) ;
#372 = CARTESIAN_POINT ( 'NONE',  ( -0.7500000000000001110, -4.437059837324711431, 0.000000000000000000 ) ) ;
#373 = ORIENTED_EDGE ( 'NONE', *, *, #354, .F. ) ;
#374 = DIRECTION ( 'NONE',  ( -1.000000000000000000, 0.000000000000000000, 0.000000000000000000 ) ) ;
#375 = DIRECTION ( 'NONE',  ( -1.000000000000000000, 0.000000000000000000, 0.000000000000000000 ) ) ;
#376 = DIRECTION ( 'NONE',  ( 1.000000000000000000, 0.000000000000000000, 0.000000000000000000 ) ) ;
#377 = ORIENTED_EDGE ( 'NONE', *, *, #385, .F. ) ;
#378 = CYLINDRICAL_SURFACE ( 'NONE', #257, 5.000000000000000000 ) ;
#379 = ADVANCED_FACE ( 'NONE', ( #97 ), #248, .T. ) ;
#380 = CARTESIAN_POINT ( 'NONE',  ( 0.000000000000000000, 0.000000000000000000, 0.000000000000000000 ) ) ;
#381 = CIRCLE ( 'NONE', #128, 4.500000000000000000 ) ;
#382 = ORIENTED_EDGE ( 'NONE', *, *, #210, .F. ) ;
#383 = CC_DESIGN_PERSON_AND_ORGANIZATION_ASSIGNMENT ( #310, #471, ( #119 ) ) ;
#384 = CARTESIAN_POINT ( 'NONE',  ( 4.500000000000000000, 5.510910596163088569E-16, 0.000000000000000000 ) ) ;
#385 = EDGE_CURVE ( 'NONE', #334, #224, #186, .T. ) ;
#386 = VERTEX_POINT ( 'NONE', #574 ) ;
#387 = CARTESIAN_POINT ( 'NONE',  ( 5.000000000000000000, 0.000000000000000000, -4.000000000000000000 ) ) ;
#388 = VERTEX_POINT ( 'NONE', #676 ) ;
#389 = DIRECTION ( 'NONE',  ( 0.000000000000000000, 0.000000000000000000, -1.000000000000000000 ) ) ;
#390 = PLANE ( 'NONE',  #333 ) ;
#391 = PERSON_AND_ORGANIZATION ( #218, #665 ) ;
#392 = AXIS2_PLACEMENT_3D ( 'NONE', #444, #708, #551 ) ;
#394 = VERTEX_POINT ( 'NONE', #311 ) ;
#393 = CIRCLE ( 'NONE', #74, 3.000000000000002665 ) ;
#395 = ORIENTED_EDGE ( 'NONE', *, *, #409, .F. ) ;
#396 = EDGE_CURVE ( 'NONE', #320, #110, #177, .T. ) ;
#397 = PRODUCT_RELATED_PRODUCT_CATEGORY ( 'detail', '', ( #87 ) ) ;
#398 = CARTESIAN_POINT ( 'NONE',  ( 0.000000000000000000, 0.000000000000000000, 0.000000000000000000 ) ) ;
#399 = DIRECTION ( 'NONE',  ( 0.000000000000000000, 0.000000000000000000, 1.000000000000000000 ) ) ;
#400 = ORIENTED_EDGE ( 'NONE', *, *, #558, .F. ) ;
#401 = CARTESIAN_POINT ( 'NONE',  ( 0.000000000000000000, 0.000000000000000000, 12.00000000000000000 ) ) ;
#402 = DIRECTION ( 'NONE',  ( 0.000000000000000000, 0.000000000000000000, 1.000000000000000000 ) ) ;
#403 = VERTEX_POINT ( 'NONE', #461 ) ;
#404 = DIRECTION ( 'NONE',  ( 0.000000000000000000, 0.000000000000000000, -1.000000000000000000 ) ) ;
#405 = DIRECTION ( 'NONE',  ( -1.000000000000000000, 0.000000000000000000, 0.000000000000000000 ) ) ;
#406 = ORIENTED_EDGE ( 'NONE', *, *, #260, .F. ) ;
#407 = AXIS2_PLACEMENT_3D ( 'NONE', #213, #430, #161 ) ;
#408 = CARTESIAN_POINT ( 'NONE',  ( 5.000000000000000000, 0.000000000000000000, 0.000000000000000000 ) ) ;
#409 = EDGE_CURVE ( 'NONE', #63, #287, #350, .T. ) ;
#410 = DIRECTION ( 'NONE',  ( 0.000000000000000000, 0.000000000000000000, 1.000000000000000000 ) ) ;
#411 = EDGE_CURVE ( 'NONE', #277, #11, #148, .T. ) ;
#412 = VERTEX_POINT ( 'NONE', #92 ) ;
#413 = CARTESIAN_POINT ( 'NONE',  ( 0.000000000000000000, 0.000000000000000000, 12.00000000000000000 ) ) ;
#414 = DIRECTION ( 'NONE',  ( -1.000000000000000000, 0.000000000000000000, 0.000000000000000000 ) ) ;
#415 = AXIS2_PLACEMENT_3D ( 'NONE', #158, #264, #374 ) ;
#416 = EDGE_CURVE ( 'NONE', #412, #223, #438, .T. ) ;
#417 = COORDINATED_UNIVERSAL_TIME_OFFSET ( 6, 0, .BEHIND. ) ;
#418 = DIRECTION ( 'NONE',  ( 0.000000000000000000, 0.000000000000000000, -1.000000000000000000 ) ) ;
#419 = CARTESIAN_POINT ( 'NONE',  ( 0.000000000000000000, 0.000000000000000000, 12.00000000000000000 ) ) ;
#420 = LINE ( 'NONE', #259, #709 ) ;
#421 = ORIENTED_EDGE ( 'NONE', *, *, #460, .T. ) ;
#422 = CARTESIAN_POINT ( 'NONE',  ( 0.7500000000000012212, 4.437059837324711431, 0.000000000000000000 ) ) ;
#423 = APPROVAL_DATE_TIME ( #204, #141 ) ;
#424 = EDGE_LOOP ( 'NONE', ( #253, #468, #406, #64, #505 ) ) ;
#425 = CIRCLE ( 'NONE', #407, 4.500000000000000000 ) ;
#426 = EDGE_CURVE ( 'NONE', #287, #596, #183, .T. ) ;
#427 = ORIENTED_EDGE ( 'NONE', *, *, #514, .F. ) ;
#428 = FACE_OUTER_BOUND ( 'NONE', #657, .T. ) ;
#429 = ORIENTED_EDGE ( 'NONE', *, *, #76, .T. ) ;
#430 = DIRECTION ( 'NONE',  ( 0.000000000000000000, 0.000000000000000000, 1.000000000000000000 ) ) ;
#431 = B_SPLINE_CURVE_WITH_KNOTS ( 'NONE', 3,
 ( #323, #592, #370, #650 ),
 .UNSPECIFIED., .F., .F.,
 ( 4, 4 ),
 ( 0.000000000000000000, 0.002855917891358456147 ),
 .UNSPECIFIED. ) ;
#432 = EDGE_LOOP ( 'NONE', ( #175, #79, #134, #231, #182, #496 ) ) ;
#433 = DIRECTION ( 'NONE',  ( -0.000000000000000000, -0.000000000000000000, -1.000000000000000000 ) ) ;
#434 = CC_DESIGN_PERSON_AND_ORGANIZATION_ASSIGNMENT ( #391, #235, ( #368 ) ) ;
#435 = EDGE_LOOP ( 'NONE', ( #600, #616, #103, #255 ) ) ;
#436 = EDGE_CURVE ( 'NONE', #224, #508, #256, .T. ) ;
#437 = CARTESIAN_POINT ( 'NONE',  ( 0.000000000000000000, 0.000000000000000000, 16.00000000000000000 ) ) ;
#438 = CIRCLE ( 'NONE', #222, 5.000000000000000000 ) ;
#439 = VECTOR ( 'NONE', #627, 1000.000000000000000 ) ;
#440 = ORIENTED_EDGE ( 'NONE', *, *, #140, .F. ) ;
#441 = CARTESIAN_POINT ( 'NONE',  ( -0.7500000000000000000, -4.943429983321296461, -1.999999999999992228 ) ) ;
#442 = CARTESIAN_POINT ( 'NONE',  ( 0.000000000000000000, 0.000000000000000000, 6.000000000000000000 ) ) ;
#443 = ORIENTED_EDGE ( 'NONE', *, *, #205, .F. ) ;
#444 = CARTESIAN_POINT ( 'NONE',  ( 0.000000000000000000, 0.000000000000000000, 12.00000000000000000 ) ) ;
#445 = AXIS2_PLACEMENT_3D ( 'NONE', #587, #96, #582 ) ;
#446 = CARTESIAN_POINT ( 'NONE',  ( -0.7500000000000012212, 4.437059837324711431, 6.000000000000000000 ) ) ;
#447 = ORIENTED_EDGE ( 'NONE', *, *, #291, .F. ) ;
#448 = APPLICATION_CONTEXT ( 'configuration controlled 3d designs of mechanical parts and assemblies' ) ;
#449 = CYLINDRICAL_SURFACE ( 'NONE', #590, 5.500000000000000000 ) ;
#450 = CARTESIAN_POINT ( 'NONE',  ( -0.7500000000000002220, -3.588669515573643665, -3.337785682785260111 ) ) ;
#451 = PERSON_AND_ORGANIZATION ( #218, #665 ) ;
#452 = AXIS2_PLACEMENT_3D ( 'NONE', #541, #45, #376 ) ;
#453 = AXIS2_PLACEMENT_3D ( 'NONE', #200, #682, #578 ) ;
#454 = EDGE_CURVE ( 'NONE', #388, #403, #620, .T. ) ;
#455 = ORIENTED_EDGE ( 'NONE', *, *, #520, .F. ) ;
#456 = LINE ( 'NONE', #554, #84 ) ;
#457 = CARTESIAN_POINT ( 'NONE',  ( 0.7500000000000013323, 5.303564433999273575, -4.000000000000000000 ) ) ;
#458 = EDGE_LOOP ( 'NONE', ( #562, #21, #429 ) ) ;
#459 = VERTEX_POINT ( 'NONE', #408 ) ;
#460 = EDGE_CURVE ( 'NONE', #11, #394, #637, .T. ) ;
#461 = CARTESIAN_POINT ( 'NONE',  ( 0.7500000000000001110, -4.437059837324711431, 6.000000000000000000 ) ) ;
#462 = FACE_OUTER_BOUND ( 'NONE', #296, .T. ) ;
#463 = APPROVAL_ROLE ( '' ) ;
#464 = CARTESIAN_POINT ( 'NONE',  ( 0.000000000000000000, 0.000000000000000000, -4.000000000000000000 ) ) ;
#465 = APPROVAL_STATUS ( 'not_yet_approved' ) ;
#466 = AXIS2_PLACEMENT_3D ( 'NONE', #401, #532, #36 ) ;
#467 = LOCAL_TIME ( 14, 27, 36.00000000000000000, #417 ) ;
#468 = ORIENTED_EDGE ( 'NONE', *, *, #636, .T. ) ;
#469 = PLANE ( 'NONE',  #143 ) ;
#470 = PRODUCT_DEFINITION_SHAPE ( 'NONE', 'NONE',  #185 ) ;
#471 = PERSON_AND_ORGANIZATION_ROLE ( 'classification_officer' ) ;
#472 = CALENDAR_DATE ( 2026, 21, 4 ) ;
#473 = EDGE_CURVE ( 'NONE', #490, #211, #524, .T. ) ;
#474 =( NAMED_UNIT ( * ) SI_UNIT ( $, .STERADIAN. ) SOLID_ANGLE_UNIT ( ) );
#475 = VECTOR ( 'NONE', #695, 1000.000000000000000 ) ;
#476 = DIRECTION ( 'NONE',  ( -0.000000000000000000, -0.000000000000000000, 1.000000000000000000 ) ) ;
#477 = CC_DESIGN_APPROVAL ( #130, ( #185 ) ) ;
#478 = ORIENTED_EDGE ( 'NONE', *, *, #156, .F. ) ;
#479 = DIRECTION ( 'NONE',  ( -1.000000000000000000, -1.230208065046886026E-16, 0.000000000000000000 ) ) ;
#480 = CARTESIAN_POINT ( 'NONE',  ( 0.7500000000000006661, -9.226560487851653827E-17, 0.000000000000000000 ) ) ;
#481 = DIRECTION ( 'NONE',  ( -1.230208065046886026E-16, -1.000000000000000000, 0.000000000000000000 ) ) ;
#482 = DIRECTION ( 'NONE',  ( 1.000000000000000000, 0.000000000000000000, 0.000000000000000000 ) ) ;
#483 = FACE_OUTER_BOUND ( 'NONE', #553, .T. ) ;
#484 = CARTESIAN_POINT ( 'NONE',  ( 3.000000000000002665, 0.000000000000000000, -4.000000000000000000 ) ) ;
#485 = MANIFOLD_SOLID_BREP ( 'Chafl\X2\00e1\X0\n1', #20 ) ;
#486 = ADVANCED_FACE ( 'NONE', ( #125 ), #77, .T. ) ;
#487 = ORIENTED_EDGE ( 'NONE', *, *, #199, .T. ) ;
#488 = VECTOR ( 'NONE', #644, 1000.000000000000000 ) ;
#489 = CARTESIAN_POINT ( 'NONE',  ( -4.500000000000000000, 0.000000000000000000, 0.000000000000000000 ) ) ;
#490 = VERTEX_POINT ( 'NONE', #500 ) ;
#491 = ORIENTED_EDGE ( 'NONE', *, *, #568, .T. ) ;
#492 = DIRECTION ( 'NONE',  ( 1.000000000000000000, 0.000000000000000000, 0.000000000000000000 ) ) ;
#493 = EDGE_CURVE ( 'NONE', #490, #346, #431, .T. ) ;
#494 = ORIENTED_EDGE ( 'NONE', *, *, #544, .F. ) ;
#495 = CARTESIAN_POINT ( 'NONE',  ( 0.7500000000000013323, 5.303564433999273575, 6.000000000000000000 ) ) ;
#496 = ORIENTED_EDGE ( 'NONE', *, *, #118, .F. ) ;
#497 = ORIENTED_EDGE ( 'NONE', *, *, #549, .T. ) ;
#498 = DIRECTION ( 'NONE',  ( 1.000000000000000000, 0.000000000000000000, 0.000000000000000000 ) ) ;
#499 = AXIS2_PLACEMENT_3D ( 'NONE', #543, #43, #694 ) ;
#500 = CARTESIAN_POINT ( 'NONE',  ( 0.7500000000000013323, 4.943429983321296461, -1.999999999999992228 ) ) ;
#501 = ORIENTED_EDGE ( 'NONE', *, *, #473, .T. ) ;
#502 = CARTESIAN_POINT ( 'NONE',  ( -0.7500000000000009992, 2.904737509655565209, -4.000000000000000000 ) ) ;
#503 = DATE_AND_TIME ( #631, #166 ) ;
#504 = ORIENTED_EDGE ( 'NONE', *, *, #328, .T. ) ;
#505 = ORIENTED_EDGE ( 'NONE', *, *, #9, .T. ) ;
#506 = DIRECTION ( 'NONE',  ( 1.000000000000000000, 0.000000000000000000, 0.000000000000000000 ) ) ;
#507 = EDGE_CURVE ( 'NONE', #403, #287, #525, .T. ) ;
#508 = VERTEX_POINT ( 'NONE', #214 ) ;
#509 = VERTEX_POINT ( 'NONE', #489 ) ;
#510 = LINE ( 'NONE', #387, #626 ) ;
#511 = CARTESIAN_POINT ( 'NONE',  ( 3.000000000000002665, 0.000000000000000000, -4.000000000000000000 ) ) ;
#512 = CIRCLE ( 'NONE', #293, 5.500000000000000000 ) ;
#513 = LOCAL_TIME ( 14, 27, 36.00000000000000000, #615 ) ;
#514 = EDGE_CURVE ( 'NONE', #623, #624, #599, .T. ) ;
#515 = DIRECTION ( 'NONE',  ( -0.7071067811865465735, 0.000000000000000000, -0.7071067811865484609 ) ) ;
#516 = CARTESIAN_POINT ( 'NONE',  ( -4.500000000000000000, 0.000000000000000000, 12.00000000000000000 ) ) ;
#517 = PERSON_AND_ORGANIZATION_ROLE ( 'design_owner' ) ;
#518 = CC_DESIGN_DATE_AND_TIME_ASSIGNMENT ( #174, #286, ( #185 ) ) ;
#519 = ORIENTED_EDGE ( 'NONE', *, *, #609, .T. ) ;
#520 = EDGE_CURVE ( 'NONE', #596, #689, #594, .T. ) ;
#521 = DIRECTION ( 'NONE',  ( -0.000000000000000000, -0.000000000000000000, -1.000000000000000000 ) ) ;
#522 = AXIS2_PLACEMENT_3D ( 'NONE', #152, #418, #414 ) ;
#523 = PERSON_AND_ORGANIZATION ( #218, #665 ) ;
#524 = LINE ( 'NONE', #201, #356 ) ;
#525 = CIRCLE ( 'NONE', #601, 4.500000000000000000 ) ;
#526 = AXIS2_PLACEMENT_3D ( 'NONE', #137, #28, #633 ) ;
#527 = CARTESIAN_POINT ( 'NONE',  ( 0.7500000000000003331, -2.904737509655566097, -4.000000000000000000 ) ) ;
#528 = DIRECTION ( 'NONE',  ( 1.000000000000000000, 0.000000000000000000, 0.000000000000000000 ) ) ;
#529 = CALENDAR_DATE ( 2026, 21, 4 ) ;
#530 = CARTESIAN_POINT ( 'NONE',  ( -3.499999999999996003, 0.000000000000000000, 16.00000000000000000 ) ) ;
#531 = PLANE ( 'NONE',  #602 ) ;
#533 = CIRCLE ( 'NONE', #196, 4.500000000000000000 ) ;
#532 = DIRECTION ( 'NONE',  ( 0.000000000000000000, 0.000000000000000000, 1.000000000000000000 ) ) ;
#534 = CC_DESIGN_APPROVAL ( #275, ( #368 ) ) ;
#535 = ORIENTED_EDGE ( 'NONE', *, *, #454, .T. ) ;
#536 = CC_DESIGN_DATE_AND_TIME_ASSIGNMENT ( #138, #586, ( #119 ) ) ;
#537 = CARTESIAN_POINT ( 'NONE',  ( 0.7500000000000001110, -4.437059837324711431, 0.000000000000000000 ) ) ;
#538 = DIRECTION ( 'NONE',  ( 0.000000000000000000, 0.000000000000000000, -1.000000000000000000 ) ) ;
#539 = ADVANCED_FACE ( 'NONE', ( #50 ), #48, .T. ) ;
#540 = PLANE ( 'NONE',  #499 ) ;
#541 = CARTESIAN_POINT ( 'NONE',  ( 0.000000000000000000, 0.000000000000000000, 12.00000000000000000 ) ) ;
#542 = CARTESIAN_POINT ( 'NONE',  ( 0.000000000000000000, 0.000000000000000000, -4.000000000000000000 ) ) ;
#543 = CARTESIAN_POINT ( 'NONE',  ( 0.000000000000000000, 0.000000000000000000, -4.000000000000000000 ) ) ;
#544 = EDGE_CURVE ( 'NONE', #349, #320, #699, .T. ) ;
#545 = LINE ( 'NONE', #480, #475 ) ;
#546 = CARTESIAN_POINT ( 'NONE',  ( -0.7500000000000012212, 4.437059837324711431, 12.00000000000000000 ) ) ;
#547 = AXIS2_PLACEMENT_3D ( 'NONE', #696, #269, #492 ) ;
#548 = DIRECTION ( 'NONE',  ( -0.000000000000000000, -0.000000000000000000, -1.000000000000000000 ) ) ;
#549 = EDGE_CURVE ( 'NONE', #277, #349, #691, .T. ) ;
#550 = ORIENTED_EDGE ( 'NONE', *, *, #187, .T. ) ;
#551 = DIRECTION ( 'NONE',  ( -1.000000000000000000, 0.000000000000000000, 0.000000000000000000 ) ) ;
#552 = CARTESIAN_POINT ( 'NONE',  ( 0.000000000000000000, 0.000000000000000000, 6.000000000000000000 ) ) ;
#553 = EDGE_LOOP ( 'NONE', ( #57, #325 ) ) ;
#554 = CARTESIAN_POINT ( 'NONE',  ( 4.500000000000000000, 5.510910596163088569E-16, 12.00000000000000000 ) ) ;
#555 = AXIS2_PLACEMENT_3D ( 'NONE', #413, #309, #528 ) ;
#556 = DIRECTION ( 'NONE',  ( -1.230208065046886026E-16, -1.000000000000000000, 0.000000000000000000 ) ) ;
#557 = ORIENTED_EDGE ( 'NONE', *, *, #411, .T. ) ;
#558 = EDGE_CURVE ( 'NONE', #69, #619, #322, .T. ) ;
#559 = LINE ( 'NONE', #221, #178 ) ;
#560 = CARTESIAN_POINT ( 'NONE',  ( 0.000000000000000000, 0.000000000000000000, 16.00000000000000000 ) ) ;
#561 = ORIENTED_EDGE ( 'NONE', *, *, #327, .F. ) ;
#562 = ORIENTED_EDGE ( 'NONE', *, *, #609, .F. ) ;
#563 = CARTESIAN_POINT ( 'NONE',  ( 5.000000000000000000, 0.000000000000000000, -1.999999999999992228 ) ) ;
#564 = DIRECTION ( 'NONE',  ( -0.000000000000000000, -0.000000000000000000, 1.000000000000000000 ) ) ;
#565 = AXIS2_PLACEMENT_3D ( 'NONE', #90, #203, #150 ) ;
#566 = CARTESIAN_POINT ( 'NONE',  ( -5.500000000000000000, 0.000000000000000000, 16.00000000000000000 ) ) ;
#567 = CC_DESIGN_APPROVAL ( #141, ( #119 ) ) ;
#568 = EDGE_CURVE ( 'NONE', #508, #224, #512, .T. ) ;
#569 = ORIENTED_EDGE ( 'NONE', *, *, #164, .T. ) ;
#570 = ORIENTED_EDGE ( 'NONE', *, *, #520, .T. ) ;
#571 = DIRECTION ( 'NONE',  ( -1.230208065046886026E-16, 1.000000000000000000, -0.000000000000000000 ) ) ;
#572 = APPLICATION_PROTOCOL_DEFINITION ( 'international standard', 'config_control_design', 1994, #448 ) ;
#573 = VERTEX_POINT ( 'NONE', #511 ) ;
#574 = CARTESIAN_POINT ( 'NONE',  ( 0.7500000000000003331, -2.904737509655566097, -4.000000000000000000 ) ) ;
#575 = CIRCLE ( 'NONE', #445, 5.500000000000000000 ) ;
#576 = CARTESIAN_POINT ( 'NONE',  ( 0.000000000000000000, 0.000000000000000000, 13.99999999999999112 ) ) ;
#577 = PERSON_AND_ORGANIZATION ( #218, #665 ) ;
#578 = DIRECTION ( 'NONE',  ( 1.000000000000000000, 0.000000000000000000, 0.000000000000000000 ) ) ;
#579 = EDGE_CURVE ( 'NONE', #1, #508, #115, .T. ) ;
#580 = DIRECTION ( 'NONE',  ( -1.000000000000000000, 0.000000000000000000, 0.000000000000000000 ) ) ;
#581 = DIRECTION ( 'NONE',  ( 0.000000000000000000, 0.000000000000000000, -1.000000000000000000 ) ) ;
#582 = DIRECTION ( 'NONE',  ( 1.000000000000000000, 0.000000000000000000, 0.000000000000000000 ) ) ;
#583 = VECTOR ( 'NONE', #208, 1000.000000000000000 ) ;
#584 = DIRECTION ( 'NONE',  ( 1.000000000000000000, 0.000000000000000000, 0.000000000000000000 ) ) ;
#585 = FACE_OUTER_BOUND ( 'NONE', #458, .T. ) ;
#586 = DATE_TIME_ROLE ( 'classification_date' ) ;
#587 = CARTESIAN_POINT ( 'NONE',  ( 0.000000000000000000, 0.000000000000000000, 13.99999999999999112 ) ) ;
#588 = ADVANCED_FACE ( 'NONE', ( #342 ), #285, .F. ) ;
#590 = AXIS2_PLACEMENT_3D ( 'NONE', #437, #12, #663 ) ;
#589 = FACE_BOUND ( 'NONE', #283, .T. ) ;
#591 = AXIS2_PLACEMENT_3D ( 'NONE', #560, #66, #678 ) ;
#592 = CARTESIAN_POINT ( 'NONE',  ( 0.7500000000000012212, 4.266459857533309474, -2.669310883526621048 ) ) ;
#593 = CARTESIAN_POINT ( 'NONE',  ( 0.7500000000000000000, -4.943429983321296461, 0.000000000000000000 ) ) ;
#594 = LINE ( 'NONE', #546, #347 ) ;
#595 = DIRECTION ( 'NONE',  ( 1.000000000000000000, 0.000000000000000000, 0.000000000000000000 ) ) ;
#596 = VERTEX_POINT ( 'NONE', #446 ) ;
#597 = EDGE_CURVE ( 'NONE', #346, #573, #393, .T. ) ;
#598 = ORIENTED_EDGE ( 'NONE', *, *, #341, .F. ) ;
#599 = CIRCLE ( 'NONE', #452, 4.500000000000000000 ) ;
#600 = ORIENTED_EDGE ( 'NONE', *, *, #416, .T. ) ;
#601 = AXIS2_PLACEMENT_3D ( 'NONE', #442, #319, #99 ) ;
#602 = AXIS2_PLACEMENT_3D ( 'NONE', #82, #479, #197 ) ;
#603 = DIRECTION ( 'NONE',  ( 0.000000000000000000, 0.000000000000000000, -1.000000000000000000 ) ) ;
#604 = ORIENTED_EDGE ( 'NONE', *, *, #579, .F. ) ;
#605 = CYLINDRICAL_SURFACE ( 'NONE', #301, 5.500000000000000000 ) ;
#606 = ORIENTED_EDGE ( 'NONE', *, *, #507, .F. ) ;
#607 = DIRECTION ( 'NONE',  ( 0.000000000000000000, 0.000000000000000000, 1.000000000000000000 ) ) ;
#608 = EDGE_LOOP ( 'NONE', ( #377, #662, #706, #491 ) ) ;
#609 = EDGE_CURVE ( 'NONE', #346, #386, #181, .T. ) ;
#610 = ORIENTED_EDGE ( 'NONE', *, *, #127, .F. ) ;
#611 = DIRECTION ( 'NONE',  ( 0.7071067811865465735, 8.659560562354921765E-17, -0.7071067811865484609 ) ) ;
#612 = CIRCLE ( 'NONE', #59, 4.500000000000000000 ) ;
#613 = APPROVAL_PERSON_ORGANIZATION ( #451, #130, #463 ) ;
#614 = CARTESIAN_POINT ( 'NONE',  ( 3.499999999999996003, 5.510910596163086597E-16, 16.00000000000000000 ) ) ;
#615 = COORDINATED_UNIVERSAL_TIME_OFFSET ( 6, 0, .BEHIND. ) ;
#616 = ORIENTED_EDGE ( 'NONE', *, *, #205, .T. ) ;
#617 = DIRECTION ( 'NONE',  ( 0.000000000000000000, 0.000000000000000000, 1.000000000000000000 ) ) ;
#618 = DIRECTION ( 'NONE',  ( 1.000000000000000000, 0.000000000000000000, 0.000000000000000000 ) ) ;
#619 = VERTEX_POINT ( 'NONE', #614 ) ;
#620 = LINE ( 'NONE', #258, #332 ) ;
#621 = ADVANCED_FACE ( 'NONE', ( #670 ), #390, .T. ) ;
#622 = DATE_AND_TIME ( #352, #513 ) ;
#623 = VERTEX_POINT ( 'NONE', #516 ) ;
#624 = VERTEX_POINT ( 'NONE', #281 ) ;
#625 = DIRECTION ( 'NONE',  ( -1.000000000000000000, 0.000000000000000000, 0.000000000000000000 ) ) ;
#626 = VECTOR ( 'NONE', #337, 1000.000000000000000 ) ;
#627 = DIRECTION ( 'NONE',  ( -1.230208065046886026E-16, 1.000000000000000000, 0.000000000000000000 ) ) ;
#628 = ORIENTED_EDGE ( 'NONE', *, *, #252, .T. ) ;
#629 = ORIENTED_EDGE ( 'NONE', *, *, #260, .T. ) ;
#630 = DIRECTION ( 'NONE',  ( -0.000000000000000000, -0.000000000000000000, 1.000000000000000000 ) ) ;
#631 = CALENDAR_DATE ( 2026, 21, 4 ) ;
#632 = CARTESIAN_POINT ( 'NONE',  ( -0.7500000000000001110, -4.437059837324711431, 12.00000000000000000 ) ) ;
#633 = DIRECTION ( 'NONE',  ( 1.000000000000000000, 0.000000000000000000, 0.000000000000000000 ) ) ;
#634 = PERSON_AND_ORGANIZATION ( #218, #665 ) ;
#635 = ORIENTED_EDGE ( 'NONE', *, *, #426, .F. ) ;
#636 = EDGE_CURVE ( 'NONE', #11, #63, #18, .T. ) ;
#637 = CIRCLE ( 'NONE', #25, 5.000000000000000000 ) ;
#638 = FACE_OUTER_BOUND ( 'NONE', #117, .T. ) ;
#639 = VECTOR ( 'NONE', #37, 1000.000000000000000 ) ;
#640 = ADVANCED_FACE ( 'NONE', ( #462 ), #155, .T. ) ;
#641 = DIRECTION ( 'NONE',  ( 0.000000000000000000, 0.000000000000000000, 1.000000000000000000 ) ) ;
#642 = ORIENTED_EDGE ( 'NONE', *, *, #426, .T. ) ;
#643 = EDGE_CURVE ( 'NONE', #386, #412, #142, .T. ) ;
#644 = DIRECTION ( 'NONE',  ( 0.000000000000000000, 0.000000000000000000, 1.000000000000000000 ) ) ;
#645 = ORIENTED_EDGE ( 'NONE', *, *, #30, .T. ) ;
#646 = AXIS2_PLACEMENT_3D ( 'NONE', #673, #17, #366 ) ;
#647 = CARTESIAN_POINT ( 'NONE',  ( 0.000000000000000000, 0.000000000000000000, -4.000000000000000000 ) ) ;
#648 = AXIS2_PLACEMENT_3D ( 'NONE', #666, #123, #15 ) ;
#649 = LINE ( 'NONE', #147, #364 ) ;
#650 = CARTESIAN_POINT ( 'NONE',  ( 0.7500000000000009992, 2.904737509655565209, -4.000000000000000000 ) ) ;
#651 = ORIENTED_EDGE ( 'NONE', *, *, #544, .T. ) ;
#652 = CARTESIAN_POINT ( 'NONE',  ( -0.7500000000000013323, 4.943429983321296461, -1.999999999999992228 ) ) ;
#653 = ORIENTED_EDGE ( 'NONE', *, *, #327, .T. ) ;
#654 = UNCERTAINTY_MEASURE_WITH_UNIT (LENGTH_MEASURE( 1.000000000000000082E-05 ), #33, 'distance_accuracy_value', 'NONE');
#655 = ADVANCED_FACE ( 'NONE', ( #357 ), #146, .T. ) ;
#656 = ORIENTED_EDGE ( 'NONE', *, *, #507, .T. ) ;
#657 = EDGE_LOOP ( 'NONE', ( #247, #159, #239, #373 ) ) ;
#658 = CYLINDRICAL_SURFACE ( 'NONE', #392, 4.500000000000000000 ) ;
#659 = EDGE_CURVE ( 'NONE', #624, #623, #86, .T. ) ;
#660 = CIRCLE ( 'NONE', #353, 5.000000000000000000 ) ;
#661 = CARTESIAN_POINT ( 'NONE',  ( 5.500000000000000000, 6.735557395310442023E-16, 12.00000000000000000 ) ) ;
#662 = ORIENTED_EDGE ( 'NONE', *, *, #692, .T. ) ;
#663 = DIRECTION ( 'NONE',  ( -1.000000000000000000, 0.000000000000000000, 0.000000000000000000 ) ) ;
#664 = VECTOR ( 'NONE', #389, 1000.000000000000000 ) ;
#665 = ORGANIZATION ( 'UNSPECIFIED', 'UNSPECIFIED', '' ) ;
#666 = CARTESIAN_POINT ( 'NONE',  ( 0.000000000000000000, 0.000000000000000000, 0.000000000000000000 ) ) ;
#667 = CALENDAR_DATE ( 2026, 21, 4 ) ;
#668 = ORIENTED_EDGE ( 'NONE', *, *, #140, .T. ) ;
#669 = DIRECTION ( 'NONE',  ( -0.000000000000000000, -0.000000000000000000, -1.000000000000000000 ) ) ;
#670 = FACE_OUTER_BOUND ( 'NONE', #288, .T. ) ;
#671 = ORIENTED_EDGE ( 'NONE', *, *, #199, .F. ) ;
#672 = ORIENTED_EDGE ( 'NONE', *, *, #692, .F. ) ;
#673 = CARTESIAN_POINT ( 'NONE',  ( 0.000000000000000000, 0.000000000000000000, 16.00000000000000000 ) ) ;
#674 = AXIS2_PLACEMENT_3D ( 'NONE', #163, #52, #375 ) ;
#675 = APPROVAL_DATE_TIME ( #622, #130 ) ;
#676 = CARTESIAN_POINT ( 'NONE',  ( 0.7500000000000012212, 4.437059837324711431, 6.000000000000000000 ) ) ;
#677 = VECTOR ( 'NONE', #316, 1000.000000000000000 ) ;
#678 = DIRECTION ( 'NONE',  ( -1.000000000000000000, 0.000000000000000000, 0.000000000000000000 ) ) ;
#679 = APPROVAL_ROLE ( '' ) ;
#680 = CARTESIAN_POINT ( 'NONE',  ( -0.7500000000000009992, 2.904737509655565209, -4.000000000000000000 ) ) ;
#681 = CC_DESIGN_PERSON_AND_ORGANIZATION_ASSIGNMENT ( #67, #517, ( #87 ) ) ;
#682 = DIRECTION ( 'NONE',  ( 0.000000000000000000, 0.000000000000000000, 1.000000000000000000 ) ) ;
#683 = EDGE_LOOP ( 'NONE', ( #447, #427, #668, #629, #19, #606, #75, #504 ) ) ;
#684 = CARTESIAN_POINT ( 'NONE',  ( 0.000000000000000000, 0.000000000000000000, 0.000000000000000000 ) ) ;
#685 = VECTOR ( 'NONE', #246, 1000.000000000000000 ) ;
#686 = DIRECTION ( 'NONE',  ( 0.000000000000000000, 0.000000000000000000, 1.000000000000000000 ) ) ;
#687 = EDGE_CURVE ( 'NONE', #211, #459, #106, .T. ) ;
#688 = DIRECTION ( 'NONE',  ( -1.000000000000000000, 0.000000000000000000, 0.000000000000000000 ) ) ;
#689 = VERTEX_POINT ( 'NONE', #149 ) ;
#690 = CONICAL_SURFACE ( 'NONE', #522, 3.499999999999996003, 0.7853981633974469467 ) ;
#691 = B_SPLINE_CURVE_WITH_KNOTS ( 'NONE', 3,
 ( #3, #345, #450, #229 ),
 .UNSPECIFIED., .F., .F.,
 ( 4, 4 ),
 ( 0.000000000000000000, 0.002855917891358455713 ),
 .UNSPECIFIED. ) ;
#692 = EDGE_CURVE ( 'NONE', #334, #1, #276, .T. ) ;
#693 = AXIS2_PLACEMENT_3D ( 'NONE', #271, #607, #114 ) ;
#694 = DIRECTION ( 'NONE',  ( -1.000000000000000000, 0.000000000000000000, -0.000000000000000000 ) ) ;
#695 = DIRECTION ( 'NONE',  ( -1.230208065046886026E-16, -1.000000000000000000, 0.000000000000000000 ) ) ;
#696 = CARTESIAN_POINT ( 'NONE',  ( 0.000000000000000000, 0.000000000000000000, -4.000000000000000000 ) ) ;
#697 = ADVANCED_FACE ( 'NONE', ( #314 ), #531, .F. ) ;
#698 = ORIENTED_EDGE ( 'NONE', *, *, #643, .F. ) ;
#699 = LINE ( 'NONE', #217, #34 ) ;
#700 = DIRECTION ( 'NONE',  ( -1.230208065046886026E-16, -1.000000000000000000, 0.000000000000000000 ) ) ;
#701 = ORIENTED_EDGE ( 'NONE', *, *, #291, .T. ) ;
#702 = DIRECTION ( 'NONE',  ( 0.000000000000000000, 0.000000000000000000, 1.000000000000000000 ) ) ;
#703 = CC_DESIGN_PERSON_AND_ORGANIZATION_ASSIGNMENT ( #577, #188, ( #185 ) ) ;
#704 = EDGE_LOOP ( 'NONE', ( #519, #292, #190, #478, #5, #343, #272, #105, #338, #6 ) ) ;
#705 = VECTOR ( 'NONE', #515, 1000.000000000000000 ) ;
#706 = ORIENTED_EDGE ( 'NONE', *, *, #579, .T. ) ;
#707 = VECTOR ( 'NONE', #433, 1000.000000000000000 ) ;
#708 = DIRECTION ( 'NONE',  ( -0.000000000000000000, -0.000000000000000000, -1.000000000000000000 ) ) ;
#709 = VECTOR ( 'NONE', #700, 1000.000000000000000 ) ;
ENDSEC;
END-ISO-10303-21;
