ISO-10303-21;
HEADER;
FILE_DESCRIPTION (( 'STEP AP203' ),
    '1' );
FILE_NAME ('ESLABON_Predeterminado_sldprt.STEP',
    '2026-04-21T20:27:31',
    ( '' ),
    ( '' ),
    'SwSTEP 2.0',
    'SolidWorks 2025',
    '' );
FILE_SCHEMA (( 'CONFIG_CONTROL_DESIGN' ));
ENDSEC;

DATA;
#1 = DIRECTION ( 'NONE',  ( 0.000000000000000000, -0.000000000000000000, 1.000000000000000000 ) ) ;
#2 = ORIENTED_EDGE ( 'NONE', *, *, #78, .T. ) ;
#3 = SHAPE_DEFINITION_REPRESENTATION ( #443, #520 ) ;
#4 = CARTESIAN_POINT ( 'NONE',  ( -225.0200000000000102, 9.999999999999973355, 4.000000000000000000 ) ) ;
#5 = ORIENTED_EDGE ( 'NONE', *, *, #78, .F. ) ;
#6 = PERSON_AND_ORGANIZATION_ROLE ( 'creator' ) ;
#7 = EDGE_CURVE ( 'NONE', #662, #85, #510, .T. ) ;
#8 = LINE ( 'NONE', #420, #157 ) ;
#9 = VECTOR ( 'NONE', #283, 1000.000000000000000 ) ;
#10 = AXIS2_PLACEMENT_3D ( 'NONE', #278, #505, #393 ) ;
#11 = ORIENTED_EDGE ( 'NONE', *, *, #659, .F. ) ;
#12 = TOROIDAL_SURFACE ( 'NONE', #75, 9.000000000000001776, 1.000000000000000000 ) ;
#13 = AXIS2_PLACEMENT_3D ( 'NONE', #702, #114, #175 ) ;
#14 = CALENDAR_DATE ( 2026, 21, 4 ) ;
#15 = DIRECTION ( 'NONE',  ( 1.000000000000000000, 0.000000000000000000, 0.000000000000000000 ) ) ;
#16 = ORIENTED_EDGE ( 'NONE', *, *, #659, .T. ) ;
#17 = CYLINDRICAL_SURFACE ( 'NONE', #649, 10.00000000000000888 ) ;
#18 = ORIENTED_EDGE ( 'NONE', *, *, #168, .F. ) ;
#19 = COORDINATED_UNIVERSAL_TIME_OFFSET ( 6, 0, .BEHIND. ) ;
#20 = CARTESIAN_POINT ( 'NONE',  ( -225.0200000000000102, 9.999999999999971578, 5.000000000000000000 ) ) ;
#21 = EDGE_LOOP ( 'NONE', ( #448, #248, #678, #632 ) ) ;
#22 = AXIS2_PLACEMENT_3D ( 'NONE', #608, #552, #210 ) ;
#23 = CC_DESIGN_APPROVAL ( #353, ( #471 ) ) ;
#24 = EDGE_CURVE ( 'NONE', #585, #662, #294, .T. ) ;
#25 = FACE_OUTER_BOUND ( 'NONE', #687, .T. ) ;
#26 = CARTESIAN_POINT ( 'NONE',  ( -235.0200000000000102, 9.999999999999973355, 5.000000000000000000 ) ) ;
#27 = AXIS2_PLACEMENT_3D ( 'NONE', #474, #526, #243 ) ;
#28 = CARTESIAN_POINT ( 'NONE',  ( -220.0200000000000102, 10.00000000000000000, 5.000000000000000000 ) ) ;
#29 = EDGE_CURVE ( 'NONE', #439, #56, #522, .T. ) ;
#30 = PLANE ( 'NONE',  #262 ) ;
#31 = LINE ( 'NONE', #45, #9 ) ;
#32 = ORIENTED_EDGE ( 'NONE', *, *, #414, .F. ) ;
#33 = CC_DESIGN_PERSON_AND_ORGANIZATION_ASSIGNMENT ( #492, #429, ( #471 ) ) ;
#34 = CARTESIAN_POINT ( 'NONE',  ( -9.999999999999998224, 10.00000000000000000, 5.000000000000000000 ) ) ;
#35 = DIRECTION ( 'NONE',  ( 1.000000000000000000, 0.000000000000000000, 0.000000000000000000 ) ) ;
#36 = EDGE_CURVE ( 'NONE', #725, #484, #620, .T. ) ;
#37 = ORIENTED_EDGE ( 'NONE', *, *, #130, .F. ) ;
#38 = CIRCLE ( 'NONE', #182, 1.000000000000000000 ) ;
#39 = AXIS2_PLACEMENT_3D ( 'NONE', #161, #692, #295 ) ;
#40 = CARTESIAN_POINT ( 'NONE',  ( -9.999999999999998224, -1.224646799147353059E-15, 4.000000000000000000 ) ) ;
#41 = CARTESIAN_POINT ( 'NONE',  ( -20.00000000000000000, 10.00000000000000000, 5.000000000000000000 ) ) ;
#42 = ORIENTED_EDGE ( 'NONE', *, *, #602, .F. ) ;
#43 = AXIS2_PLACEMENT_3D ( 'NONE', #333, #627, #162 ) ;
#44 = CARTESIAN_POINT ( 'NONE',  ( -10.00000000000000178, 20.00000000000000000, 4.000000000000000000 ) ) ;
#45 = CARTESIAN_POINT ( 'NONE',  ( 0.000000000000000000, 20.00000000000000000, 1.000000000000000000 ) ) ;
#46 = EDGE_LOOP ( 'NONE', ( #76, #421, #280, #369, #297, #578 ) ) ;
#47 = APPROVAL_STATUS ( 'not_yet_approved' ) ;
#48 = CARTESIAN_POINT ( 'NONE',  ( -1.224646799147353207E-16, 1.000000000000000000, 4.000000000000000000 ) ) ;
#49 = ADVANCED_FACE ( 'NONE', ( #322 ), #145, .F. ) ;
#50 = CIRCLE ( 'NONE', #22, 1.000000000000000000 ) ;
#51 = LINE ( 'NONE', #299, #636 ) ;
#52 = DIRECTION ( 'NONE',  ( -1.000000000000000000, -1.224646799147353207E-16, 0.000000000000000000 ) ) ;
#53 = ORIENTED_EDGE ( 'NONE', *, *, #679, .F. ) ;
#54 = CARTESIAN_POINT ( 'NONE',  ( -225.0200000000000102, 9.999999999999973355, 5.000000000000000000 ) ) ;
#55 = CARTESIAN_POINT ( 'NONE',  ( -234.0200000000000102, 9.999999999999973355, 5.000000000000000000 ) ) ;
#56 = VERTEX_POINT ( 'NONE', #268 ) ;
#57 = DIRECTION ( 'NONE',  ( 0.000000000000000000, 0.000000000000000000, -1.000000000000000000 ) ) ;
#58 = ADVANCED_FACE ( 'NONE', ( #384 ), #554, .F. ) ;
#59 = ORIENTED_EDGE ( 'NONE', *, *, #412, .F. ) ;
#60 =( NAMED_UNIT ( * ) PLANE_ANGLE_UNIT ( ) SI_UNIT ( $, .RADIAN. ) );
#61 = AXIS2_PLACEMENT_3D ( 'NONE', #559, #204, #206 ) ;
#62 = CIRCLE ( 'NONE', #624, 10.00000000000000888 ) ;
#63 = CARTESIAN_POINT ( 'NONE',  ( -234.0200000000000102, 9.999999999999973355, 0.000000000000000000 ) ) ;
#64 = ORIENTED_EDGE ( 'NONE', *, *, #615, .F. ) ;
#65 = COORDINATED_UNIVERSAL_TIME_OFFSET ( 6, 0, .BEHIND. ) ;
#66 = FACE_BOUND ( 'NONE', #455, .T. ) ;
#67 = EDGE_LOOP ( 'NONE', ( #2, #64, #350, #760 ) ) ;
#68 = EDGE_CURVE ( 'NONE', #379, #399, #643, .T. ) ;
#69 = CARTESIAN_POINT ( 'NONE',  ( -235.0200000000000102, 9.999999999999973355, 4.000000000000000000 ) ) ;
#70 = CARTESIAN_POINT ( 'NONE',  ( -220.0200000000000102, 10.00000000000000000, 0.000000000000000000 ) ) ;
#71 = ORIENTED_EDGE ( 'NONE', *, *, #389, .F. ) ;
#72 = CALENDAR_DATE ( 2026, 21, 4 ) ;
#73 = CARTESIAN_POINT ( 'NONE',  ( -1.224646799147353207E-16, 1.000000000000000000, 0.000000000000000000 ) ) ;
#74 = AXIS2_PLACEMENT_3D ( 'NONE', #375, #534, #261 ) ;
#75 = AXIS2_PLACEMENT_3D ( 'NONE', #521, #757, #699 ) ;
#76 = ORIENTED_EDGE ( 'NONE', *, *, #367, .T. ) ;
#77 = FACE_OUTER_BOUND ( 'NONE', #751, .T. ) ;
#78 = EDGE_CURVE ( 'NONE', #428, #234, #704, .T. ) ;
#79 = ORIENTED_EDGE ( 'NONE', *, *, #213, .F. ) ;
#80 = APPROVAL_ROLE ( '' ) ;
#81 = LINE ( 'NONE', #73, #674 ) ;
#82 = ADVANCED_FACE ( 'NONE', ( #415 ), #109, .T. ) ;
#83 = ORIENTED_EDGE ( 'NONE', *, *, #323, .T. ) ;
#84 = DIRECTION ( 'NONE',  ( 1.000000000000000000, 0.000000000000000000, 0.000000000000000000 ) ) ;
#85 = VERTEX_POINT ( 'NONE', #465 ) ;
#86 = AXIS2_PLACEMENT_3D ( 'NONE', #120, #1, #640 ) ;
#87 = CIRCLE ( 'NONE', #717, 1.000000000000000000 ) ;
#88 = CARTESIAN_POINT ( 'NONE',  ( -10.00000000000000000, 9.999999999999998224, 4.000000000000000000 ) ) ;
#89 = ORIENTED_EDGE ( 'NONE', *, *, #329, .T. ) ;
#90 = ADVANCED_FACE ( 'NONE', ( #290 ), #232, .F. ) ;
#91 = DIRECTION ( 'NONE',  ( -0.000000000000000000, -0.000000000000000000, -1.000000000000000000 ) ) ;
#92 = CARTESIAN_POINT ( 'NONE',  ( -220.0200000000000102, 10.00000000000000000, 5.000000000000000000 ) ) ;
#93 = DIRECTION ( 'NONE',  ( 0.000000000000000000, 0.000000000000000000, 1.000000000000000000 ) ) ;
#94 = UNCERTAINTY_MEASURE_WITH_UNIT (LENGTH_MEASURE( 1.000000000000000082E-05 ), #235, 'distance_accuracy_value', 'NONE');
#95 = DIRECTION ( 'NONE',  ( 0.000000000000000000, -0.000000000000000000, 1.000000000000000000 ) ) ;
#96 = CARTESIAN_POINT ( 'NONE',  ( -215.0200000000000387, 10.00000000000000000, 5.000000000000000000 ) ) ;
#97 = DIRECTION ( 'NONE',  ( -1.000000000000000000, 0.000000000000000000, 0.000000000000000000 ) ) ;
#98 = CIRCLE ( 'NONE', #169, 10.00000000000000888 ) ;
#99 = VECTOR ( 'NONE', #324, 1000.000000000000000 ) ;
#100 = CARTESIAN_POINT ( 'NONE',  ( -9.999999999999998224, 0.9999999999999986677, 5.000000000000000000 ) ) ;
#101 = LINE ( 'NONE', #612, #99 ) ;
#102 = DIRECTION ( 'NONE',  ( -1.000000000000000000, 0.000000000000000000, 0.000000000000000000 ) ) ;
#103 = EDGE_CURVE ( 'NONE', #428, #600, #652, .T. ) ;
#104 = DIRECTION ( 'NONE',  ( -0.000000000000000000, -0.000000000000000000, -1.000000000000000000 ) ) ;
#105 = CC_DESIGN_PERSON_AND_ORGANIZATION_ASSIGNMENT ( #541, #485, ( #277 ) ) ;
#106 = FACE_OUTER_BOUND ( 'NONE', #458, .T. ) ;
#107 = EDGE_CURVE ( 'NONE', #725, #325, #397, .T. ) ;
#108 = CARTESIAN_POINT ( 'NONE',  ( 0.000000000000000000, 0.000000000000000000, 0.000000000000000000 ) ) ;
#109 = CYLINDRICAL_SURFACE ( 'NONE', #202, 1.000000000000000000 ) ;
#110 = ORIENTED_EDGE ( 'NONE', *, *, #759, .T. ) ;
#111 = AXIS2_PLACEMENT_3D ( 'NONE', #741, #271, #441 ) ;
#112 = AXIS2_PLACEMENT_3D ( 'NONE', #217, #736, #671 ) ;
#113 = FACE_OUTER_BOUND ( 'NONE', #698, .T. ) ;
#114 = DIRECTION ( 'NONE',  ( 0.000000000000000000, -0.000000000000000000, 1.000000000000000000 ) ) ;
#115 = ORIENTED_EDGE ( 'NONE', *, *, #594, .T. ) ;
#116 = EDGE_CURVE ( 'NONE', #475, #129, #614, .T. ) ;
#117 =( NAMED_UNIT ( * ) SI_UNIT ( $, .STERADIAN. ) SOLID_ANGLE_UNIT ( ) );
#118 = CYLINDRICAL_SURFACE ( 'NONE', #700, 10.00000000000000000 ) ;
#119 = EDGE_LOOP ( 'NONE', ( #466, #71, #37, #655 ) ) ;
#120 = CARTESIAN_POINT ( 'NONE',  ( -10.00000000000000000, 9.999999999999998224, 5.000000000000000000 ) ) ;
#121 = ORIENTED_EDGE ( 'NONE', *, *, #672, .F. ) ;
#122 = APPROVAL_DATE_TIME ( #591, #353 ) ;
#123 = CIRCLE ( 'NONE', #381, 4.999999999999976907 ) ;
#124 = CIRCLE ( 'NONE', #664, 9.000000000000007105 ) ;
#125 = CARTESIAN_POINT ( 'NONE',  ( -9.999999999999998224, 0.9999999999999986677, 0.000000000000000000 ) ) ;
#126 = ORIENTED_EDGE ( 'NONE', *, *, #579, .T. ) ;
#127 = AXIS2_PLACEMENT_3D ( 'NONE', #342, #461, #706 ) ;
#128 = DIRECTION ( 'NONE',  ( 0.000000000000000000, 0.000000000000000000, 1.000000000000000000 ) ) ;
#129 = VERTEX_POINT ( 'NONE', #406 ) ;
#130 = EDGE_CURVE ( 'NONE', #187, #746, #752, .T. ) ;
#131 = DIRECTION ( 'NONE',  ( 0.000000000000000000, -0.000000000000000000, 1.000000000000000000 ) ) ;
#132 = VERTEX_POINT ( 'NONE', #63 ) ;
#133 = CARTESIAN_POINT ( 'NONE',  ( -234.0200000000000102, 9.999999999999973355, 1.000000000000000000 ) ) ;
#134 = AXIS2_PLACEMENT_3D ( 'NONE', #555, #95, #84 ) ;
#135 = LOCAL_TIME ( 14, 27, 31.00000000000000000, #309 ) ;
#136 = ORIENTED_EDGE ( 'NONE', *, *, #626, .F. ) ;
#137 = PERSON ( 'UNSPECIFIED', 'UNSPECIFIED', 'UNSPECIFIED', ('UNSPECIFIED'), ('UNSPECIFIED'), ('UNSPECIFIED') ) ;
#138 = ADVANCED_FACE ( 'NONE', ( #514 ), #385, .T. ) ;
#139 = CALENDAR_DATE ( 2026, 21, 4 ) ;
#140 = DIRECTION ( 'NONE',  ( 1.000000000000000000, 1.180987814468084045E-16, 0.000000000000000000 ) ) ;
#141 = ORIENTED_EDGE ( 'NONE', *, *, #116, .T. ) ;
#142 = CARTESIAN_POINT ( 'NONE',  ( -1.000000000000000000, 9.999999999999998224, 0.000000000000000000 ) ) ;
#143 = ORIENTED_EDGE ( 'NONE', *, *, #648, .T. ) ;
#144 = CARTESIAN_POINT ( 'NONE',  ( -225.0200000000000102, 0.9999999999999708011, 0.000000000000000000 ) ) ;
#145 = CYLINDRICAL_SURFACE ( 'NONE', #351, 5.000000000000000888 ) ;
#146 = TOROIDAL_SURFACE ( 'NONE', #10, 9.000000000000001776, 1.000000000000000000 ) ;
#147 = AXIS2_PLACEMENT_3D ( 'NONE', #347, #580, #476 ) ;
#148 = LINE ( 'NONE', #611, #726 ) ;
#149 = CARTESIAN_POINT ( 'NONE',  ( -10.00000000000000178, 18.99999999999999645, 5.000000000000000000 ) ) ;
#150 = ORIENTED_EDGE ( 'NONE', *, *, #194, .F. ) ;
#151 = CARTESIAN_POINT ( 'NONE',  ( -215.0200000000000387, 10.00000000000000000, 0.000000000000000000 ) ) ;
#152 = DIRECTION ( 'NONE',  ( -0.000000000000000000, -0.000000000000000000, -1.000000000000000000 ) ) ;
#153 = EDGE_LOOP ( 'NONE', ( #707, #609, #302, #89 ) ) ;
#154 = DIRECTION ( 'NONE',  ( 1.000000000000000000, 1.224646799147353207E-16, 0.000000000000000000 ) ) ;
#155 = CARTESIAN_POINT ( 'NONE',  ( -234.0200000000000102, 9.999999999999973355, 4.000000000000000000 ) ) ;
#156 = CARTESIAN_POINT ( 'NONE',  ( -15.00000000000000000, 10.00000000000000000, 5.000000000000000000 ) ) ;
#157 = VECTOR ( 'NONE', #363, 1000.000000000000000 ) ;
#158 = DIRECTION ( 'NONE',  ( 0.000000000000000000, 1.000000000000000000, -0.000000000000000000 ) ) ;
#159 = EDGE_CURVE ( 'NONE', #163, #725, #468, .T. ) ;
#160 = CARTESIAN_POINT ( 'NONE',  ( -15.00000000000000000, 10.00000000000000000, 5.000000000000000000 ) ) ;
#161 = CARTESIAN_POINT ( 'NONE',  ( -1.224646799147353207E-16, 1.000000000000000000, 1.000000000000000000 ) ) ;
#162 = DIRECTION ( 'NONE',  ( 1.000000000000000000, 9.637352644315592778E-16, 0.000000000000000000 ) ) ;
#163 = VERTEX_POINT ( 'NONE', #711 ) ;
#164 = DIRECTION ( 'NONE',  ( -1.000000000000000000, 0.000000000000000000, 0.000000000000000000 ) ) ;
#165 = DIRECTION ( 'NONE',  ( 1.000000000000000000, 0.000000000000000000, 0.000000000000000000 ) ) ;
#166 = APPROVAL ( #47, 'UNSPECIFIED' ) ;
#167 = EDGE_LOOP ( 'NONE', ( #571, #561, #404, #712 ) ) ;
#168 = EDGE_CURVE ( 'NONE', #129, #475, #459, .T. ) ;
#169 = AXIS2_PLACEMENT_3D ( 'NONE', #480, #542, #722 ) ;
#170 =( GEOMETRIC_REPRESENTATION_CONTEXT ( 3 ) GLOBAL_UNCERTAINTY_ASSIGNED_CONTEXT ( ( #94 ) ) GLOBAL_UNIT_ASSIGNED_CONTEXT ( ( #235, #60, #117 ) ) REPRESENTATION_CONTEXT ( 'NONE', 'WORKASPACE' ) );
#171 = CYLINDRICAL_SURFACE ( 'NONE', #539, 10.00000000000000888 ) ;
#172 = DIRECTION ( 'NONE',  ( -0.000000000000000000, 0.000000000000000000, -1.000000000000000000 ) ) ;
#173 = ORIENTED_EDGE ( 'NONE', *, *, #524, .T. ) ;
#174 = MECHANICAL_CONTEXT ( 'NONE', #645, 'mechanical' ) ;
#175 = DIRECTION ( 'NONE',  ( 1.000000000000000000, 0.000000000000000000, 0.000000000000000000 ) ) ;
#176 = EDGE_LOOP ( 'NONE', ( #607, #141 ) ) ;
#177 = CARTESIAN_POINT ( 'NONE',  ( -225.0200000000000102, 0.9999999999999708011, 5.000000000000000000 ) ) ;
#178 = CLOSED_SHELL ( 'NONE', ( #58, #598, #269, #403, #245, #90, #547, #49, #340, #223, #694, #311, #281, #763, #684, #460, #425, #483, #233, #82, #288, #138, #544, #346 ) ) ;
#179 = DIRECTION ( 'NONE',  ( 0.000000000000000000, 0.000000000000000000, -1.000000000000000000 ) ) ;
#180 = ORIENTED_EDGE ( 'NONE', *, *, #68, .T. ) ;
#181 = CC_DESIGN_PERSON_AND_ORGANIZATION_ASSIGNMENT ( #314, #6, ( #708 ) ) ;
#182 = AXIS2_PLACEMENT_3D ( 'NONE', #133, #493, #128 ) ;
#183 = CC_DESIGN_SECURITY_CLASSIFICATION ( #471, ( #277 ) ) ;
#184 = CARTESIAN_POINT ( 'NONE',  ( -10.00000000000000000, 9.999999999999998224, 5.000000000000000000 ) ) ;
#185 = EDGE_CURVE ( 'NONE', #237, #163, #531, .T. ) ;
#186 = CARTESIAN_POINT ( 'NONE',  ( -225.0200000000000102, 19.99999999999997158, 1.000000000000000000 ) ) ;
#187 = VERTEX_POINT ( 'NONE', #755 ) ;
#188 = AXIS2_PLACEMENT_3D ( 'NONE', #587, #165, #57 ) ;
#189 = CALENDAR_DATE ( 2026, 21, 4 ) ;
#190 = FACE_OUTER_BOUND ( 'NONE', #525, .T. ) ;
#191 = ORIENTED_EDGE ( 'NONE', *, *, #412, .T. ) ;
#192 = DATE_AND_TIME ( #139, #675 ) ;
#193 = DIRECTION ( 'NONE',  ( -0.000000000000000000, 0.000000000000000000, -1.000000000000000000 ) ) ;
#194 = EDGE_CURVE ( 'NONE', #234, #484, #275, .T. ) ;
#195 = DESIGN_CONTEXT ( 'detailed design', #558, 'design' ) ;
#196 = VERTEX_POINT ( 'NONE', #55 ) ;
#197 = EDGE_CURVE ( 'NONE', #132, #416, #287, .T. ) ;
#198 = DIRECTION ( 'NONE',  ( 0.000000000000000000, 0.000000000000000000, -1.000000000000000000 ) ) ;
#199 = AXIS2_PLACEMENT_3D ( 'NONE', #568, #330, #220 ) ;
#200 = CIRCLE ( 'NONE', #383, 10.00000000000000888 ) ;
#201 = ORIENTED_EDGE ( 'NONE', *, *, #355, .T. ) ;
#202 = AXIS2_PLACEMENT_3D ( 'NONE', #48, #354, #630 ) ;
#203 = COORDINATED_UNIVERSAL_TIME_OFFSET ( 6, 0, .BEHIND. ) ;
#204 = DIRECTION ( 'NONE',  ( -1.000000000000000000, -1.180987814468084045E-16, 0.000000000000000000 ) ) ;
#205 = ORIENTED_EDGE ( 'NONE', *, *, #7, .F. ) ;
#206 = DIRECTION ( 'NONE',  ( 1.180987814468083059E-16, -1.000000000000000000, 0.000000000000000000 ) ) ;
#207 = DIRECTION ( 'NONE',  ( -1.000000000000000000, 0.000000000000000000, 0.000000000000000000 ) ) ;
#208 = VECTOR ( 'NONE', #328, 1000.000000000000000 ) ;
#209 = DIRECTION ( 'NONE',  ( 0.000000000000000000, 0.000000000000000000, 1.000000000000000000 ) ) ;
#210 = DIRECTION ( 'NONE',  ( 0.000000000000000000, 0.000000000000000000, -1.000000000000000000 ) ) ;
#211 = DIRECTION ( 'NONE',  ( -0.000000000000000000, 0.000000000000000000, -1.000000000000000000 ) ) ;
#212 = CIRCLE ( 'NONE', #112, 10.00000000000000888 ) ;
#213 = EDGE_CURVE ( 'NONE', #214, #484, #238, .T. ) ;
#214 = VERTEX_POINT ( 'NONE', #411 ) ;
#215 = VECTOR ( 'NONE', #152, 1000.000000000000000 ) ;
#216 = CARTESIAN_POINT ( 'NONE',  ( -225.0200000000000102, -2.755700227441373977E-14, 4.000000000000000000 ) ) ;
#217 = CARTESIAN_POINT ( 'NONE',  ( -225.0200000000000102, 9.999999999999971578, 1.000000000000000000 ) ) ;
#218 = ORIENTED_EDGE ( 'NONE', *, *, #400, .T. ) ;
#219 = EDGE_CURVE ( 'NONE', #214, #428, #610, .T. ) ;
#220 = DIRECTION ( 'NONE',  ( 0.000000000000000000, 0.000000000000000000, -1.000000000000000000 ) ) ;
#221 = DIRECTION ( 'NONE',  ( 1.000000000000000000, 0.000000000000000000, 0.000000000000000000 ) ) ;
#222 = ORIENTED_EDGE ( 'NONE', *, *, #511, .T. ) ;
#223 = ADVANCED_FACE ( 'NONE', ( #106 ), #118, .T. ) ;
#224 = LINE ( 'NONE', #96, #764 ) ;
#225 = ORIENTED_EDGE ( 'NONE', *, *, #36, .F. ) ;
#226 = TOROIDAL_SURFACE ( 'NONE', #663, 9.000000000000001776, 1.000000000000000000 ) ;
#227 = AXIS2_PLACEMENT_3D ( 'NONE', #634, #512, #753 ) ;
#228 = DIRECTION ( 'NONE',  ( 1.000000000000000000, 0.000000000000000000, 0.000000000000000000 ) ) ;
#229 = AXIS2_PLACEMENT_3D ( 'NONE', #629, #518, #228 ) ;
#230 = ORIENTED_EDGE ( 'NONE', *, *, #29, .T. ) ;
#231 = CYLINDRICAL_SURFACE ( 'NONE', #39, 1.000000000000000000 ) ;
#232 = PLANE ( 'NONE',  #265 ) ;
#233 = ADVANCED_FACE ( 'NONE', ( #190 ), #226, .T. ) ;
#234 = VERTEX_POINT ( 'NONE', #254 ) ;
#235 =( LENGTH_UNIT ( ) NAMED_UNIT ( * ) SI_UNIT ( .MILLI., .METRE. ) );
#236 = CARTESIAN_POINT ( 'NONE',  ( -225.0200000000000102, 9.999999999999973355, 0.000000000000000000 ) ) ;
#237 = VERTEX_POINT ( 'NONE', #433 ) ;
#238 = CIRCLE ( 'NONE', #370, 1.000000000000000000 ) ;
#239 = AXIS2_PLACEMENT_3D ( 'NONE', #108, #705, #341 ) ;
#240 = CARTESIAN_POINT ( 'NONE',  ( -15.00000000000000000, 10.00000000000000000, 0.000000000000000000 ) ) ;
#241 = ORIENTED_EDGE ( 'NONE', *, *, #572, .F. ) ;
#242 = DIRECTION ( 'NONE',  ( 1.000000000000000000, 0.000000000000000000, 0.000000000000000000 ) ) ;
#243 = DIRECTION ( 'NONE',  ( 0.000000000000000000, 0.000000000000000000, -1.000000000000000000 ) ) ;
#244 = VERTEX_POINT ( 'NONE', #603 ) ;
#245 = ADVANCED_FACE ( 'NONE', ( #77 ), #729, .F. ) ;
#246 = DATE_AND_TIME ( #605, #135 ) ;
#247 = DIRECTION ( 'NONE',  ( -1.000000000000000000, 0.000000000000000000, 0.000000000000000000 ) ) ;
#248 = ORIENTED_EDGE ( 'NONE', *, *, #24, .T. ) ;
#249 = APPROVAL_STATUS ( 'not_yet_approved' ) ;
#250 = AXIS2_PLACEMENT_3D ( 'NONE', #70, #617, #733 ) ;
#251 = CIRCLE ( 'NONE', #529, 10.00000000000000000 ) ;
#252 = DIRECTION ( 'NONE',  ( 0.000000000000000000, -0.000000000000000000, 1.000000000000000000 ) ) ;
#253 = ORIENTED_EDGE ( 'NONE', *, *, #731, .F. ) ;
#254 = CARTESIAN_POINT ( 'NONE',  ( 0.000000000000000000, 9.999999999999998224, 4.000000000000000000 ) ) ;
#255 = EDGE_CURVE ( 'NONE', #600, #746, #8, .T. ) ;
#256 = ORIENTED_EDGE ( 'NONE', *, *, #194, .T. ) ;
#257 = COORDINATED_UNIVERSAL_TIME_OFFSET ( 6, 0, .BEHIND. ) ;
#258 = FACE_OUTER_BOUND ( 'NONE', #538, .T. ) ;
#259 = ORIENTED_EDGE ( 'NONE', *, *, #437, .T. ) ;
#260 = APPROVAL_ROLE ( '' ) ;
#261 = DIRECTION ( 'NONE',  ( 1.000000000000000000, 0.000000000000000000, -0.000000000000000000 ) ) ;
#262 = AXIS2_PLACEMENT_3D ( 'NONE', #282, #502, #319 ) ;
#263 = CC_DESIGN_APPROVAL ( #166, ( #708 ) ) ;
#264 = VERTEX_POINT ( 'NONE', #69 ) ;
#265 = AXIS2_PLACEMENT_3D ( 'NONE', #296, #576, #52 ) ;
#266 = CARTESIAN_POINT ( 'NONE',  ( -225.0200000000000102, 19.99999999999997158, 5.000000000000000000 ) ) ;
#267 = CYLINDRICAL_SURFACE ( 'NONE', #635, 1.000000000000000888 ) ;
#268 = CARTESIAN_POINT ( 'NONE',  ( -9.999999999999998224, 10.00000000000000000, 5.000000000000000000 ) ) ;
#269 = ADVANCED_FACE ( 'NONE', ( #537, #66, #546 ), #549, .T. ) ;
#270 = FACE_OUTER_BOUND ( 'NONE', #481, .T. ) ;
#271 = DIRECTION ( 'NONE',  ( 1.000000000000000000, 0.000000000000000000, 0.000000000000000000 ) ) ;
#272 = DIRECTION ( 'NONE',  ( -0.000000000000000000, -0.000000000000000000, -1.000000000000000000 ) ) ;
#273 = DIRECTION ( 'NONE',  ( 1.000000000000000000, 0.000000000000000000, 0.000000000000000000 ) ) ;
#274 = CARTESIAN_POINT ( 'NONE',  ( -225.0200000000000102, 9.999999999999971578, 5.000000000000000000 ) ) ;
#275 = CIRCLE ( 'NONE', #407, 10.00000000000000000 ) ;
#276 = ORIENTED_EDGE ( 'NONE', *, *, #467, .T. ) ;
#277 = PRODUCT_DEFINITION_FORMATION_WITH_SPECIFIED_SOURCE ( 'ANY', '', #463, .NOT_KNOWN. ) ;
#278 = CARTESIAN_POINT ( 'NONE',  ( -10.00000000000000000, 9.999999999999998224, 1.000000000000000000 ) ) ;
#279 = DIRECTION ( 'NONE',  ( 1.000000000000000000, 0.000000000000000000, 0.000000000000000000 ) ) ;
#280 = ORIENTED_EDGE ( 'NONE', *, *, #103, .T. ) ;
#281 = ADVANCED_FACE ( 'NONE', ( #368 ), #357, .T. ) ;
#282 = CARTESIAN_POINT ( 'NONE',  ( 0.000000000000000000, 0.000000000000000000, 0.000000000000000000 ) ) ;
#283 = DIRECTION ( 'NONE',  ( -1.000000000000000000, -1.180987814468084045E-16, 0.000000000000000000 ) ) ;
#284 = ORIENTED_EDGE ( 'NONE', *, *, #499, .T. ) ;
#285 = VECTOR ( 'NONE', #402, 1000.000000000000000 ) ;
#286 = DIRECTION ( 'NONE',  ( 0.000000000000000000, 0.000000000000000000, 1.000000000000000000 ) ) ;
#287 = CIRCLE ( 'NONE', #395, 9.000000000000007105 ) ;
#288 = ADVANCED_FACE ( 'NONE', ( #657 ), #588, .T. ) ;
#289 = DIRECTION ( 'NONE',  ( 0.000000000000000000, 0.000000000000000000, 1.000000000000000000 ) ) ;
#290 = FACE_OUTER_BOUND ( 'NONE', #167, .T. ) ;
#291 = VERTEX_POINT ( 'NONE', #305 ) ;
#292 = DIRECTION ( 'NONE',  ( -0.000000000000000000, 0.000000000000000000, -1.000000000000000000 ) ) ;
#293 = ORIENTED_EDGE ( 'NONE', *, *, #472, .F. ) ;
#294 = CIRCLE ( 'NONE', #683, 4.999999999999976907 ) ;
#295 = DIRECTION ( 'NONE',  ( -1.224646799147353207E-16, 1.000000000000000000, 0.000000000000000000 ) ) ;
#296 = CARTESIAN_POINT ( 'NONE',  ( 0.000000000000000000, 0.000000000000000000, 5.000000000000000000 ) ) ;
#297 = ORIENTED_EDGE ( 'NONE', *, *, #389, .T. ) ;
#298 = CIRCLE ( 'NONE', #423, 10.00000000000000000 ) ;
#299 = CARTESIAN_POINT ( 'NONE',  ( -10.00000000000000178, 20.00000000000000000, 5.000000000000000000 ) ) ;
#300 = CC_DESIGN_PERSON_AND_ORGANIZATION_ASSIGNMENT ( #352, #767, ( #463 ) ) ;
#301 = DIRECTION ( 'NONE',  ( 1.000000000000000000, 0.000000000000000000, -0.000000000000000000 ) ) ;
#302 = ORIENTED_EDGE ( 'NONE', *, *, #648, .F. ) ;
#303 = EDGE_CURVE ( 'NONE', #325, #582, #81, .T. ) ;
#304 = DATE_AND_TIME ( #189, #321 ) ;
#305 = CARTESIAN_POINT ( 'NONE',  ( -10.00000000000000178, 20.00000000000000000, 1.000000000000000000 ) ) ;
#306 = EDGE_LOOP ( 'NONE', ( #361, #756, #32, #426 ) ) ;
#307 = ORIENTED_EDGE ( 'NONE', *, *, #656, .F. ) ;
#308 = VECTOR ( 'NONE', #596, 1000.000000000000000 ) ;
#309 = COORDINATED_UNIVERSAL_TIME_OFFSET ( 6, 0, .BEHIND. ) ;
#310 = CIRCLE ( 'NONE', #227, 1.000000000000000000 ) ;
#311 = ADVANCED_FACE ( 'NONE', ( #312 ), #17, .T. ) ;
#312 = FACE_OUTER_BOUND ( 'NONE', #528, .T. ) ;
#313 = EDGE_LOOP ( 'NONE', ( #356, #150, #5, #613 ) ) ;
#314 = PERSON_AND_ORGANIZATION ( #137, #590 ) ;
#315 = DIRECTION ( 'NONE',  ( 1.000000000000000000, 0.000000000000000000, 0.000000000000000000 ) ) ;
#316 = ORIENTED_EDGE ( 'NONE', *, *, #602, .T. ) ;
#317 = DIRECTION ( 'NONE',  ( -1.000000000000000000, -1.224646799147353207E-16, -0.000000000000000000 ) ) ;
#318 = EDGE_LOOP ( 'NONE', ( #230, #504, #18, #136 ) ) ;
#319 = DIRECTION ( 'NONE',  ( 1.000000000000000000, 0.000000000000000000, -0.000000000000000000 ) ) ;
#320 = VECTOR ( 'NONE', #91, 1000.000000000000000 ) ;
#321 = LOCAL_TIME ( 14, 27, 31.00000000000000000, #65 ) ;
#322 = FACE_OUTER_BOUND ( 'NONE', #723, .T. ) ;
#323 = EDGE_CURVE ( 'NONE', #132, #244, #38, .T. ) ;
#324 = DIRECTION ( 'NONE',  ( 1.000000000000000000, 1.180987814468084045E-16, -0.000000000000000000 ) ) ;
#325 = VERTEX_POINT ( 'NONE', #125 ) ;
#326 = CARTESIAN_POINT ( 'NONE',  ( -9.999999999999998224, 10.00000000000000000, 0.000000000000000000 ) ) ;
#327 = FACE_OUTER_BOUND ( 'NONE', #21, .T. ) ;
#328 = DIRECTION ( 'NONE',  ( -0.000000000000000000, -0.000000000000000000, 1.000000000000000000 ) ) ;
#329 = EDGE_CURVE ( 'NONE', #264, #187, #98, .T. ) ;
#330 = DIRECTION ( 'NONE',  ( 1.000000000000000000, 0.000000000000000000, -0.000000000000000000 ) ) ;
#331 = CARTESIAN_POINT ( 'NONE',  ( -225.0200000000000102, 9.999999999999971578, 0.000000000000000000 ) ) ;
#332 = AXIS2_PLACEMENT_3D ( 'NONE', #372, #599, #140 ) ;
#333 = CARTESIAN_POINT ( 'NONE',  ( -10.00000000000000000, 9.999999999999998224, 0.000000000000000000 ) ) ;
#334 = AXIS2_PLACEMENT_3D ( 'NONE', #696, #289, #517 ) ;
#335 = FACE_BOUND ( 'NONE', #604, .T. ) ;
#336 = DIRECTION ( 'NONE',  ( 1.000000000000000000, 1.180987814468084045E-16, 0.000000000000000000 ) ) ;
#337 = ORIENTED_EDGE ( 'NONE', *, *, #524, .F. ) ;
#338 = PERSON_AND_ORGANIZATION ( #137, #590 ) ;
#339 = DIRECTION ( 'NONE',  ( 1.000000000000000000, 1.224646799147353207E-16, 0.000000000000000000 ) ) ;
#340 = ADVANCED_FACE ( 'NONE', ( #258 ), #486, .T. ) ;
#341 = DIRECTION ( 'NONE',  ( 1.000000000000000000, 0.000000000000000000, 0.000000000000000000 ) ) ;
#342 = CARTESIAN_POINT ( 'NONE',  ( -1.000000000000000000, 9.999999999999998224, 4.000000000000000000 ) ) ;
#343 = ORIENTED_EDGE ( 'NONE', *, *, #467, .F. ) ;
#344 = AXIS2_PLACEMENT_3D ( 'NONE', #714, #430, #424 ) ;
#345 = AXIS2_PLACEMENT_3D ( 'NONE', #509, #619, #207 ) ;
#346 = ADVANCED_FACE ( 'NONE', ( #595 ), #527, .T. ) ;
#347 = CARTESIAN_POINT ( 'NONE',  ( -1.000000000000000000, 9.999999999999998224, 1.000000000000000000 ) ) ;
#348 = CARTESIAN_POINT ( 'NONE',  ( -10.00000000000000000, 9.999999999999998224, 5.000000000000000000 ) ) ;
#349 = EDGE_LOOP ( 'NONE', ( #494, #548, #79, #376 ) ) ;
#350 = ORIENTED_EDGE ( 'NONE', *, *, #414, .T. ) ;
#351 = AXIS2_PLACEMENT_3D ( 'NONE', #156, #396, #102 ) ;
#352 = PERSON_AND_ORGANIZATION ( #137, #590 ) ;
#353 = APPROVAL ( #249, 'UNSPECIFIED' ) ;
#354 = DIRECTION ( 'NONE',  ( -1.000000000000000000, -1.224646799147353207E-16, 0.000000000000000000 ) ) ;
#355 = EDGE_CURVE ( 'NONE', #399, #325, #551, .T. ) ;
#356 = ORIENTED_EDGE ( 'NONE', *, *, #213, .T. ) ;
#357 = TOROIDAL_SURFACE ( 'NONE', #762, 9.000000000000001776, 1.000000000000000000 ) ;
#358 = CIRCLE ( 'NONE', #334, 5.000000000000000888 ) ;
#359 = DATE_AND_TIME ( #72, #651 ) ;
#360 = DIRECTION ( 'NONE',  ( -1.000000000000000000, 0.000000000000000000, 0.000000000000000000 ) ) ;
#361 = ORIENTED_EDGE ( 'NONE', *, *, #130, .T. ) ;
#362 = AXIS2_PLACEMENT_3D ( 'NONE', #240, #286, #750 ) ;
#363 = DIRECTION ( 'NONE',  ( -1.000000000000000000, -1.180987814468084045E-16, 0.000000000000000000 ) ) ;
#364 = CARTESIAN_POINT ( 'NONE',  ( -10.00000000000000178, 20.00000000000000000, 4.000000000000000000 ) ) ;
#365 = EDGE_LOOP ( 'NONE', ( #519, #388 ) ) ;
#366 = AXIS2_PLACEMENT_3D ( 'NONE', #160, #93, #500 ) ;
#367 = EDGE_CURVE ( 'NONE', #720, #214, #724, .T. ) ;
#368 = FACE_OUTER_BOUND ( 'NONE', #566, .T. ) ;
#369 = ORIENTED_EDGE ( 'NONE', *, *, #255, .T. ) ;
#370 = AXIS2_PLACEMENT_3D ( 'NONE', #523, #301, #758 ) ;
#371 = AXIS2_PLACEMENT_3D ( 'NONE', #88, #387, #628 ) ;
#372 = CARTESIAN_POINT ( 'NONE',  ( 0.000000000000000000, 20.00000000000000000, 5.000000000000000000 ) ) ;
#373 = ORIENTED_EDGE ( 'NONE', *, *, #567, .F. ) ;
#374 = APPROVAL_ROLE ( '' ) ;
#375 = CARTESIAN_POINT ( 'NONE',  ( 0.000000000000000000, 0.000000000000000000, 5.000000000000000000 ) ) ;
#376 = ORIENTED_EDGE ( 'NONE', *, *, #367, .F. ) ;
#377 = LINE ( 'NONE', #266, #622 ) ;
#378 = EDGE_CURVE ( 'NONE', #478, #85, #123, .T. ) ;
#379 = VERTEX_POINT ( 'NONE', #735 ) ;
#380 = FACE_OUTER_BOUND ( 'NONE', #532, .T. ) ;
#381 = AXIS2_PLACEMENT_3D ( 'NONE', #623, #440, #616 ) ;
#382 = CARTESIAN_POINT ( 'NONE',  ( -225.0200000000000102, 9.999999999999973355, 1.000000000000000000 ) ) ;
#383 = AXIS2_PLACEMENT_3D ( 'NONE', #681, #565, #686 ) ;
#384 = FACE_OUTER_BOUND ( 'NONE', #318, .T. ) ;
#385 = TOROIDAL_SURFACE ( 'NONE', #13, 9.000000000000001776, 1.000000000000000000 ) ;
#386 = DIRECTION ( 'NONE',  ( -0.000000000000000000, -0.000000000000000000, 1.000000000000000000 ) ) ;
#387 = DIRECTION ( 'NONE',  ( -0.000000000000000000, 0.000000000000000000, -1.000000000000000000 ) ) ;
#388 = ORIENTED_EDGE ( 'NONE', *, *, #743, .F. ) ;
#389 = EDGE_CURVE ( 'NONE', #746, #196, #491, .T. ) ;
#390 = FACE_BOUND ( 'NONE', #176, .T. ) ;
#391 = DIRECTION ( 'NONE',  ( -1.000000000000000000, 0.000000000000000000, 0.000000000000000000 ) ) ;
#392 = ORIENTED_EDGE ( 'NONE', *, *, #626, .T. ) ;
#393 = DIRECTION ( 'NONE',  ( 1.000000000000000000, 0.000000000000000000, 0.000000000000000000 ) ) ;
#394 = CARTESIAN_POINT ( 'NONE',  ( -225.0200000000000102, 10.00000000000000000, 5.000000000000000000 ) ) ;
#395 = AXIS2_PLACEMENT_3D ( 'NONE', #236, #292, #644 ) ;
#396 = DIRECTION ( 'NONE',  ( -0.000000000000000000, -0.000000000000000000, -1.000000000000000000 ) ) ;
#397 = CIRCLE ( 'NONE', #188, 1.000000000000000000 ) ;
#398 = LINE ( 'NONE', #26, #409 ) ;
#399 = VERTEX_POINT ( 'NONE', #142 ) ;
#400 = EDGE_CURVE ( 'NONE', #662, #585, #469, .T. ) ;
#401 = FACE_OUTER_BOUND ( 'NONE', #153, .T. ) ;
#402 = DIRECTION ( 'NONE',  ( 0.000000000000000000, 0.000000000000000000, -1.000000000000000000 ) ) ;
#403 = ADVANCED_FACE ( 'NONE', ( #270, #335, #390 ), #30, .F. ) ;
#404 = ORIENTED_EDGE ( 'NONE', *, *, #36, .T. ) ;
#405 = DIRECTION ( 'NONE',  ( 0.000000000000000000, -0.000000000000000000, 1.000000000000000000 ) ) ;
#406 = CARTESIAN_POINT ( 'NONE',  ( -20.00000000000000000, 10.00000000000000000, 0.000000000000000000 ) ) ;
#407 = AXIS2_PLACEMENT_3D ( 'NONE', #477, #172, #637 ) ;
#408 = ORIENTED_EDGE ( 'NONE', *, *, #633, .F. ) ;
#409 = VECTOR ( 'NONE', #556, 1000.000000000000000 ) ;
#410 = DIRECTION ( 'NONE',  ( 0.000000000000000000, -0.000000000000000000, 1.000000000000000000 ) ) ;
#411 = CARTESIAN_POINT ( 'NONE',  ( -9.999999999999998224, 0.9999999999999986677, 5.000000000000000000 ) ) ;
#412 = EDGE_CURVE ( 'NONE', #379, #291, #50, .T. ) ;
#413 = ORIENTED_EDGE ( 'NONE', *, *, #323, .F. ) ;
#414 = EDGE_CURVE ( 'NONE', #431, #600, #445, .T. ) ;
#415 = FACE_OUTER_BOUND ( 'NONE', #349, .T. ) ;
#416 = VERTEX_POINT ( 'NONE', #740 ) ;
#417 = AXIS2_PLACEMENT_3D ( 'NONE', #742, #682, #97 ) ;
#418 = FACE_OUTER_BOUND ( 'NONE', #543, .T. ) ;
#419 = MANIFOLD_SOLID_BREP ( 'Redondeo2', #178 ) ;
#420 = CARTESIAN_POINT ( 'NONE',  ( -225.0200000000000102, 18.99999999999997158, 5.000000000000000000 ) ) ;
#421 = ORIENTED_EDGE ( 'NONE', *, *, #219, .T. ) ;
#422 = VECTOR ( 'NONE', #154, 1000.000000000000000 ) ;
#423 = AXIS2_PLACEMENT_3D ( 'NONE', #586, #410, #639 ) ;
#424 = DIRECTION ( 'NONE',  ( 1.000000000000000000, 0.000000000000000000, 0.000000000000000000 ) ) ;
#425 = ADVANCED_FACE ( 'NONE', ( #25 ), #562, .T. ) ;
#426 = ORIENTED_EDGE ( 'NONE', *, *, #499, .F. ) ;
#427 = DIRECTION ( 'NONE',  ( 1.000000000000000000, 0.000000000000000000, 0.000000000000000000 ) ) ;
#428 = VERTEX_POINT ( 'NONE', #670 ) ;
#429 = PERSON_AND_ORGANIZATION_ROLE ( 'classification_officer' ) ;
#430 = DIRECTION ( 'NONE',  ( 0.000000000000000000, -0.000000000000000000, 1.000000000000000000 ) ) ;
#431 = VERTEX_POINT ( 'NONE', #44 ) ;
#432 = AXIS2_PLACEMENT_3D ( 'NONE', #92, #690, #391 ) ;
#433 = CARTESIAN_POINT ( 'NONE',  ( -225.0200000000000102, -2.755700227441373977E-14, 4.000000000000000000 ) ) ;
#434 = ORIENTED_EDGE ( 'NONE', *, *, #107, .F. ) ;
#435 = CC_DESIGN_DATE_AND_TIME_ASSIGNMENT ( #246, #713, ( #471 ) ) ;
#436 = APPROVAL_STATUS ( 'not_yet_approved' ) ;
#437 = EDGE_CURVE ( 'NONE', #489, #187, #377, .T. ) ;
#438 = DIRECTION ( 'NONE',  ( 0.000000000000000000, 0.000000000000000000, 1.000000000000000000 ) ) ;
#439 = VERTEX_POINT ( 'NONE', #495 ) ;
#440 = DIRECTION ( 'NONE',  ( 0.000000000000000000, 0.000000000000000000, 1.000000000000000000 ) ) ;
#441 = DIRECTION ( 'NONE',  ( 0.000000000000000000, 0.000000000000000000, -1.000000000000000000 ) ) ;
#442 = CARTESIAN_POINT ( 'NONE',  ( -9.999999999999998224, -1.224646799147353059E-15, 5.000000000000000000 ) ) ;
#443 = PRODUCT_DEFINITION_SHAPE ( 'NONE', 'NONE',  #708 ) ;
#444 = CIRCLE ( 'NONE', #111, 1.000000000000000000 ) ;
#445 = CIRCLE ( 'NONE', #199, 1.000000000000000000 ) ;
#446 = FACE_OUTER_BOUND ( 'NONE', #638, .T. ) ;
#447 = CIRCLE ( 'NONE', #749, 9.000000000000007105 ) ;
#448 = ORIENTED_EDGE ( 'NONE', *, *, #579, .F. ) ;
#449 = EDGE_CURVE ( 'NONE', #484, #237, #563, .T. ) ;
#450 = DIRECTION ( 'NONE',  ( 1.000000000000000000, 0.000000000000000000, 0.000000000000000000 ) ) ;
#451 = CARTESIAN_POINT ( 'NONE',  ( 0.000000000000000000, 9.999999999999998224, 1.000000000000000000 ) ) ;
#452 = CARTESIAN_POINT ( 'NONE',  ( -225.0200000000000102, 10.00000000000000000, 5.000000000000000000 ) ) ;
#453 = CARTESIAN_POINT ( 'NONE',  ( -10.00000000000000000, 9.999999999999998224, 1.000000000000000000 ) ) ;
#454 = LINE ( 'NONE', #41, #215 ) ;
#455 = EDGE_LOOP ( 'NONE', ( #487, #766 ) ) ;
#456 = CARTESIAN_POINT ( 'NONE',  ( -215.0200000000000387, 10.00000000000000000, 5.000000000000000000 ) ) ;
#457 = VECTOR ( 'NONE', #732, 1000.000000000000000 ) ;
#458 = EDGE_LOOP ( 'NONE', ( #225, #593, #276, #256 ) ) ;
#459 = CIRCLE ( 'NONE', #229, 5.000000000000000888 ) ;
#460 = ADVANCED_FACE ( 'NONE', ( #380 ), #508, .T. ) ;
#461 = DIRECTION ( 'NONE',  ( 0.000000000000000000, 1.000000000000000000, 0.000000000000000000 ) ) ;
#462 = ORIENTED_EDGE ( 'NONE', *, *, #743, .T. ) ;
#463 = PRODUCT ( 'ESLABON_Predeterminado_sldprt', 'ESLABON_Predeterminado_sldprt', '', ( #174 ) ) ;
#464 = DIRECTION ( 'NONE',  ( 0.000000000000000000, 0.000000000000000000, -1.000000000000000000 ) ) ;
#465 = CARTESIAN_POINT ( 'NONE',  ( -225.0200000000000102, 10.00000000000000000, 0.000000000000000000 ) ) ;
#466 = ORIENTED_EDGE ( 'NONE', *, *, #633, .T. ) ;
#467 = EDGE_CURVE ( 'NONE', #597, #234, #148, .T. ) ;
#468 = LINE ( 'NONE', #581, #653 ) ;
#469 = CIRCLE ( 'NONE', #513, 4.999999999999976907 ) ;
#470 = ORIENTED_EDGE ( 'NONE', *, *, #615, .T. ) ;
#471 = SECURITY_CLASSIFICATION ( '', '', #545 ) ;
#472 = EDGE_CURVE ( 'NONE', #56, #475, #680, .T. ) ;
#473 = DIRECTION ( 'NONE',  ( 0.000000000000000000, 0.000000000000000000, -1.000000000000000000 ) ) ;
#474 = CARTESIAN_POINT ( 'NONE',  ( -225.0200000000000102, 18.99999999999997158, 4.000000000000000000 ) ) ;
#475 = VERTEX_POINT ( 'NONE', #326 ) ;
#476 = DIRECTION ( 'NONE',  ( 0.000000000000000000, 0.000000000000000000, 1.000000000000000000 ) ) ;
#477 = CARTESIAN_POINT ( 'NONE',  ( -10.00000000000000000, 9.999999999999998224, 4.000000000000000000 ) ) ;
#478 = VERTEX_POINT ( 'NONE', #151 ) ;
#479 = PERSON_AND_ORGANIZATION ( #137, #590 ) ;
#480 = CARTESIAN_POINT ( 'NONE',  ( -225.0200000000000102, 9.999999999999973355, 4.000000000000000000 ) ) ;
#481 = EDGE_LOOP ( 'NONE', ( #557, #180, #201, #730, #115, #535 ) ) ;
#482 = AXIS2_PLACEMENT_3D ( 'NONE', #453, #668, #450 ) ;
#483 = ADVANCED_FACE ( 'NONE', ( #685 ), #146, .T. ) ;
#484 = VERTEX_POINT ( 'NONE', #40 ) ;
#485 = PERSON_AND_ORGANIZATION_ROLE ( 'design_supplier' ) ;
#486 = CYLINDRICAL_SURFACE ( 'NONE', #688, 10.00000000000000000 ) ;
#487 = ORIENTED_EDGE ( 'NONE', *, *, #400, .F. ) ;
#488 = CARTESIAN_POINT ( 'NONE',  ( -10.00000000000000000, 9.999999999999998224, 0.000000000000000000 ) ) ;
#489 = VERTEX_POINT ( 'NONE', #186 ) ;
#490 = CC_DESIGN_DATE_AND_TIME_ASSIGNMENT ( #304, #533, ( #708 ) ) ;
#491 = CIRCLE ( 'NONE', #134, 9.000000000000007105 ) ;
#492 = PERSON_AND_ORGANIZATION ( #137, #590 ) ;
#493 = DIRECTION ( 'NONE',  ( 0.000000000000000000, 1.000000000000000000, 0.000000000000000000 ) ) ;
#494 = ORIENTED_EDGE ( 'NONE', *, *, #754, .T. ) ;
#495 = CARTESIAN_POINT ( 'NONE',  ( -20.00000000000000000, 10.00000000000000000, 5.000000000000000000 ) ) ;
#496 = DIRECTION ( 'NONE',  ( 0.000000000000000000, -0.000000000000000000, 1.000000000000000000 ) ) ;
#497 = ORIENTED_EDGE ( 'NONE', *, *, #68, .F. ) ;
#498 = CYLINDRICAL_SURFACE ( 'NONE', #345, 4.999999999999976907 ) ;
#499 = EDGE_CURVE ( 'NONE', #187, #431, #654, .T. ) ;
#500 = DIRECTION ( 'NONE',  ( 1.000000000000000000, 0.000000000000000000, 0.000000000000000000 ) ) ;
#501 = AXIS2_PLACEMENT_3D ( 'NONE', #4, #606, #315 ) ;
#502 = DIRECTION ( 'NONE',  ( 0.000000000000000000, -0.000000000000000000, 1.000000000000000000 ) ) ;
#503 = DIRECTION ( 'NONE',  ( 1.000000000000000000, -0.000000000000000000, 0.000000000000000000 ) ) ;
#504 = ORIENTED_EDGE ( 'NONE', *, *, #472, .T. ) ;
#505 = DIRECTION ( 'NONE',  ( 0.000000000000000000, -0.000000000000000000, 1.000000000000000000 ) ) ;
#506 = DIRECTION ( 'NONE',  ( 0.000000000000000000, 0.000000000000000000, -1.000000000000000000 ) ) ;
#507 = EDGE_LOOP ( 'NONE', ( #191, #53, #110, #497 ) ) ;
#508 = CYLINDRICAL_SURFACE ( 'NONE', #61, 1.000000000000000888 ) ;
#509 = CARTESIAN_POINT ( 'NONE',  ( -220.0200000000000102, 10.00000000000000000, 5.000000000000000000 ) ) ;
#510 = LINE ( 'NONE', #452, #631 ) ;
#511 = EDGE_CURVE ( 'NONE', #85, #478, #575, .T. ) ;
#512 = DIRECTION ( 'NONE',  ( 1.000000000000000000, 0.000000000000000000, -0.000000000000000000 ) ) ;
#513 = AXIS2_PLACEMENT_3D ( 'NONE', #744, #438, #273 ) ;
#514 = FACE_OUTER_BOUND ( 'NONE', #313, .T. ) ;
#515 = LOCAL_TIME ( 14, 27, 31.00000000000000000, #203 ) ;
#516 = ORIENTED_EDGE ( 'NONE', *, *, #709, .T. ) ;
#517 = DIRECTION ( 'NONE',  ( 1.000000000000000000, 0.000000000000000000, 0.000000000000000000 ) ) ;
#518 = DIRECTION ( 'NONE',  ( 0.000000000000000000, 0.000000000000000000, 1.000000000000000000 ) ) ;
#519 = ORIENTED_EDGE ( 'NONE', *, *, #29, .F. ) ;
#520 = ADVANCED_BREP_SHAPE_REPRESENTATION ( 'ESLABON_Predeterminado_sldprt', ( #419, #239 ), #170 ) ;
#521 = CARTESIAN_POINT ( 'NONE',  ( -225.0200000000000102, 9.999999999999973355, 1.000000000000000000 ) ) ;
#522 = CIRCLE ( 'NONE', #366, 5.000000000000000888 ) ;
#523 = CARTESIAN_POINT ( 'NONE',  ( -9.999999999999998224, 0.9999999999999986677, 4.000000000000000000 ) ) ;
#524 = EDGE_CURVE ( 'NONE', #291, #489, #31, .T. ) ;
#525 = EDGE_LOOP ( 'NONE', ( #408, #42, #667, #307 ) ) ;
#526 = DIRECTION ( 'NONE',  ( 1.000000000000000000, 0.000000000000000000, 0.000000000000000000 ) ) ;
#527 = TOROIDAL_SURFACE ( 'NONE', #344, 9.000000000000001776, 1.000000000000000000 ) ;
#528 = EDGE_LOOP ( 'NONE', ( #143, #748, #695, #316 ) ) ;
#529 = AXIS2_PLACEMENT_3D ( 'NONE', #574, #405, #242 ) ;
#530 = AXIS2_PLACEMENT_3D ( 'NONE', #348, #765, #697 ) ;
#531 = LINE ( 'NONE', #693, #285 ) ;
#532 = EDGE_LOOP ( 'NONE', ( #16, #337, #59, #121 ) ) ;
#533 = DATE_TIME_ROLE ( 'creation_date' ) ;
#534 = DIRECTION ( 'NONE',  ( 0.000000000000000000, -0.000000000000000000, 1.000000000000000000 ) ) ;
#535 = ORIENTED_EDGE ( 'NONE', *, *, #197, .T. ) ;
#536 = EDGE_CURVE ( 'NONE', #163, #582, #444, .T. ) ;
#537 = FACE_OUTER_BOUND ( 'NONE', #46, .T. ) ;
#538 = EDGE_LOOP ( 'NONE', ( #343, #658, #691, #470 ) ) ;
#539 = AXIS2_PLACEMENT_3D ( 'NONE', #54, #473, #164 ) ;
#540 = AXIS2_PLACEMENT_3D ( 'NONE', #569, #503, #506 ) ;
#541 = PERSON_AND_ORGANIZATION ( #137, #590 ) ;
#542 = DIRECTION ( 'NONE',  ( -0.000000000000000000, 0.000000000000000000, -1.000000000000000000 ) ) ;
#543 = EDGE_LOOP ( 'NONE', ( #83, #241, #11, #669 ) ) ;
#544 = ADVANCED_FACE ( 'NONE', ( #560 ), #267, .T. ) ;
#545 = SECURITY_CLASSIFICATION_LEVEL ( 'unclassified' ) ;
#546 = FACE_BOUND ( 'NONE', #365, .T. ) ;
#547 = ADVANCED_FACE ( 'NONE', ( #327 ), #498, .F. ) ;
#548 = ORIENTED_EDGE ( 'NONE', *, *, #449, .F. ) ;
#549 = PLANE ( 'NONE',  #74 ) ;
#550 = ORIENTED_EDGE ( 'NONE', *, *, #536, .F. ) ;
#551 = CIRCLE ( 'NONE', #715, 9.000000000000001776 ) ;
#552 = DIRECTION ( 'NONE',  ( 1.000000000000000000, -0.000000000000000000, 0.000000000000000000 ) ) ;
#553 = DIRECTION ( 'NONE',  ( 0.000000000000000000, 0.000000000000000000, 1.000000000000000000 ) ) ;
#554 = CYLINDRICAL_SURFACE ( 'NONE', #417, 5.000000000000000888 ) ;
#555 = CARTESIAN_POINT ( 'NONE',  ( -225.0200000000000102, 9.999999999999973355, 5.000000000000000000 ) ) ;
#556 = DIRECTION ( 'NONE',  ( 0.000000000000000000, 0.000000000000000000, -1.000000000000000000 ) ) ;
#557 = ORIENTED_EDGE ( 'NONE', *, *, #672, .T. ) ;
#558 = APPLICATION_CONTEXT ( 'configuration controlled 3d designs of mechanical parts and assemblies' ) ;
#559 = CARTESIAN_POINT ( 'NONE',  ( 1.180987814468084045E-16, 19.00000000000000000, 1.000000000000000000 ) ) ;
#560 = FACE_OUTER_BOUND ( 'NONE', #306, .T. ) ;
#561 = ORIENTED_EDGE ( 'NONE', *, *, #159, .T. ) ;
#562 = TOROIDAL_SURFACE ( 'NONE', #482, 9.000000000000001776, 1.000000000000000000 ) ;
#563 = LINE ( 'NONE', #216, #457 ) ;
#564 = APPROVAL_PERSON_ORGANIZATION ( #660, #353, #80 ) ;
#565 = DIRECTION ( 'NONE',  ( -0.000000000000000000, 0.000000000000000000, -1.000000000000000000 ) ) ;
#566 = EDGE_LOOP ( 'NONE', ( #550, #373, #413, #673 ) ) ;
#567 = EDGE_CURVE ( 'NONE', #244, #163, #212, .T. ) ;
#568 = CARTESIAN_POINT ( 'NONE',  ( -10.00000000000000178, 19.00000000000000000, 4.000000000000000000 ) ) ;
#569 = CARTESIAN_POINT ( 'NONE',  ( -225.0200000000000102, 18.99999999999997513, 1.000000000000000000 ) ) ;
#570 = CC_DESIGN_PERSON_AND_ORGANIZATION_ASSIGNMENT ( #479, #718, ( #277 ) ) ;
#571 = ORIENTED_EDGE ( 'NONE', *, *, #185, .T. ) ;
#572 = EDGE_CURVE ( 'NONE', #489, #244, #62, .T. ) ;
#573 = DIRECTION ( 'NONE',  ( -1.000000000000000000, 0.000000000000000000, 0.000000000000000000 ) ) ;
#574 = CARTESIAN_POINT ( 'NONE',  ( -10.00000000000000000, 9.999999999999998224, 1.000000000000000000 ) ) ;
#575 = CIRCLE ( 'NONE', #250, 4.999999999999976907 ) ;
#576 = DIRECTION ( 'NONE',  ( -1.224646799147353207E-16, 1.000000000000000000, 0.000000000000000000 ) ) ;
#577 = CIRCLE ( 'NONE', #540, 1.000000000000000000 ) ;
#578 = ORIENTED_EDGE ( 'NONE', *, *, #656, .T. ) ;
#579 = EDGE_CURVE ( 'NONE', #585, #478, #224, .T. ) ;
#580 = DIRECTION ( 'NONE',  ( -0.000000000000000000, 1.000000000000000000, 0.000000000000000000 ) ) ;
#581 = CARTESIAN_POINT ( 'NONE',  ( 0.000000000000000000, 0.000000000000000000, 1.000000000000000000 ) ) ;
#582 = VERTEX_POINT ( 'NONE', #144 ) ;
#583 = CARTESIAN_POINT ( 'NONE',  ( -9.999999999999998224, -1.224646799147353059E-15, 1.000000000000000000 ) ) ;
#584 = CARTESIAN_POINT ( 'NONE',  ( -10.00000000000000000, 9.999999999999998224, 5.000000000000000000 ) ) ;
#585 = VERTEX_POINT ( 'NONE', #456 ) ;
#586 = CARTESIAN_POINT ( 'NONE',  ( -10.00000000000000000, 9.999999999999998224, 1.000000000000000000 ) ) ;
#587 = CARTESIAN_POINT ( 'NONE',  ( -9.999999999999998224, 0.9999999999999986677, 1.000000000000000000 ) ) ;
#588 = TOROIDAL_SURFACE ( 'NONE', #501, 9.000000000000001776, 1.000000000000000000 ) ;
#589 = ORIENTED_EDGE ( 'NONE', *, *, #536, .T. ) ;
#590 = ORGANIZATION ( 'UNSPECIFIED', 'UNSPECIFIED', '' ) ;
#591 = DATE_AND_TIME ( #14, #515 ) ;
#592 = CARTESIAN_POINT ( 'NONE',  ( -225.0200000000000102, 9.999999999999971578, 1.000000000000000000 ) ) ;
#593 = ORIENTED_EDGE ( 'NONE', *, *, #731, .T. ) ;
#594 = EDGE_CURVE ( 'NONE', #582, #132, #447, .T. ) ;
#595 = FACE_OUTER_BOUND ( 'NONE', #67, .T. ) ;
#596 = DIRECTION ( 'NONE',  ( 1.000000000000000000, 1.180987814468084045E-16, -0.000000000000000000 ) ) ;
#597 = VERTEX_POINT ( 'NONE', #451 ) ;
#598 = ADVANCED_FACE ( 'NONE', ( #446 ), #625, .F. ) ;
#599 = DIRECTION ( 'NONE',  ( 1.180987814468084045E-16, -1.000000000000000000, 0.000000000000000000 ) ) ;
#600 = VERTEX_POINT ( 'NONE', #149 ) ;
#601 = APPROVAL_PERSON_ORGANIZATION ( #338, #166, #374 ) ;
#602 = EDGE_CURVE ( 'NONE', #237, #264, #200, .T. ) ;
#603 = CARTESIAN_POINT ( 'NONE',  ( -235.0200000000000102, 9.999999999999973355, 1.000000000000000000 ) ) ;
#604 = EDGE_LOOP ( 'NONE', ( #222, #738 ) ) ;
#605 = CALENDAR_DATE ( 2026, 21, 4 ) ;
#606 = DIRECTION ( 'NONE',  ( 0.000000000000000000, -0.000000000000000000, 1.000000000000000000 ) ) ;
#607 = ORIENTED_EDGE ( 'NONE', *, *, #168, .T. ) ;
#608 = CARTESIAN_POINT ( 'NONE',  ( -10.00000000000000178, 19.00000000000000000, 1.000000000000000000 ) ) ;
#609 = ORIENTED_EDGE ( 'NONE', *, *, #572, .T. ) ;
#610 = CIRCLE ( 'NONE', #86, 9.000000000000001776 ) ;
#611 = CARTESIAN_POINT ( 'NONE',  ( 0.000000000000000000, 9.999999999999998224, 5.000000000000000000 ) ) ;
#612 = CARTESIAN_POINT ( 'NONE',  ( -2.243876847489359710E-15, 19.00000000000000000, 0.000000000000000000 ) ) ;
#613 = ORIENTED_EDGE ( 'NONE', *, *, #219, .F. ) ;
#614 = CIRCLE ( 'NONE', #362, 5.000000000000000888 ) ;
#615 = EDGE_CURVE ( 'NONE', #431, #234, #739, .T. ) ;
#616 = DIRECTION ( 'NONE',  ( 1.000000000000000000, 0.000000000000000000, 0.000000000000000000 ) ) ;
#617 = DIRECTION ( 'NONE',  ( 0.000000000000000000, 0.000000000000000000, 1.000000000000000000 ) ) ;
#618 = DIRECTION ( 'NONE',  ( 1.000000000000000000, 0.000000000000000000, 0.000000000000000000 ) ) ;
#619 = DIRECTION ( 'NONE',  ( -0.000000000000000000, -0.000000000000000000, -1.000000000000000000 ) ) ;
#620 = LINE ( 'NONE', #442, #208 ) ;
#621 = APPROVAL ( #436, 'UNSPECIFIED' ) ;
#622 = VECTOR ( 'NONE', #676, 1000.000000000000000 ) ;
#623 = CARTESIAN_POINT ( 'NONE',  ( -220.0200000000000102, 10.00000000000000000, 0.000000000000000000 ) ) ;
#624 = AXIS2_PLACEMENT_3D ( 'NONE', #382, #745, #221 ) ;
#625 = CYLINDRICAL_SURFACE ( 'NONE', #432, 4.999999999999976907 ) ;
#626 = EDGE_CURVE ( 'NONE', #439, #129, #454, .T. ) ;
#627 = DIRECTION ( 'NONE',  ( -0.000000000000000000, 0.000000000000000000, -1.000000000000000000 ) ) ;
#628 = DIRECTION ( 'NONE',  ( 1.000000000000000000, 8.673617379884035472E-16, 0.000000000000000000 ) ) ;
#629 = CARTESIAN_POINT ( 'NONE',  ( -15.00000000000000000, 10.00000000000000000, 0.000000000000000000 ) ) ;
#630 = DIRECTION ( 'NONE',  ( 1.224646799147353207E-16, -1.000000000000000000, 0.000000000000000000 ) ) ;
#631 = VECTOR ( 'NONE', #272, 1000.000000000000000 ) ;
#632 = ORIENTED_EDGE ( 'NONE', *, *, #378, .F. ) ;
#633 = EDGE_CURVE ( 'NONE', #264, #196, #87, .T. ) ;
#634 = CARTESIAN_POINT ( 'NONE',  ( -225.0200000000000102, 0.9999999999999708011, 4.000000000000000000 ) ) ;
#635 = AXIS2_PLACEMENT_3D ( 'NONE', #747, #336, #677 ) ;
#636 = VECTOR ( 'NONE', #464, 1000.000000000000000 ) ;
#637 = DIRECTION ( 'NONE',  ( 1.000000000000000000, 0.000000000000000000, 0.000000000000000000 ) ) ;
#638 = EDGE_LOOP ( 'NONE', ( #218, #126, #734, #205 ) ) ;
#639 = DIRECTION ( 'NONE',  ( 1.000000000000000000, 0.000000000000000000, 0.000000000000000000 ) ) ;
#640 = DIRECTION ( 'NONE',  ( 1.000000000000000000, 0.000000000000000000, 0.000000000000000000 ) ) ;
#641 = ORIENTED_EDGE ( 'NONE', *, *, #107, .T. ) ;
#642 = CARTESIAN_POINT ( 'NONE',  ( -225.0200000000000102, 18.99999999999997158, 5.000000000000000000 ) ) ;
#643 = CIRCLE ( 'NONE', #43, 9.000000000000001776 ) ;
#644 = DIRECTION ( 'NONE',  ( 1.000000000000000000, 0.000000000000000000, 0.000000000000000000 ) ) ;
#645 = APPLICATION_CONTEXT ( 'configuration controlled 3d designs of mechanical parts and assemblies' ) ;
#646 = ORIENTED_EDGE ( 'NONE', *, *, #159, .F. ) ;
#647 = PRODUCT_RELATED_PRODUCT_CATEGORY ( 'detail', '', ( #463 ) ) ;
#648 = EDGE_CURVE ( 'NONE', #264, #244, #398, .T. ) ;
#649 = AXIS2_PLACEMENT_3D ( 'NONE', #20, #719, #247 ) ;
#650 = ORIENTED_EDGE ( 'NONE', *, *, #759, .F. ) ;
#651 = LOCAL_TIME ( 14, 27, 31.00000000000000000, #19 ) ;
#652 = CIRCLE ( 'NONE', #530, 9.000000000000001776 ) ;
#653 = VECTOR ( 'NONE', #339, 1000.000000000000000 ) ;
#654 = LINE ( 'NONE', #364, #308 ) ;
#655 = ORIENTED_EDGE ( 'NONE', *, *, #329, .F. ) ;
#656 = EDGE_CURVE ( 'NONE', #196, #720, #124, .T. ) ;
#657 = FACE_OUTER_BOUND ( 'NONE', #119, .T. ) ;
#658 = ORIENTED_EDGE ( 'NONE', *, *, #679, .T. ) ;
#659 = EDGE_CURVE ( 'NONE', #416, #489, #577, .T. ) ;
#660 = PERSON_AND_ORGANIZATION ( #137, #590 ) ;
#661 = DIRECTION ( 'NONE',  ( 1.000000000000000000, 0.000000000000000000, 0.000000000000000000 ) ) ;
#662 = VERTEX_POINT ( 'NONE', #394 ) ;
#663 = AXIS2_PLACEMENT_3D ( 'NONE', #666, #131, #427 ) ;
#664 = AXIS2_PLACEMENT_3D ( 'NONE', #274, #496, #279 ) ;
#665 = PERSON_AND_ORGANIZATION ( #137, #590 ) ;
#666 = CARTESIAN_POINT ( 'NONE',  ( -225.0200000000000102, 9.999999999999971578, 4.000000000000000000 ) ) ;
#667 = ORIENTED_EDGE ( 'NONE', *, *, #754, .F. ) ;
#668 = DIRECTION ( 'NONE',  ( 0.000000000000000000, -0.000000000000000000, 1.000000000000000000 ) ) ;
#669 = ORIENTED_EDGE ( 'NONE', *, *, #197, .F. ) ;
#670 = CARTESIAN_POINT ( 'NONE',  ( -1.000000000000000000, 9.999999999999998224, 5.000000000000000000 ) ) ;
#671 = DIRECTION ( 'NONE',  ( 1.000000000000000000, 0.000000000000000000, 0.000000000000000000 ) ) ;
#672 = EDGE_CURVE ( 'NONE', #416, #379, #101, .T. ) ;
#673 = ORIENTED_EDGE ( 'NONE', *, *, #594, .F. ) ;
#674 = VECTOR ( 'NONE', #317, 1000.000000000000000 ) ;
#675 = LOCAL_TIME ( 14, 27, 31.00000000000000000, #257 ) ;
#676 = DIRECTION ( 'NONE',  ( -0.000000000000000000, -0.000000000000000000, 1.000000000000000000 ) ) ;
#677 = DIRECTION ( 'NONE',  ( -1.180987814468082073E-16, 1.000000000000000000, 0.000000000000000000 ) ) ;
#678 = ORIENTED_EDGE ( 'NONE', *, *, #7, .T. ) ;
#679 = EDGE_CURVE ( 'NONE', #597, #291, #251, .T. ) ;
#680 = LINE ( 'NONE', #34, #320 ) ;
#681 = CARTESIAN_POINT ( 'NONE',  ( -225.0200000000000102, 9.999999999999971578, 4.000000000000000000 ) ) ;
#682 = DIRECTION ( 'NONE',  ( -0.000000000000000000, -0.000000000000000000, -1.000000000000000000 ) ) ;
#683 = AXIS2_PLACEMENT_3D ( 'NONE', #28, #209, #618 ) ;
#684 = ADVANCED_FACE ( 'NONE', ( #113 ), #231, .T. ) ;
#685 = FACE_OUTER_BOUND ( 'NONE', #507, .T. ) ;
#686 = DIRECTION ( 'NONE',  ( 1.000000000000000000, 0.000000000000000000, 0.000000000000000000 ) ) ;
#687 = EDGE_LOOP ( 'NONE', ( #641, #703, #650, #253 ) ) ;
#688 = AXIS2_PLACEMENT_3D ( 'NONE', #184, #198, #360 ) ;
#689 = APPROVAL_PERSON_ORGANIZATION ( #665, #621, #260 ) ;
#690 = DIRECTION ( 'NONE',  ( -0.000000000000000000, -0.000000000000000000, -1.000000000000000000 ) ) ;
#691 = ORIENTED_EDGE ( 'NONE', *, *, #709, .F. ) ;
#692 = DIRECTION ( 'NONE',  ( 1.000000000000000000, 1.224646799147353207E-16, 0.000000000000000000 ) ) ;
#693 = CARTESIAN_POINT ( 'NONE',  ( -225.0200000000000102, -2.755700227441373977E-14, 5.000000000000000000 ) ) ;
#694 = ADVANCED_FACE ( 'NONE', ( #401 ), #171, .T. ) ;
#695 = ORIENTED_EDGE ( 'NONE', *, *, #185, .F. ) ;
#696 = CARTESIAN_POINT ( 'NONE',  ( -15.00000000000000000, 10.00000000000000000, 5.000000000000000000 ) ) ;
#697 = DIRECTION ( 'NONE',  ( 1.000000000000000000, 0.000000000000000000, 0.000000000000000000 ) ) ;
#698 = EDGE_LOOP ( 'NONE', ( #589, #737, #434, #646 ) ) ;
#699 = DIRECTION ( 'NONE',  ( 1.000000000000000000, 0.000000000000000000, 0.000000000000000000 ) ) ;
#700 = AXIS2_PLACEMENT_3D ( 'NONE', #584, #179, #573 ) ;
#701 = CC_DESIGN_APPROVAL ( #621, ( #277 ) ) ;
#702 = CARTESIAN_POINT ( 'NONE',  ( -10.00000000000000000, 9.999999999999998224, 4.000000000000000000 ) ) ;
#703 = ORIENTED_EDGE ( 'NONE', *, *, #355, .F. ) ;
#704 = CIRCLE ( 'NONE', #127, 1.000000000000000000 ) ;
#705 = DIRECTION ( 'NONE',  ( 0.000000000000000000, 0.000000000000000000, 1.000000000000000000 ) ) ;
#706 = DIRECTION ( 'NONE',  ( 0.000000000000000000, 0.000000000000000000, 1.000000000000000000 ) ) ;
#707 = ORIENTED_EDGE ( 'NONE', *, *, #437, .F. ) ;
#708 = PRODUCT_DEFINITION ( 'UNKNOWN', '', #277, #195 ) ;
#709 = EDGE_CURVE ( 'NONE', #431, #291, #51, .T. ) ;
#710 = APPLICATION_PROTOCOL_DEFINITION ( 'international standard', 'config_control_design', 1994, #558 ) ;
#711 = CARTESIAN_POINT ( 'NONE',  ( -225.0200000000000102, -2.755700227441373977E-14, 1.000000000000000000 ) ) ;
#712 = ORIENTED_EDGE ( 'NONE', *, *, #449, .T. ) ;
#713 = DATE_TIME_ROLE ( 'classification_date' ) ;
#714 = CARTESIAN_POINT ( 'NONE',  ( -10.00000000000000000, 9.999999999999998224, 4.000000000000000000 ) ) ;
#715 = AXIS2_PLACEMENT_3D ( 'NONE', #488, #193, #661 ) ;
#716 = ORIENTED_EDGE ( 'NONE', *, *, #116, .F. ) ;
#717 = AXIS2_PLACEMENT_3D ( 'NONE', #155, #158, #553 ) ;
#718 = PERSON_AND_ORGANIZATION_ROLE ( 'creator' ) ;
#719 = DIRECTION ( 'NONE',  ( 0.000000000000000000, 0.000000000000000000, -1.000000000000000000 ) ) ;
#720 = VERTEX_POINT ( 'NONE', #177 ) ;
#721 = APPROVAL_DATE_TIME ( #192, #621 ) ;
#722 = DIRECTION ( 'NONE',  ( 1.000000000000000000, 0.000000000000000000, 0.000000000000000000 ) ) ;
#723 = EDGE_LOOP ( 'NONE', ( #293, #462, #392, #716 ) ) ;
#724 = LINE ( 'NONE', #100, #422 ) ;
#725 = VERTEX_POINT ( 'NONE', #583 ) ;
#726 = VECTOR ( 'NONE', #386, 1000.000000000000000 ) ;
#727 = CIRCLE ( 'NONE', #147, 1.000000000000000000 ) ;
#728 = APPROVAL_DATE_TIME ( #359, #166 ) ;
#729 = PLANE ( 'NONE',  #332 ) ;
#730 = ORIENTED_EDGE ( 'NONE', *, *, #303, .T. ) ;
#731 = EDGE_CURVE ( 'NONE', #725, #597, #298, .T. ) ;
#732 = DIRECTION ( 'NONE',  ( -1.000000000000000000, -1.224646799147353207E-16, -0.000000000000000000 ) ) ;
#733 = DIRECTION ( 'NONE',  ( 1.000000000000000000, 0.000000000000000000, 0.000000000000000000 ) ) ;
#734 = ORIENTED_EDGE ( 'NONE', *, *, #511, .F. ) ;
#735 = CARTESIAN_POINT ( 'NONE',  ( -10.00000000000000178, 19.00000000000000000, 0.000000000000000000 ) ) ;
#736 = DIRECTION ( 'NONE',  ( 0.000000000000000000, -0.000000000000000000, 1.000000000000000000 ) ) ;
#737 = ORIENTED_EDGE ( 'NONE', *, *, #303, .F. ) ;
#738 = ORIENTED_EDGE ( 'NONE', *, *, #378, .T. ) ;
#739 = CIRCLE ( 'NONE', #371, 10.00000000000000000 ) ;
#740 = CARTESIAN_POINT ( 'NONE',  ( -225.0200000000000102, 18.99999999999997513, 0.000000000000000000 ) ) ;
#741 = CARTESIAN_POINT ( 'NONE',  ( -225.0200000000000102, 0.9999999999999724665, 1.000000000000000000 ) ) ;
#742 = CARTESIAN_POINT ( 'NONE',  ( -15.00000000000000000, 10.00000000000000000, 5.000000000000000000 ) ) ;
#743 = EDGE_CURVE ( 'NONE', #56, #439, #358, .T. ) ;
#744 = CARTESIAN_POINT ( 'NONE',  ( -220.0200000000000102, 10.00000000000000000, 5.000000000000000000 ) ) ;
#745 = DIRECTION ( 'NONE',  ( 0.000000000000000000, -0.000000000000000000, 1.000000000000000000 ) ) ;
#746 = VERTEX_POINT ( 'NONE', #642 ) ;
#747 = CARTESIAN_POINT ( 'NONE',  ( -2.243876847489359710E-15, 19.00000000000000000, 4.000000000000000000 ) ) ;
#748 = ORIENTED_EDGE ( 'NONE', *, *, #567, .T. ) ;
#749 = AXIS2_PLACEMENT_3D ( 'NONE', #331, #211, #35 ) ;
#750 = DIRECTION ( 'NONE',  ( 1.000000000000000000, 0.000000000000000000, 0.000000000000000000 ) ) ;
#751 = EDGE_LOOP ( 'NONE', ( #516, #173, #259, #284 ) ) ;
#752 = CIRCLE ( 'NONE', #27, 1.000000000000000000 ) ;
#753 = DIRECTION ( 'NONE',  ( 0.000000000000000000, 0.000000000000000000, -1.000000000000000000 ) ) ;
#754 = EDGE_CURVE ( 'NONE', #720, #237, #310, .T. ) ;
#755 = CARTESIAN_POINT ( 'NONE',  ( -225.0200000000000102, 19.99999999999997158, 4.000000000000000000 ) ) ;
#756 = ORIENTED_EDGE ( 'NONE', *, *, #255, .F. ) ;
#757 = DIRECTION ( 'NONE',  ( 0.000000000000000000, -0.000000000000000000, 1.000000000000000000 ) ) ;
#758 = DIRECTION ( 'NONE',  ( 0.000000000000000000, 0.000000000000000000, -1.000000000000000000 ) ) ;
#759 = EDGE_CURVE ( 'NONE', #597, #399, #727, .T. ) ;
#760 = ORIENTED_EDGE ( 'NONE', *, *, #103, .F. ) ;
#761 = APPLICATION_PROTOCOL_DEFINITION ( 'international standard', 'config_control_design', 1994, #645 ) ;
#762 = AXIS2_PLACEMENT_3D ( 'NONE', #592, #252, #15 ) ;
#763 = ADVANCED_FACE ( 'NONE', ( #418 ), #12, .T. ) ;
#764 = VECTOR ( 'NONE', #104, 1000.000000000000000 ) ;
#765 = DIRECTION ( 'NONE',  ( 0.000000000000000000, -0.000000000000000000, 1.000000000000000000 ) ) ;
#766 = ORIENTED_EDGE ( 'NONE', *, *, #24, .F. ) ;
#767 = PERSON_AND_ORGANIZATION_ROLE ( 'design_owner' ) ;
ENDSEC;
END-ISO-10303-21;
