ISO-10303-21;
HEADER;
FILE_DESCRIPTION (( 'STEP AP203' ),
    '1' );
FILE_NAME ('ESLABON 2_Predeterminado_sldprt.STEP',
    '2026-04-21T20:27:26',
    ( '' ),
    ( '' ),
    'SwSTEP 2.0',
    'SolidWorks 2025',
    '' );
FILE_SCHEMA (( 'CONFIG_CONTROL_DESIGN' ));
ENDSEC;

DATA;
#1 = AXIS2_PLACEMENT_3D ( 'NONE', #337, #845, #185 ) ;
#2 = DIRECTION ( 'NONE',  ( 0.000000000000000000, 0.000000000000000000, -1.000000000000000000 ) ) ;
#3 = VECTOR ( 'NONE', #507, 1000.000000000000000 ) ;
#4 = LINE ( 'NONE', #550, #414 ) ;
#5 = CC_DESIGN_PERSON_AND_ORGANIZATION_ASSIGNMENT ( #225, #900, ( #124 ) ) ;
#6 = APPROVAL_DATE_TIME ( #831, #664 ) ;
#7 = EDGE_CURVE ( 'NONE', #888, #242, #215, .T. ) ;
#8 = DIRECTION ( 'NONE',  ( -0.000000000000000000, 0.000000000000000000, -1.000000000000000000 ) ) ;
#9 = CALENDAR_DATE ( 2026, 21, 4 ) ;
#10 = AXIS2_PLACEMENT_3D ( 'NONE', #740, #614, #238 ) ;
#11 = DIRECTION ( 'NONE',  ( 0.000000000000000000, 0.000000000000000000, 1.000000000000000000 ) ) ;
#12 = AXIS2_PLACEMENT_3D ( 'NONE', #132, #429, #714 ) ;
#13 = DIRECTION ( 'NONE',  ( 1.734723475976805319E-15, 1.000000000000000000, 0.000000000000000000 ) ) ;
#14 = EDGE_LOOP ( 'NONE', ( #843, #371 ) ) ;
#15 = MANIFOLD_SOLID_BREP ( 'Chafl\X2\00e1\X0\n1', #168 ) ;
#16 = APPROVAL_DATE_TIME ( #612, #174 ) ;
#17 = ORIENTED_EDGE ( 'NONE', *, *, #330, .T. ) ;
#18 = FACE_OUTER_BOUND ( 'NONE', #750, .T. ) ;
#19 = CARTESIAN_POINT ( 'NONE',  ( 0.000000000000000000, 0.000000000000000000, 5.000000000000000000 ) ) ;
#20 = FACE_OUTER_BOUND ( 'NONE', #224, .T. ) ;
#21 = CARTESIAN_POINT ( 'NONE',  ( 1.844934007476033866E-15, 19.00000000000000000, 4.000000000000000000 ) ) ;
#22 = AXIS2_PLACEMENT_3D ( 'NONE', #73, #364, #518 ) ;
#23 = EDGE_CURVE ( 'NONE', #531, #439, #210, .T. ) ;
#24 = CALENDAR_DATE ( 2026, 21, 4 ) ;
#25 = EDGE_LOOP ( 'NONE', ( #581, #99, #449, #71 ) ) ;
#26 = DIRECTION ( 'NONE',  ( -0.000000000000000000, 0.000000000000000000, -1.000000000000000000 ) ) ;
#27 = DIRECTION ( 'NONE',  ( -9.710178986715958373E-17, -1.000000000000000000, 0.000000000000000000 ) ) ;
#28 = EDGE_CURVE ( 'NONE', #862, #604, #372, .T. ) ;
#29 = COORDINATED_UNIVERSAL_TIME_OFFSET ( 6, 0, .BEHIND. ) ;
#30 = ORIENTED_EDGE ( 'NONE', *, *, #176, .T. ) ;
#31 = DIRECTION ( 'NONE',  ( 1.000000000000000000, 0.000000000000000000, -0.000000000000000000 ) ) ;
#32 = DIRECTION ( 'NONE',  ( 1.000000000000000000, 0.000000000000000000, 0.000000000000000000 ) ) ;
#33 = AXIS2_PLACEMENT_3D ( 'NONE', #875, #725, #736 ) ;
#34 = EDGE_CURVE ( 'NONE', #781, #125, #361, .T. ) ;
#35 = DIRECTION ( 'NONE',  ( -0.000000000000000000, 0.000000000000000000, -1.000000000000000000 ) ) ;
#36 = DIRECTION ( 'NONE',  ( 1.000000000000000000, 0.000000000000000000, 0.000000000000000000 ) ) ;
#37 = AXIS2_PLACEMENT_3D ( 'NONE', #319, #328, #744 ) ;
#38 = ORIENTED_EDGE ( 'NONE', *, *, #236, .T. ) ;
#39 = CARTESIAN_POINT ( 'NONE',  ( -61.45999999999999375, 10.00000000000000533, 1.000000000000000000 ) ) ;
#40 = EDGE_CURVE ( 'NONE', #794, #752, #131, .T. ) ;
#41 = FACE_OUTER_BOUND ( 'NONE', #791, .T. ) ;
#42 = ORIENTED_EDGE ( 'NONE', *, *, #50, .T. ) ;
#43 = DIRECTION ( 'NONE',  ( 1.734723475976805319E-15, 1.000000000000000000, -0.000000000000000000 ) ) ;
#44 = DIRECTION ( 'NONE',  ( 1.000000000000000000, 1.224646799147353207E-16, 0.000000000000000000 ) ) ;
#45 = AXIS2_PLACEMENT_3D ( 'NONE', #451, #825, #255 ) ;
#46 = AXIS2_PLACEMENT_3D ( 'NONE', #444, #209, #520 ) ;
#47 = ORIENTED_EDGE ( 'NONE', *, *, #573, .T. ) ;
#48 = CARTESIAN_POINT ( 'NONE',  ( 0.000000000000000000, 0.000000000000000000, 0.000000000000000000 ) ) ;
#49 = LINE ( 'NONE', #711, #870 ) ;
#50 = EDGE_CURVE ( 'NONE', #336, #338, #438, .T. ) ;
#51 = ADVANCED_FACE ( 'NONE', ( #521 ), #284, .T. ) ;
#52 = EDGE_LOOP ( 'NONE', ( #323, #466, #38, #61, #569, #156 ) ) ;
#53 = DIRECTION ( 'NONE',  ( 1.000000000000000000, 0.000000000000000000, -0.000000000000000000 ) ) ;
#54 = CARTESIAN_POINT ( 'NONE',  ( -11.91637678967368075, 12.50000000000000711, 5.000000000000000000 ) ) ;
#55 = AXIS2_PLACEMENT_3D ( 'NONE', #259, #562, #846 ) ;
#56 = CARTESIAN_POINT ( 'NONE',  ( -61.46000000000000085, 10.00000000000000178, 0.000000000000000000 ) ) ;
#57 = ORIENTED_EDGE ( 'NONE', *, *, #871, .T. ) ;
#58 = EDGE_CURVE ( 'NONE', #641, #307, #662, .T. ) ;
#59 = CARTESIAN_POINT ( 'NONE',  ( -61.46000000000000085, 10.00000000000000178, 0.000000000000000000 ) ) ;
#60 = AXIS2_PLACEMENT_3D ( 'NONE', #836, #234, #36 ) ;
#61 = ORIENTED_EDGE ( 'NONE', *, *, #7, .T. ) ;
#62 = AXIS2_PLACEMENT_3D ( 'NONE', #157, #458, #742 ) ;
#63 = LOCAL_TIME ( 14, 27, 26.00000000000000000, #460 ) ;
#64 = FACE_OUTER_BOUND ( 'NONE', #482, .T. ) ;
#65 = APPROVAL_PERSON_ORGANIZATION ( #826, #174, #598 ) ;
#66 = DIRECTION ( 'NONE',  ( -1.000000000000000000, 9.710178986715967001E-17, 0.000000000000000000 ) ) ;
#67 = ORIENTED_EDGE ( 'NONE', *, *, #542, .T. ) ;
#68 = CARTESIAN_POINT ( 'NONE',  ( -9.999999999999998224, -1.224646799147353059E-15, 4.000000000000000000 ) ) ;
#69 = CARTESIAN_POINT ( 'NONE',  ( -70.45999999999999375, 10.00000000000000355, 5.000000000000000000 ) ) ;
#70 = EDGE_CURVE ( 'NONE', #336, #687, #333, .T. ) ;
#71 = ORIENTED_EDGE ( 'NONE', *, *, #716, .F. ) ;
#72 = FACE_BOUND ( 'NONE', #774, .T. ) ;
#73 = CARTESIAN_POINT ( 'NONE',  ( -1.224646799147353207E-16, 1.000000000000000000, 1.000000000000000000 ) ) ;
#74 = DIRECTION ( 'NONE',  ( -0.000000000000000000, 0.000000000000000000, -1.000000000000000000 ) ) ;
#75 = VECTOR ( 'NONE', #134, 1000.000000000000000 ) ;
#76 = AXIS2_PLACEMENT_3D ( 'NONE', #258, #187, #117 ) ;
#77 = CYLINDRICAL_SURFACE ( 'NONE', #492, 1.000000000000000000 ) ;
#78 = CARTESIAN_POINT ( 'NONE',  ( -61.45999999999999375, 20.00000000000000711, 5.000000000000000000 ) ) ;
#79 = ORIENTED_EDGE ( 'NONE', *, *, #522, .F. ) ;
#80 = ORIENTED_EDGE ( 'NONE', *, *, #652, .T. ) ;
#81 = DIRECTION ( 'NONE',  ( -1.000000000000000000, 0.000000000000000000, 0.000000000000000000 ) ) ;
#82 = EDGE_LOOP ( 'NONE', ( #178, #85, #207, #148 ) ) ;
#83 = APPLICATION_CONTEXT ( 'configuration controlled 3d designs of mechanical parts and assemblies' ) ;
#84 = DATE_AND_TIME ( #322, #496 ) ;
#85 = ORIENTED_EDGE ( 'NONE', *, *, #311, .F. ) ;
#86 = ADVANCED_FACE ( 'NONE', ( #142 ), #860, .T. ) ;
#87 = AXIS2_PLACEMENT_3D ( 'NONE', #891, #464, #97 ) ;
#88 = AXIS2_PLACEMENT_3D ( 'NONE', #188, #493, #635 ) ;
#89 = LINE ( 'NONE', #890, #704 ) ;
#90 = CIRCLE ( 'NONE', #663, 5.000000000000004441 ) ;
#91 = DIRECTION ( 'NONE',  ( 0.000000000000000000, 0.000000000000000000, 1.000000000000000000 ) ) ;
#92 = CC_DESIGN_APPROVAL ( #664, ( #124 ) ) ;
#93 = CALENDAR_DATE ( 2026, 21, 4 ) ;
#94 = CARTESIAN_POINT ( 'NONE',  ( -10.00000000000000000, 10.00000000000000000, 3.999999999999993339 ) ) ;
#95 = DIRECTION ( 'NONE',  ( 1.000000000000000000, -1.101411730778923396E-15, 0.000000000000000000 ) ) ;
#96 = EDGE_CURVE ( 'NONE', #425, #531, #4, .T. ) ;
#97 = DIRECTION ( 'NONE',  ( 1.000000000000000000, -9.637352644315592778E-16, 0.000000000000000000 ) ) ;
#98 = COORDINATED_UNIVERSAL_TIME_OFFSET ( 6, 0, .BEHIND. ) ;
#99 = ORIENTED_EDGE ( 'NONE', *, *, #931, .F. ) ;
#100 = CARTESIAN_POINT ( 'NONE',  ( -11.54029218007493718, 11.50000000000000000, 0.000000000000000000 ) ) ;
#101 = CARTESIAN_POINT ( 'NONE',  ( -61.45999999999999375, 20.00000000000000711, 4.000000000000000000 ) ) ;
#102 = DIRECTION ( 'NONE',  ( 0.7071067811865473507, 0.000000000000000000, 0.7071067811865477948 ) ) ;
#103 = DIRECTION ( 'NONE',  ( 1.000000000000000000, 0.000000000000000000, 0.000000000000000000 ) ) ;
#104 = ADVANCED_FACE ( 'NONE', ( #616 ), #155, .T. ) ;
#105 = ORIENTED_EDGE ( 'NONE', *, *, #503, .F. ) ;
#106 = CARTESIAN_POINT ( 'NONE',  ( -10.00000000000000000, 10.00000000000000000, 3.999999999999993339 ) ) ;
#107 = CIRCLE ( 'NONE', #369, 1.000000000000000000 ) ;
#108 = ORIENTED_EDGE ( 'NONE', *, *, #350, .T. ) ;
#109 = EDGE_CURVE ( 'NONE', #918, #344, #247, .T. ) ;
#110 = DIRECTION ( 'NONE',  ( 0.000000000000000000, -0.000000000000000000, 1.000000000000000000 ) ) ;
#111 = ORIENTED_EDGE ( 'NONE', *, *, #128, .T. ) ;
#112 = CARTESIAN_POINT ( 'NONE',  ( -10.00000000000000000, 10.00000000000000000, 5.000000000000000000 ) ) ;
#113 = CARTESIAN_POINT ( 'NONE',  ( -61.45999999999999375, 0.9999999999999924505, 1.000000000000000000 ) ) ;
#114 = DIRECTION ( 'NONE',  ( -0.000000000000000000, 0.000000000000000000, -1.000000000000000000 ) ) ;
#115 = EDGE_LOOP ( 'NONE', ( #844, #133, #519, #578 ) ) ;
#116 = PLANE ( 'NONE',  #353 ) ;
#117 = DIRECTION ( 'NONE',  ( 1.000000000000000000, 0.000000000000000000, 0.000000000000000000 ) ) ;
#118 = APPLICATION_CONTEXT ( 'configuration controlled 3d designs of mechanical parts and assemblies' ) ;
#119 = ADVANCED_FACE ( 'NONE', ( #822 ), #887, .T. ) ;
#120 = CARTESIAN_POINT ( 'NONE',  ( -8.320167039337462711, 11.83066703560097999, 4.330667035600972881 ) ) ;
#121 = VECTOR ( 'NONE', #533, 1000.000000000000000 ) ;
#122 = AXIS2_PLACEMENT_3D ( 'NONE', #814, #820, #748 ) ;
#123 = VERTEX_POINT ( 'NONE', #680 ) ;
#124 = SECURITY_CLASSIFICATION ( '', '', #889 ) ;
#125 = VERTEX_POINT ( 'NONE', #554 ) ;
#126 = CARTESIAN_POINT ( 'NONE',  ( -13.15000000000000568, 10.00000000000000000, 5.000000000000000000 ) ) ;
#127 = CARTESIAN_POINT ( 'NONE',  ( -8.459707819925064598, 11.50000000000000000, 3.999999999999993339 ) ) ;
#128 = EDGE_CURVE ( 'NONE', #344, #604, #324, .T. ) ;
#129 = ORIENTED_EDGE ( 'NONE', *, *, #23, .T. ) ;
#130 = CARTESIAN_POINT ( 'NONE',  ( 0.000000000000000000, 20.00000000000000000, 1.000000000000000000 ) ) ;
#131 = CIRCLE ( 'NONE', #776, 3.150000000000005240 ) ;
#132 = CARTESIAN_POINT ( 'NONE',  ( -61.45999999999999375, 9.999999999999992895, 4.000000000000000000 ) ) ;
#133 = ORIENTED_EDGE ( 'NONE', *, *, #261, .F. ) ;
#134 = DIRECTION ( 'NONE',  ( -1.000000000000000000, 9.710178986715967001E-17, 0.000000000000000000 ) ) ;
#135 = DIRECTION ( 'NONE',  ( 1.000000000000000000, -8.673617379884035472E-16, 0.000000000000000000 ) ) ;
#136 = AXIS2_PLACEMENT_3D ( 'NONE', #467, #8, #95 ) ;
#137 = AXIS2_PLACEMENT_3D ( 'NONE', #56, #852, #567 ) ;
#138 = ORIENTED_EDGE ( 'NONE', *, *, #330, .F. ) ;
#139 = FACE_OUTER_BOUND ( 'NONE', #211, .T. ) ;
#140 = AXIS2_PLACEMENT_3D ( 'NONE', #201, #801, #441 ) ;
#141 = ADVANCED_FACE ( 'NONE', ( #193 ), #894, .T. ) ;
#142 = FACE_OUTER_BOUND ( 'NONE', #312, .T. ) ;
#143 = CARTESIAN_POINT ( 'NONE',  ( -71.45999999999999375, 10.00000000000000533, 1.000000000000000000 ) ) ;
#144 = CARTESIAN_POINT ( 'NONE',  ( -61.45999999999999375, 0.9999999999999924505, 5.000000000000000000 ) ) ;
#145 = DIRECTION ( 'NONE',  ( -1.000000000000000000, -1.224646799147353207E-16, -0.000000000000000000 ) ) ;
#146 = VERTEX_POINT ( 'NONE', #575 ) ;
#147 = DIRECTION ( 'NONE',  ( 1.000000000000000000, 0.000000000000000000, 0.000000000000000000 ) ) ;
#148 = ORIENTED_EDGE ( 'NONE', *, *, #404, .F. ) ;
#149 = PLANE ( 'NONE',  #45 ) ;
#150 = EDGE_CURVE ( 'NONE', #802, #171, #778, .T. ) ;
#151 = EDGE_LOOP ( 'NONE', ( #346, #697, #214, #717, #47, #200 ) ) ;
#152 = PERSON_AND_ORGANIZATION_ROLE ( 'creator' ) ;
#153 = ORIENTED_EDGE ( 'NONE', *, *, #28, .F. ) ;
#154 = FACE_OUTER_BOUND ( 'NONE', #637, .T. ) ;
#155 = TOROIDAL_SURFACE ( 'NONE', #878, 9.000000000000001776, 1.000000000000000000 ) ;
#156 = ORIENTED_EDGE ( 'NONE', *, *, #192, .T. ) ;
#157 = CARTESIAN_POINT ( 'NONE',  ( -61.45999999999999375, 19.00000000000000711, 4.000000000000000000 ) ) ;
#158 = DIRECTION ( 'NONE',  ( 1.000000000000000000, 0.000000000000000000, 0.000000000000000000 ) ) ;
#159 = DIRECTION ( 'NONE',  ( -1.000000000000000000, 9.710178986715967001E-17, 0.000000000000000000 ) ) ;
#160 = EDGE_CURVE ( 'NONE', #712, #531, #470, .T. ) ;
#161 = APPROVAL_STATUS ( 'not_yet_approved' ) ;
#162 = VECTOR ( 'NONE', #817, 1000.000000000000000 ) ;
#163 = DIRECTION ( 'NONE',  ( 1.000000000000000000, 0.000000000000000000, 0.000000000000000000 ) ) ;
#164 = CARTESIAN_POINT ( 'NONE',  ( 0.000000000000000000, 10.00000000000000178, 5.000000000000000000 ) ) ;
#165 = COORDINATED_UNIVERSAL_TIME_OFFSET ( 6, 0, .BEHIND. ) ;
#166 = ORIENTED_EDGE ( 'NONE', *, *, #176, .F. ) ;
#167 = CARTESIAN_POINT ( 'NONE',  ( -9.999999999999998224, 20.00000000000000000, 5.000000000000000000 ) ) ;
#168 = CLOSED_SHELL ( 'NONE', ( #584, #221, #468, #501, #813, #835, #669, #625, #509, #677, #556, #908, #495, #642, #595, #734, #51, #348, #647, #141, #780, #448, #86, #203, #119, #104, #366, #442, #267, #549 ) ) ;
#169 = TOROIDAL_SURFACE ( 'NONE', #376, 9.000000000000001776, 1.000000000000000000 ) ;
#170 = PERSON_AND_ORGANIZATION ( #923, #424 ) ;
#171 = VERTEX_POINT ( 'NONE', #763 ) ;
#172 = CARTESIAN_POINT ( 'NONE',  ( -61.45999999999999375, 0.9999999999999924505, 0.000000000000000000 ) ) ;
#173 = CARTESIAN_POINT ( 'NONE',  ( -56.45999999999999375, 10.00000000000000178, 5.000000000000000000 ) ) ;
#174 = APPROVAL ( #818, 'UNSPECIFIED' ) ;
#175 = CARTESIAN_POINT ( 'NONE',  ( -61.45999999999999375, -7.526679227559632366E-15, 5.000000000000000000 ) ) ;
#176 = EDGE_CURVE ( 'NONE', #285, #439, #427, .T. ) ;
#177 = ORIENTED_EDGE ( 'NONE', *, *, #922, .F. ) ;
#178 = ORIENTED_EDGE ( 'NONE', *, *, #840, .T. ) ;
#179 = CARTESIAN_POINT ( 'NONE',  ( -11.67983296066253907, 11.83066703560097999, 4.330667035600972881 ) ) ;
#180 = CIRCLE ( 'NONE', #274, 2.149999999999999023 ) ;
#181 = CARTESIAN_POINT ( 'NONE',  ( -8.197421309852851223, 12.16449225132058842, 4.664492251320581317 ) ) ;
#182 = CIRCLE ( 'NONE', #140, 9.000000000000001776 ) ;
#183 = CARTESIAN_POINT ( 'NONE',  ( -11.91637678967368075, 12.50000000000000711, 5.000000000000000000 ) ) ;
#184 = CARTESIAN_POINT ( 'NONE',  ( -11.54029218007493718, 11.50000000000000000, 3.999999999999993339 ) ) ;
#185 = DIRECTION ( 'NONE',  ( 0.000000000000000000, 0.000000000000000000, 1.000000000000000000 ) ) ;
#186 = EDGE_LOOP ( 'NONE', ( #867, #111 ) ) ;
#187 = DIRECTION ( 'NONE',  ( 0.000000000000000000, -0.000000000000000000, 1.000000000000000000 ) ) ;
#188 = CARTESIAN_POINT ( 'NONE',  ( -10.00000000000000000, 10.00000000000000178, 1.000000000000000000 ) ) ;
#189 = EDGE_LOOP ( 'NONE', ( #626, #654, #812, #597 ) ) ;
#190 = ORIENTED_EDGE ( 'NONE', *, *, #758, .T. ) ;
#191 = DIRECTION ( 'NONE',  ( -0.000000000000000000, 1.000000000000000000, 0.000000000000000000 ) ) ;
#192 = EDGE_CURVE ( 'NONE', #914, #738, #49, .T. ) ;
#193 = FACE_OUTER_BOUND ( 'NONE', #82, .T. ) ;
#194 = UNCERTAINTY_MEASURE_WITH_UNIT (LENGTH_MEASURE( 1.000000000000000082E-05 ), #646, 'distance_accuracy_value', 'NONE');
#195 = TOROIDAL_SURFACE ( 'NONE', #435, 9.000000000000001776, 1.000000000000000000 ) ;
#196 = APPROVAL_PERSON_ORGANIZATION ( #535, #664, #682 ) ;
#197 = EDGE_LOOP ( 'NONE', ( #735, #905, #276, #739 ) ) ;
#198 = DIRECTION ( 'NONE',  ( 1.000000000000000000, 0.000000000000000000, 0.000000000000000000 ) ) ;
#199 = VECTOR ( 'NONE', #927, 1000.000000000000000 ) ;
#200 = ORIENTED_EDGE ( 'NONE', *, *, #503, .T. ) ;
#201 = CARTESIAN_POINT ( 'NONE',  ( -10.00000000000000000, 9.999999999999998224, 0.000000000000000000 ) ) ;
#202 = DIRECTION ( 'NONE',  ( 1.000000000000000000, 0.000000000000000000, 0.000000000000000000 ) ) ;
#203 = ADVANCED_FACE ( 'NONE', ( #415 ), #169, .T. ) ;
#204 = ORIENTED_EDGE ( 'NONE', *, *, #583, .T. ) ;
#205 = AXIS2_PLACEMENT_3D ( 'NONE', #668, #799, #147 ) ;
#206 = VECTOR ( 'NONE', #773, 1000.000000000000000 ) ;
#207 = ORIENTED_EDGE ( 'NONE', *, *, #708, .T. ) ;
#208 = CIRCLE ( 'NONE', #760, 1.000000000000000000 ) ;
#209 = DIRECTION ( 'NONE',  ( 0.000000000000000000, -0.000000000000000000, 1.000000000000000000 ) ) ;
#210 = LINE ( 'NONE', #299, #199 ) ;
#211 = EDGE_LOOP ( 'NONE', ( #832, #638, #630, #568 ) ) ;
#212 = CC_DESIGN_DATE_AND_TIME_ASSIGNMENT ( #237, #686, ( #701 ) ) ;
#213 = DIRECTION ( 'NONE',  ( -0.000000000000000000, 0.000000000000000000, -1.000000000000000000 ) ) ;
#214 = ORIENTED_EDGE ( 'NONE', *, *, #931, .T. ) ;
#215 = CIRCLE ( 'NONE', #265, 9.000000000000001776 ) ;
#216 = CARTESIAN_POINT ( 'NONE',  ( -12.14999999999999858, 10.00000000000000000, -14.14213562373095634 ) ) ;
#217 = CYLINDRICAL_SURFACE ( 'NONE', #205, 2.149999999999999023 ) ;
#218 = ORIENTED_EDGE ( 'NONE', *, *, #876, .F. ) ;
#219 = PLANE ( 'NONE',  #603 ) ;
#220 = ORIENTED_EDGE ( 'NONE', *, *, #416, .F. ) ;
#221 = ADVANCED_FACE ( 'NONE', ( #41 ), #286, .F. ) ;
#222 = FACE_OUTER_BOUND ( 'NONE', #702, .T. ) ;
#223 = DIRECTION ( 'NONE',  ( -1.000000000000000000, 0.000000000000000000, 0.000000000000000000 ) ) ;
#224 = EDGE_LOOP ( 'NONE', ( #928, #936, #709, #563 ) ) ;
#225 = PERSON_AND_ORGANIZATION ( #923, #424 ) ;
#226 = AXIS2_PLACEMENT_3D ( 'NONE', #94, #11, #694 ) ;
#227 = VECTOR ( 'NONE', #868, 999.9999999999998863 ) ;
#228 = CYLINDRICAL_SURFACE ( 'NONE', #935, 10.00000000000000178 ) ;
#229 = DIRECTION ( 'NONE',  ( -0.000000000000000000, 0.000000000000000000, -1.000000000000000000 ) ) ;
#230 = APPLICATION_PROTOCOL_DEFINITION ( 'international standard', 'config_control_design', 1994, #118 ) ;
#231 = EDGE_LOOP ( 'NONE', ( #551, #726, #138, #295 ) ) ;
#232 = DIRECTION ( 'NONE',  ( 0.000000000000000000, -0.000000000000000000, 1.000000000000000000 ) ) ;
#233 = EDGE_CURVE ( 'NONE', #417, #781, #402, .T. ) ;
#234 = DIRECTION ( 'NONE',  ( 0.000000000000000000, -0.000000000000000000, 1.000000000000000000 ) ) ;
#235 = ORIENTED_EDGE ( 'NONE', *, *, #730, .F. ) ;
#236 = EDGE_CURVE ( 'NONE', #687, #888, #340, .T. ) ;
#237 = DATE_AND_TIME ( #9, #649 ) ;
#238 = DIRECTION ( 'NONE',  ( 1.000000000000000000, 0.000000000000000000, 0.000000000000000000 ) ) ;
#239 = CARTESIAN_POINT ( 'NONE',  ( -11.54029218007493718, 11.50000000000000000, 0.000000000000000000 ) ) ;
#240 = DIRECTION ( 'NONE',  ( 0.000000000000000000, 0.000000000000000000, 1.000000000000000000 ) ) ;
#241 = PERSON_AND_ORGANIZATION ( #923, #424 ) ;
#242 = VERTEX_POINT ( 'NONE', #69 ) ;
#243 = CIRCLE ( 'NONE', #672, 10.00000000000000178 ) ;
#244 = CARTESIAN_POINT ( 'NONE',  ( -1.000000000000000000, 10.00000000000000178, 5.000000000000000000 ) ) ;
#245 = CIRCLE ( 'NONE', #76, 10.00000000000000000 ) ;
#246 = CARTESIAN_POINT ( 'NONE',  ( -9.999999999999998224, 20.00000000000000000, 4.000000000000000000 ) ) ;
#247 = LINE ( 'NONE', #173, #523 ) ;
#248 = LINE ( 'NONE', #175, #162 ) ;
#249 = DATE_TIME_ROLE ( 'classification_date' ) ;
#250 = VERTEX_POINT ( 'NONE', #926 ) ;
#251 = CARTESIAN_POINT ( 'NONE',  ( -7.850000000000001421, 10.00000000000000000, 3.999999999999993339 ) ) ;
#252 = EDGE_LOOP ( 'NONE', ( #400, #874, #674, #916 ) ) ;
#253 = EDGE_CURVE ( 'NONE', #125, #629, #180, .T. ) ;
#254 = FACE_OUTER_BOUND ( 'NONE', #189, .T. ) ;
#255 = DIRECTION ( 'NONE',  ( 0.000000000000000000, -0.000000000000000000, 1.000000000000000000 ) ) ;
#256 = ORIENTED_EDGE ( 'NONE', *, *, #160, .T. ) ;
#257 = ORIENTED_EDGE ( 'NONE', *, *, #454, .T. ) ;
#258 = CARTESIAN_POINT ( 'NONE',  ( -10.00000000000000000, 9.999999999999998224, 1.000000000000000000 ) ) ;
#259 = CARTESIAN_POINT ( 'NONE',  ( -10.00000000000000000, 10.00000000000000000, 3.999999999999993339 ) ) ;
#260 = AXIS2_PLACEMENT_3D ( 'NONE', #106, #606, #688 ) ;
#261 = EDGE_CURVE ( 'NONE', #379, #712, #268, .T. ) ;
#262 = ORIENTED_EDGE ( 'NONE', *, *, #808, .T. ) ;
#263 = CARTESIAN_POINT ( 'NONE',  ( -8.083623210326321029, 12.50000000000000711, 5.000000000000000000 ) ) ;
#264 = FACE_OUTER_BOUND ( 'NONE', #795, .T. ) ;
#265 = AXIS2_PLACEMENT_3D ( 'NONE', #653, #601, #296 ) ;
#266 = ORIENTED_EDGE ( 'NONE', *, *, #871, .F. ) ;
#267 = ADVANCED_FACE ( 'NONE', ( #632 ), #116, .T. ) ;
#268 = LINE ( 'NONE', #489, #745 ) ;
#269 = DIRECTION ( 'NONE',  ( 0.000000000000000000, 0.000000000000000000, 1.000000000000000000 ) ) ;
#270 = EDGE_LOOP ( 'NONE', ( #17, #419, #644, #105 ) ) ;
#271 = DIRECTION ( 'NONE',  ( 1.000000000000000000, 0.000000000000000000, 0.000000000000000000 ) ) ;
#272 = CARTESIAN_POINT ( 'NONE',  ( -7.850000000000001421, 10.00000000000000000, -14.14213562373095634 ) ) ;
#273 = EDGE_CURVE ( 'NONE', #752, #379, #804, .T. ) ;
#274 = AXIS2_PLACEMENT_3D ( 'NONE', #279, #861, #202 ) ;
#275 = LOCAL_TIME ( 14, 27, 26.00000000000000000, #399 ) ;
#276 = ORIENTED_EDGE ( 'NONE', *, *, #70, .T. ) ;
#277 = LINE ( 'NONE', #517, #880 ) ;
#278 = EDGE_CURVE ( 'NONE', #629, #531, #384, .T. ) ;
#279 = CARTESIAN_POINT ( 'NONE',  ( -10.00000000000000000, 10.00000000000000000, 3.999999999999993339 ) ) ;
#280 = EDGE_CURVE ( 'NONE', #712, #794, #559, .T. ) ;
#281 = EDGE_LOOP ( 'NONE', ( #67, #809, #901, #153 ) ) ;
#282 = LINE ( 'NONE', #130, #75 ) ;
#283 = DIRECTION ( 'NONE',  ( 1.000000000000000000, 0.000000000000000000, 0.000000000000000000 ) ) ;
#284 = CYLINDRICAL_SURFACE ( 'NONE', #22, 1.000000000000000000 ) ;
#285 = VERTEX_POINT ( 'NONE', #239 ) ;
#286 = CONICAL_SURFACE ( 'NONE', #55, 2.149999999999999023, 0.7853981633974480570 ) ;
#287 = DIRECTION ( 'NONE',  ( 0.000000000000000000, 0.000000000000000000, -1.000000000000000000 ) ) ;
#288 = DIRECTION ( 'NONE',  ( 0.000000000000000000, 0.000000000000000000, -1.000000000000000000 ) ) ;
#289 = DIRECTION ( 'NONE',  ( -1.224646799147353207E-16, 1.000000000000000000, 0.000000000000000000 ) ) ;
#290 = CIRCLE ( 'NONE', #122, 9.000000000000001776 ) ;
#291 = VECTOR ( 'NONE', #707, 1000.000000000000000 ) ;
#292 = AXIS2_PLACEMENT_3D ( 'NONE', #848, #639, #572 ) ;
#293 = EDGE_CURVE ( 'NONE', #605, #336, #895, .T. ) ;
#294 = LINE ( 'NONE', #934, #227 ) ;
#295 = ORIENTED_EDGE ( 'NONE', *, *, #573, .F. ) ;
#296 = DIRECTION ( 'NONE',  ( 1.000000000000000000, 0.000000000000000000, 0.000000000000000000 ) ) ;
#297 = EDGE_CURVE ( 'NONE', #918, #862, #733, .T. ) ;
#298 = CARTESIAN_POINT ( 'NONE',  ( -10.00000000000000000, 9.999999999999998224, 4.000000000000000000 ) ) ;
#299 = CARTESIAN_POINT ( 'NONE',  ( -11.54029218007493718, 11.50000000000000000, 3.999999999999993339 ) ) ;
#300 = ORIENTED_EDGE ( 'NONE', *, *, #293, .F. ) ;
#301 = APPROVAL_STATUS ( 'not_yet_approved' ) ;
#302 = PRODUCT ( 'ESLABON 2_Predeterminado_sldprt', 'ESLABON 2_Predeterminado_sldprt', '', ( #618 ) ) ;
#303 = CARTESIAN_POINT ( 'NONE',  ( -56.45999999999999375, 10.00000000000000178, 0.000000000000000000 ) ) ;
#304 = ORIENTED_EDGE ( 'NONE', *, *, #280, .F. ) ;
#305 = CIRCLE ( 'NONE', #841, 9.000000000000001776 ) ;
#306 = VECTOR ( 'NONE', #754, 1000.000000000000000 ) ;
#307 = VERTEX_POINT ( 'NONE', #671 ) ;
#308 = CARTESIAN_POINT ( 'NONE',  ( -10.00000000000000000, 10.00000000000000000, 0.000000000000000000 ) ) ;
#309 = LINE ( 'NONE', #164, #121 ) ;
#310 = DIRECTION ( 'NONE',  ( 0.000000000000000000, -0.000000000000000000, 1.000000000000000000 ) ) ;
#311 = EDGE_CURVE ( 'NONE', #455, #146, #617, .T. ) ;
#312 = EDGE_LOOP ( 'NONE', ( #527, #892, #658, #266 ) ) ;
#313 = CARTESIAN_POINT ( 'NONE',  ( 0.000000000000000000, 0.000000000000000000, 0.000000000000000000 ) ) ;
#314 = DIRECTION ( 'NONE',  ( -9.710178986715967001E-17, -1.000000000000000000, 0.000000000000000000 ) ) ;
#315 = AXIS2_PLACEMENT_3D ( 'NONE', #529, #789, #135 ) ;
#316 = APPROVAL_ROLE ( '' ) ;
#317 = ORIENTED_EDGE ( 'NONE', *, *, #311, .T. ) ;
#318 = CARTESIAN_POINT ( 'NONE',  ( -61.45999999999999375, 9.999999999999992895, 1.000000000000000000 ) ) ;
#319 = CARTESIAN_POINT ( 'NONE',  ( -61.45999999999999375, 10.00000000000000533, 4.000000000000000000 ) ) ;
#320 = LINE ( 'NONE', #690, #631 ) ;
#321 = CC_DESIGN_PERSON_AND_ORGANIZATION_ASSIGNMENT ( #877, #375, ( #675 ) ) ;
#322 = CALENDAR_DATE ( 2026, 21, 4 ) ;
#323 = ORIENTED_EDGE ( 'NONE', *, *, #730, .T. ) ;
#324 = CIRCLE ( 'NONE', #137, 5.000000000000004441 ) ;
#325 = AXIS2_PLACEMENT_3D ( 'NONE', #695, #332, #480 ) ;
#326 = CARTESIAN_POINT ( 'NONE',  ( 0.000000000000000000, 20.00000000000000000, 5.000000000000000000 ) ) ;
#327 = AXIS2_PLACEMENT_3D ( 'NONE', #39, #917, #198 ) ;
#328 = DIRECTION ( 'NONE',  ( 0.000000000000000000, -0.000000000000000000, 1.000000000000000000 ) ) ;
#329 = ORIENTED_EDGE ( 'NONE', *, *, #512, .F. ) ;
#330 = EDGE_CURVE ( 'NONE', #511, #471, #407, .T. ) ;
#331 = CARTESIAN_POINT ( 'NONE',  ( -66.46000000000000796, 10.00000000000000178, 0.000000000000000000 ) ) ;
#332 = DIRECTION ( 'NONE',  ( 0.000000000000000000, 0.000000000000000000, 1.000000000000000000 ) ) ;
#333 = CIRCLE ( 'NONE', #566, 1.000000000000000000 ) ;
#334 = DIRECTION ( 'NONE',  ( -0.000000000000000000, -0.000000000000000000, -1.000000000000000000 ) ) ;
#335 = CARTESIAN_POINT ( 'NONE',  ( -61.45999999999999375, 0.9999999999999924505, 4.000000000000000000 ) ) ;
#336 = VERTEX_POINT ( 'NONE', #685 ) ;
#337 = CARTESIAN_POINT ( 'NONE',  ( -1.000000000000000000, 10.00000000000000178, 4.000000000000000000 ) ) ;
#338 = VERTEX_POINT ( 'NONE', #615 ) ;
#339 = DIRECTION ( 'NONE',  ( -1.000000000000000000, 1.734723475976805517E-15, 0.000000000000000000 ) ) ;
#340 = LINE ( 'NONE', #580, #879 ) ;
#341 = AXIS2_PLACEMENT_3D ( 'NONE', #318, #678, #408 ) ;
#342 = LOCAL_TIME ( 14, 27, 26.00000000000000000, #98 ) ;
#343 = EDGE_CURVE ( 'NONE', #455, #338, #309, .T. ) ;
#344 = VERTEX_POINT ( 'NONE', #303 ) ;
#345 = FACE_OUTER_BOUND ( 'NONE', #683, .T. ) ;
#346 = ORIENTED_EDGE ( 'NONE', *, *, #58, .T. ) ;
#347 = CARTESIAN_POINT ( 'NONE',  ( -9.999999999999998224, 0.9999999999999986677, 4.000000000000000000 ) ) ;
#348 = ADVANCED_FACE ( 'NONE', ( #20 ), #600, .T. ) ;
#349 = ORIENTED_EDGE ( 'NONE', *, *, #397, .T. ) ;
#350 = EDGE_CURVE ( 'NONE', #629, #794, #544, .T. ) ;
#351 = DIRECTION ( 'NONE',  ( 0.000000000000000000, 0.000000000000000000, 1.000000000000000000 ) ) ;
#352 = CIRCLE ( 'NONE', #602, 1.000000000000000000 ) ;
#353 = AXIS2_PLACEMENT_3D ( 'NONE', #184, #764, #53 ) ;
#354 = CIRCLE ( 'NONE', #526, 1.000000000000000888 ) ;
#355 = ORIENTED_EDGE ( 'NONE', *, *, #28, .T. ) ;
#356 = DIRECTION ( 'NONE',  ( -0.000000000000000000, -0.000000000000000000, 1.000000000000000000 ) ) ;
#357 = ORIENTED_EDGE ( 'NONE', *, *, #128, .F. ) ;
#358 = ORIENTED_EDGE ( 'NONE', *, *, #431, .F. ) ;
#359 = CARTESIAN_POINT ( 'NONE',  ( -61.45999999999999375, 10.00000000000000533, 0.000000000000000000 ) ) ;
#360 = APPLICATION_PROTOCOL_DEFINITION ( 'international standard', 'config_control_design', 1994, #83 ) ;
#361 = LINE ( 'NONE', #216, #394 ) ;
#362 = CARTESIAN_POINT ( 'NONE',  ( -9.999999999999998224, 19.00000000000000000, 1.000000000000000000 ) ) ;
#363 = EDGE_CURVE ( 'NONE', #471, #802, #243, .T. ) ;
#364 = DIRECTION ( 'NONE',  ( 1.000000000000000000, 1.224646799147353207E-16, 0.000000000000000000 ) ) ;
#365 = AXIS2_PLACEMENT_3D ( 'NONE', #21, #816, #390 ) ;
#366 = ADVANCED_FACE ( 'NONE', ( #222 ), #149, .F. ) ;
#367 = VECTOR ( 'NONE', #743, 1000.000000000000000 ) ;
#368 = ORIENTED_EDGE ( 'NONE', *, *, #621, .F. ) ;
#369 = AXIS2_PLACEMENT_3D ( 'NONE', #627, #191, #634 ) ;
#370 = CARTESIAN_POINT ( 'NONE',  ( -61.45999999999999375, 20.00000000000000711, 1.000000000000000000 ) ) ;
#371 = ORIENTED_EDGE ( 'NONE', *, *, #297, .F. ) ;
#372 = LINE ( 'NONE', #593, #3 ) ;
#373 = CARTESIAN_POINT ( 'NONE',  ( -1.224646799147353207E-16, 1.000000000000000000, 4.000000000000000000 ) ) ;
#374 = ORIENTED_EDGE ( 'NONE', *, *, #363, .T. ) ;
#375 = PERSON_AND_ORGANIZATION_ROLE ( 'creator' ) ;
#376 = AXIS2_PLACEMENT_3D ( 'NONE', #640, #628, #907 ) ;
#377 = DIRECTION ( 'NONE',  ( 1.000000000000000000, 0.000000000000000000, 0.000000000000000000 ) ) ;
#378 = ADVANCED_BREP_SHAPE_REPRESENTATION ( 'ESLABON 2_Predeterminado_sldprt', ( #15, #899 ), #883 ) ;
#379 = VERTEX_POINT ( 'NONE', #183 ) ;
#380 = EDGE_CURVE ( 'NONE', #558, #687, #574, .T. ) ;
#381 = FACE_OUTER_BOUND ( 'NONE', #25, .T. ) ;
#382 = CARTESIAN_POINT ( 'NONE',  ( -61.46000000000000085, 10.00000000000000178, 5.000000000000000000 ) ) ;
#383 = ORIENTED_EDGE ( 'NONE', *, *, #40, .T. ) ;
#384 = CIRCLE ( 'NONE', #476, 2.149999999999999023 ) ;
#385 = PERSON_AND_ORGANIZATION_ROLE ( 'design_owner' ) ;
#386 = AXIS2_PLACEMENT_3D ( 'NONE', #326, #314, #902 ) ;
#387 = ORIENTED_EDGE ( 'NONE', *, *, #797, .T. ) ;
#388 = DIRECTION ( 'NONE',  ( 0.000000000000000000, 0.000000000000000000, -1.000000000000000000 ) ) ;
#389 = DIRECTION ( 'NONE',  ( 1.000000000000000000, 0.000000000000000000, 0.000000000000000000 ) ) ;
#390 = DIRECTION ( 'NONE',  ( 9.710178986715955908E-17, 1.000000000000000000, 0.000000000000000000 ) ) ;
#391 = PERSON_AND_ORGANIZATION ( #923, #424 ) ;
#392 = EDGE_LOOP ( 'NONE', ( #536, #317, #660, #42 ) ) ;
#393 = CARTESIAN_POINT ( 'NONE',  ( -10.00000000000000000, 10.00000000000000000, 0.000000000000000000 ) ) ;
#394 = VECTOR ( 'NONE', #445, 1000.000000000000000 ) ;
#395 = CARTESIAN_POINT ( 'NONE',  ( -70.45999999999999375, 10.00000000000000355, 1.000000000000000000 ) ) ;
#396 = EDGE_CURVE ( 'NONE', #453, #802, #248, .T. ) ;
#397 = EDGE_CURVE ( 'NONE', #123, #471, #320, .T. ) ;
#398 = DIRECTION ( 'NONE',  ( -1.000000000000000000, -1.224646799147353207E-16, 0.000000000000000000 ) ) ;
#399 = COORDINATED_UNIVERSAL_TIME_OFFSET ( 6, 0, .BEHIND. ) ;
#400 = ORIENTED_EDGE ( 'NONE', *, *, #253, .F. ) ;
#401 = CARTESIAN_POINT ( 'NONE',  ( -61.45999999999999375, 9.999999999999992895, 4.000000000000000000 ) ) ;
#402 = CIRCLE ( 'NONE', #803, 2.149999999999999023 ) ;
#403 = DIRECTION ( 'NONE',  ( 0.000000000000000000, 0.000000000000000000, -1.000000000000000000 ) ) ;
#404 = EDGE_CURVE ( 'NONE', #307, #250, #421, .T. ) ;
#405 = ORIENTED_EDGE ( 'NONE', *, *, #396, .F. ) ;
#406 = CARTESIAN_POINT ( 'NONE',  ( -61.45999999999999375, 19.00000000000000711, 1.000000000000000000 ) ) ;
#407 = CIRCLE ( 'NONE', #506, 1.000000000000000888 ) ;
#408 = DIRECTION ( 'NONE',  ( 1.000000000000000000, 0.000000000000000000, 0.000000000000000000 ) ) ;
#409 = AXIS2_PLACEMENT_3D ( 'NONE', #362, #651, #287 ) ;
#410 = CARTESIAN_POINT ( 'NONE',  ( -10.00000000000000000, 10.00000000000000000, -14.14213562373095634 ) ) ;
#411 = CARTESIAN_POINT ( 'NONE',  ( -8.459707819925064598, 11.50000000000000000, 0.000000000000000000 ) ) ;
#412 = EDGE_LOOP ( 'NONE', ( #80, #827, #769, #300 ) ) ;
#413 = CARTESIAN_POINT ( 'NONE',  ( -61.45999999999999375, -7.526679227559632366E-15, 4.000000000000000000 ) ) ;
#414 = VECTOR ( 'NONE', #240, 1000.000000000000000 ) ;
#415 = FACE_OUTER_BOUND ( 'NONE', #428, .T. ) ;
#416 = EDGE_CURVE ( 'NONE', #171, #474, #896, .T. ) ;
#417 = VERTEX_POINT ( 'NONE', #623 ) ;
#418 = DIRECTION ( 'NONE',  ( 1.000000000000000000, 0.000000000000000000, 0.000000000000000000 ) ) ;
#419 = ORIENTED_EDGE ( 'NONE', *, *, #768, .F. ) ;
#420 = LINE ( 'NONE', #413, #619 ) ;
#421 = CIRCLE ( 'NONE', #87, 9.000000000000001776 ) ;
#422 = CARTESIAN_POINT ( 'NONE',  ( -11.54029218007493718, 11.50000000000000000, -14.14213562373095634 ) ) ;
#423 = TOROIDAL_SURFACE ( 'NONE', #12, 9.000000000000001776, 1.000000000000000000 ) ;
#424 = ORGANIZATION ( 'UNSPECIFIED', 'UNSPECIFIED', '' ) ;
#425 = VERTEX_POINT ( 'NONE', #411 ) ;
#426 = CARTESIAN_POINT ( 'NONE',  ( -11.54029218007493718, 11.50000000000000000, 3.999999999999993339 ) ) ;
#427 = LINE ( 'NONE', #422, #291 ) ;
#428 = EDGE_LOOP ( 'NONE', ( #190, #873, #497, #235 ) ) ;
#429 = DIRECTION ( 'NONE',  ( 0.000000000000000000, -0.000000000000000000, 1.000000000000000000 ) ) ;
#430 = EDGE_LOOP ( 'NONE', ( #387, #218, #220, #620 ) ) ;
#431 = EDGE_CURVE ( 'NONE', #914, #453, #352, .T. ) ;
#432 = DIRECTION ( 'NONE',  ( 0.000000000000000000, 0.000000000000000000, 1.000000000000000000 ) ) ;
#433 = CARTESIAN_POINT ( 'NONE',  ( -61.45999999999999375, 9.999999999999992895, 5.000000000000000000 ) ) ;
#434 = CIRCLE ( 'NONE', #854, 1.000000000000000000 ) ;
#435 = AXIS2_PLACEMENT_3D ( 'NONE', #915, #698, #490 ) ;
#436 = ORIENTED_EDGE ( 'NONE', *, *, #261, .T. ) ;
#437 = DIRECTION ( 'NONE',  ( 1.000000000000000000, 0.000000000000000000, 0.000000000000000000 ) ) ;
#438 = CIRCLE ( 'NONE', #315, 10.00000000000000000 ) ;
#439 = VERTEX_POINT ( 'NONE', #589 ) ;
#440 = CYLINDRICAL_SURFACE ( 'NONE', #787, 10.00000000000000000 ) ;
#441 = DIRECTION ( 'NONE',  ( 1.000000000000000000, 0.000000000000000000, 0.000000000000000000 ) ) ;
#442 = ADVANCED_FACE ( 'NONE', ( #515 ), #217, .F. ) ;
#443 = CARTESIAN_POINT ( 'NONE',  ( -70.45999999999999375, 10.00000000000000355, 0.000000000000000000 ) ) ;
#444 = CARTESIAN_POINT ( 'NONE',  ( -61.45999999999999375, 9.999999999999992895, 5.000000000000000000 ) ) ;
#445 = DIRECTION ( 'NONE',  ( 0.000000000000000000, 0.000000000000000000, 1.000000000000000000 ) ) ;
#446 = CIRCLE ( 'NONE', #10, 5.000000000000004441 ) ;
#447 = FACE_OUTER_BOUND ( 'NONE', #502, .T. ) ;
#448 = ADVANCED_FACE ( 'NONE', ( #447 ), #77, .T. ) ;
#449 = ORIENTED_EDGE ( 'NONE', *, *, #708, .F. ) ;
#450 = CIRCLE ( 'NONE', #746, 10.00000000000000000 ) ;
#451 = CARTESIAN_POINT ( 'NONE',  ( -11.54029218007493718, 11.50000000000000000, -14.14213562373095634 ) ) ;
#452 = DESIGN_CONTEXT ( 'detailed design', #118, 'design' ) ;
#453 = VERTEX_POINT ( 'NONE', #731 ) ;
#454 = EDGE_CURVE ( 'NONE', #146, #903, #282, .T. ) ;
#455 = VERTEX_POINT ( 'NONE', #863 ) ;
#456 = CARTESIAN_POINT ( 'NONE',  ( -10.00000000000000000, 9.999999999999998224, 5.000000000000000000 ) ) ;
#457 = ORIENTED_EDGE ( 'NONE', *, *, #192, .F. ) ;
#458 = DIRECTION ( 'NONE',  ( 1.000000000000000000, 0.000000000000000000, 0.000000000000000000 ) ) ;
#459 = CIRCLE ( 'NONE', #759, 2.149999999999999023 ) ;
#460 = COORDINATED_UNIVERSAL_TIME_OFFSET ( 6, 0, .BEHIND. ) ;
#461 = AXIS2_PLACEMENT_3D ( 'NONE', #401, #624, #32 ) ;
#462 = ORIENTED_EDGE ( 'NONE', *, *, #718, .T. ) ;
#463 = FACE_OUTER_BOUND ( 'NONE', #516, .T. ) ;
#464 = DIRECTION ( 'NONE',  ( -0.000000000000000000, 0.000000000000000000, -1.000000000000000000 ) ) ;
#465 = DIRECTION ( 'NONE',  ( 1.000000000000000000, 0.000000000000000000, 0.000000000000000000 ) ) ;
#466 = ORIENTED_EDGE ( 'NONE', *, *, #380, .T. ) ;
#467 = CARTESIAN_POINT ( 'NONE',  ( -10.00000000000000000, 10.00000000000000000, 5.000000000000000000 ) ) ;
#468 = ADVANCED_FACE ( 'NONE', ( #139 ), #505, .F. ) ;
#469 = CARTESIAN_POINT ( 'NONE',  ( -9.999999999999998224, 0.9999999999999986677, 1.000000000000000000 ) ) ;
#470 = B_SPLINE_CURVE_WITH_KNOTS ( 'NONE', 3,
 ( #839, #181, #120, #127 ),
 .UNSPECIFIED., .F., .F.,
 ( 4, 4 ),
 ( 0.000000000000000000, 0.001463365857732463506 ),
 .UNSPECIFIED. ) ;
#471 = VERTEX_POINT ( 'NONE', #143 ) ;
#472 = LINE ( 'NONE', #100, #869 ) ;
#473 = DIRECTION ( 'NONE',  ( 0.000000000000000000, 0.000000000000000000, -1.000000000000000000 ) ) ;
#474 = VERTEX_POINT ( 'NONE', #724 ) ;
#475 = ORIENTED_EDGE ( 'NONE', *, *, #96, .T. ) ;
#476 = AXIS2_PLACEMENT_3D ( 'NONE', #766, #920, #498 ) ;
#477 = AXIS2_PLACEMENT_3D ( 'NONE', #433, #2, #513 ) ;
#478 = DIRECTION ( 'NONE',  ( 1.000000000000000000, 0.000000000000000000, 0.000000000000000000 ) ) ;
#479 = VECTOR ( 'NONE', #356, 1000.000000000000000 ) ;
#480 = DIRECTION ( 'NONE',  ( 1.000000000000000000, 0.000000000000000000, 0.000000000000000000 ) ) ;
#481 = CARTESIAN_POINT ( 'NONE',  ( 0.000000000000000000, 0.000000000000000000, 1.000000000000000000 ) ) ;
#482 = EDGE_LOOP ( 'NONE', ( #349, #374, #405, #884 ) ) ;
#483 = CARTESIAN_POINT ( 'NONE',  ( -6.849999999999995204, 10.00000000000000000, 5.000000000000000000 ) ) ;
#484 = CARTESIAN_POINT ( 'NONE',  ( -10.00000000000000000, 10.00000000000000000, 0.000000000000000000 ) ) ;
#485 = ORIENTED_EDGE ( 'NONE', *, *, #847, .F. ) ;
#486 = VERTEX_POINT ( 'NONE', #68 ) ;
#487 = FACE_BOUND ( 'NONE', #590, .T. ) ;
#488 = ORIENTED_EDGE ( 'NONE', *, *, #233, .F. ) ;
#489 = CARTESIAN_POINT ( 'NONE',  ( -8.459707819925064598, 12.50000000000000711, 5.000000000000000000 ) ) ;
#490 = DIRECTION ( 'NONE',  ( 1.000000000000000000, 0.000000000000000000, 0.000000000000000000 ) ) ;
#491 = PRODUCT_RELATED_PRODUCT_CATEGORY ( 'detail', '', ( #302 ) ) ;
#492 = AXIS2_PLACEMENT_3D ( 'NONE', #373, #398, #910 ) ;
#493 = DIRECTION ( 'NONE',  ( 0.000000000000000000, -0.000000000000000000, 1.000000000000000000 ) ) ;
#494 = AXIS2_PLACEMENT_3D ( 'NONE', #456, #388, #81 ) ;
#495 = ADVANCED_FACE ( 'NONE', ( #929 ), #440, .T. ) ;
#496 = LOCAL_TIME ( 14, 27, 26.00000000000000000, #29 ) ;
#497 = ORIENTED_EDGE ( 'NONE', *, *, #792, .F. ) ;
#498 = DIRECTION ( 'NONE',  ( 1.000000000000000000, 0.000000000000000000, 0.000000000000000000 ) ) ;
#499 = DIRECTION ( 'NONE',  ( 1.000000000000000000, 0.000000000000000000, -0.000000000000000000 ) ) ;
#500 = VECTOR ( 'NONE', #805, 1000.000000000000000 ) ;
#501 = ADVANCED_FACE ( 'NONE', ( #254 ), #737, .F. ) ;
#502 = EDGE_LOOP ( 'NONE', ( #613, #723, #504, #457 ) ) ;
#503 = EDGE_CURVE ( 'NONE', #511, #641, #305, .T. ) ;
#504 = ORIENTED_EDGE ( 'NONE', *, *, #758, .F. ) ;
#505 = CYLINDRICAL_SURFACE ( 'NONE', #909, 2.149999999999999023 ) ;
#506 = AXIS2_PLACEMENT_3D ( 'NONE', #395, #13, #679 ) ;
#507 = DIRECTION ( 'NONE',  ( -0.000000000000000000, -0.000000000000000000, -1.000000000000000000 ) ) ;
#508 = AXIS2_PLACEMENT_3D ( 'NONE', #393, #35, #163 ) ;
#509 = ADVANCED_FACE ( 'NONE', ( #264 ), #545, .F. ) ;
#510 = CC_DESIGN_SECURITY_CLASSIFICATION ( #124, ( #675 ) ) ;
#511 = VERTEX_POINT ( 'NONE', #443 ) ;
#512 = EDGE_CURVE ( 'NONE', #439, #125, #524, .T. ) ;
#513 = DIRECTION ( 'NONE',  ( -1.000000000000000000, 0.000000000000000000, 0.000000000000000000 ) ) ;
#514 = CARTESIAN_POINT ( 'NONE',  ( -9.999999999999998224, 19.00000000000000000, 4.000000000000000000 ) ) ;
#515 = FACE_OUTER_BOUND ( 'NONE', #667, .T. ) ;
#516 = EDGE_LOOP ( 'NONE', ( #204, #257, #819, #571 ) ) ;
#517 = CARTESIAN_POINT ( 'NONE',  ( -1.224646799147353207E-16, 1.000000000000000000, 0.000000000000000000 ) ) ;
#518 = DIRECTION ( 'NONE',  ( -1.224646799147353207E-16, 1.000000000000000000, 0.000000000000000000 ) ) ;
#519 = ORIENTED_EDGE ( 'NONE', *, *, #741, .F. ) ;
#520 = DIRECTION ( 'NONE',  ( 1.000000000000000000, 0.000000000000000000, 0.000000000000000000 ) ) ;
#521 = FACE_OUTER_BOUND ( 'NONE', #430, .T. ) ;
#522 = EDGE_CURVE ( 'NONE', #285, #425, #472, .T. ) ;
#523 = VECTOR ( 'NONE', #334, 1000.000000000000000 ) ;
#524 = CIRCLE ( 'NONE', #325, 2.149999999999999023 ) ;
#525 = ORIENTED_EDGE ( 'NONE', *, *, #280, .T. ) ;
#526 = AXIS2_PLACEMENT_3D ( 'NONE', #553, #43, #339 ) ;
#527 = ORIENTED_EDGE ( 'NONE', *, *, #681, .T. ) ;
#528 = CARTESIAN_POINT ( 'NONE',  ( -61.45999999999999375, 19.00000000000000355, 0.000000000000000000 ) ) ;
#529 = CARTESIAN_POINT ( 'NONE',  ( -10.00000000000000000, 10.00000000000000178, 4.000000000000000000 ) ) ;
#530 = ORIENTED_EDGE ( 'NONE', *, *, #599, .F. ) ;
#531 = VERTEX_POINT ( 'NONE', #753 ) ;
#532 = DIRECTION ( 'NONE',  ( 1.000000000000000000, 0.000000000000000000, 0.000000000000000000 ) ) ;
#533 = DIRECTION ( 'NONE',  ( -0.000000000000000000, -0.000000000000000000, 1.000000000000000000 ) ) ;
#534 = EDGE_CURVE ( 'NONE', #641, #903, #434, .T. ) ;
#535 = PERSON_AND_ORGANIZATION ( #923, #424 ) ;
#536 = ORIENTED_EDGE ( 'NONE', *, *, #343, .F. ) ;
#537 = FACE_OUTER_BOUND ( 'NONE', #585, .T. ) ;
#538 = AXIS2_PLACEMENT_3D ( 'NONE', #886, #821, #389 ) ;
#539 = PERSON_AND_ORGANIZATION_ROLE ( 'design_supplier' ) ;
#540 = CIRCLE ( 'NONE', #409, 1.000000000000000000 ) ;
#541 = VERTEX_POINT ( 'NONE', #172 ) ;
#542 = EDGE_CURVE ( 'NONE', #862, #918, #446, .T. ) ;
#543 = LINE ( 'NONE', #167, #306 ) ;
#544 = LINE ( 'NONE', #830, #757 ) ;
#545 = PLANE ( 'NONE',  #661 ) ;
#546 = CALENDAR_DATE ( 2026, 21, 4 ) ;
#547 = ORIENTED_EDGE ( 'NONE', *, *, #681, .F. ) ;
#548 = CARTESIAN_POINT ( 'NONE',  ( -61.45999999999999375, 10.00000000000000533, 5.000000000000000000 ) ) ;
#549 = ADVANCED_FACE ( 'NONE', ( #18 ), #587, .F. ) ;
#550 = CARTESIAN_POINT ( 'NONE',  ( -8.459707819925064598, 11.50000000000000000, -14.14213562373095634 ) ) ;
#551 = ORIENTED_EDGE ( 'NONE', *, *, #797, .F. ) ;
#552 = ORIENTED_EDGE ( 'NONE', *, *, #397, .F. ) ;
#553 = CARTESIAN_POINT ( 'NONE',  ( -70.45999999999999375, 10.00000000000000355, 4.000000000000000000 ) ) ;
#554 = CARTESIAN_POINT ( 'NONE',  ( -12.14999999999999858, 10.00000000000000000, 3.999999999999993339 ) ) ;
#555 = EDGE_CURVE ( 'NONE', #425, #417, #459, .T. ) ;
#556 = ADVANCED_FACE ( 'NONE', ( #537 ), #228, .T. ) ;
#557 = ORIENTED_EDGE ( 'NONE', *, *, #522, .T. ) ;
#558 = VERTEX_POINT ( 'NONE', #244 ) ;
#559 = CIRCLE ( 'NONE', #136, 3.150000000000005240 ) ;
#560 = VECTOR ( 'NONE', #269, 1000.000000000000000 ) ;
#561 = CARTESIAN_POINT ( 'NONE',  ( -9.999999999999998224, 0.9999999999999986677, 5.000000000000000000 ) ) ;
#562 = DIRECTION ( 'NONE',  ( 0.000000000000000000, 0.000000000000000000, 1.000000000000000000 ) ) ;
#563 = ORIENTED_EDGE ( 'NONE', *, *, #58, .F. ) ;
#564 = ORIENTED_EDGE ( 'NONE', *, *, #898, .F. ) ;
#565 = FACE_OUTER_BOUND ( 'NONE', #151, .T. ) ;
#566 = AXIS2_PLACEMENT_3D ( 'NONE', #514, #798, #288 ) ;
#567 = DIRECTION ( 'NONE',  ( 1.000000000000000000, 0.000000000000000000, 0.000000000000000000 ) ) ;
#568 = ORIENTED_EDGE ( 'NONE', *, *, #706, .F. ) ;
#569 = ORIENTED_EDGE ( 'NONE', *, *, #898, .T. ) ;
#570 = CARTESIAN_POINT ( 'NONE',  ( -9.999999999999998224, 19.00000000000000355, 5.000000000000000000 ) ) ;
#571 = ORIENTED_EDGE ( 'NONE', *, *, #293, .T. ) ;
#572 = DIRECTION ( 'NONE',  ( -1.000000000000000000, 0.000000000000000000, 0.000000000000000000 ) ) ;
#573 = EDGE_CURVE ( 'NONE', #541, #511, #290, .T. ) ;
#574 = CIRCLE ( 'NONE', #60, 9.000000000000001776 ) ;
#575 = CARTESIAN_POINT ( 'NONE',  ( -9.999999999999998224, 20.00000000000000000, 1.000000000000000000 ) ) ;
#576 = AXIS2_PLACEMENT_3D ( 'NONE', #872, #213, #864 ) ;
#577 = APPROVAL_PERSON_ORGANIZATION ( #170, #636, #316 ) ;
#578 = ORIENTED_EDGE ( 'NONE', *, *, #23, .F. ) ;
#579 = CARTESIAN_POINT ( 'NONE',  ( -66.46000000000000796, 10.00000000000000178, 5.000000000000000000 ) ) ;
#580 = CARTESIAN_POINT ( 'NONE',  ( -61.45999999999999375, 19.00000000000000711, 5.000000000000000000 ) ) ;
#581 = ORIENTED_EDGE ( 'NONE', *, *, #416, .T. ) ;
#582 =( NAMED_UNIT ( * ) SI_UNIT ( $, .STERADIAN. ) SOLID_ANGLE_UNIT ( ) );
#583 = EDGE_CURVE ( 'NONE', #336, #146, #543, .T. ) ;
#584 = ADVANCED_FACE ( 'NONE', ( #810 ), #673, .F. ) ;
#585 = EDGE_LOOP ( 'NONE', ( #177, #837, #552, #57 ) ) ;
#586 = CARTESIAN_POINT ( 'NONE',  ( 0.000000000000000000, 0.000000000000000000, 5.000000000000000000 ) ) ;
#587 = CONICAL_SURFACE ( 'NONE', #226, 2.149999999999999023, 0.7853981633974480570 ) ;
#588 = CIRCLE ( 'NONE', #508, 2.149999999999999023 ) ;
#589 = CARTESIAN_POINT ( 'NONE',  ( -11.54029218007493718, 11.50000000000000000, 3.999999999999993339 ) ) ;
#590 = EDGE_LOOP ( 'NONE', ( #79, #530, #488, #703 ) ) ;
#591 = FACE_OUTER_BOUND ( 'NONE', #52, .T. ) ;
#592 = ORIENTED_EDGE ( 'NONE', *, *, #741, .T. ) ;
#593 = CARTESIAN_POINT ( 'NONE',  ( -66.46000000000000796, 10.00000000000000178, 5.000000000000000000 ) ) ;
#594 = ORIENTED_EDGE ( 'NONE', *, *, #150, .T. ) ;
#595 = ADVANCED_FACE ( 'NONE', ( #829 ), #897, .T. ) ;
#596 = FACE_OUTER_BOUND ( 'NONE', #281, .T. ) ;
#597 = ORIENTED_EDGE ( 'NONE', *, *, #96, .F. ) ;
#598 = APPROVAL_ROLE ( '' ) ;
#599 = EDGE_CURVE ( 'NONE', #781, #285, #588, .T. ) ;
#600 = CYLINDRICAL_SURFACE ( 'NONE', #919, 1.000000000000000888 ) ;
#601 = DIRECTION ( 'NONE',  ( 0.000000000000000000, -0.000000000000000000, 1.000000000000000000 ) ) ;
#602 = AXIS2_PLACEMENT_3D ( 'NONE', #335, #696, #932 ) ;
#603 = AXIS2_PLACEMENT_3D ( 'NONE', #586, #659, #728 ) ;
#604 = VERTEX_POINT ( 'NONE', #331 ) ;
#605 = VERTEX_POINT ( 'NONE', #101 ) ;
#606 = DIRECTION ( 'NONE',  ( 0.000000000000000000, 0.000000000000000000, 1.000000000000000000 ) ) ;
#607 = DIRECTION ( 'NONE',  ( 1.000000000000000000, 0.000000000000000000, 0.000000000000000000 ) ) ;
#608 = PRODUCT_DEFINITION_SHAPE ( 'NONE', 'NONE',  #701 ) ;
#609 = ORIENTED_EDGE ( 'NONE', *, *, #512, .T. ) ;
#610 = APPROVAL_DATE_TIME ( #84, #636 ) ;
#611 = CARTESIAN_POINT ( 'NONE',  ( -10.00000000000000000, 9.999999999999998224, 1.000000000000000000 ) ) ;
#612 = DATE_AND_TIME ( #24, #63 ) ;
#613 = ORIENTED_EDGE ( 'NONE', *, *, #431, .T. ) ;
#614 = DIRECTION ( 'NONE',  ( 0.000000000000000000, 0.000000000000000000, 1.000000000000000000 ) ) ;
#615 = CARTESIAN_POINT ( 'NONE',  ( 0.000000000000000000, 10.00000000000000178, 4.000000000000000000 ) ) ;
#616 = FACE_OUTER_BOUND ( 'NONE', #197, .T. ) ;
#617 = CIRCLE ( 'NONE', #538, 10.00000000000000000 ) ;
#618 = MECHANICAL_CONTEXT ( 'NONE', #83, 'mechanical' ) ;
#619 = VECTOR ( 'NONE', #643, 1000.000000000000000 ) ;
#620 = ORIENTED_EDGE ( 'NONE', *, *, #150, .F. ) ;
#621 = EDGE_CURVE ( 'NONE', #453, #123, #788, .T. ) ;
#622 = DIRECTION ( 'NONE',  ( 1.000000000000000000, 3.227392513445223895E-15, 0.000000000000000000 ) ) ;
#623 = CARTESIAN_POINT ( 'NONE',  ( -7.850000000000001421, 10.00000000000000000, 0.000000000000000000 ) ) ;
#624 = DIRECTION ( 'NONE',  ( -0.000000000000000000, 0.000000000000000000, -1.000000000000000000 ) ) ;
#625 = ADVANCED_FACE ( 'NONE', ( #463 ), #684, .F. ) ;
#626 = ORIENTED_EDGE ( 'NONE', *, *, #555, .T. ) ;
#627 = CARTESIAN_POINT ( 'NONE',  ( -1.000000000000000000, 10.00000000000000178, 1.000000000000000000 ) ) ;
#628 = DIRECTION ( 'NONE',  ( 0.000000000000000000, -0.000000000000000000, 1.000000000000000000 ) ) ;
#629 = VERTEX_POINT ( 'NONE', #251 ) ;
#630 = ORIENTED_EDGE ( 'NONE', *, *, #253, .T. ) ;
#631 = VECTOR ( 'NONE', #756, 1000.000000000000000 ) ;
#632 = FACE_OUTER_BOUND ( 'NONE', #115, .T. ) ;
#633 = CIRCLE ( 'NONE', #1, 1.000000000000000000 ) ;
#634 = DIRECTION ( 'NONE',  ( 0.000000000000000000, 0.000000000000000000, 1.000000000000000000 ) ) ;
#635 = DIRECTION ( 'NONE',  ( 1.000000000000000000, 0.000000000000000000, 0.000000000000000000 ) ) ;
#636 = APPROVAL ( #301, 'UNSPECIFIED' ) ;
#637 = EDGE_LOOP ( 'NONE', ( #650, #699, #924, #262 ) ) ;
#638 = ORIENTED_EDGE ( 'NONE', *, *, #34, .T. ) ;
#639 = DIRECTION ( 'NONE',  ( -0.000000000000000000, -0.000000000000000000, -1.000000000000000000 ) ) ;
#640 = CARTESIAN_POINT ( 'NONE',  ( -10.00000000000000000, 9.999999999999998224, 4.000000000000000000 ) ) ;
#641 = VERTEX_POINT ( 'NONE', #528 ) ;
#642 = ADVANCED_FACE ( 'NONE', ( #154 ), #885, .T. ) ;
#643 = DIRECTION ( 'NONE',  ( -1.000000000000000000, -1.224646799147353207E-16, -0.000000000000000000 ) ) ;
#644 = ORIENTED_EDGE ( 'NONE', *, *, #534, .F. ) ;
#645 = CC_DESIGN_PERSON_AND_ORGANIZATION_ASSIGNMENT ( #241, #385, ( #302 ) ) ;
#646 =( LENGTH_UNIT ( ) NAMED_UNIT ( * ) SI_UNIT ( .MILLI., .METRE. ) );
#647 = ADVANCED_FACE ( 'NONE', ( #381 ), #856, .T. ) ;
#648 = AXIS2_PLACEMENT_3D ( 'NONE', #347, #499, #765 ) ;
#649 = LOCAL_TIME ( 14, 27, 26.00000000000000000, #165 ) ;
#650 = ORIENTED_EDGE ( 'NONE', *, *, #665, .F. ) ;
#651 = DIRECTION ( 'NONE',  ( 1.000000000000000000, -0.000000000000000000, 0.000000000000000000 ) ) ;
#652 = EDGE_CURVE ( 'NONE', #605, #888, #692, .T. ) ;
#653 = CARTESIAN_POINT ( 'NONE',  ( -61.45999999999999375, 10.00000000000000533, 5.000000000000000000 ) ) ;
#654 = ORIENTED_EDGE ( 'NONE', *, *, #706, .T. ) ;
#655 = DIRECTION ( 'NONE',  ( 0.000000000000000000, 0.000000000000000000, 1.000000000000000000 ) ) ;
#656 = DIRECTION ( 'NONE',  ( 0.000000000000000000, 0.000000000000000000, -1.000000000000000000 ) ) ;
#657 = DIRECTION ( 'NONE',  ( 1.000000000000000000, 0.000000000000000000, 0.000000000000000000 ) ) ;
#658 = ORIENTED_EDGE ( 'NONE', *, *, #652, .F. ) ;
#659 = DIRECTION ( 'NONE',  ( 0.000000000000000000, -0.000000000000000000, 1.000000000000000000 ) ) ;
#660 = ORIENTED_EDGE ( 'NONE', *, *, #583, .F. ) ;
#661 = AXIS2_PLACEMENT_3D ( 'NONE', #19, #289, #790 ) ;
#662 = LINE ( 'NONE', #865, #500 ) ;
#663 = AXIS2_PLACEMENT_3D ( 'NONE', #59, #351, #838 ) ;
#664 = APPROVAL ( #161, 'UNSPECIFIED' ) ;
#665 = EDGE_CURVE ( 'NONE', #171, #486, #89, .T. ) ;
#666 = CYLINDRICAL_SURFACE ( 'NONE', #477, 10.00000000000000178 ) ;
#667 = EDGE_LOOP ( 'NONE', ( #858, #933, #30, #609 ) ) ;
#668 = CARTESIAN_POINT ( 'NONE',  ( -10.00000000000000000, 10.00000000000000000, -14.14213562373095634 ) ) ;
#669 = ADVANCED_FACE ( 'NONE', ( #565, #700, #487 ), #767, .F. ) ;
#670 = SHAPE_DEFINITION_REPRESENTATION ( #608, #378 ) ;
#671 = CARTESIAN_POINT ( 'NONE',  ( -9.999999999999998224, 19.00000000000000000, 0.000000000000000000 ) ) ;
#672 = AXIS2_PLACEMENT_3D ( 'NONE', #881, #811, #689 ) ;
#673 = CONICAL_SURFACE ( 'NONE', #260, 2.149999999999999023, 0.7853981633974480570 ) ;
#674 = ORIENTED_EDGE ( 'NONE', *, *, #40, .F. ) ;
#675 = PRODUCT_DEFINITION_FORMATION_WITH_SPECIFIED_SOURCE ( 'ANY', '', #302, .NOT_KNOWN. ) ;
#676 = DIRECTION ( 'NONE',  ( 0.000000000000000000, 0.000000000000000000, 1.000000000000000000 ) ) ;
#677 = ADVANCED_FACE ( 'NONE', ( #345 ), #851, .F. ) ;
#678 = DIRECTION ( 'NONE',  ( 0.000000000000000000, -0.000000000000000000, 1.000000000000000000 ) ) ;
#679 = DIRECTION ( 'NONE',  ( -1.000000000000000000, 1.734723475976805517E-15, 0.000000000000000000 ) ) ;
#680 = CARTESIAN_POINT ( 'NONE',  ( -71.45999999999999375, 10.00000000000000533, 4.000000000000000000 ) ) ;
#681 = EDGE_CURVE ( 'NONE', #123, #242, #354, .T. ) ;
#682 = APPROVAL_ROLE ( '' ) ;
#683 = EDGE_LOOP ( 'NONE', ( #783, #853, #355, #357 ) ) ;
#684 = PLANE ( 'NONE',  #386 ) ;
#685 = CARTESIAN_POINT ( 'NONE',  ( -9.999999999999998224, 20.00000000000000000, 4.000000000000000000 ) ) ;
#686 = DATE_TIME_ROLE ( 'creation_date' ) ;
#687 = VERTEX_POINT ( 'NONE', #570 ) ;
#688 = DIRECTION ( 'NONE',  ( 1.000000000000000000, 0.000000000000000000, 0.000000000000000000 ) ) ;
#689 = DIRECTION ( 'NONE',  ( 1.000000000000000000, 0.000000000000000000, 0.000000000000000000 ) ) ;
#690 = CARTESIAN_POINT ( 'NONE',  ( -71.45999999999999375, 10.00000000000000533, 5.000000000000000000 ) ) ;
#691 = AXIS2_PLACEMENT_3D ( 'NONE', #410, #432, #925 ) ;
#692 = CIRCLE ( 'NONE', #62, 1.000000000000000000 ) ;
#693 = ORIENTED_EDGE ( 'NONE', *, *, #273, .F. ) ;
#694 = DIRECTION ( 'NONE',  ( 1.000000000000000000, 0.000000000000000000, 0.000000000000000000 ) ) ;
#695 = CARTESIAN_POINT ( 'NONE',  ( -10.00000000000000000, 10.00000000000000000, 3.999999999999993339 ) ) ;
#696 = DIRECTION ( 'NONE',  ( 1.000000000000000000, 0.000000000000000000, -0.000000000000000000 ) ) ;
#697 = ORIENTED_EDGE ( 'NONE', *, *, #404, .T. ) ;
#698 = DIRECTION ( 'NONE',  ( 0.000000000000000000, -0.000000000000000000, 1.000000000000000000 ) ) ;
#699 = ORIENTED_EDGE ( 'NONE', *, *, #716, .T. ) ;
#700 = FACE_BOUND ( 'NONE', #186, .T. ) ;
#701 = PRODUCT_DEFINITION ( 'UNKNOWN', '', #675, #452 ) ;
#702 = EDGE_LOOP ( 'NONE', ( #475, #129, #166, #557 ) ) ;
#703 = ORIENTED_EDGE ( 'NONE', *, *, #555, .F. ) ;
#704 = VECTOR ( 'NONE', #772, 1000.000000000000000 ) ;
#705 = FACE_OUTER_BOUND ( 'NONE', #270, .T. ) ;
#706 = EDGE_CURVE ( 'NONE', #417, #629, #762, .T. ) ;
#707 = DIRECTION ( 'NONE',  ( 0.000000000000000000, 0.000000000000000000, 1.000000000000000000 ) ) ;
#708 = EDGE_CURVE ( 'NONE', #455, #250, #107, .T. ) ;
#709 = ORIENTED_EDGE ( 'NONE', *, *, #840, .F. ) ;
#710 = CARTESIAN_POINT ( 'NONE',  ( -11.80257869014714878, 12.16449225132058842, 4.664492251320581317 ) ) ;
#711 = CARTESIAN_POINT ( 'NONE',  ( -9.999999999999998224, 0.9999999999999986677, 5.000000000000000000 ) ) ;
#712 = VERTEX_POINT ( 'NONE', #263 ) ;
#713 = DIRECTION ( 'NONE',  ( 1.000000000000000000, 1.652117596168384995E-15, 0.000000000000000000 ) ) ;
#714 = DIRECTION ( 'NONE',  ( 1.000000000000000000, 0.000000000000000000, 0.000000000000000000 ) ) ;
#715 = DIRECTION ( 'NONE',  ( -0.000000000000000000, 0.000000000000000000, -1.000000000000000000 ) ) ;
#716 = EDGE_CURVE ( 'NONE', #171, #455, #245, .T. ) ;
#717 = ORIENTED_EDGE ( 'NONE', *, *, #876, .T. ) ;
#718 = EDGE_CURVE ( 'NONE', #486, #453, #420, .T. ) ;
#719 = CARTESIAN_POINT ( 'NONE',  ( -61.45999999999999375, 19.00000000000000711, 5.000000000000000000 ) ) ;
#720 = AXIS2_PLACEMENT_3D ( 'NONE', #382, #91, #377 ) ;
#721 = CIRCLE ( 'NONE', #46, 9.000000000000001776 ) ;
#722 = CC_DESIGN_APPROVAL ( #636, ( #675 ) ) ;
#723 = ORIENTED_EDGE ( 'NONE', *, *, #718, .F. ) ;
#724 = CARTESIAN_POINT ( 'NONE',  ( -9.999999999999998224, 0.9999999999999986677, 0.000000000000000000 ) ) ;
#725 = DIRECTION ( 'NONE',  ( -0.000000000000000000, -0.000000000000000000, -1.000000000000000000 ) ) ;
#726 = ORIENTED_EDGE ( 'NONE', *, *, #363, .F. ) ;
#727 = CARTESIAN_POINT ( 'NONE',  ( -10.00000000000000000, 10.00000000000000178, 5.000000000000000000 ) ) ;
#728 = DIRECTION ( 'NONE',  ( 1.000000000000000000, 0.000000000000000000, -0.000000000000000000 ) ) ;
#729 = CARTESIAN_POINT ( 'NONE',  ( -10.00000000000000000, 10.00000000000000000, 5.000000000000000000 ) ) ;
#730 = EDGE_CURVE ( 'NONE', #738, #558, #771, .T. ) ;
#731 = CARTESIAN_POINT ( 'NONE',  ( -61.45999999999999375, -7.526679227559632366E-15, 4.000000000000000000 ) ) ;
#732 = DIRECTION ( 'NONE',  ( 1.000000000000000000, 0.000000000000000000, 0.000000000000000000 ) ) ;
#733 = CIRCLE ( 'NONE', #720, 5.000000000000004441 ) ;
#734 = ADVANCED_FACE ( 'NONE', ( #705 ), #195, .T. ) ;
#735 = ORIENTED_EDGE ( 'NONE', *, *, #792, .T. ) ;
#736 = DIRECTION ( 'NONE',  ( -1.000000000000000000, 0.000000000000000000, 0.000000000000000000 ) ) ;
#737 = CYLINDRICAL_SURFACE ( 'NONE', #691, 2.149999999999999023 ) ;
#738 = VERTEX_POINT ( 'NONE', #561 ) ;
#739 = ORIENTED_EDGE ( 'NONE', *, *, #380, .F. ) ;
#740 = CARTESIAN_POINT ( 'NONE',  ( -61.46000000000000085, 10.00000000000000178, 5.000000000000000000 ) ) ;
#741 = EDGE_CURVE ( 'NONE', #439, #379, #777, .T. ) ;
#742 = DIRECTION ( 'NONE',  ( 0.000000000000000000, 0.000000000000000000, -1.000000000000000000 ) ) ;
#743 = DIRECTION ( 'NONE',  ( 1.000000000000000000, -9.710178986715967001E-17, -0.000000000000000000 ) ) ;
#744 = DIRECTION ( 'NONE',  ( 1.000000000000000000, 0.000000000000000000, 0.000000000000000000 ) ) ;
#745 = VECTOR ( 'NONE', #271, 1000.000000000000000 ) ;
#746 = AXIS2_PLACEMENT_3D ( 'NONE', #298, #74, #732 ) ;
#747 = DATE_AND_TIME ( #93, #342 ) ;
#748 = DIRECTION ( 'NONE',  ( 1.000000000000000000, 0.000000000000000000, 0.000000000000000000 ) ) ;
#749 = PERSON_AND_ORGANIZATION ( #923, #424 ) ;
#750 = EDGE_LOOP ( 'NONE', ( #485, #329, #592, #693 ) ) ;
#751 = DIRECTION ( 'NONE',  ( -1.000000000000000000, 0.000000000000000000, 0.000000000000000000 ) ) ;
#752 = VERTEX_POINT ( 'NONE', #126 ) ;
#753 = CARTESIAN_POINT ( 'NONE',  ( -8.459707819925064598, 11.50000000000000000, 3.999999999999993339 ) ) ;
#754 = DIRECTION ( 'NONE',  ( 0.000000000000000000, 0.000000000000000000, -1.000000000000000000 ) ) ;
#755 = DIRECTION ( 'NONE',  ( 0.000000000000000000, 0.000000000000000000, -1.000000000000000000 ) ) ;
#756 = DIRECTION ( 'NONE',  ( 0.000000000000000000, 0.000000000000000000, -1.000000000000000000 ) ) ;
#757 = VECTOR ( 'NONE', #102, 999.9999999999998863 ) ;
#758 = EDGE_CURVE ( 'NONE', #738, #486, #921, .T. ) ;
#759 = AXIS2_PLACEMENT_3D ( 'NONE', #308, #26, #622 ) ;
#760 = AXIS2_PLACEMENT_3D ( 'NONE', #113, #283, #656 ) ;
#761 = EDGE_LOOP ( 'NONE', ( #547, #368, #358, #564 ) ) ;
#762 = LINE ( 'NONE', #272, #560 ) ;
#763 = CARTESIAN_POINT ( 'NONE',  ( -9.999999999999998224, -1.224646799147353059E-15, 1.000000000000000000 ) ) ;
#764 = DIRECTION ( 'NONE',  ( 0.000000000000000000, -0.7071067811865472397, 0.7071067811865479058 ) ) ;
#765 = DIRECTION ( 'NONE',  ( 0.000000000000000000, 0.000000000000000000, -1.000000000000000000 ) ) ;
#766 = CARTESIAN_POINT ( 'NONE',  ( -10.00000000000000000, 10.00000000000000000, 3.999999999999993339 ) ) ;
#767 = PLANE ( 'NONE',  #806 ) ;
#768 = EDGE_CURVE ( 'NONE', #903, #471, #911, .T. ) ;
#769 = ORIENTED_EDGE ( 'NONE', *, *, #70, .F. ) ;
#770 = AXIS2_PLACEMENT_3D ( 'NONE', #469, #103, #403 ) ;
#771 = CIRCLE ( 'NONE', #824, 9.000000000000001776 ) ;
#772 = DIRECTION ( 'NONE',  ( -0.000000000000000000, -0.000000000000000000, 1.000000000000000000 ) ) ;
#773 = DIRECTION ( 'NONE',  ( 1.000000000000000000, 1.224646799147353207E-16, 0.000000000000000000 ) ) ;
#774 = EDGE_LOOP ( 'NONE', ( #436, #525, #383, #912 ) ) ;
#775 = CARTESIAN_POINT ( 'NONE',  ( -12.14999999999999858, 10.00000000000000000, 0.000000000000000000 ) ) ;
#776 = AXIS2_PLACEMENT_3D ( 'NONE', #729, #229, #657 ) ;
#777 = B_SPLINE_CURVE_WITH_KNOTS ( 'NONE', 3,
 ( #426, #179, #710, #54 ),
 .UNSPECIFIED., .F., .F.,
 ( 4, 4 ),
 ( 0.000000000000000000, 0.001463365857732463506 ),
 .UNSPECIFIED. ) ;
#778 = LINE ( 'NONE', #481, #206 ) ;
#779 = CC_DESIGN_DATE_AND_TIME_ASSIGNMENT ( #747, #249, ( #124 ) ) ;
#780 = ADVANCED_FACE ( 'NONE', ( #904 ), #423, .T. ) ;
#781 = VERTEX_POINT ( 'NONE', #775 ) ;
#782 =( NAMED_UNIT ( * ) PLANE_ANGLE_UNIT ( ) SI_UNIT ( $, .RADIAN. ) );
#783 = ORIENTED_EDGE ( 'NONE', *, *, #109, .F. ) ;
#784 = EDGE_CURVE ( 'NONE', #604, #344, #90, .T. ) ;
#785 = CARTESIAN_POINT ( 'NONE',  ( -10.00000000000000000, 10.00000000000000000, -14.14213562373095634 ) ) ;
#786 = CYLINDRICAL_SURFACE ( 'NONE', #33, 5.000000000000004441 ) ;
#787 = AXIS2_PLACEMENT_3D ( 'NONE', #727, #755, #223 ) ;
#788 = CIRCLE ( 'NONE', #461, 10.00000000000000178 ) ;
#789 = DIRECTION ( 'NONE',  ( -0.000000000000000000, 0.000000000000000000, -1.000000000000000000 ) ) ;
#790 = DIRECTION ( 'NONE',  ( -1.000000000000000000, -1.224646799147353207E-16, 0.000000000000000000 ) ) ;
#791 = EDGE_LOOP ( 'NONE', ( #850, #108, #304, #256 ) ) ;
#792 = EDGE_CURVE ( 'NONE', #558, #338, #633, .T. ) ;
#793 = CARTESIAN_POINT ( 'NONE',  ( -56.45999999999999375, 10.00000000000000178, 5.000000000000000000 ) ) ;
#794 = VERTEX_POINT ( 'NONE', #483 ) ;
#795 = EDGE_LOOP ( 'NONE', ( #849, #594, #800, #462 ) ) ;
#796 = CARTESIAN_POINT ( 'NONE',  ( -61.45999999999999375, -7.526679227559632366E-15, 1.000000000000000000 ) ) ;
#797 = EDGE_CURVE ( 'NONE', #802, #541, #208, .T. ) ;
#798 = DIRECTION ( 'NONE',  ( 1.000000000000000000, 0.000000000000000000, 0.000000000000000000 ) ) ;
#799 = DIRECTION ( 'NONE',  ( 0.000000000000000000, 0.000000000000000000, 1.000000000000000000 ) ) ;
#800 = ORIENTED_EDGE ( 'NONE', *, *, #665, .T. ) ;
#801 = DIRECTION ( 'NONE',  ( -0.000000000000000000, 0.000000000000000000, -1.000000000000000000 ) ) ;
#802 = VERTEX_POINT ( 'NONE', #796 ) ;
#803 = AXIS2_PLACEMENT_3D ( 'NONE', #484, #114, #418 ) ;
#804 = CIRCLE ( 'NONE', #823, 3.150000000000005240 ) ;
#805 = DIRECTION ( 'NONE',  ( 1.000000000000000000, -9.710178986715967001E-17, -0.000000000000000000 ) ) ;
#806 = AXIS2_PLACEMENT_3D ( 'NONE', #48, #906, #913 ) ;
#807 = CC_DESIGN_APPROVAL ( #174, ( #701 ) ) ;
#808 = EDGE_CURVE ( 'NONE', #338, #486, #450, .T. ) ;
#809 = ORIENTED_EDGE ( 'NONE', *, *, #109, .T. ) ;
#810 = FACE_OUTER_BOUND ( 'NONE', #252, .T. ) ;
#811 = DIRECTION ( 'NONE',  ( 0.000000000000000000, -0.000000000000000000, 1.000000000000000000 ) ) ;
#812 = ORIENTED_EDGE ( 'NONE', *, *, #278, .T. ) ;
#813 = ADVANCED_FACE ( 'NONE', ( #596 ), #786, .F. ) ;
#814 = CARTESIAN_POINT ( 'NONE',  ( -61.45999999999999375, 9.999999999999992895, 0.000000000000000000 ) ) ;
#815 = CARTESIAN_POINT ( 'NONE',  ( -9.710178986715967001E-17, 19.00000000000000000, 1.000000000000000000 ) ) ;
#816 = DIRECTION ( 'NONE',  ( 1.000000000000000000, -9.710178986715967001E-17, -0.000000000000000000 ) ) ;
#817 = DIRECTION ( 'NONE',  ( 0.000000000000000000, 0.000000000000000000, -1.000000000000000000 ) ) ;
#818 = APPROVAL_STATUS ( 'not_yet_approved' ) ;
#819 = ORIENTED_EDGE ( 'NONE', *, *, #922, .T. ) ;
#820 = DIRECTION ( 'NONE',  ( -0.000000000000000000, 0.000000000000000000, -1.000000000000000000 ) ) ;
#821 = DIRECTION ( 'NONE',  ( 0.000000000000000000, -0.000000000000000000, 1.000000000000000000 ) ) ;
#822 = FACE_OUTER_BOUND ( 'NONE', #412, .T. ) ;
#823 = AXIS2_PLACEMENT_3D ( 'NONE', #112, #855, #713 ) ;
#824 = AXIS2_PLACEMENT_3D ( 'NONE', #857, #110, #478 ) ;
#825 = DIRECTION ( 'NONE',  ( 0.000000000000000000, 1.000000000000000000, 0.000000000000000000 ) ) ;
#826 = PERSON_AND_ORGANIZATION ( #923, #424 ) ;
#827 = ORIENTED_EDGE ( 'NONE', *, *, #236, .F. ) ;
#828 = CC_DESIGN_PERSON_AND_ORGANIZATION_ASSIGNMENT ( #749, #539, ( #675 ) ) ;
#829 = FACE_OUTER_BOUND ( 'NONE', #231, .T. ) ;
#830 = CARTESIAN_POINT ( 'NONE',  ( -7.850000000000001421, 10.00000000000000000, 3.999999999999993339 ) ) ;
#831 = DATE_AND_TIME ( #546, #275 ) ;
#832 = ORIENTED_EDGE ( 'NONE', *, *, #233, .T. ) ;
#833 = DIRECTION ( 'NONE',  ( 0.000000000000000000, 0.000000000000000000, -1.000000000000000000 ) ) ;
#834 = CARTESIAN_POINT ( 'NONE',  ( -10.00000000000000000, 10.00000000000000178, 4.000000000000000000 ) ) ;
#835 = ADVANCED_FACE ( 'NONE', ( #72, #591, #930 ), #219, .T. ) ;
#836 = CARTESIAN_POINT ( 'NONE',  ( -10.00000000000000000, 10.00000000000000178, 5.000000000000000000 ) ) ;
#837 = ORIENTED_EDGE ( 'NONE', *, *, #768, .T. ) ;
#838 = DIRECTION ( 'NONE',  ( 1.000000000000000000, 0.000000000000000000, 0.000000000000000000 ) ) ;
#839 = CARTESIAN_POINT ( 'NONE',  ( -8.083623210326321029, 12.50000000000000711, 5.000000000000000000 ) ) ;
#840 = EDGE_CURVE ( 'NONE', #307, #146, #540, .T. ) ;
#841 = AXIS2_PLACEMENT_3D ( 'NONE', #359, #715, #158 ) ;
#842 = AXIS2_PLACEMENT_3D ( 'NONE', #611, #232, #532 ) ;
#843 = ORIENTED_EDGE ( 'NONE', *, *, #542, .F. ) ;
#844 = ORIENTED_EDGE ( 'NONE', *, *, #160, .F. ) ;
#845 = DIRECTION ( 'NONE',  ( 0.000000000000000000, 1.000000000000000000, 0.000000000000000000 ) ) ;
#846 = DIRECTION ( 'NONE',  ( 1.000000000000000000, 0.000000000000000000, 0.000000000000000000 ) ) ;
#847 = EDGE_CURVE ( 'NONE', #125, #752, #294, .T. ) ;
#848 = CARTESIAN_POINT ( 'NONE',  ( -61.46000000000000085, 10.00000000000000178, 5.000000000000000000 ) ) ;
#849 = ORIENTED_EDGE ( 'NONE', *, *, #396, .T. ) ;
#850 = ORIENTED_EDGE ( 'NONE', *, *, #278, .F. ) ;
#851 = CYLINDRICAL_SURFACE ( 'NONE', #292, 5.000000000000004441 ) ;
#852 = DIRECTION ( 'NONE',  ( 0.000000000000000000, 0.000000000000000000, 1.000000000000000000 ) ) ;
#853 = ORIENTED_EDGE ( 'NONE', *, *, #297, .T. ) ;
#854 = AXIS2_PLACEMENT_3D ( 'NONE', #406, #893, #833 ) ;
#855 = DIRECTION ( 'NONE',  ( -0.000000000000000000, 0.000000000000000000, -1.000000000000000000 ) ) ;
#856 = TOROIDAL_SURFACE ( 'NONE', #842, 9.000000000000001776, 1.000000000000000000 ) ;
#857 = CARTESIAN_POINT ( 'NONE',  ( -10.00000000000000000, 9.999999999999998224, 5.000000000000000000 ) ) ;
#858 = ORIENTED_EDGE ( 'NONE', *, *, #34, .F. ) ;
#859 = LINE ( 'NONE', #78, #479 ) ;
#860 = TOROIDAL_SURFACE ( 'NONE', #37, 9.000000000000001776, 1.000000000000000000 ) ;
#861 = DIRECTION ( 'NONE',  ( 0.000000000000000000, 0.000000000000000000, 1.000000000000000000 ) ) ;
#862 = VERTEX_POINT ( 'NONE', #579 ) ;
#863 = CARTESIAN_POINT ( 'NONE',  ( 0.000000000000000000, 10.00000000000000178, 1.000000000000000000 ) ) ;
#864 = DIRECTION ( 'NONE',  ( 1.000000000000000000, 0.000000000000000000, 0.000000000000000000 ) ) ;
#865 = CARTESIAN_POINT ( 'NONE',  ( 1.844934007476033866E-15, 19.00000000000000000, 0.000000000000000000 ) ) ;
#866 = CC_DESIGN_PERSON_AND_ORGANIZATION_ASSIGNMENT ( #391, #152, ( #701 ) ) ;
#867 = ORIENTED_EDGE ( 'NONE', *, *, #784, .T. ) ;
#868 = DIRECTION ( 'NONE',  ( -0.7071067811865473507, 8.659560562354931626E-17, 0.7071067811865477948 ) ) ;
#869 = VECTOR ( 'NONE', #31, 1000.000000000000000 ) ;
#870 = VECTOR ( 'NONE', #44, 1000.000000000000000 ) ;
#871 = EDGE_CURVE ( 'NONE', #123, #605, #882, .T. ) ;
#872 = CARTESIAN_POINT ( 'NONE',  ( -61.45999999999999375, 10.00000000000000533, 4.000000000000000000 ) ) ;
#873 = ORIENTED_EDGE ( 'NONE', *, *, #808, .F. ) ;
#874 = ORIENTED_EDGE ( 'NONE', *, *, #847, .T. ) ;
#875 = CARTESIAN_POINT ( 'NONE',  ( -61.46000000000000085, 10.00000000000000178, 5.000000000000000000 ) ) ;
#876 = EDGE_CURVE ( 'NONE', #474, #541, #277, .T. ) ;
#877 = PERSON_AND_ORGANIZATION ( #923, #424 ) ;
#878 = AXIS2_PLACEMENT_3D ( 'NONE', #834, #310, #607 ) ;
#879 = VECTOR ( 'NONE', #66, 1000.000000000000000 ) ;
#880 = VECTOR ( 'NONE', #145, 1000.000000000000000 ) ;
#881 = CARTESIAN_POINT ( 'NONE',  ( -61.45999999999999375, 9.999999999999992895, 1.000000000000000000 ) ) ;
#882 = CIRCLE ( 'NONE', #576, 10.00000000000000178 ) ;
#883 =( GEOMETRIC_REPRESENTATION_CONTEXT ( 3 ) GLOBAL_UNCERTAINTY_ASSIGNED_CONTEXT ( ( #194 ) ) GLOBAL_UNIT_ASSIGNED_CONTEXT ( ( #646, #782, #582 ) ) REPRESENTATION_CONTEXT ( 'NONE', 'WORKASPACE' ) );
#884 = ORIENTED_EDGE ( 'NONE', *, *, #621, .T. ) ;
#885 = CYLINDRICAL_SURFACE ( 'NONE', #494, 10.00000000000000000 ) ;
#886 = CARTESIAN_POINT ( 'NONE',  ( -10.00000000000000000, 10.00000000000000178, 1.000000000000000000 ) ) ;
#887 = CYLINDRICAL_SURFACE ( 'NONE', #365, 1.000000000000000888 ) ;
#888 = VERTEX_POINT ( 'NONE', #719 ) ;
#889 = SECURITY_CLASSIFICATION_LEVEL ( 'unclassified' ) ;
#890 = CARTESIAN_POINT ( 'NONE',  ( -9.999999999999998224, -1.224646799147353059E-15, 5.000000000000000000 ) ) ;
#891 = CARTESIAN_POINT ( 'NONE',  ( -10.00000000000000000, 10.00000000000000178, 0.000000000000000000 ) ) ;
#892 = ORIENTED_EDGE ( 'NONE', *, *, #7, .F. ) ;
#893 = DIRECTION ( 'NONE',  ( 1.000000000000000000, -0.000000000000000000, 0.000000000000000000 ) ) ;
#894 = TOROIDAL_SURFACE ( 'NONE', #88, 9.000000000000001776, 1.000000000000000000 ) ;
#895 = LINE ( 'NONE', #246, #367 ) ;
#896 = CIRCLE ( 'NONE', #770, 1.000000000000000000 ) ;
#897 = TOROIDAL_SURFACE ( 'NONE', #341, 9.000000000000001776, 1.000000000000000000 ) ;
#898 = EDGE_CURVE ( 'NONE', #242, #914, #721, .T. ) ;
#899 = AXIS2_PLACEMENT_3D ( 'NONE', #313, #676, #465 ) ;
#900 = PERSON_AND_ORGANIZATION_ROLE ( 'classification_officer' ) ;
#901 = ORIENTED_EDGE ( 'NONE', *, *, #784, .F. ) ;
#902 = DIRECTION ( 'NONE',  ( 1.000000000000000000, -9.710178986715967001E-17, 0.000000000000000000 ) ) ;
#903 = VERTEX_POINT ( 'NONE', #370 ) ;
#904 = FACE_OUTER_BOUND ( 'NONE', #761, .T. ) ;
#905 = ORIENTED_EDGE ( 'NONE', *, *, #50, .F. ) ;
#906 = DIRECTION ( 'NONE',  ( 0.000000000000000000, -0.000000000000000000, 1.000000000000000000 ) ) ;
#907 = DIRECTION ( 'NONE',  ( 1.000000000000000000, 0.000000000000000000, 0.000000000000000000 ) ) ;
#908 = ADVANCED_FACE ( 'NONE', ( #64 ), #666, .T. ) ;
#909 = AXIS2_PLACEMENT_3D ( 'NONE', #785, #655, #437 ) ;
#910 = DIRECTION ( 'NONE',  ( 1.224646799147353207E-16, -1.000000000000000000, 0.000000000000000000 ) ) ;
#911 = CIRCLE ( 'NONE', #327, 10.00000000000000178 ) ;
#912 = ORIENTED_EDGE ( 'NONE', *, *, #273, .T. ) ;
#913 = DIRECTION ( 'NONE',  ( 1.000000000000000000, 0.000000000000000000, -0.000000000000000000 ) ) ;
#914 = VERTEX_POINT ( 'NONE', #144 ) ;
#915 = CARTESIAN_POINT ( 'NONE',  ( -61.45999999999999375, 10.00000000000000533, 1.000000000000000000 ) ) ;
#916 = ORIENTED_EDGE ( 'NONE', *, *, #350, .F. ) ;
#917 = DIRECTION ( 'NONE',  ( 0.000000000000000000, -0.000000000000000000, 1.000000000000000000 ) ) ;
#918 = VERTEX_POINT ( 'NONE', #793 ) ;
#919 = AXIS2_PLACEMENT_3D ( 'NONE', #815, #159, #27 ) ;
#920 = DIRECTION ( 'NONE',  ( 0.000000000000000000, 0.000000000000000000, 1.000000000000000000 ) ) ;
#921 = CIRCLE ( 'NONE', #648, 1.000000000000000000 ) ;
#922 = EDGE_CURVE ( 'NONE', #903, #605, #859, .T. ) ;
#923 = PERSON ( 'UNSPECIFIED', 'UNSPECIFIED', 'UNSPECIFIED', ('UNSPECIFIED'), ('UNSPECIFIED'), ('UNSPECIFIED') ) ;
#924 = ORIENTED_EDGE ( 'NONE', *, *, #343, .T. ) ;
#925 = DIRECTION ( 'NONE',  ( 1.000000000000000000, 0.000000000000000000, 0.000000000000000000 ) ) ;
#926 = CARTESIAN_POINT ( 'NONE',  ( -1.000000000000000000, 10.00000000000000178, 0.000000000000000000 ) ) ;
#927 = DIRECTION ( 'NONE',  ( -1.000000000000000000, 0.000000000000000000, 0.000000000000000000 ) ) ;
#928 = ORIENTED_EDGE ( 'NONE', *, *, #534, .T. ) ;
#929 = FACE_OUTER_BOUND ( 'NONE', #392, .T. ) ;
#930 = FACE_BOUND ( 'NONE', #14, .T. ) ;
#931 = EDGE_CURVE ( 'NONE', #250, #474, #182, .T. ) ;
#932 = DIRECTION ( 'NONE',  ( 0.000000000000000000, 0.000000000000000000, -1.000000000000000000 ) ) ;
#933 = ORIENTED_EDGE ( 'NONE', *, *, #599, .T. ) ;
#934 = CARTESIAN_POINT ( 'NONE',  ( -12.14999999999999858, 10.00000000000000000, 3.999999999999993339 ) ) ;
#935 = AXIS2_PLACEMENT_3D ( 'NONE', #548, #473, #751 ) ;
#936 = ORIENTED_EDGE ( 'NONE', *, *, #454, .F. ) ;
ENDSEC;
END-ISO-10303-21;
