ISO-10303-21;
HEADER;
FILE_DESCRIPTION (( 'STEP AP203' ),
    '1' );
FILE_NAME ('PIN3_Default_sldprt.STEP',
    '2026-04-21T20:27:48',
    ( '' ),
    ( '' ),
    'SwSTEP 2.0',
    'SolidWorks 2025',
    '' );
FILE_SCHEMA (( 'CONFIG_CONTROL_DESIGN' ));
ENDSEC;

DATA;
#1 = PLANE ( 'NONE',  #83 ) ;
#2 = ORIENTED_EDGE ( 'NONE', *, *, #469, .F. ) ;
#3 = DIRECTION ( 'NONE',  ( 0.000000000000000000, -0.000000000000000000, 1.000000000000000000 ) ) ;
#4 = VERTEX_POINT ( 'NONE', #478 ) ;
#5 = AXIS2_PLACEMENT_3D ( 'NONE', #259, #416, #178 ) ;
#6 = PRODUCT_DEFINITION_FORMATION_WITH_SPECIFIED_SOURCE ( 'ANY', '', #62, .NOT_KNOWN. ) ;
#7 = CARTESIAN_POINT ( 'NONE',  ( 0.000000000000000000, 98.29999999999999716, 0.000000000000000000 ) ) ;
#8 = ORIENTED_EDGE ( 'NONE', *, *, #160, .F. ) ;
#9 = EDGE_CURVE ( 'NONE', #11, #250, #17, .T. ) ;
#10 = DIRECTION ( 'NONE',  ( 0.000000000000000000, 0.000000000000000000, 1.000000000000000000 ) ) ;
#11 = VERTEX_POINT ( 'NONE', #132 ) ;
#12 = EDGE_CURVE ( 'NONE', #57, #401, #443, .T. ) ;
#13 = VERTEX_POINT ( 'NONE', #446 ) ;
#14 = CONICAL_SURFACE ( 'NONE', #449, 2.000000000000002220, 0.7853981633974587151 ) ;
#15 = CALENDAR_DATE ( 2026, 21, 4 ) ;
#16 = CARTESIAN_POINT ( 'NONE',  ( 0.000000000000000000, 0.000000000000000000, 0.000000000000000000 ) ) ;
#17 = LINE ( 'NONE', #99, #345 ) ;
#18 = DIRECTION ( 'NONE',  ( 0.000000000000000000, 0.000000000000000000, 1.000000000000000000 ) ) ;
#19 = CARTESIAN_POINT ( 'NONE',  ( 0.000000000000000000, 79.29999999999999716, 0.000000000000000000 ) ) ;
#20 = CIRCLE ( 'NONE', #480, 8.000000000000000000 ) ;
#21 = UNCERTAINTY_MEASURE_WITH_UNIT (LENGTH_MEASURE( 1.000000000000000082E-05 ), #164, 'distance_accuracy_value', 'NONE');
#22 = ORIENTED_EDGE ( 'NONE', *, *, #294, .T. ) ;
#23 = APPROVAL_PERSON_ORGANIZATION ( #472, #426, #53 ) ;
#24 = APPLICATION_CONTEXT ( 'configuration controlled 3d designs of mechanical parts and assemblies' ) ;
#25 = ADVANCED_FACE ( 'NONE', ( #439 ), #321, .T. ) ;
#26 = COORDINATED_UNIVERSAL_TIME_OFFSET ( 6, 0, .BEHIND. ) ;
#27 = CYLINDRICAL_SURFACE ( 'NONE', #336, 8.500000000000000000 ) ;
#28 = DATE_TIME_ROLE ( 'classification_date' ) ;
#29 = DIRECTION ( 'NONE',  ( 0.000000000000000000, -1.000000000000000000, 0.000000000000000000 ) ) ;
#30 = PRODUCT_DEFINITION_SHAPE ( 'NONE', 'NONE',  #441 ) ;
#31 = DATE_AND_TIME ( #408, #75 ) ;
#32 = LINE ( 'NONE', #218, #414 ) ;
#33 = ORIENTED_EDGE ( 'NONE', *, *, #73, .F. ) ;
#34 = CARTESIAN_POINT ( 'NONE',  ( -4.000000000000001776, 97.50000000000000000, 7.500000000000000000 ) ) ;
#35 = DIRECTION ( 'NONE',  ( -0.7071067811865475727, 0.7071067811865475727, 0.000000000000000000 ) ) ;
#36 = ORIENTED_EDGE ( 'NONE', *, *, #376, .F. ) ;
#37 = DIRECTION ( 'NONE',  ( 0.000000000000000000, -1.000000000000000000, 0.000000000000000000 ) ) ;
#38 = VECTOR ( 'NONE', #452, 1000.000000000000000 ) ;
#39 = EDGE_CURVE ( 'NONE', #13, #4, #74, .T. ) ;
#40 = LINE ( 'NONE', #353, #162 ) ;
#41 = EDGE_LOOP ( 'NONE', ( #277, #82, #418, #137 ) ) ;
#42 = LINE ( 'NONE', #90, #127 ) ;
#43 = ORIENTED_EDGE ( 'NONE', *, *, #183, .T. ) ;
#44 = CARTESIAN_POINT ( 'NONE',  ( -4.000000000000001776, 97.50000000000000000, 7.500000000000000000 ) ) ;
#45 = ORIENTED_EDGE ( 'NONE', *, *, #197, .F. ) ;
#46 = CIRCLE ( 'NONE', #227, 2.000000000000000000 ) ;
#47 = AXIS2_PLACEMENT_3D ( 'NONE', #172, #440, #244 ) ;
#48 = CARTESIAN_POINT ( 'NONE',  ( -3.532742441607326089, 97.96725755839267435, -7.547538276322132589 ) ) ;
#49 = ORIENTED_EDGE ( 'NONE', *, *, #288, .T. ) ;
#50 = EDGE_CURVE ( 'NONE', #343, #149, #344, .T. ) ;
#51 = CARTESIAN_POINT ( 'NONE',  ( -4.000000000000000000, 97.50000000000000000, -7.500000000000000888 ) ) ;
#52 = EDGE_LOOP ( 'NONE', ( #384, #354 ) ) ;
#53 = APPROVAL_ROLE ( '' ) ;
#54 = FACE_OUTER_BOUND ( 'NONE', #241, .T. ) ;
#55 = LOCAL_TIME ( 14, 27, 48.00000000000000000, #240 ) ;
#56 = DATE_AND_TIME ( #278, #347 ) ;
#57 = VERTEX_POINT ( 'NONE', #447 ) ;
#58 = DIRECTION ( 'NONE',  ( 0.000000000000000000, 1.000000000000000000, 0.000000000000000000 ) ) ;
#59 = ORIENTED_EDGE ( 'NONE', *, *, #479, .F. ) ;
#60 = PERSON_AND_ORGANIZATION ( #487, #337 ) ;
#61 = ORIENTED_EDGE ( 'NONE', *, *, #80, .F. ) ;
#62 = PRODUCT ( 'PIN3_Default_sldprt', 'PIN3_Default_sldprt', '', ( #438 ) ) ;
#63 = ADVANCED_FACE ( 'NONE', ( #54 ), #14, .F. ) ;
#64 = APPLICATION_PROTOCOL_DEFINITION ( 'international standard', 'config_control_design', 1994, #224 ) ;
#65 = AXIS2_PLACEMENT_3D ( 'NONE', #300, #150, #10 ) ;
#66 = DIRECTION ( 'NONE',  ( 0.000000000000000000, 0.000000000000000000, -1.000000000000000000 ) ) ;
#67 = CC_DESIGN_APPROVAL ( #88, ( #6 ) ) ;
#68 = DIRECTION ( 'NONE',  ( 0.000000000000000000, 0.000000000000000000, 1.000000000000000000 ) ) ;
#69 = PERSON_AND_ORGANIZATION ( #487, #337 ) ;
#70 = FACE_OUTER_BOUND ( 'NONE', #121, .T. ) ;
#71 = PERSON_AND_ORGANIZATION ( #487, #337 ) ;
#72 = CARTESIAN_POINT ( 'NONE',  ( 0.000000000000000000, 97.80000000000001137, 0.000000000000000000 ) ) ;
#73 = EDGE_CURVE ( 'NONE', #13, #57, #325, .T. ) ;
#74 = CIRCLE ( 'NONE', #265, 2.000000000000000000 ) ;
#75 = LOCAL_TIME ( 14, 27, 48.00000000000000000, #26 ) ;
#76 = CARTESIAN_POINT ( 'NONE',  ( -3.200000000000005063, 98.29999999999999716, 7.332121111929342128 ) ) ;
#77 = PERSON_AND_ORGANIZATION_ROLE ( 'classification_officer' ) ;
#78 = CYLINDRICAL_SURFACE ( 'NONE', #133, 2.000000000000000000 ) ;
#79 = ORIENTED_EDGE ( 'NONE', *, *, #294, .F. ) ;
#80 = EDGE_CURVE ( 'NONE', #4, #285, #206, .T. ) ;
#81 = FACE_OUTER_BOUND ( 'NONE', #466, .T. ) ;
#82 = ORIENTED_EDGE ( 'NONE', *, *, #361, .F. ) ;
#83 = AXIS2_PLACEMENT_3D ( 'NONE', #427, #468, #198 ) ;
#84 = CC_DESIGN_SECURITY_CLASSIFICATION ( #153, ( #6 ) ) ;
#85 = CARTESIAN_POINT ( 'NONE',  ( 9.797174393178825657E-16, 98.30000000000001137, 8.000000000000000000 ) ) ;
#86 = ORIENTED_EDGE ( 'NONE', *, *, #50, .F. ) ;
#87 = CARTESIAN_POINT ( 'NONE',  ( 1.010333609296566353E-15, 98.29999999999999716, 8.000000000000000000 ) ) ;
#88 = APPROVAL ( #316, 'UNSPECIFIED' ) ;
#89 = EDGE_LOOP ( 'NONE', ( #474, #233, #301, #79 ) ) ;
#90 = CARTESIAN_POINT ( 'NONE',  ( 0.000000000000000000, 98.30000000000001137, -8.000000000000000000 ) ) ;
#91 = ADVANCED_FACE ( 'NONE', ( #138 ), #170, .T. ) ;
#92 = ORIENTED_EDGE ( 'NONE', *, *, #469, .T. ) ;
#93 = ADVANCED_FACE ( 'NONE', ( #367 ), #27, .T. ) ;
#94 = AXIS2_PLACEMENT_3D ( 'NONE', #148, #195, #3 ) ;
#95 = LOCAL_TIME ( 14, 27, 48.00000000000000000, #139 ) ;
#96 = CARTESIAN_POINT ( 'NONE',  ( -4.000000000000000000, 73.29999999999999716, 1.469576158976823306E-16 ) ) ;
#97 = VERTEX_POINT ( 'NONE', #279 ) ;
#98 = CARTESIAN_POINT ( 'NONE',  ( 0.000000000000000000, 98.29999999999999716, -8.000000000000000000 ) ) ;
#99 = CARTESIAN_POINT ( 'NONE',  ( -4.000000000000001776, 73.29999999999999716, 7.500000000000000000 ) ) ;
#100 = CARTESIAN_POINT ( 'NONE',  ( 0.000000000000000000, 79.29999999999999716, 2.000000000000000000 ) ) ;
#101 = FACE_OUTER_BOUND ( 'NONE', #52, .T. ) ;
#102 = CARTESIAN_POINT ( 'NONE',  ( 0.000000000000000000, 98.30000000000001137, 0.000000000000000000 ) ) ;
#103 = DIRECTION ( 'NONE',  ( -0.000000000000000000, 1.000000000000000000, -0.000000000000000000 ) ) ;
#104 = VERTEX_POINT ( 'NONE', #377 ) ;
#105 = ADVANCED_FACE ( 'NONE', ( #140 ), #78, .F. ) ;
#106 = APPROVAL_ROLE ( '' ) ;
#107 = VECTOR ( 'NONE', #155, 1000.000000000000114 ) ;
#108 = DIRECTION ( 'NONE',  ( 0.000000000000000000, -1.000000000000000000, 0.000000000000000000 ) ) ;
#109 = PERSON_AND_ORGANIZATION ( #487, #337 ) ;
#110 = CARTESIAN_POINT ( 'NONE',  ( 3.429011037612606039E-16, 98.29999999999999716, -2.800000000000014033 ) ) ;
#111 = DIRECTION ( 'NONE',  ( 0.000000000000000000, 1.000000000000000000, 0.000000000000000000 ) ) ;
#112 = DIRECTION ( 'NONE',  ( 0.000000000000000000, 0.000000000000000000, 1.000000000000000000 ) ) ;
#113 = AXIS2_PLACEMENT_3D ( 'NONE', #334, #111, #221 ) ;
#114 = CIRCLE ( 'NONE', #186, 2.000000000000000000 ) ;
#115 = CARTESIAN_POINT ( 'NONE',  ( -3.699999999999991740, 97.80000000000001137, -7.652450587883601330 ) ) ;
#116 = FACE_OUTER_BOUND ( 'NONE', #89, .T. ) ;
#117 = EDGE_LOOP ( 'NONE', ( #387, #128, #430, #470 ) ) ;
#118 = FACE_OUTER_BOUND ( 'NONE', #117, .T. ) ;
#119 = ORIENTED_EDGE ( 'NONE', *, *, #386, .F. ) ;
#120 = DIRECTION ( 'NONE',  ( 0.000000000000000000, -0.000000000000000000, 1.000000000000000000 ) ) ;
#121 = EDGE_LOOP ( 'NONE', ( #59, #437, #304, #235 ) ) ;
#122 = ADVANCED_FACE ( 'NONE', ( #484 ), #456, .F. ) ;
#123 = DIRECTION ( 'NONE',  ( 8.659560562354913137E-17, -0.7071067811865490160, 0.7071067811865460184 ) ) ;
#124 = ORIENTED_EDGE ( 'NONE', *, *, #9, .F. ) ;
#125 = DIRECTION ( 'NONE',  ( -0.000000000000000000, -0.000000000000000000, -1.000000000000000000 ) ) ;
#126 = ORIENTED_EDGE ( 'NONE', *, *, #307, .F. ) ;
#127 = VECTOR ( 'NONE', #226, 1000.000000000000114 ) ;
#128 = ORIENTED_EDGE ( 'NONE', *, *, #479, .T. ) ;
#129 = COORDINATED_UNIVERSAL_TIME_OFFSET ( 6, 0, .BEHIND. ) ;
#130 = EDGE_LOOP ( 'NONE', ( #61, #399, #311, #2 ) ) ;
#131 = DIRECTION ( 'NONE',  ( 0.000000000000000000, 1.000000000000000000, 0.000000000000000000 ) ) ;
#132 = CARTESIAN_POINT ( 'NONE',  ( -4.000000000000001776, 73.29999999999999716, 7.500000000000000000 ) ) ;
#133 = AXIS2_PLACEMENT_3D ( 'NONE', #142, #255, #413 ) ;
#134 = ORIENTED_EDGE ( 'NONE', *, *, #136, .T. ) ;
#135 = DIRECTION ( 'NONE',  ( 0.000000000000000000, 0.000000000000000000, 1.000000000000000000 ) ) ;
#136 = EDGE_CURVE ( 'NONE', #104, #188, #490, .T. ) ;
#137 = ORIENTED_EDGE ( 'NONE', *, *, #222, .F. ) ;
#138 = FACE_OUTER_BOUND ( 'NONE', #161, .T. ) ;
#139 = COORDINATED_UNIVERSAL_TIME_OFFSET ( 6, 0, .BEHIND. ) ;
#140 = FACE_OUTER_BOUND ( 'NONE', #130, .T. ) ;
#141 = CALENDAR_DATE ( 2026, 21, 4 ) ;
#142 = CARTESIAN_POINT ( 'NONE',  ( 0.000000000000000000, 79.29999999999999716, 0.000000000000000000 ) ) ;
#143 = APPROVAL_DATE_TIME ( #31, #394 ) ;
#144 = CARTESIAN_POINT ( 'NONE',  ( 0.000000000000000000, 97.50000000000000000, -8.500000000000000000 ) ) ;
#145 = DIRECTION ( 'NONE',  ( 0.000000000000000000, 0.000000000000000000, -1.000000000000000000 ) ) ;
#146 = CIRCLE ( 'NONE', #5, 8.500000000000000000 ) ;
#147 = FACE_BOUND ( 'NONE', #238, .T. ) ;
#148 = CARTESIAN_POINT ( 'NONE',  ( 0.000000000000000000, 98.29999999999999716, 0.000000000000000000 ) ) ;
#149 = VERTEX_POINT ( 'NONE', #223 ) ;
#150 = DIRECTION ( 'NONE',  ( 0.000000000000000000, 1.000000000000000000, 0.000000000000000000 ) ) ;
#151 = ORIENTED_EDGE ( 'NONE', *, *, #197, .T. ) ;
#152 = AXIS2_PLACEMENT_3D ( 'NONE', #72, #108, #371 ) ;
#153 = SECURITY_CLASSIFICATION ( '', '', #368 ) ;
#154 = ADVANCED_FACE ( 'NONE', ( #295 ), #292, .T. ) ;
#155 = DIRECTION ( 'NONE',  ( 8.659560562355022838E-17, 0.7071067811865402453, -0.7071067811865549002 ) ) ;
#156 = ORIENTED_EDGE ( 'NONE', *, *, #222, .T. ) ;
#157 = LINE ( 'NONE', #340, #471 ) ;
#158 = ORIENTED_EDGE ( 'NONE', *, *, #457, .F. ) ;
#159 = APPLICATION_PROTOCOL_DEFINITION ( 'international standard', 'config_control_design', 1994, #24 ) ;
#160 = EDGE_CURVE ( 'NONE', #274, #193, #352, .T. ) ;
#161 = EDGE_LOOP ( 'NONE', ( #271, #268, #476, #228 ) ) ;
#162 = VECTOR ( 'NONE', #187, 1000.000000000000000 ) ;
#163 = CC_DESIGN_APPROVAL ( #394, ( #153 ) ) ;
#164 =( LENGTH_UNIT ( ) NAMED_UNIT ( * ) SI_UNIT ( .MILLI., .METRE. ) );
#165 = DIRECTION ( 'NONE',  ( 0.000000000000000000, 0.000000000000000000, 1.000000000000000000 ) ) ;
#166 = PERSON_AND_ORGANIZATION ( #487, #337 ) ;
#167 = DIRECTION ( 'NONE',  ( 0.000000000000000000, 1.000000000000000000, 0.000000000000000000 ) ) ;
#168 = CC_DESIGN_DATE_AND_TIME_ASSIGNMENT ( #217, #28, ( #153 ) ) ;
#169 = CARTESIAN_POINT ( 'NONE',  ( 0.000000000000000000, 0.000000000000000000, 0.000000000000000000 ) ) ;
#170 = CYLINDRICAL_SURFACE ( 'NONE', #388, 8.500000000000000000 ) ;
#171 = ADVANCED_FACE ( 'NONE', ( #494 ), #220, .T. ) ;
#172 = CARTESIAN_POINT ( 'NONE',  ( 0.000000000000000000, 97.50000000000000000, 0.000000000000000000 ) ) ;
#173 = CARTESIAN_POINT ( 'NONE',  ( -3.901012578169847700, 97.59898742183014519, -7.552793291642750262 ) ) ;
#174 = DIRECTION ( 'NONE',  ( 0.000000000000000000, 0.000000000000000000, -1.000000000000000000 ) ) ;
#175 = DIRECTION ( 'NONE',  ( -0.000000000000000000, 1.000000000000000000, -0.000000000000000000 ) ) ;
#176 = EDGE_CURVE ( 'NONE', #104, #390, #454, .T. ) ;
#177 = CC_DESIGN_PERSON_AND_ORGANIZATION_ASSIGNMENT ( #109, #77, ( #153 ) ) ;
#178 = DIRECTION ( 'NONE',  ( 0.000000000000000000, 0.000000000000000000, 1.000000000000000000 ) ) ;
#179 = ORIENTED_EDGE ( 'NONE', *, *, #376, .T. ) ;
#180 = DIRECTION ( 'NONE',  ( 0.000000000000000000, 1.000000000000000000, 0.000000000000000000 ) ) ;
#181 = PERSON_AND_ORGANIZATION_ROLE ( 'design_supplier' ) ;
#182 = CARTESIAN_POINT ( 'NONE',  ( -3.366043478284329815, 98.13395652171567463, 7.440822084485295029 ) ) ;
#183 = EDGE_CURVE ( 'NONE', #149, #104, #486, .T. ) ;
#184 = DIRECTION ( 'NONE',  ( 0.000000000000000000, 0.000000000000000000, -1.000000000000000000 ) ) ;
#185 = AXIS2_PLACEMENT_3D ( 'NONE', #459, #230, #192 ) ;
#186 = AXIS2_PLACEMENT_3D ( 'NONE', #19, #58, #135 ) ;
#187 = DIRECTION ( 'NONE',  ( -0.000000000000000000, -1.000000000000000000, -0.000000000000000000 ) ) ;
#188 = VERTEX_POINT ( 'NONE', #492 ) ;
#189 = PLANE ( 'NONE',  #94 ) ;
#190 = ORIENTED_EDGE ( 'NONE', *, *, #260, .F. ) ;
#191 = CC_DESIGN_PERSON_AND_ORGANIZATION_ASSIGNMENT ( #455, #262, ( #6 ) ) ;
#192 = DIRECTION ( 'NONE',  ( 0.000000000000000000, 0.000000000000000000, 1.000000000000000000 ) ) ;
#193 = VERTEX_POINT ( 'NONE', #488 ) ;
#194 = VECTOR ( 'NONE', #125, 1000.000000000000000 ) ;
#195 = DIRECTION ( 'NONE',  ( 0.000000000000000000, 1.000000000000000000, 0.000000000000000000 ) ) ;
#196 = VERTEX_POINT ( 'NONE', #110 ) ;
#197 = EDGE_CURVE ( 'NONE', #57, #285, #46, .T. ) ;
#198 = DIRECTION ( 'NONE',  ( 0.000000000000000000, 0.000000000000000000, -1.000000000000000000 ) ) ;
#199 = EDGE_LOOP ( 'NONE', ( #363, #359 ) ) ;
#200 = DIRECTION ( 'NONE',  ( 0.000000000000000000, 1.000000000000000000, 0.000000000000000000 ) ) ;
#201 = CARTESIAN_POINT ( 'NONE',  ( 0.000000000000000000, 97.50000000000000000, 0.000000000000000000 ) ) ;
#202 = AXIS2_PLACEMENT_3D ( 'NONE', #328, #180, #112 ) ;
#203 = AXIS2_PLACEMENT_3D ( 'NONE', #463, #383, #120 ) ;
#204 = CIRCLE ( 'NONE', #47, 2.000000000000000000 ) ;
#205 = DATE_TIME_ROLE ( 'creation_date' ) ;
#206 = LINE ( 'NONE', #355, #329 ) ;
#207 = FACE_OUTER_BOUND ( 'NONE', #299, .T. ) ;
#208 = CARTESIAN_POINT ( 'NONE',  ( 0.000000000000000000, 79.29999999999999716, 0.000000000000000000 ) ) ;
#209 = EDGE_CURVE ( 'NONE', #250, #343, #289, .T. ) ;
#210 = PERSON_AND_ORGANIZATION_ROLE ( 'design_owner' ) ;
#211 = ADVANCED_BREP_SHAPE_REPRESENTATION ( 'PIN3_Default_sldprt', ( #420, #229 ), #473 ) ;
#212 = CARTESIAN_POINT ( 'NONE',  ( -3.800999513916957451, 97.69900048608303678, -7.603616793114061245 ) ) ;
#213 = AXIS2_PLACEMENT_3D ( 'NONE', #102, #483, #246 ) ;
#214 = DIRECTION ( 'NONE',  ( 0.000000000000000000, 1.000000000000000000, 0.000000000000000000 ) ) ;
#215 = DIRECTION ( 'NONE',  ( -0.000000000000000000, 1.000000000000000000, -0.000000000000000000 ) ) ;
#216 = CARTESIAN_POINT ( 'NONE',  ( 0.000000000000000000, 97.80000000000001137, 0.000000000000000000 ) ) ;
#217 = DATE_AND_TIME ( #141, #95 ) ;
#218 = CARTESIAN_POINT ( 'NONE',  ( -3.200000000000005063, 98.29999999999999716, 6.928203230275524760 ) ) ;
#219 = AXIS2_PLACEMENT_3D ( 'NONE', #216, #37, #369 ) ;
#220 = PLANE ( 'NONE',  #242 ) ;
#221 = DIRECTION ( 'NONE',  ( 0.000000000000000000, -0.000000000000000000, 1.000000000000000000 ) ) ;
#222 = EDGE_CURVE ( 'NONE', #390, #193, #442, .T. ) ;
#223 = CARTESIAN_POINT ( 'NONE',  ( -3.699999999999991740, 97.80000000000001137, -7.652450587883601330 ) ) ;
#224 = APPLICATION_CONTEXT ( 'configuration controlled 3d designs of mechanical parts and assemblies' ) ;
#225 = ORIENTED_EDGE ( 'NONE', *, *, #183, .F. ) ;
#226 = DIRECTION ( 'NONE',  ( 0.000000000000000000, -0.7071067811865490160, -0.7071067811865460184 ) ) ;
#227 = AXIS2_PLACEMENT_3D ( 'NONE', #263, #378, #68 ) ;
#228 = ORIENTED_EDGE ( 'NONE', *, *, #136, .F. ) ;
#229 = AXIS2_PLACEMENT_3D ( 'NONE', #16, #249, #405 ) ;
#230 = DIRECTION ( 'NONE',  ( 0.000000000000000000, 1.000000000000000000, 0.000000000000000000 ) ) ;
#231 = ORIENTED_EDGE ( 'NONE', *, *, #80, .T. ) ;
#232 = DIRECTION ( 'NONE',  ( 0.000000000000000000, 1.000000000000000000, 0.000000000000000000 ) ) ;
#233 = ORIENTED_EDGE ( 'NONE', *, *, #209, .T. ) ;
#234 = DIRECTION ( 'NONE',  ( 0.000000000000000000, 1.000000000000000000, 0.000000000000000000 ) ) ;
#235 = ORIENTED_EDGE ( 'NONE', *, *, #288, .F. ) ;
#236 = AXIS2_PLACEMENT_3D ( 'NONE', #375, #29, #145 ) ;
#237 = LINE ( 'NONE', #85, #422 ) ;
#238 = EDGE_LOOP ( 'NONE', ( #36, #482 ) ) ;
#239 = DIRECTION ( 'NONE',  ( 0.000000000000000000, 0.7071067811865402453, 0.7071067811865549002 ) ) ;
#240 = COORDINATED_UNIVERSAL_TIME_OFFSET ( 6, 0, .BEHIND. ) ;
#241 = EDGE_LOOP ( 'NONE', ( #119, #92, #434, #179 ) ) ;
#242 = AXIS2_PLACEMENT_3D ( 'NONE', #453, #35, #409 ) ;
#243 = LOCAL_TIME ( 14, 27, 48.00000000000000000, #366 ) ;
#244 = DIRECTION ( 'NONE',  ( 0.000000000000000000, 0.000000000000000000, 1.000000000000000000 ) ) ;
#245 = ADVANCED_FACE ( 'NONE', ( #70 ), #493, .T. ) ;
#246 = DIRECTION ( 'NONE',  ( 0.000000000000000000, 0.000000000000000000, -1.000000000000000000 ) ) ;
#247 = DIRECTION ( 'NONE',  ( 0.000000000000000000, -1.000000000000000000, 0.000000000000000000 ) ) ;
#248 = CARTESIAN_POINT ( 'NONE',  ( 0.000000000000000000, 97.50000000000000000, 2.000000000000002220 ) ) ;
#249 = DIRECTION ( 'NONE',  ( 0.000000000000000000, 0.000000000000000000, 1.000000000000000000 ) ) ;
#250 = VERTEX_POINT ( 'NONE', #34 ) ;
#251 = CIRCLE ( 'NONE', #312, 2.799999999999999822 ) ;
#252 = DIRECTION ( 'NONE',  ( 0.000000000000000000, -1.000000000000000000, 0.000000000000000000 ) ) ;
#253 = CARTESIAN_POINT ( 'NONE',  ( 0.000000000000000000, 97.80000000000001137, 0.000000000000000000 ) ) ;
#254 = CC_DESIGN_PERSON_AND_ORGANIZATION_ASSIGNMENT ( #69, #181, ( #6 ) ) ;
#255 = DIRECTION ( 'NONE',  ( -0.000000000000000000, 1.000000000000000000, -0.000000000000000000 ) ) ;
#256 = APPROVAL_DATE_TIME ( #410, #88 ) ;
#257 = CONICAL_SURFACE ( 'NONE', #431, 2.000000000000002220, 0.7853981633974587151 ) ;
#258 = AXIS2_PLACEMENT_3D ( 'NONE', #362, #131, #280 ) ;
#259 = CARTESIAN_POINT ( 'NONE',  ( 0.000000000000000000, 0.000000000000000000, 0.000000000000000000 ) ) ;
#260 = EDGE_CURVE ( 'NONE', #297, #11, #283, .T. ) ;
#261 = ORIENTED_EDGE ( 'NONE', *, *, #386, .T. ) ;
#262 = PERSON_AND_ORGANIZATION_ROLE ( 'creator' ) ;
#263 = CARTESIAN_POINT ( 'NONE',  ( 0.000000000000000000, 97.50000000000000000, 0.000000000000000000 ) ) ;
#264 = DIRECTION ( 'NONE',  ( 0.000000000000000000, 0.000000000000000000, 1.000000000000000000 ) ) ;
#265 = AXIS2_PLACEMENT_3D ( 'NONE', #208, #360, #18 ) ;
#266 = EDGE_CURVE ( 'NONE', #97, #274, #32, .T. ) ;
#267 = LINE ( 'NONE', #308, #107 ) ;
#268 = ORIENTED_EDGE ( 'NONE', *, *, #349, .T. ) ;
#269 = ORIENTED_EDGE ( 'NONE', *, *, #349, .F. ) ;
#270 = CARTESIAN_POINT ( 'NONE',  ( -3.366043478284318269, 98.13395652171568884, -7.440822084485326116 ) ) ;
#271 = ORIENTED_EDGE ( 'NONE', *, *, #176, .T. ) ;
#272 = CARTESIAN_POINT ( 'NONE',  ( 1.040949779275250140E-15, 0.000000000000000000, 8.500000000000000000 ) ) ;
#273 = EDGE_CURVE ( 'NONE', #188, #382, #146, .T. ) ;
#274 = VERTEX_POINT ( 'NONE', #76 ) ;
#275 = CLOSED_SHELL ( 'NONE', ( #326, #122, #245, #491, #91, #93, #445, #323, #25, #154, #105, #63, #393, #419, #171 ) ) ;
#276 = DIRECTION ( 'NONE',  ( 0.000000000000000000, 0.000000000000000000, -1.000000000000000000 ) ) ;
#277 = ORIENTED_EDGE ( 'NONE', *, *, #404, .F. ) ;
#278 = CALENDAR_DATE ( 2026, 21, 4 ) ;
#279 = CARTESIAN_POINT ( 'NONE',  ( -3.200000000000005063, 98.29999999999999716, -7.332121111929342128 ) ) ;
#280 = DIRECTION ( 'NONE',  ( 0.000000000000000000, 0.000000000000000000, 1.000000000000000000 ) ) ;
#281 = EDGE_CURVE ( 'NONE', #149, #97, #320, .T. ) ;
#282 = DIRECTION ( 'NONE',  ( -0.000000000000000000, 1.000000000000000000, -0.000000000000000000 ) ) ;
#283 = CIRCLE ( 'NONE', #202, 8.500000000000000000 ) ;
#284 = APPROVAL_PERSON_ORGANIZATION ( #71, #394, #106 ) ;
#285 = VERTEX_POINT ( 'NONE', #296 ) ;
#286 = DIRECTION ( 'NONE',  ( 0.000000000000000000, -0.000000000000000000, 1.000000000000000000 ) ) ;
#287 = ORIENTED_EDGE ( 'NONE', *, *, #266, .F. ) ;
#288 = EDGE_CURVE ( 'NONE', #458, #104, #42, .T. ) ;
#289 = LINE ( 'NONE', #339, #485 ) ;
#290 = CIRCLE ( 'NONE', #65, 8.500000000000000000 ) ;
#291 = CONICAL_SURFACE ( 'NONE', #322, 8.000000000000000000, 0.7853981633974460586 ) ;
#292 = PLANE ( 'NONE',  #113 ) ;
#293 = DIRECTION ( 'NONE',  ( 0.000000000000000000, 0.000000000000000000, 1.000000000000000000 ) ) ;
#294 = EDGE_CURVE ( 'NONE', #11, #297, #298, .T. ) ;
#295 = FACE_OUTER_BOUND ( 'NONE', #199, .T. ) ;
#296 = CARTESIAN_POINT ( 'NONE',  ( 2.449293598294706414E-16, 97.50000000000000000, -2.000000000000000000 ) ) ;
#297 = VERTEX_POINT ( 'NONE', #346 ) ;
#298 = LINE ( 'NONE', #96, #194 ) ;
#299 = EDGE_LOOP ( 'NONE', ( #126, #49, #225, #319 ) ) ;
#300 = CARTESIAN_POINT ( 'NONE',  ( 0.000000000000000000, 0.000000000000000000, 0.000000000000000000 ) ) ;
#301 = ORIENTED_EDGE ( 'NONE', *, *, #373, .F. ) ;
#302 = AXIS2_PLACEMENT_3D ( 'NONE', #253, #252, #184 ) ;
#303 = DIRECTION ( 'NONE',  ( 0.000000000000000000, 0.000000000000000000, 1.000000000000000000 ) ) ;
#304 = ORIENTED_EDGE ( 'NONE', *, *, #176, .F. ) ;
#305 = CARTESIAN_POINT ( 'NONE',  ( -3.699999999999998401, 97.80000000000001137, 7.652450587883599553 ) ) ;
#306 = EDGE_LOOP ( 'NONE', ( #8, #287, #309, #86, #396, #462 ) ) ;
#307 = EDGE_CURVE ( 'NONE', #458, #97, #20, .T. ) ;
#308 = CARTESIAN_POINT ( 'NONE',  ( 2.449293598294709373E-16, 97.50000000000000000, -2.000000000000002220 ) ) ;
#309 = ORIENTED_EDGE ( 'NONE', *, *, #281, .F. ) ;
#310 =( NAMED_UNIT ( * ) SI_UNIT ( $, .STERADIAN. ) SOLID_ANGLE_UNIT ( ) );
#311 = ORIENTED_EDGE ( 'NONE', *, *, #73, .T. ) ;
#312 = AXIS2_PLACEMENT_3D ( 'NONE', #391, #232, #303 ) ;
#313 = CIRCLE ( 'NONE', #364, 8.000000000000000000 ) ;
#314 = PERSON_AND_ORGANIZATION ( #487, #337 ) ;
#315 = CARTESIAN_POINT ( 'NONE',  ( 0.000000000000000000, 97.50000000000000000, 0.000000000000000000 ) ) ;
#316 = APPROVAL_STATUS ( 'not_yet_approved' ) ;
#317 = CARTESIAN_POINT ( 'NONE',  ( 0.000000000000000000, 97.50000000000000000, 0.000000000000000000 ) ) ;
#318 = PLANE ( 'NONE',  #444 ) ;
#319 = ORIENTED_EDGE ( 'NONE', *, *, #281, .T. ) ;
#320 = B_SPLINE_CURVE_WITH_KNOTS ( 'NONE', 3,
 ( #115, #48, #270, #432 ),
 .UNSPECIFIED., .F., .F.,
 ( 4, 4 ),
 ( 0.000000000000000000, 0.0007762802156213343329 ),
 .UNSPECIFIED. ) ;
#321 = CONICAL_SURFACE ( 'NONE', #213, 8.000000000000000000, 0.7853981633974460586 ) ;
#322 = AXIS2_PLACEMENT_3D ( 'NONE', #402, #247, #276 ) ;
#323 = ADVANCED_FACE ( 'NONE', ( #118, #147 ), #189, .T. ) ;
#324 =( NAMED_UNIT ( * ) PLANE_ANGLE_UNIT ( ) SI_UNIT ( $, .RADIAN. ) );
#325 = LINE ( 'NONE', #100, #380 ) ;
#326 = ADVANCED_FACE ( 'NONE', ( #421 ), #257, .F. ) ;
#327 = CARTESIAN_POINT ( 'NONE',  ( -3.699999999999991740, 97.80000000000001137, -7.652450587883601330 ) ) ;
#328 = CARTESIAN_POINT ( 'NONE',  ( 8.673617379884035472E-16, 73.29999999999999716, 0.000000000000000000 ) ) ;
#329 = VECTOR ( 'NONE', #103, 1000.000000000000000 ) ;
#330 = CARTESIAN_POINT ( 'NONE',  ( 0.000000000000000000, 79.29999999999999716, 0.000000000000000000 ) ) ;
#331 = ORIENTED_EDGE ( 'NONE', *, *, #260, .T. ) ;
#332 = DIRECTION ( 'NONE',  ( 0.000000000000000000, 0.000000000000000000, 1.000000000000000000 ) ) ;
#333 = CALENDAR_DATE ( 2026, 21, 4 ) ;
#334 = CARTESIAN_POINT ( 'NONE',  ( 0.000000000000000000, 79.29999999999999716, 0.000000000000000000 ) ) ;
#335 = ORIENTED_EDGE ( 'NONE', *, *, #50, .T. ) ;
#336 = AXIS2_PLACEMENT_3D ( 'NONE', #317, #403, #174 ) ;
#337 = ORGANIZATION ( 'UNSPECIFIED', 'UNSPECIFIED', '' ) ;
#338 = CC_DESIGN_DATE_AND_TIME_ASSIGNMENT ( #56, #205, ( #441 ) ) ;
#339 = CARTESIAN_POINT ( 'NONE',  ( -4.000000000000000000, 97.50000000000000000, -6.928203230275524760 ) ) ;
#340 = CARTESIAN_POINT ( 'NONE',  ( -4.000000000000000000, 73.29999999999999716, -7.500000000000000888 ) ) ;
#341 = ORIENTED_EDGE ( 'NONE', *, *, #373, .T. ) ;
#342 = CARTESIAN_POINT ( 'NONE',  ( 0.000000000000000000, 97.50000000000000000, 0.000000000000000000 ) ) ;
#343 = VERTEX_POINT ( 'NONE', #51 ) ;
#344 =( BOUNDED_CURVE ( )  B_SPLINE_CURVE ( 3, ( #481, #173, #212, #327 ),
 .UNSPECIFIED., .F., .F. ) 
 B_SPLINE_CURVE_WITH_KNOTS ( ( 4, 4 ),
 ( 1.080839000541168327, 1.120431383082524102 ),
 .UNSPECIFIED. ) 
 CURVE ( )  GEOMETRIC_REPRESENTATION_ITEM ( )  RATIONAL_B_SPLINE_CURVE ( ( 1.000000000000000000, 0.9998693745363673724, 0.9998693745363673724, 1.000000000000000000 ) ) 
 REPRESENTATION_ITEM ( '' )  );
#345 = VECTOR ( 'NONE', #282, 1000.000000000000000 ) ;
#346 = CARTESIAN_POINT ( 'NONE',  ( -4.000000000000000000, 73.29999999999999716, -7.500000000000000888 ) ) ;
#347 = LOCAL_TIME ( 14, 27, 48.00000000000000000, #129 ) ;
#348 = ORIENTED_EDGE ( 'NONE', *, *, #365, .T. ) ;
#349 = EDGE_CURVE ( 'NONE', #390, #382, #40, .T. ) ;
#350 = CARTESIAN_POINT ( 'NONE',  ( -3.800999513916957451, 97.69900048608303678, 7.603616793114061245 ) ) ;
#351 = ORIENTED_EDGE ( 'NONE', *, *, #12, .F. ) ;
#352 = B_SPLINE_CURVE_WITH_KNOTS ( 'NONE', 3,
 ( #448, #182, #417, #450 ),
 .UNSPECIFIED., .F., .F.,
 ( 4, 4 ),
 ( 0.000000000000000000, 0.0007762802156213388866 ),
 .UNSPECIFIED. ) ;
#353 = CARTESIAN_POINT ( 'NONE',  ( 1.040949779275250140E-15, 97.50000000000000000, 8.500000000000000000 ) ) ;
#354 = ORIENTED_EDGE ( 'NONE', *, *, #357, .F. ) ;
#355 = CARTESIAN_POINT ( 'NONE',  ( 2.449293598294706414E-16, 79.29999999999999716, -2.000000000000000000 ) ) ;
#356 = APPROVAL_PERSON_ORGANIZATION ( #166, #88, #477 ) ;
#357 = EDGE_CURVE ( 'NONE', #382, #188, #290, .T. ) ;
#358 = APPROVAL_DATE_TIME ( #397, #426 ) ;
#359 = ORIENTED_EDGE ( 'NONE', *, *, #457, .T. ) ;
#360 = DIRECTION ( 'NONE',  ( 0.000000000000000000, 1.000000000000000000, 0.000000000000000000 ) ) ;
#361 = EDGE_CURVE ( 'NONE', #274, #425, #407, .T. ) ;
#362 = CARTESIAN_POINT ( 'NONE',  ( 0.000000000000000000, 98.29999999999999716, 0.000000000000000000 ) ) ;
#363 = ORIENTED_EDGE ( 'NONE', *, *, #39, .T. ) ;
#364 = AXIS2_PLACEMENT_3D ( 'NONE', #400, #214, #395 ) ;
#365 = EDGE_CURVE ( 'NONE', #193, #250, #467, .T. ) ;
#366 = COORDINATED_UNIVERSAL_TIME_OFFSET ( 6, 0, .BEHIND. ) ;
#367 = FACE_OUTER_BOUND ( 'NONE', #460, .T. ) ;
#368 = SECURITY_CLASSIFICATION_LEVEL ( 'unclassified' ) ;
#369 = DIRECTION ( 'NONE',  ( 0.000000000000000000, 0.000000000000000000, -1.000000000000000000 ) ) ;
#370 = APPROVAL_STATUS ( 'not_yet_approved' ) ;
#371 = DIRECTION ( 'NONE',  ( 0.000000000000000000, 0.000000000000000000, -1.000000000000000000 ) ) ;
#372 = CC_DESIGN_PERSON_AND_ORGANIZATION_ASSIGNMENT ( #314, #475, ( #441 ) ) ;
#373 = EDGE_CURVE ( 'NONE', #297, #343, #157, .T. ) ;
#374 = VECTOR ( 'NONE', #239, 1000.000000000000114 ) ;
#375 = CARTESIAN_POINT ( 'NONE',  ( 0.000000000000000000, 98.30000000000001137, 0.000000000000000000 ) ) ;
#376 = EDGE_CURVE ( 'NONE', #401, #196, #251, .T. ) ;
#377 = CARTESIAN_POINT ( 'NONE',  ( 0.000000000000000000, 97.80000000000001137, -8.500000000000000000 ) ) ;
#378 = DIRECTION ( 'NONE',  ( -0.000000000000000000, -1.000000000000000000, -0.000000000000000000 ) ) ;
#379 = DESIGN_CONTEXT ( 'detailed design', #24, 'design' ) ;
#380 = VECTOR ( 'NONE', #215, 1000.000000000000000 ) ;
#381 = DIRECTION ( 'NONE',  ( 0.000000000000000000, 0.000000000000000000, 1.000000000000000000 ) ) ;
#382 = VERTEX_POINT ( 'NONE', #272 ) ;
#383 = DIRECTION ( 'NONE',  ( 0.000000000000000000, 1.000000000000000000, 0.000000000000000000 ) ) ;
#384 = ORIENTED_EDGE ( 'NONE', *, *, #273, .F. ) ;
#385 = PLANE ( 'NONE',  #203 ) ;
#386 = EDGE_CURVE ( 'NONE', #285, #196, #267, .T. ) ;
#387 = ORIENTED_EDGE ( 'NONE', *, *, #361, .T. ) ;
#388 = AXIS2_PLACEMENT_3D ( 'NONE', #315, #406, #66 ) ;
#389 = CARTESIAN_POINT ( 'NONE',  ( 0.000000000000000000, 98.29999999999999716, 2.800000000000014033 ) ) ;
#390 = VERTEX_POINT ( 'NONE', #424 ) ;
#391 = CARTESIAN_POINT ( 'NONE',  ( 0.000000000000000000, 98.29999999999999716, 0.000000000000000000 ) ) ;
#392 = ORIENTED_EDGE ( 'NONE', *, *, #435, .T. ) ;
#393 = ADVANCED_FACE ( 'NONE', ( #116 ), #1, .F. ) ;
#394 = APPROVAL ( #370, 'UNSPECIFIED' ) ;
#395 = DIRECTION ( 'NONE',  ( 0.000000000000000000, 0.000000000000000000, 1.000000000000000000 ) ) ;
#396 = ORIENTED_EDGE ( 'NONE', *, *, #209, .F. ) ;
#397 = DATE_AND_TIME ( #15, #55 ) ;
#398 = AXIS2_PLACEMENT_3D ( 'NONE', #330, #175, #332 ) ;
#399 = ORIENTED_EDGE ( 'NONE', *, *, #39, .F. ) ;
#400 = CARTESIAN_POINT ( 'NONE',  ( 0.000000000000000000, 98.29999999999999716, 0.000000000000000000 ) ) ;
#401 = VERTEX_POINT ( 'NONE', #389 ) ;
#402 = CARTESIAN_POINT ( 'NONE',  ( 0.000000000000000000, 98.30000000000001137, 0.000000000000000000 ) ) ;
#403 = DIRECTION ( 'NONE',  ( -0.000000000000000000, -1.000000000000000000, -0.000000000000000000 ) ) ;
#404 = EDGE_CURVE ( 'NONE', #425, #390, #237, .T. ) ;
#405 = DIRECTION ( 'NONE',  ( 1.000000000000000000, 0.000000000000000000, 0.000000000000000000 ) ) ;
#406 = DIRECTION ( 'NONE',  ( -0.000000000000000000, -1.000000000000000000, -0.000000000000000000 ) ) ;
#407 = CIRCLE ( 'NONE', #185, 8.000000000000000000 ) ;
#408 = CALENDAR_DATE ( 2026, 21, 4 ) ;
#409 = DIRECTION ( 'NONE',  ( 0.000000000000000000, 0.000000000000000000, 1.000000000000000000 ) ) ;
#410 = DATE_AND_TIME ( #333, #243 ) ;
#411 = CC_DESIGN_PERSON_AND_ORGANIZATION_ASSIGNMENT ( #60, #210, ( #62 ) ) ;
#412 = DIRECTION ( 'NONE',  ( 0.000000000000000000, 0.000000000000000000, -1.000000000000000000 ) ) ;
#413 = DIRECTION ( 'NONE',  ( 0.000000000000000000, 0.000000000000000000, 1.000000000000000000 ) ) ;
#414 = VECTOR ( 'NONE', #293, 1000.000000000000000 ) ;
#415 = SHAPE_DEFINITION_REPRESENTATION ( #30, #211 ) ;
#416 = DIRECTION ( 'NONE',  ( 0.000000000000000000, 1.000000000000000000, 0.000000000000000000 ) ) ;
#417 = CARTESIAN_POINT ( 'NONE',  ( -3.532742441607320760, 97.96725755839267435, 7.547538276322157458 ) ) ;
#418 = ORIENTED_EDGE ( 'NONE', *, *, #160, .T. ) ;
#419 = ADVANCED_FACE ( 'NONE', ( #81 ), #385, .T. ) ;
#420 = MANIFOLD_SOLID_BREP ( 'Chamfer3', #275 ) ;
#421 = FACE_OUTER_BOUND ( 'NONE', #451, .T. ) ;
#422 = VECTOR ( 'NONE', #123, 1000.000000000000114 ) ;
#423 = CIRCLE ( 'NONE', #258, 2.799999999999999822 ) ;
#424 = CARTESIAN_POINT ( 'NONE',  ( 1.040949779275250140E-15, 97.80000000000001137, 8.500000000000000000 ) ) ;
#425 = VERTEX_POINT ( 'NONE', #87 ) ;
#426 = APPROVAL ( #436, 'UNSPECIFIED' ) ;
#427 = CARTESIAN_POINT ( 'NONE',  ( -4.000000000000000000, 73.29999999999999716, 1.469576158976823306E-16 ) ) ;
#428 = ORIENTED_EDGE ( 'NONE', *, *, #273, .T. ) ;
#429 = DIRECTION ( 'NONE',  ( 0.000000000000000000, 1.000000000000000000, 0.000000000000000000 ) ) ;
#430 = ORIENTED_EDGE ( 'NONE', *, *, #307, .T. ) ;
#431 = AXIS2_PLACEMENT_3D ( 'NONE', #342, #429, #381 ) ;
#432 = CARTESIAN_POINT ( 'NONE',  ( -3.200000000000005063, 98.29999999999999716, -7.332121111929342128 ) ) ;
#433 = CC_DESIGN_APPROVAL ( #426, ( #441 ) ) ;
#434 = ORIENTED_EDGE ( 'NONE', *, *, #12, .T. ) ;
#435 = EDGE_CURVE ( 'NONE', #196, #401, #423, .T. ) ;
#436 = APPROVAL_STATUS ( 'not_yet_approved' ) ;
#437 = ORIENTED_EDGE ( 'NONE', *, *, #404, .T. ) ;
#438 = MECHANICAL_CONTEXT ( 'NONE', #224, 'mechanical' ) ;
#439 = FACE_OUTER_BOUND ( 'NONE', #41, .T. ) ;
#440 = DIRECTION ( 'NONE',  ( -0.000000000000000000, -1.000000000000000000, -0.000000000000000000 ) ) ;
#441 = PRODUCT_DEFINITION ( 'UNKNOWN', '', #6, #379 ) ;
#442 = CIRCLE ( 'NONE', #219, 8.500000000000000000 ) ;
#443 = LINE ( 'NONE', #248, #374 ) ;
#444 = AXIS2_PLACEMENT_3D ( 'NONE', #169, #200, #286 ) ;
#445 = ADVANCED_FACE ( 'NONE', ( #101 ), #318, .F. ) ;
#446 = CARTESIAN_POINT ( 'NONE',  ( 0.000000000000000000, 79.29999999999999716, 2.000000000000000000 ) ) ;
#447 = CARTESIAN_POINT ( 'NONE',  ( 0.000000000000000000, 97.50000000000000000, 2.000000000000000000 ) ) ;
#448 = CARTESIAN_POINT ( 'NONE',  ( -3.200000000000005063, 98.29999999999999716, 7.332121111929342128 ) ) ;
#449 = AXIS2_PLACEMENT_3D ( 'NONE', #201, #167, #165 ) ;
#450 = CARTESIAN_POINT ( 'NONE',  ( -3.699999999999998401, 97.80000000000001137, 7.652450587883599553 ) ) ;
#451 = EDGE_LOOP ( 'NONE', ( #151, #261, #392, #351 ) ) ;
#452 = DIRECTION ( 'NONE',  ( -0.000000000000000000, -1.000000000000000000, -0.000000000000000000 ) ) ;
#453 = CARTESIAN_POINT ( 'NONE',  ( -4.000000000000000000, 97.50000000000000000, 1.469576158976823306E-16 ) ) ;
#454 = CIRCLE ( 'NONE', #302, 8.500000000000000000 ) ;
#455 = PERSON_AND_ORGANIZATION ( #487, #337 ) ;
#456 = CYLINDRICAL_SURFACE ( 'NONE', #398, 2.000000000000000000 ) ;
#457 = EDGE_CURVE ( 'NONE', #4, #13, #114, .T. ) ;
#458 = VERTEX_POINT ( 'NONE', #98 ) ;
#459 = CARTESIAN_POINT ( 'NONE',  ( 0.000000000000000000, 98.29999999999999716, 0.000000000000000000 ) ) ;
#460 = EDGE_LOOP ( 'NONE', ( #269, #156, #348, #124, #190, #341, #335, #43, #134, #428 ) ) ;
#461 = DIRECTION ( 'NONE',  ( -0.000000000000000000, 1.000000000000000000, -0.000000000000000000 ) ) ;
#462 = ORIENTED_EDGE ( 'NONE', *, *, #365, .F. ) ;
#463 = CARTESIAN_POINT ( 'NONE',  ( 8.673617379884035472E-16, 73.29999999999999716, 0.000000000000000000 ) ) ;
#464 = EDGE_LOOP ( 'NONE', ( #158, #231, #45, #33 ) ) ;
#465 = CARTESIAN_POINT ( 'NONE',  ( -3.901012578169847700, 97.59898742183014519, 7.552793291642750262 ) ) ;
#466 = EDGE_LOOP ( 'NONE', ( #22, #331 ) ) ;
#467 =( BOUNDED_CURVE ( )  B_SPLINE_CURVE ( 3, ( #305, #350, #465, #44 ),
 .UNSPECIFIED., .F., .F. ) 
 B_SPLINE_CURVE_WITH_KNOTS ( ( 4, 4 ),
 ( 5.162753924097062352, 5.202346306638418127 ),
 .UNSPECIFIED. ) 
 CURVE ( )  GEOMETRIC_REPRESENTATION_ITEM ( )  RATIONAL_B_SPLINE_CURVE ( ( 1.000000000000000000, 0.9998693745363673724, 0.9998693745363673724, 1.000000000000000000 ) ) 
 REPRESENTATION_ITEM ( '' )  );
#468 = DIRECTION ( 'NONE',  ( 1.000000000000000000, 0.000000000000000000, 0.000000000000000000 ) ) ;
#469 = EDGE_CURVE ( 'NONE', #285, #57, #204, .T. ) ;
#470 = ORIENTED_EDGE ( 'NONE', *, *, #266, .T. ) ;
#471 = VECTOR ( 'NONE', #461, 1000.000000000000000 ) ;
#472 = PERSON_AND_ORGANIZATION ( #487, #337 ) ;
#473 =( GEOMETRIC_REPRESENTATION_CONTEXT ( 3 ) GLOBAL_UNCERTAINTY_ASSIGNED_CONTEXT ( ( #21 ) ) GLOBAL_UNIT_ASSIGNED_CONTEXT ( ( #164, #324, #310 ) ) REPRESENTATION_CONTEXT ( 'NONE', 'WORKASPACE' ) );
#474 = ORIENTED_EDGE ( 'NONE', *, *, #9, .T. ) ;
#475 = PERSON_AND_ORGANIZATION_ROLE ( 'creator' ) ;
#476 = ORIENTED_EDGE ( 'NONE', *, *, #357, .T. ) ;
#477 = APPROVAL_ROLE ( '' ) ;
#478 = CARTESIAN_POINT ( 'NONE',  ( 2.449293598294706414E-16, 79.29999999999999716, -2.000000000000000000 ) ) ;
#479 = EDGE_CURVE ( 'NONE', #425, #458, #313, .T. ) ;
#480 = AXIS2_PLACEMENT_3D ( 'NONE', #7, #234, #264 ) ;
#481 = CARTESIAN_POINT ( 'NONE',  ( -4.000000000000000000, 97.50000000000000000, -7.500000000000000888 ) ) ;
#482 = ORIENTED_EDGE ( 'NONE', *, *, #435, .F. ) ;
#483 = DIRECTION ( 'NONE',  ( 0.000000000000000000, -1.000000000000000000, 0.000000000000000000 ) ) ;
#484 = FACE_OUTER_BOUND ( 'NONE', #464, .T. ) ;
#485 = VECTOR ( 'NONE', #412, 1000.000000000000000 ) ;
#486 = CIRCLE ( 'NONE', #152, 8.500000000000000000 ) ;
#487 = PERSON ( 'UNSPECIFIED', 'UNSPECIFIED', 'UNSPECIFIED', ('UNSPECIFIED'), ('UNSPECIFIED'), ('UNSPECIFIED') ) ;
#488 = CARTESIAN_POINT ( 'NONE',  ( -3.699999999999998401, 97.80000000000001137, 7.652450587883599553 ) ) ;
#489 = PRODUCT_RELATED_PRODUCT_CATEGORY ( 'detail', '', ( #62 ) ) ;
#490 = LINE ( 'NONE', #144, #38 ) ;
#491 = ADVANCED_FACE ( 'NONE', ( #207 ), #291, .T. ) ;
#492 = CARTESIAN_POINT ( 'NONE',  ( 0.000000000000000000, 0.000000000000000000, -8.500000000000000000 ) ) ;
#493 = CONICAL_SURFACE ( 'NONE', #236, 8.000000000000000000, 0.7853981633974460586 ) ;
#494 = FACE_OUTER_BOUND ( 'NONE', #306, .T. ) ;
ENDSEC;
END-ISO-10303-21;
