ISO-10303-21;
HEADER;
FILE_DESCRIPTION (( 'STEP AP203' ),
    '1' );
FILE_NAME ('Segurito_Predeterminado_sldprt.STEP',
    '2026-04-21T20:27:52',
    ( '' ),
    ( '' ),
    'SwSTEP 2.0',
    'SolidWorks 2025',
    '' );
FILE_SCHEMA (( 'CONFIG_CONTROL_DESIGN' ));
ENDSEC;

DATA;
#1 = ORIENTED_EDGE ( 'NONE', *, *, #136, .T. ) ;
#2 = CC_DESIGN_APPROVAL ( #108, ( #120 ) ) ;
#3 = CALENDAR_DATE ( 2026, 21, 4 ) ;
#4 = COORDINATED_UNIVERSAL_TIME_OFFSET ( 6, 0, .BEHIND. ) ;
#5 = ADVANCED_BREP_SHAPE_REPRESENTATION ( 'Segurito_Predeterminado_sldprt', ( #91, #95 ), #135 ) ;
#6 = CIRCLE ( 'NONE', #134, 1.399999999999999911 ) ;
#7 = CARTESIAN_POINT ( 'NONE',  ( 1.399999999999999911, 1.714505518806294391E-16, 11.00000000000000000 ) ) ;
#8 = AXIS2_PLACEMENT_3D ( 'NONE', #28, #81, #10 ) ;
#9 = DIRECTION ( 'NONE',  ( -0.000000000000000000, -0.000000000000000000, -1.000000000000000000 ) ) ;
#10 = DIRECTION ( 'NONE',  ( 1.000000000000000000, 0.000000000000000000, 0.000000000000000000 ) ) ;
#11 = ORGANIZATION ( 'UNSPECIFIED', 'UNSPECIFIED', '' ) ;
#12 = CARTESIAN_POINT ( 'NONE',  ( 0.000000000000000000, 0.000000000000000000, 0.000000000000000000 ) ) ;
#13 = ORIENTED_EDGE ( 'NONE', *, *, #76, .F. ) ;
#14 = CYLINDRICAL_SURFACE ( 'NONE', #168, 1.399999999999999911 ) ;
#15 = CALENDAR_DATE ( 2026, 21, 4 ) ;
#16 = PERSON_AND_ORGANIZATION ( #109, #11 ) ;
#17 = LINE ( 'NONE', #36, #152 ) ;
#18 = DATE_TIME_ROLE ( 'creation_date' ) ;
#19 = CIRCLE ( 'NONE', #30, 1.399999999999999911 ) ;
#20 = PRODUCT ( 'Segurito_Predeterminado_sldprt', 'Segurito_Predeterminado_sldprt', '', ( #124 ) ) ;
#21 = COORDINATED_UNIVERSAL_TIME_OFFSET ( 6, 0, .BEHIND. ) ;
#22 = ADVANCED_FACE ( 'NONE', ( #118 ), #88, .F. ) ;
#23 = ORIENTED_EDGE ( 'NONE', *, *, #171, .T. ) ;
#24 = CLOSED_SHELL ( 'NONE', ( #156, #86, #99, #22 ) ) ;
#25 =( NAMED_UNIT ( * ) PLANE_ANGLE_UNIT ( ) SI_UNIT ( $, .RADIAN. ) );
#26 = CC_DESIGN_DATE_AND_TIME_ASSIGNMENT ( #163, #18, ( #90 ) ) ;
#27 = DIRECTION ( 'NONE',  ( 1.000000000000000000, 0.000000000000000000, 0.000000000000000000 ) ) ;
#28 = CARTESIAN_POINT ( 'NONE',  ( 0.000000000000000000, 0.000000000000000000, 0.000000000000000000 ) ) ;
#29 = CARTESIAN_POINT ( 'NONE',  ( 0.000000000000000000, 0.000000000000000000, 11.00000000000000000 ) ) ;
#30 = AXIS2_PLACEMENT_3D ( 'NONE', #132, #85, #146 ) ;
#31 = VERTEX_POINT ( 'NONE', #48 ) ;
#32 = VERTEX_POINT ( 'NONE', #100 ) ;
#33 = COORDINATED_UNIVERSAL_TIME_OFFSET ( 6, 0, .BEHIND. ) ;
#34 = PERSON_AND_ORGANIZATION ( #109, #11 ) ;
#35 = DATE_AND_TIME ( #37, #87 ) ;
#36 = CARTESIAN_POINT ( 'NONE',  ( 1.399999999999999911, 1.714505518806294391E-16, 11.00000000000000000 ) ) ;
#37 = CALENDAR_DATE ( 2026, 21, 4 ) ;
#38 = PERSON_AND_ORGANIZATION_ROLE ( 'classification_officer' ) ;
#39 = ORIENTED_EDGE ( 'NONE', *, *, #136, .F. ) ;
#40 = COORDINATED_UNIVERSAL_TIME_OFFSET ( 6, 0, .BEHIND. ) ;
#41 =( LENGTH_UNIT ( ) NAMED_UNIT ( * ) SI_UNIT ( .MILLI., .METRE. ) );
#42 = CC_DESIGN_PERSON_AND_ORGANIZATION_ASSIGNMENT ( #101, #115, ( #20 ) ) ;
#43 = APPROVAL_PERSON_ORGANIZATION ( #34, #60, #144 ) ;
#44 = LINE ( 'NONE', #138, #133 ) ;
#45 = LOCAL_TIME ( 14, 27, 52.00000000000000000, #107 ) ;
#46 = CARTESIAN_POINT ( 'NONE',  ( 0.000000000000000000, 0.000000000000000000, 11.00000000000000000 ) ) ;
#47 = CC_DESIGN_PERSON_AND_ORGANIZATION_ASSIGNMENT ( #92, #150, ( #120 ) ) ;
#48 = CARTESIAN_POINT ( 'NONE',  ( 1.399999999999999911, 1.714505518806294391E-16, 0.000000000000000000 ) ) ;
#49 = DIRECTION ( 'NONE',  ( -0.000000000000000000, -0.000000000000000000, -1.000000000000000000 ) ) ;
#50 = PERSON_AND_ORGANIZATION ( #109, #11 ) ;
#51 = DATE_AND_TIME ( #119, #98 ) ;
#52 = PERSON_AND_ORGANIZATION ( #109, #11 ) ;
#53 = APPROVAL_STATUS ( 'not_yet_approved' ) ;
#54 = CIRCLE ( 'NONE', #8, 1.399999999999999911 ) ;
#55 = FACE_OUTER_BOUND ( 'NONE', #59, .T. ) ;
#56 = AXIS2_PLACEMENT_3D ( 'NONE', #29, #97, #153 ) ;
#57 = FACE_OUTER_BOUND ( 'NONE', #78, .T. ) ;
#58 = PRODUCT_RELATED_PRODUCT_CATEGORY ( 'detail', '', ( #20 ) ) ;
#59 = EDGE_LOOP ( 'NONE', ( #1, #172 ) ) ;
#60 = APPROVAL ( #159, 'UNSPECIFIED' ) ;
#61 = UNCERTAINTY_MEASURE_WITH_UNIT (LENGTH_MEASURE( 1.000000000000000082E-05 ), #41, 'distance_accuracy_value', 'NONE');
#62 = ORIENTED_EDGE ( 'NONE', *, *, #131, .T. ) ;
#63 = ORIENTED_EDGE ( 'NONE', *, *, #76, .T. ) ;
#64 = APPROVAL_DATE_TIME ( #173, #60 ) ;
#65 = DIRECTION ( 'NONE',  ( 0.000000000000000000, 0.000000000000000000, 1.000000000000000000 ) ) ;
#66 = CALENDAR_DATE ( 2026, 21, 4 ) ;
#67 = APPLICATION_CONTEXT ( 'configuration controlled 3d designs of mechanical parts and assemblies' ) ;
#68 = EDGE_CURVE ( 'NONE', #32, #31, #19, .T. ) ;
#69 = DIRECTION ( 'NONE',  ( 0.000000000000000000, 0.000000000000000000, 1.000000000000000000 ) ) ;
#70 = CC_DESIGN_DATE_AND_TIME_ASSIGNMENT ( #147, #165, ( #142 ) ) ;
#71 = DIRECTION ( 'NONE',  ( 0.000000000000000000, 0.000000000000000000, 1.000000000000000000 ) ) ;
#72 = ORIENTED_EDGE ( 'NONE', *, *, #117, .F. ) ;
#73 = CARTESIAN_POINT ( 'NONE',  ( 0.000000000000000000, 0.000000000000000000, 11.00000000000000000 ) ) ;
#74 = EDGE_LOOP ( 'NONE', ( #125, #123 ) ) ;
#75 = APPROVAL_DATE_TIME ( #51, #108 ) ;
#76 = EDGE_CURVE ( 'NONE', #94, #31, #17, .T. ) ;
#77 = APPROVAL_PERSON_ORGANIZATION ( #149, #89, #103 ) ;
#78 = EDGE_LOOP ( 'NONE', ( #72, #63, #23, #114 ) ) ;
#79 = APPROVAL_ROLE ( '' ) ;
#80 = PLANE ( 'NONE',  #56 ) ;
#81 = DIRECTION ( 'NONE',  ( 0.000000000000000000, 0.000000000000000000, 1.000000000000000000 ) ) ;
#82 = APPROVAL_PERSON_ORGANIZATION ( #52, #108, #79 ) ;
#83 = DIRECTION ( 'NONE',  ( 0.000000000000000000, 0.000000000000000000, 1.000000000000000000 ) ) ;
#84 = VERTEX_POINT ( 'NONE', #160 ) ;
#85 = DIRECTION ( 'NONE',  ( 0.000000000000000000, 0.000000000000000000, 1.000000000000000000 ) ) ;
#86 = ADVANCED_FACE ( 'NONE', ( #127 ), #14, .T. ) ;
#87 = LOCAL_TIME ( 14, 27, 52.00000000000000000, #40 ) ;
#88 = PLANE ( 'NONE',  #130 ) ;
#89 = APPROVAL ( #53, 'UNSPECIFIED' ) ;
#90 = PRODUCT_DEFINITION ( 'UNKNOWN', '', #120, #111 ) ;
#91 = MANIFOLD_SOLID_BREP ( 'Saliente-Extruir1', #24 ) ;
#92 = PERSON_AND_ORGANIZATION ( #109, #11 ) ;
#93 = PERSON_AND_ORGANIZATION_ROLE ( 'design_supplier' ) ;
#94 = VERTEX_POINT ( 'NONE', #7 ) ;
#95 = AXIS2_PLACEMENT_3D ( 'NONE', #12, #83, #122 ) ;
#96 = APPLICATION_CONTEXT ( 'configuration controlled 3d designs of mechanical parts and assemblies' ) ;
#97 = DIRECTION ( 'NONE',  ( 0.000000000000000000, 0.000000000000000000, 1.000000000000000000 ) ) ;
#98 = LOCAL_TIME ( 14, 27, 52.00000000000000000, #21 ) ;
#99 = ADVANCED_FACE ( 'NONE', ( #55 ), #80, .T. ) ;
#100 = CARTESIAN_POINT ( 'NONE',  ( -1.399999999999999911, 0.000000000000000000, 0.000000000000000000 ) ) ;
#101 = PERSON_AND_ORGANIZATION ( #109, #11 ) ;
#102 = DIRECTION ( 'NONE',  ( -1.000000000000000000, 0.000000000000000000, 0.000000000000000000 ) ) ;
#103 = APPROVAL_ROLE ( '' ) ;
#104 = APPROVAL_STATUS ( 'not_yet_approved' ) ;
#105 = SHAPE_DEFINITION_REPRESENTATION ( #164, #5 ) ;
#106 = LOCAL_TIME ( 14, 27, 52.00000000000000000, #33 ) ;
#107 = COORDINATED_UNIVERSAL_TIME_OFFSET ( 6, 0, .BEHIND. ) ;
#108 = APPROVAL ( #104, 'UNSPECIFIED' ) ;
#109 = PERSON ( 'UNSPECIFIED', 'UNSPECIFIED', 'UNSPECIFIED', ('UNSPECIFIED'), ('UNSPECIFIED'), ('UNSPECIFIED') ) ;
#110 = CARTESIAN_POINT ( 'NONE',  ( 0.000000000000000000, 0.000000000000000000, 11.00000000000000000 ) ) ;
#111 = DESIGN_CONTEXT ( 'detailed design', #67, 'design' ) ;
#112 = APPLICATION_PROTOCOL_DEFINITION ( 'international standard', 'config_control_design', 1994, #96 ) ;
#113 = CC_DESIGN_SECURITY_CLASSIFICATION ( #142, ( #120 ) ) ;
#114 = ORIENTED_EDGE ( 'NONE', *, *, #131, .F. ) ;
#115 = PERSON_AND_ORGANIZATION_ROLE ( 'design_owner' ) ;
#116 = DIRECTION ( 'NONE',  ( -0.000000000000000000, -0.000000000000000000, -1.000000000000000000 ) ) ;
#117 = EDGE_CURVE ( 'NONE', #94, #84, #137, .T. ) ;
#118 = FACE_OUTER_BOUND ( 'NONE', #74, .T. ) ;
#119 = CALENDAR_DATE ( 2026, 21, 4 ) ;
#120 = PRODUCT_DEFINITION_FORMATION_WITH_SPECIFIED_SOURCE ( 'ANY', '', #20, .NOT_KNOWN. ) ;
#121 = AXIS2_PLACEMENT_3D ( 'NONE', #166, #71, #27 ) ;
#122 = DIRECTION ( 'NONE',  ( 1.000000000000000000, 0.000000000000000000, 0.000000000000000000 ) ) ;
#123 = ORIENTED_EDGE ( 'NONE', *, *, #171, .F. ) ;
#124 = MECHANICAL_CONTEXT ( 'NONE', #96, 'mechanical' ) ;
#125 = ORIENTED_EDGE ( 'NONE', *, *, #68, .F. ) ;
#126 = LOCAL_TIME ( 14, 27, 52.00000000000000000, #4 ) ;
#127 = FACE_OUTER_BOUND ( 'NONE', #151, .T. ) ;
#128 = APPROVAL_DATE_TIME ( #35, #89 ) ;
#129 = DIRECTION ( 'NONE',  ( -0.000000000000000000, -0.000000000000000000, -1.000000000000000000 ) ) ;
#130 = AXIS2_PLACEMENT_3D ( 'NONE', #174, #65, #158 ) ;
#131 = EDGE_CURVE ( 'NONE', #84, #32, #44, .T. ) ;
#132 = CARTESIAN_POINT ( 'NONE',  ( 0.000000000000000000, 0.000000000000000000, 0.000000000000000000 ) ) ;
#133 = VECTOR ( 'NONE', #9, 1000.000000000000000 ) ;
#134 = AXIS2_PLACEMENT_3D ( 'NONE', #46, #69, #169 ) ;
#135 =( GEOMETRIC_REPRESENTATION_CONTEXT ( 3 ) GLOBAL_UNCERTAINTY_ASSIGNED_CONTEXT ( ( #61 ) ) GLOBAL_UNIT_ASSIGNED_CONTEXT ( ( #41, #25, #157 ) ) REPRESENTATION_CONTEXT ( 'NONE', 'WORKASPACE' ) );
#136 = EDGE_CURVE ( 'NONE', #84, #94, #6, .T. ) ;
#137 = CIRCLE ( 'NONE', #121, 1.399999999999999911 ) ;
#138 = CARTESIAN_POINT ( 'NONE',  ( -1.399999999999999911, 0.000000000000000000, 11.00000000000000000 ) ) ;
#139 = CYLINDRICAL_SURFACE ( 'NONE', #140, 1.399999999999999911 ) ;
#140 = AXIS2_PLACEMENT_3D ( 'NONE', #110, #129, #154 ) ;
#141 = PERSON_AND_ORGANIZATION_ROLE ( 'creator' ) ;
#142 = SECURITY_CLASSIFICATION ( '', '', #175 ) ;
#143 = ORIENTED_EDGE ( 'NONE', *, *, #68, .T. ) ;
#144 = APPROVAL_ROLE ( '' ) ;
#145 = APPLICATION_PROTOCOL_DEFINITION ( 'international standard', 'config_control_design', 1994, #67 ) ;
#146 = DIRECTION ( 'NONE',  ( 1.000000000000000000, 0.000000000000000000, 0.000000000000000000 ) ) ;
#147 = DATE_AND_TIME ( #3, #45 ) ;
#148 = CC_DESIGN_PERSON_AND_ORGANIZATION_ASSIGNMENT ( #161, #93, ( #120 ) ) ;
#149 = PERSON_AND_ORGANIZATION ( #109, #11 ) ;
#150 = PERSON_AND_ORGANIZATION_ROLE ( 'creator' ) ;
#151 = EDGE_LOOP ( 'NONE', ( #13, #39, #62, #143 ) ) ;
#152 = VECTOR ( 'NONE', #116, 1000.000000000000000 ) ;
#153 = DIRECTION ( 'NONE',  ( 1.000000000000000000, 0.000000000000000000, -0.000000000000000000 ) ) ;
#154 = DIRECTION ( 'NONE',  ( -1.000000000000000000, 0.000000000000000000, 0.000000000000000000 ) ) ;
#155 = CC_DESIGN_APPROVAL ( #89, ( #142 ) ) ;
#156 = ADVANCED_FACE ( 'NONE', ( #57 ), #139, .T. ) ;
#157 =( NAMED_UNIT ( * ) SI_UNIT ( $, .STERADIAN. ) SOLID_ANGLE_UNIT ( ) );
#158 = DIRECTION ( 'NONE',  ( 1.000000000000000000, 0.000000000000000000, -0.000000000000000000 ) ) ;
#159 = APPROVAL_STATUS ( 'not_yet_approved' ) ;
#160 = CARTESIAN_POINT ( 'NONE',  ( -1.399999999999999911, 0.000000000000000000, 11.00000000000000000 ) ) ;
#161 = PERSON_AND_ORGANIZATION ( #109, #11 ) ;
#162 = CC_DESIGN_PERSON_AND_ORGANIZATION_ASSIGNMENT ( #16, #141, ( #90 ) ) ;
#163 = DATE_AND_TIME ( #66, #126 ) ;
#164 = PRODUCT_DEFINITION_SHAPE ( 'NONE', 'NONE',  #90 ) ;
#165 = DATE_TIME_ROLE ( 'classification_date' ) ;
#166 = CARTESIAN_POINT ( 'NONE',  ( 0.000000000000000000, 0.000000000000000000, 11.00000000000000000 ) ) ;
#167 = CC_DESIGN_APPROVAL ( #60, ( #90 ) ) ;
#168 = AXIS2_PLACEMENT_3D ( 'NONE', #73, #49, #102 ) ;
#169 = DIRECTION ( 'NONE',  ( 1.000000000000000000, 0.000000000000000000, 0.000000000000000000 ) ) ;
#170 = CC_DESIGN_PERSON_AND_ORGANIZATION_ASSIGNMENT ( #50, #38, ( #142 ) ) ;
#171 = EDGE_CURVE ( 'NONE', #31, #32, #54, .T. ) ;
#172 = ORIENTED_EDGE ( 'NONE', *, *, #117, .T. ) ;
#173 = DATE_AND_TIME ( #15, #106 ) ;
#174 = CARTESIAN_POINT ( 'NONE',  ( 0.000000000000000000, 0.000000000000000000, 0.000000000000000000 ) ) ;
#175 = SECURITY_CLASSIFICATION_LEVEL ( 'unclassified' ) ;
ENDSEC;
END-ISO-10303-21;
